<svg id="Layer_1" data-name="Layer 1" xmlns="http://www.w3.org/2000/svg" viewBox="0 0 512 512"><defs><style>.cls-1{fill:#202020;}</style></defs><path class="cls-1" d="M424.37,83.79c.72.41.75-.27-.94-1.69l-1.71-.47Z"/><path class="cls-1" d="M414.47,72.67c-2.25-1.37-5-2.74-4.19-1.08,2.47,1,2.72,1.68,5.46,2.74,1.71,1.41,2.65,2.81,2.18,2.78.71.37,2.38,2.46,3.6,2.89a24,24,0,0,0-3.17-3.65c-.64-.6-1.31-1.19-2-1.77S414.8,73.5,414,73C413.48,72.32,414.23,72.66,414.47,72.67Z"/><path class="cls-1" d="M212.81,16.25l1.39-.15A11.87,11.87,0,0,0,212.81,16.25Z"/><path class="cls-1" d="M93.19,74.19c.76-.7,1-1,1-1.13C93.52,73.73,93,74.28,93.19,74.19Z"/><path class="cls-1" d="M76.14,89.71l1-1A4.88,4.88,0,0,0,76.14,89.71Z"/><path class="cls-1" d="M212.81,16.25l-3.59.38C209,16.94,211.07,16.5,212.81,16.25Z"/><path class="cls-1" d="M389.7,56.27a16.39,16.39,0,0,0,1.71.91l-1.54-1A.43.43,0,0,1,389.7,56.27Z"/><path class="cls-1" d="M271.9,12.25l1.09.07a8.6,8.6,0,0,0,.94-.28Z"/><path class="cls-1" d="M316.93,19.29c-1-.29-1.51.3-2,.5a5.88,5.88,0,0,1,2.29.1C317.3,19.76,317.21,19.57,316.93,19.29Z"/><path class="cls-1" d="M382.72,48.42l1.14.58Z"/><path class="cls-1" d="M239.26,12.13a1,1,0,0,0-.44-.21C238.83,12,239,12.07,239.26,12.13Z"/><path class="cls-1" d="M456.06,124.89c.06,0,.06-.06.1-.08C456,124.63,455.87,124.59,456.06,124.89Z"/><path class="cls-1" d="M425.66,82.47l.53.5a.93.93,0,0,0,.39-.17Z"/><path class="cls-1" d="M49.42,122.5l.12-.15C50.1,121.39,49.76,121.92,49.42,122.5Z"/><path class="cls-1" d="M125.46,463.81c-3.42-2.82,6.52,3,1.25-1C127.1,463.37,121,460.61,125.46,463.81Z"/><path class="cls-1" d="M388.79,55.54l-1.53-1C387.94,55,388.41,55.32,388.79,55.54Z"/><path class="cls-1" d="M126.71,462.81h0l-.55-.41Z"/><path class="cls-1" d="M14.3,213a3.62,3.62,0,0,0,.46-.93C14.68,212,14.56,212.25,14.3,213Z"/><path class="cls-1" d="M38.21,144.73l-.86,1.57C37.72,145.69,38,145.18,38.21,144.73Z"/><path class="cls-1" d="M11.61,250.5a14.11,14.11,0,0,0-.09,2.63,3,3,0,0,0,.09-.4A7.25,7.25,0,0,1,11.61,250.5Z"/><path class="cls-1" d="M13.85,289.51c0-.21,0-.49.05-.73s-.13-.83-.2-1.23Z"/><path class="cls-1" d="M494.43,233.55a7.47,7.47,0,0,1,.49-1.83C494.47,232.36,493.83,226.77,494.43,233.55Z"/><path class="cls-1" d="M389.9,55.94a2,2,0,0,1-1.11-.4l1.08.69C390,56.21,390.09,56.14,389.9,55.94Z"/><path class="cls-1" d="M17.13,252.18,17,258.25C17,256.55,17.1,254.34,17.13,252.18Z"/><path class="cls-1" d="M374.36,464.36l1.17-.77A6.24,6.24,0,0,0,374.36,464.36Z"/><path class="cls-1" d="M18,276.26a22.78,22.78,0,0,0-.2,3.45,3.07,3.07,0,0,0,.24.69Z"/><path class="cls-1" d="M494.92,231.71h0Z"/><path class="cls-1" d="M485.92,192.67c1.55,5.56,1.61,2.38,2.46,3.43,1.83,6.7.06,3.29.13,5.69.61,2.07,1.3,3.87,1.94,5.55a33.35,33.35,0,0,1,1.32,4.86c-.11.27,0,.89-.37.2a35.5,35.5,0,0,1,1.06,4c.15.78.32,1.58.49,2.41s.24,1.7.36,2.56a77.37,77.37,0,0,0,1.78,9.61,2.14,2.14,0,0,1-.17.72c.39-.91.85-1.09,1.2-1,.23,2.61,1,4.8.46,5.84a5.93,5.93,0,0,0-.62-2.45l.49,2.71c-.66,2.53-.61-3.71-1.25-3.65.36,2.65.85,5.51,1.26,8.23a56.55,56.55,0,0,1,.45,7.35c-.82.88-.62-9.55-1.18-4.06l0-3.17-.1-3.16c-.94,4.9-.22-3.82-1.29.69.07,1,.13,1.95.18,2.79s.06,1.58.09,2.27c.08,1.38.17,2.54.27,3.69s.18,2.31.26,3.69a45.14,45.14,0,0,1,0,5.06c.45,1.87.7-.61,1.15,1.26a40.18,40.18,0,0,1,0,6.56,19.23,19.23,0,0,1-.84,3.55,16.48,16.48,0,0,0-.87,7.75c.38,2.27,1.31,3.25.09,9.33l-.72-2.2a26.71,26.71,0,0,0-.19,6.39c.09,1.21.1,2.48-.87,6.6-.14-1.55.66-6.3.36-5.12-1.59,5.27-.06,3.9-.71,8.05-.32.24-.65.48-1,.71-.4,2.1-.78,4.25-1.16,6.46s-.69,4.46-1.22,6.71c-1,4.5-1.87,9.18-3.3,13.71-.09-.58.14-2.2-.77-.16q-.58,2.16-1.23,4.38l-.66,2.22c-.27.73-.53,1.47-.8,2.2-1.07,2.95-2.19,5.92-3.35,8.86s-2.61,5.75-3.91,8.54c-.32.69-.63,1.39-1,2.07l-1.06,2c-.71,1.31-1.4,2.61-2.08,3.88l-1.25,4.29c-.45.92-1.18,1.52-.77.49-2.39,3.81.3.42-.47,2.45-1.18,2.27-2,2.77-1.41,1.24-2.93,7.4-10.35,20.17-15.79,26.57l.74-1.47c-.5.64-.89,1.25-1.27,1.79s-.7,1-1,1.5c-.56.94-1,1.76-1.37,2.57a19.47,19.47,0,0,1-3.73,5.37l.6-1c-4.55,5.42-9.25,11.21-14.13,16.27-1.2,1.28-2.37,2.56-3.56,3.77s-2.44,2.29-3.62,3.37-2.34,2.12-3.47,3.09a35.66,35.66,0,0,1-3.34,2.66c-.41,1.06-3.12,3.29-5.68,5.45l-3.5,3c-.95.85-1.56,1.57-1.51,2-3.4,2.23-4.67,2.93-6.25,3.9s-3.59,2.07-8.33,5.17c-2.47,1.74-3.23,3.28-6.3,5.46l-.49-.6-3.86,3.43c-.91.24-1.86.42-2.8.6l-3,1.92c1.24-.66,2.76-1.18,2.69-.89a65.06,65.06,0,0,1-7.71,4.21,16.55,16.55,0,0,1-4.57,1.52l-5.64,3.23c-1.87,1.08-3.84,2-5.76,3,.14-.4,2.08-1.39,3.56-2.27-6,3.55-1.48-.22-7,3,.84-.18-.24.61-.31.82-.78.2-1.74.59-2.89,1s-2.43.84-3.77,1.34-2.74,1.05-4.1,1.61-2.7,1.12-4,1.56l.79-.82c-2.29.73-4.62,1.51-7,2.33-1.19.4-2.38.84-3.6,1.23l-3.72,1.11c-2.5.73-5,1.53-7.6,2.23l-7.83,1.86c3.82-.63,3.17.47.09,1.27l-1.41-.51c-1.9,1,3.3-.45-.68,1.1-4,.68-2.85-.4-.63-1.08l-4.77,1.16c-.33-.19.78-.52,1-.88-1.9.83-8.43.78-11.18,1.92l-.31-.21-7.06,1c-2.1.26-4,.41-5.81.61l-5.44.56c-1.85.17-3.81.21-6,.32-.15.71-3.59.67-6.21,1.33-3.24-.15-6.66-.39-10.24-.59q-1.34-.06-2.7-.21l-2.77-.26c-1.87-.16-3.77-.3-5.72-.4-1.37,0-2.16,0-2.61,0s-.56.1-.58.18.3.35-.94.43c-.35-.68-8.1-1.46-4-1.49-2.32-.25-4.24-.35-6-.62l-4.92-.68-5.39-.67-7.31-1.2c1.2.52,2.6.92,1.82,1-2.13-.33-4.75-1.25-4.38-1.49l.58,0a101.77,101.77,0,0,1-20.78-6.07c-3.46-1.21-6.72-2.71-9.83-3.88-1.54-.6-3-1.15-4.48-1.61s-2.76-1-4-1.36l.57.17-5.19-1.81c-.87-.3-1.74-.59-2.6-.91l-2.55-1c-4.51-2.29,2.93.87-.26-1.11-2.78-1-5.22-2.07-7.46-3.09s-4.17-2.25-6.09-3.33c-1-.55-1.9-1.09-2.85-1.62l-1.42-.8-1.4-.86c-1.87-1.14-3.83-2.26-6-3.38a23.38,23.38,0,0,0-2.56-2.19c-1-.82-2.1-1.68-3.32-2.56s-2.54-1.81-3.92-2.74-2.84-1.87-4.23-2.94c-2.82-2.07-5.75-4.14-8.39-6.21a81.89,81.89,0,0,1-6.62-6.09l.16.72C98,436.21,98,435.35,96.7,434c0,.44,1.83,2.24.47,1.31-2.08-1.85-4.17-3.73-6.25-5.65-1-1-2.12-1.88-3.09-2.92l-3-3.07c-1-1-2-2.08-3-3.11s-2-2.07-2.91-3.19l-5.57-6.62L72,409l-1.3-1.73-2.6-3.48c-1.73-2.31-3.5-4.6-5.06-7s-3.23-4.77-4.83-7.15-3-4.88-4.47-7.31A19.93,19.93,0,0,0,49.41,377c-1.12-1-2.28-2.37-4.43-7.2L47.19,372c-.58-.88-1.16-1.76-1.71-2.67l-1.55-2.77q-1.53-2.81-3-5.64c-1-1.87-1.85-3.86-2.75-5.8l-2.62-5.87c-1.61-4-3.12-8-4.67-11.9q-1-3-2.11-6l-1.09-2.94c-.37-1-.74-1.94-1.05-2.92a10,10,0,0,1,1.18,2.38c-.15-.87-.42-2.08-.76-3.41s-.79-2.76-1.23-4.08c-.88-2.65-1.78-4.86-2-4.83-.52-2.52.3-.69.18-2.29a33.79,33.79,0,0,0-1.5-5.73c-.6-1.9-1.14-3.61-1-4.59,0-.33.35.93.53,1.54-.71-2.17-1.81-10.43-2.11-8.17-.45-3.07-.86-6-1.29-8.77-.22-1.39-.43-2.74-.6-4-.08-.65-.16-1.3-.22-1.94s0-1.27,0-1.89c-1-3.15-.58-10.58-1.59-11.55,1.18.38.42-10.87.12-14.81.32,1.32.4-3.4.85-1.85,0-4.46.11-8.55-.54-7.8.94-4.08.83-8.22,1.08-11.9.09-1.85.18-3.58.38-5.13a20.68,20.68,0,0,1,.41-2.18,8.69,8.69,0,0,1,.75-1.81c.38-3.3.74-6.54,1.11-9.73.53-3.16,1.05-6.27,1.57-9.35.14-.77.26-1.53.41-2.29s.34-1.51.5-2.26c.34-1.51.68-3,1-4.49l1-4.43c.41-1.45.83-2.9,1.24-4.34.23.18.11,1.07-.18,2.29-.14.61-.33,1.3-.54,2s-.38,1.52-.57,2.29c-.76,3.1-1.49,6.08-.85,6,.6-2.76,1.08-5.25,1.53-7.6s1.06-4.49,1.59-6.67c.27-1.08.55-2.17.83-3.27.14-.54.29-1.1.44-1.66l.55-1.67c.75-2.25,1.61-4.63,2.64-7.25s-.11,1.73-.27,2.72c.45-1.35.89-2.68,1.32-4s1-2.59,1.52-3.86l3.14-7.47c1.14-2.4,2.28-4.76,3.36-7.11.54-1.18,1.06-2.36,1.59-3.52s1.1-2.3,1.65-3.43a8.76,8.76,0,0,1-.75,2c.91-1.76,2.35-4,1.79-4l-.8,1.77c-2.18,2.46,2.39-7.71,2.26-8.22-.49,3.63,5.53-8.36,4.32-2.81.6-1.17,1.25-2.7.8-2.62,1.1-1.61,1.59-2,.89-.14.87-1.55,1.41-2.61,1.79-3.39s.64-1.27.87-1.76a28.58,28.58,0,0,1,2.72-4.53c.2.16-.46,1.29-.59,2a42.08,42.08,0,0,1,6.36-10.22c-.08.35.46,0-.53,1.26,1.4-1.88,2.64-3.66,3.82-5.41l.87-1.31.92-1.24,1.83-2.49c1.22-1.66,2.48-3.33,3.87-5.06a31.85,31.85,0,0,1,2.29-2.58c.81-.86,1.68-1.75,2.6-2.65-1.28,3,2.65-2.33,3.69-2.08.6-.71,1.18-1.43,1.8-2.11l1.88-2-1.92,1.23c1.75-1.68,3.27-3.39,4.76-5A32.78,32.78,0,0,1,94,77.7L92.76,79,91.6,80.43c1.05-1.1,2.18-2.11,3.3-3.13l3.36-3.07-4.11,3.14c3.38-3.61-1.19-.53,3.86-4.62-.92,1,3.64-3.27,6-4.34h0a41.44,41.44,0,0,1,6.42-5.57c.92-.35,0,1.29.63,1.07.7-1.05,3-2.71,5.35-4.47a57.29,57.29,0,0,0,5.79-4.7c-.73.7-.5,1.14-.17,1l1.33-1.6c2-1,2.34-1.14,2.24-.62,5.76-3.55-2.45.17,4.6-3.74A14.85,14.85,0,0,1,129,50.92c7-4,13.28-8.25,20.09-11.26,2.37-.15-5.67,3.14-3.08,2.72,9.32-5.17,19.59-10.38,29.41-13.73l-1.87.52c.45-.86,2.35-1.31,4.71-1.84a43,43,0,0,0,7.6-2.19c-1.21.43-1.39,1.18-1.11.93,3.44-.88,6.9-1.92,10.78-3.19,1.95-.59,4-1.13,6.27-1.77l3.47-1,1.84-.51c.63-.16,1.27-.29,1.93-.44l-1.24.57c2.08-.22,4.79-.66,7.55-1.13,1.37-.22,2.75-.51,4.08-.67s2.59-.31,3.72-.42c1.28-.51,3.85-.79,2.23-1.08,1.76,0,3.48-.06,5.18-.14s3.39-.12,5.05-.25c3.32-.26,6.56-.72,9.78-.91l4.79-.39a46.89,46.89,0,0,1,4.73-.2,67.18,67.18,0,0,1,9.33.61c-1.47,0-3.52.26-2.35.27l2.63,0c.88,0,1.75,0,2.62.06l5.26.16c-.79-.63-1.35-.43-3.54-1a34.27,34.27,0,0,1,7-.19c-2.38,0-2.39.28-1.55.55s2.53.58,3.53.88c-.33-.21.39-.33.23-.53,5.37,1.62,1-1.05,8.46.45l-.44.26,2.09.07,2.06.15a40.45,40.45,0,0,1,4.29.53c1.14.86-3-.16-3.29.36,4.2.64,8.55,0,12.2,1.5-1.81-.19-4.36-.74-6.19-.79,1,.36,1.79.61,2.44.83s1.19.39,1.69.53c1,.27,1.88.43,3.39.81l-.29-.08c2.32.62,4.65,1.17,7,1.84-.58-.24-1.16-.42-1.74-.62,2.79-.28,5.43.39,8.29,1.1,1.43.37,2.91.76,4.49,1.13a41.55,41.55,0,0,0,5,1.06c-7-1-1.28.26-2,.83,1.69.74,4.27,1.79,3.45,1.76a17.14,17.14,0,0,1,4.5,1.31A22.15,22.15,0,0,0,338.83,30c.12.31,3.39,1.27,2.46,1.58,4.19,1.32-.82-.75-.37-.92,3.37.7,6.92,2.59,10.85,4.45l3,1.42c1,.52,2,1,3.08,1.55a62,62,0,0,0,6.64,2.76c1,.39,1.84.79,2.63,1.14l2.18.94c1.35.56,2.51,1,3.65,1.45s2.27.88,3.56,1.41,2.66,1.3,4.39,2.23c2.07,1.72-2.3-.36-2.3-.36,1.73,1.26,3.28,2.3,4.85,3.25s3.19,1.78,4.9,2.83c-.79-.28-.19.34.67,1.26,2.69,1.75,2.28.47,5.59,3.16a16.16,16.16,0,0,1-3.22-1c1.63,1,3.29,1.89,4.95,2.82s3.25,2,4.88,3.13c.58,1-2.27-.91-3.54-1.52,3.62,2.51,9.37,6.54,10.77,7l-2-2c1.26,1,.29,1-.72.34-3.34-1.87-4.21-3.48-4.24-3.81l2.33,1.57c-.71-1.43-3-3.1-5.66-4.82-1.3-.9-2.81-1.66-4.21-2.49s-2.77-1.63-3.93-2.44l2.53.46-5.27-2.54c-.43-.47-.77-.91-.67-1.09s.62-.09,1.81.65A10.64,10.64,0,0,0,386.54,51a11.54,11.54,0,0,0-1.26-.67,10.54,10.54,0,0,1-2.78-1.84c-.29-.28-.11-.23.22-.08l-3.56-1.8c.78.21-.19-1,1.82.42a34.86,34.86,0,0,0-4.09-2.62c-1.3-.67-2.49-1.21-3.55-1.69a16.81,16.81,0,0,1-4.74-2.66l.55.23c-1.11-.55-1.95-1-2.62-1.26s-1.13-.44-1.46-.54c-.65-.2-.74-.11-.76,0s.14.71-3.39-.48l-3.7-3.87-1.2.27c-.92-.44-2.76-1.26-2.29-1.4-3.72-1,.46.56-1.77.15a57.66,57.66,0,0,0-8-3.58c-2.74-1-5-1.86-5.33-2.62-1.85-.06,4.27,2-.8.61-.48-.87-1.93-1.34-3.75-1.85A31.92,31.92,0,0,1,328,23.91c1.51-.23,5.48,1.37,1.36-.54-1.47.15-3.53-.56-5.71-1.42a43.22,43.22,0,0,0-6.37-2.06c-.2.41-2.22,0-5-.7s-6.3-1.37-9.43-1.89c.47-.32-11.7-2.66-17.57-3.6l.19-.13c-.62.39-2.45.38-4.67.23-1.12-.07-2.33-.18-3.54-.28s-2.43-.12-3.54-.15c.21-.53,1-.73,3.46-.78-1.39-.13-2.79-.18-4.19-.27a21.22,21.22,0,0,1-5,.25L269,12c-1.39-.08-2.79-.12-4.22-.12l-4.4.17c-1.5.05-3.06.09-4.68.08l-2.5-.06c-.85,0-1.73,0-2.62,0-.38.66,5.7,1.59-1.82,2.28-.29-.34-.59-.92,1.39-1.13a19.65,19.65,0,0,1-3.61.27l3-.69c-3.27-.14-1.69.54-4.29.58,0-.49-1.95-.28-1.59-.69a23.7,23.7,0,0,0,3.27-.1c-1.47,0-3.1,0-4.51-.11a26,26,0,0,1-3.2-.27c.27.26,0,.67-2.1.91-5.55.5-1.95-.44-5.23-.42-1.32.4-4.89.52-4.89,1.27a5.3,5.3,0,0,1-2.61-.21c-1.41.38-4.77.76-7.32,1.29s-4.33,1-2.67,1.1l.74-.08-.46.12h0c-2.29.6-4.64,1.09-7,1.52l-7.17,1.46a110.78,110.78,0,0,0-14,3.48l0-.24c-2.68.83-5.58,2-8.33,2.93a49.92,49.92,0,0,0-7,2.93c-1.54.6-3.8,1-3.24.47-2,.86-3,1.4-4.34,2s-2.85,1.19-5.76,2.27c3.76-2.16-1.51.25,3.91-2.1-5.16,2.1-6.51,2.21-11.65,5.34,1.55-1.5-4.09,1.19-6.37,2.56l3.69-1.37c-2.62,1.43-5,2.56-7.34,3.72l.88-1.39a30.75,30.75,0,0,0-3.78,1.83c-1.19.65-2.34,1.33-3.45,2a75.15,75.15,0,0,0-6.23,4.21c-1.93,1.45-3.8,2.82-5.7,4-1,.61-1.92,1.16-2.88,1.72A29.17,29.17,0,0,1,115.87,55c-2.13,2.23,5.28-3.26,3.47-1.13-4.32,3-9.49,5.15-10.82,6.13a24,24,0,0,0-5.25,4.67c-.58.66-1.16,1.33-2,2.11-.41.39-.87.81-1.43,1.27s-1.15,1-1.89,1.6c.92-.41,2.1-.4-1.92,3.5-4,3.36-5.67,3.33-3.33,1,.93-.85,1.45-1.18,1.47-1.07,1.2-1.2,2.8-2.77,1-1.64l-.32.68c-1.08.74-3,2.32-4.48,3.52S87.9,77.76,88.33,77c-2.66,3-.88,1.54,1.33-.4-2.56,2.2-4.45,4-6.35,5.9-.94.94-1.93,1.84-2.91,2.89s-2.05,2.16-3.29,3.38c.87-.7,1.82-1.2,1.07-.4-3.6,3.6-4.26,4.52-4.59,5.17a8.79,8.79,0,0,1-.58,1.1,24.1,24.1,0,0,1-1.92,2.62c-2.86,2.7.08-1.77-4.09,3.79-3,3-1.19.19-.29-1.26-.91,1.3-1.86,2.5-2.81,3.63s-1.78,2.23-2.65,3.22c-1.72,2-3.31,3.66-4.45,5.07l1.83-2.81c-1.09,1.69-2.11,3-3.08,4.34.51-.42,1.07-.8,1.61-1.2-.64.75-1.19,1.47-1.58,2s-.69.81-.78.73c-.82,1.89,1.68-.71-.14,2.9a47.14,47.14,0,0,0-2.88,4.16c-.49.73-1,1.42-1.39,1.94a2.75,2.75,0,0,1-1,1c.55-.86,1-1.49,1.29-1.94a7.17,7.17,0,0,0,.57-.94c.18-.37,0-.3-.21-.21-.43.18-1,.47.93-2.45a45.91,45.91,0,0,1-2.79,4.1c-.23.2,0-.33.27-.8-4.75,6.34-1.15,3.57-5.41,10.51.07-.56-.35-.26-.88.33a10.47,10.47,0,0,0-1.35,2.1c1.58-2.89,1.39-1,.25,1.8-2.79,4.42-2.48,5.11-3.82,7.49l1.63-2.67a8.69,8.69,0,0,1-.94,2.53c-.52,1.12-1.15,2.55-1.88,4.21-.45.12,1.21-3.08.51-2a24.26,24.26,0,0,1-3,6.08c-.62,1.08-1.35,2.16-1.91,3.37a29,29,0,0,0-1.53,3.82c-1.29,2.28-.87-.1-1.95,1.94a45.9,45.9,0,0,1-2.5,6.15,35.63,35.63,0,0,0-2.46,6.42c1.22-1.6,1.2-1.95.15,2.62l3.34-10.39-1.58,6.88c.56-1.55,1.07-3.21,1.53-4.71A24.55,24.55,0,0,1,29,165.27a13.93,13.93,0,0,0-.55,2.52c0,.15.28-.27.78-.91a24.86,24.86,0,0,0-2.46,6.31,55.8,55.8,0,0,1-2.33,6.92l-1.36-.61a53.63,53.63,0,0,0-1.83,5.34c-.26.88-.49,1.76-.72,2.65-.12.45-.23.9-.34,1.35s-.18.91-.28,1.38c-.36,1.86-.73,3.78-1.19,5.86s-1.07,4.27-1.62,6.75c.32-1,.57-2.1.95-3.13.22,1.45-1.22,6.15-1.67,9.41-.42-.39-1,1.59-1.59,2.91.39-.1-1.19,7.37-.36,8.42-.43,1.46-1,2.92-1.29,4.4-1.13,8.15.27,9.44-.3,17.26-.4-2.4-1,1.16-1-4.14-.16,2.63-.39,5,0,5a22.5,22.5,0,0,0-.09,4.53,23.8,23.8,0,0,1,0,5.19,11.56,11.56,0,0,1,.64,4.42c-.11.32-.25,0-.25,0a11.16,11.16,0,0,1,.32,2c.15.82.33,1.33.56,0-1.37,8.12,1.11,22.52,1,29.61.23,1.42.46,2.9.7,4.42s.61,3,.91,4.56c.63,3,1.15,6,1.73,8.55-.22-.29-.25,0-.42-.93,1.18,7.1,2.33,4,3.74,12,.18,2.1-.21,1.09-.61-.13s-.66-2.67-.53-1.37c-.7.76.07,3.12,1,6a66.41,66.41,0,0,1,2.55,9l-.51-1.24c.85,4.16,3.72,9.6,6.23,16,0,0-.26-.26-.25.05.62,1,1.31,2.3,2,3.73s1.59,3,2.4,4.59c1.7,3.22,3.27,6.75,5,9.6-1.5-1.55-1.66-2.53-1.68-1.13,1.43,2.6.55-1.22,3.38,3.95.57,1.85,2.17,5.82,1.91,6.61-1-1.6-1.73-3.29-2.61-4.94a14.29,14.29,0,0,0,2,4.66c1,1.53,2.07,3,2.73,4.34l-.52-.14c4.31,7.42,5.38,6.9,10.23,14.68l-.26-1a14.06,14.06,0,0,1,2.74,3.7,12.6,12.6,0,0,0,2.66,3.74l.08,1.81c.53.64,1.27,1.51,2.12,2.54l3.05,3.31L67,409.46c1.1,1.24,2.16,2.47,3.2,3.53a41.18,41.18,0,0,1-5.06-4.82l-5.27-5.62c2,2.61,7,8.73,8.43,9.76a24.8,24.8,0,0,1-2.82-3.25,130.7,130.7,0,0,1,11.16,11.3c-1.14.26,1.74,3.41,5.19,7s7.68,7.51,8.89,9.71c1.13.93,2.22,1.88,3.32,2.82s2.27,1.82,3.38,2.76c2.25,1.85,4.43,3.83,6.74,5.75l7.21,5.75c.62.49,1.24,1,1.89,1.47l2,1.4q2,1.4,4.12,2.81c-3.14-3.94,3.29,2.19,3.44.44,1.31.86,2.26,1.39,2.88,1.77a5.25,5.25,0,0,1,1,.72c2.55,1.9,5.09,3.84,7.68,5.72.89.73.18.46-.72,0s-2-1.06-1.95-.83l2.9,1.87a3.7,3.7,0,0,1,.9.79c.28.38.29.65,2.21,1.93-.56-.93,2.49.46,5.87,2.53L139,471.57a42.18,42.18,0,0,1,4.93,2.49c1.19.72,2.08,1.28,2.94,1.89A33.28,33.28,0,0,0,155,480.1l-3-.9c2.29,1,6.57,2.77,10.86,4.46l3.19,1.22c1.07.34,2.1.65,3.08.93a31.58,31.58,0,0,0,4.94,1.09c.77.47,1.73,1.26-.38.61,11.25,4.19,25.74,6.63,34.7,8.95l-1,.18c2.21.32,3.91.17,6.61.93-.17.13-1,.23.06.41a59.12,59.12,0,0,1,8.83.95l-2.55,0a53.75,53.75,0,0,0,7.79,1c2.37.18,4.55.27,6.67.32s4.19-.11,6.33-.14,4.35,0,6.78,0c0,.55,2.24,1,5.09,1.23a79.53,79.53,0,0,0,8.6.45l-.16.16c3.4-.1,6.54-.22,9.53-.45s5.82-.7,8.61-1.08,5.54-.94,8.36-1.45,5.72-1,8.78-1.71a70.4,70.4,0,0,0,7.58-.77c3-.45,6.36-1.27,9.88-2l2.66-.59c.89-.22,1.77-.48,2.66-.72l5.31-1.44c3.53-.87,6.87-2,9.9-2.81-1.89.42,0-.91,2.09-1.72,2.9-.64,7.32-3.56,7.26-2.42l-1,.36c2.4.09,8-2.22,12.29-4.23l.18-1.53a51,51,0,0,0,9.67-3.74c1.67-.82,3.35-1.69,5-2.57.84-.45,1.68-.88,2.49-1.35l2.39-1.45,8.74-5.29a33.41,33.41,0,0,1,6.4-3.37c1.15-1,2.55-1.86,3.84-2.92s2.62-2.06,3.72-3.05l.28.67,4.61-3.15c1.42-1,2.65-2,4-3l4.2-3.33,2.42-2L416,442.5l-1.23,1.76a19.9,19.9,0,0,0,4.19-5c.49-.78,1-1.54,1.56-2.34a28.36,28.36,0,0,1,2.24-2.54l1.87-.34c1.79-1.75,3.64-3.47,5.49-5.17l1.39-1.28,1.33-1.35,2.64-2.7c1.75-1.81,3.51-3.61,5.14-5.52s3.09-3.94,4.49-6c0,.22.06.64-.95,1.92,3.23-3.46,11.85-14,9.67-13.46.94.55,6-8.42,8.63-13.15l.15,1.09a48.34,48.34,0,0,1,4.58-10.18c.85-1.25,1.17-.85,0,.77a13.46,13.46,0,0,0,1.46-2.42,16.5,16.5,0,0,0,.67-1.66,23.32,23.32,0,0,1,2.45-4.81l-.69,2.21c2.49-4.54,2.17-4.25,2.92-7.05,1.14-3,4.41-8.73,5.28-9.18a17,17,0,0,1,1.89-6.34c.38-.29.09.79-.06,1.33,1-1.94,1.69-3.68,2.31-5.26s1-3.08,1.4-4.46a51.75,51.75,0,0,1,2.85-7.88c.26,0,.48-.38.7-.83-.48,1.65-1.09,3.18-1.59,4.56l-1.36,3.65c-.76,2-1.21,3.21-1.14,3,.59.23,2.61-5,1.92-.49.54-2.19,1.22-5.18,2-8.22a74.09,74.09,0,0,1,2.42-8.8,3.06,3.06,0,0,1,.43-.62l-.1.55a19.09,19.09,0,0,0,.9-3.3c.54-1.65.89-2.7,1.31-4.3.34-.25.81-1.78,1.28-3.58l.7-2.79c.23-.91.36-1.78.52-2.46-.73.07.11-3.46-1.14-.26.13-.42,0,.54-.39,2.34-.08.41-.19.88-.22,1.16v-.2c-.44,1.77-1,4.06-1.68,6.68a24.67,24.67,0,0,1,1.62-7.36c-.08-1.48-.27-3.11-.29-4a68.88,68.88,0,0,0,2.61-6.68c.43-1.15.76-2.24,1-3.09a7.15,7.15,0,0,1,.72-1.7c.24-2.11.53-4.39.83-6.73.17-1.16.27-2.34.36-3.52s.17-2.35.26-3.49c.15-2.3.28-4.49.3-6.45a34.54,34.54,0,0,0-.45-5,7,7,0,0,1,.81-3.61c.05,1.39-.07,3,.07,3.79,0-1.2,0-2.69.08-4.27,0-.79.06-1.59.08-2.4s0-1.61,0-2.39c-.06-3.1-.21-5.74-.66-6.31.24-3,.45-2.17.58-1.61.07.29.12.5.15.12a28,28,0,0,0-.06-3.42l.32,1.12a84.94,84.94,0,0,0-.13-11.36c-.42-3.53-1-6.88-1.53-10.27s-1.39-6.8-1.93-10.52c-.24-1.86-.61-3.77-.89-5.79s-.52-4.15-.69-6.43a7.25,7.25,0,0,1,.06,2.17c-.18-1.28-.35-2.56-.58-3.84s-.53-2.55-.8-3.83c-.55-2.55-1.11-5.12-1.74-7.68s-1.47-5.08-2.21-7.62c-.39-1.27-.73-2.55-1.15-3.81l-1.31-3.75c-.89-2.5-1.72-5-2.62-7.49s-1.93-4.9-2.86-7.35c-.48-1.22-.9-2.45-1.4-3.66l-1.5-3.59c-1-2.4-1.91-4.8-2.82-7.19-2.39-5.29-3.2-5.59-5.2-8.52l.1-1.47c-1.2-1.65-2.5-3.23-3.74-4.84a43.85,43.85,0,0,1-3-5.28c-.91-1.74-1.79-3.45-2.69-5.25s-1.89-3.62-3.06-5.55a49.46,49.46,0,0,0-4.53-5.85l.4,1.44c-1.11-1.6-2.91-4.1-4.45-6.08s-2.74-3.52-2.31-3.44a5.37,5.37,0,0,1-1.95-2l.24-.34c-1.09-1.17-2.14-2.37-3.25-3.52l-3.41-3.37c-2.33-2.87-1.85-2.91-1.67-3.26.09-.17.11-.42-.34-1.14a24.1,24.1,0,0,0-3.25-3.88c-2.93-2.8-8.82-7.42-7.95-6.15,1.12,1.18,2.72,3.14,2.52,3.51L426.19,83c-1.29.35-4-.78,1.57,6.16l4.83,3.94.9,1.88c-1.13-1.32-2.36-2.54-3.58-3.77A16.75,16.75,0,0,0,432.38,94c.8.76,1.6,1.37,2.41,2A6.46,6.46,0,0,0,436,98.45l4.85,3.85c.06.43-.54,0-.87,0s-.33.13.82,1.82c2.17,1.9-.91-2.8,2.29.69,1.43,2.66.55,2.24,3.07,4.69.06.57-.55.1-1.5-.89a54.11,54.11,0,0,1,3.58,4.12,17.32,17.32,0,0,0,2.9,3.24,40.52,40.52,0,0,0,3.45,5.33c1.21,1.82,2.07,3.37,1.54,3.53a54.5,54.5,0,0,1,5.24,6.49c-2-1.83-.49.38,1,3.14s3.29,5.88,2.33,5.63a15.16,15.16,0,0,1,2.41,3.11c.81,1.35,1.69,3,2.58,4.65l2.74,5.21c.84,1.76,1.69,3.46,2.54,5a5.53,5.53,0,0,1-.91-1.49c1.47,3.54,1.6,4.69,2.4,7,1.08.07,3.45,5.55,5.2,8.34.82,4.71-2.12-2.25-2.43-.56.32-.24,1.27,1.57,2.08,3.26s1.46,3.27,1.52,2.4c.59,3.6.72,3,.53,5,1.35.23,1.32,3.08,2.8,5.74.83,5.18-.75,1.61,1.16,7C487.71,197.42,485.92,192.67,485.92,192.67Zm.15,133.77h0c.34-1.12.62-2.08.8-2.69C486.69,324.3,486.46,325.08,486.07,326.44Zm-3.59,10.86c.49-1.31,1.12-2.92,1.71-4.66.33-.32.49.19.06,1.27C484.31,333.27,483.26,335.76,482.48,337.3Zm11.73-22c-.36,1.81-.65,2.38-.85,2.58.2-.84.43-1.84.72-3.14a1.81,1.81,0,0,0,0-.23A1.77,1.77,0,0,1,494.21,315.32Z"/><path class="cls-1" d="M494.14,311.89c.05-.26.07-.41.12-.75-.14.35-.27.69-.41,1,0,.23,0,.47.06.68C494,312.53,494.07,312.19,494.14,311.89Z"/><path class="cls-1" d="M214.44,16.07l-.24,0a2.85,2.85,0,0,1,.52,0C214.55,16.1,214.55,16.08,214.44,16.07Z"/><polygon class="cls-1" points="385.03 457.5 385.14 457.64 385.89 456.97 385.03 457.5"/><path class="cls-1" d="M277.77,15.87a2.34,2.34,0,0,0,.81.27A3.78,3.78,0,0,0,277.77,15.87Z"/><path class="cls-1" d="M304.7,20l3.73,1C306.82,20.59,305.65,20.28,304.7,20Z"/><path class="cls-1" d="M324.93,25.46a1,1,0,0,0,.47-.16l0,0Z"/><path class="cls-1" d="M43.09,145.6c-.14.25-.26.5-.36.72C42,148.06,42.51,146.89,43.09,145.6Z"/><path class="cls-1" d="M104,68.42c-.75.76-1.48,1.5-2.29,2.24C103.17,69.61,104.25,68.77,104,68.42Z"/><path class="cls-1" d="M17.15,251.51h0v.68Z"/><path class="cls-1" d="M98.27,73.7a30.11,30.11,0,0,0,3.48-3A45.33,45.33,0,0,0,98.27,73.7Z"/><path class="cls-1" d="M404.75,67.27l.78.63c0-.05.09,0,.16,0Z"/><path class="cls-1" d="M405.69,67.88l.91.66A4.12,4.12,0,0,0,405.69,67.88Z"/><path class="cls-1" d="M408.52,69.92l-1.92-1.38A8.63,8.63,0,0,0,408.52,69.92Z"/><path class="cls-1" d="M382.24,51.16l-.4.05A.39.39,0,0,0,382.24,51.16Z"/><path class="cls-1" d="M375,46.89c1.74,1,4,3.06,6.52,4.36l.33,0C380.51,50.88,376.89,47.42,375,46.89Z"/><path class="cls-1" d="M344.44,28.86c2.2.92,4.35,1.95,6.52,2.92-1-.73-2.42-1.71.61-.5C343.55,27,353.06,32.52,344.44,28.86Z"/><path class="cls-1" d="M323.56,21.4c3.71,1,.07-.39.3-.48a8.36,8.36,0,0,0-2.07-.29C321.68,20.69,322.22,20.86,323.56,21.4Z"/><path class="cls-1" d="M166.22,29l.13-.73C163.62,29.44,166.42,28.52,166.22,29Z"/><path class="cls-1" d="M140.08,44.91c.88-.36,1.76-.72,2.68-1l.93-1.13C142.47,43.44,141.25,44.14,140.08,44.91Z"/><polygon class="cls-1" points="122.29 50.3 123.33 49.52 119.28 52.4 122.29 50.3"/><path class="cls-1" d="M12.33,282.68c.22-.33.45-.65.69-1C12.72,279.72,11.78,279.38,12.33,282.68Z"/><path class="cls-1" d="M52.35,391a15.31,15.31,0,0,0,3.51,5.55c-.73-1.08-1.42-2.2-2-3.17S52.77,391.53,52.35,391Z"/><path class="cls-1" d="M361.36,477.92l-2,1.2c1.32-.68,2.65-1.31,3.93-2.08C362.62,477.34,362,477.66,361.36,477.92Z"/><path class="cls-1" d="M257.13,235.1c.31,1.43.7.61.54-3.46a29.15,29.15,0,0,1-.77-2.92l0,1.6c0,.53.05,1.06.07,1.6Z"/><path class="cls-1" d="M262.42,208.47c.31-1.14.61-2.34.86-3.45s.56-2.1.7-2.9c.32-1.58.22-2.3-.73-1-.28,1.18-.53,2.11-.77,2.93s-.4,1.57-.59,2.3-.39,1.48-.56,2.37-.29,1.92-.43,3.2c-1,3.9-1.87,6.8-2,6.07,0,.73-.36,2.28-.61,3.93a19.66,19.66,0,0,0-.19,4.53c1-5.21,2.16-11.68,3.93-18.43C262.68,206.67,262.39,208.1,262.42,208.47Z"/><path class="cls-1" d="M195.36,169.24c.82.22,1.62.53,2.42.81A18.91,18.91,0,0,0,195.36,169.24Z"/><path class="cls-1" d="M265.89,266.29a8.74,8.74,0,0,0-1.19,2.37l1-1.86C265.92,266.36,266,266.14,265.89,266.29Z"/><path class="cls-1" d="M295.27,239l-2,1.24A15.63,15.63,0,0,0,295.27,239Z"/><path class="cls-1" d="M195.36,169.24l-3.16-1-3.2-.77C188.49,167.71,192.29,168.3,195.36,169.24Z"/><path class="cls-1" d="M291.2,162.87c-1,.95-1.76,1.81-2.45,2.59.8-.79,1.56-1.57,2.38-2.35A.9.9,0,0,1,291.2,162.87Z"/><path class="cls-1" d="M262.82,247.24l.17.71-3.59.72-.2-1.25c-.19-.56-.39-1.09-.6-1.58l.74,2.84,3.72-.75Z"/><path class="cls-1" d="M270.83,168.54a5.27,5.27,0,0,0-.75,3.31,16.25,16.25,0,0,1,1.6-3.8C271.58,168,271.32,168.09,270.83,168.54Z"/><path class="cls-1" d="M307.3,153.42c-.6.47-1.19,1-1.78,1.45C306,154.48,306.76,153.85,307.3,153.42Z"/><path class="cls-1" d="M236.76,194.28a1.8,1.8,0,0,0-.33-.73C236.36,193.61,236.52,193.87,236.76,194.28Z"/><path class="cls-1" d="M228.69,405.94c-.09,0,0,.08-.08.1C229,406.31,229.17,406.38,228.69,405.94Z"/><path class="cls-1" d="M264.37,493.32l-.2-1.3c-.15-.13-.3-.25-.43-.24Z"/><path class="cls-1" d="M352.91,208.78l.51.18C356.71,209.91,354.89,209.35,352.91,208.78Z"/><path class="cls-1" d="M351,291.23c-2.76,1-3.1,1-2.45.63s2.31-1.23,3.76-1.95a14.1,14.1,0,0,0,2.6-1.4,34.59,34.59,0,0,0-5.05,1.64c.85-.21-1.75,1.11-3.36,2.13-1,.54-1.74,1-1.17.9a13.14,13.14,0,0,0,2-.52C348.12,292.36,349.33,291.9,351,291.23Z"/><path class="cls-1" d="M292.87,161.5c.83-.75,1.68-1.51,2.57-2.23C294.23,160.24,293.46,161,292.87,161.5Z"/><path class="cls-1" d="M349.84,290.15h0l-1.45.51Z"/><path class="cls-1" d="M256.65,320.1a10.7,10.7,0,0,0,.37-1.74A5.26,5.26,0,0,0,256.65,320.1Z"/><path class="cls-1" d="M303.31,208.18a32.12,32.12,0,0,0-3.2.86C301.38,208.7,302.39,208.35,303.31,208.18Z"/><path class="cls-1" d="M245.27,303.28a33.77,33.77,0,0,0-2.43-4.16c.09.21.18.41.31.67A19.46,19.46,0,0,1,245.27,303.28Z"/><path class="cls-1" d="M193.19,256l1.15.67c.65.29,1.41.6,2.07.92C195.35,257,194.27,256.51,193.19,256Z"/><path class="cls-1" d="M236.29,458.82a20.09,20.09,0,0,1-1.71-2.78C234.94,457.17,227.89,449.8,236.29,458.82Z"/><path class="cls-1" d="M291.49,163.13a6.66,6.66,0,0,1,1.38-1.63l-1.74,1.61C291,163.32,291.08,163.42,291.49,163.13Z"/><path class="cls-1" d="M239.05,303.65a107.23,107.23,0,0,0-6-9C234.82,297.12,237.09,300.33,239.05,303.65Z"/><path class="cls-1" d="M256.83,375.7c.36.8.68,1.61,1,2.42A14.93,14.93,0,0,0,256.83,375.7Z"/><path class="cls-1" d="M210.24,272.25a44.47,44.47,0,0,0-4.74-3.88,7.81,7.81,0,0,0-1.16-.52C206.35,269.27,208.34,270.7,210.24,272.25Z"/><path class="cls-1" d="M234.57,456v0Z"/><path class="cls-1" d="M177,412.31c9,5.29,4.7,1.7,6.9,2.37,10.72,6.56,4.52,3.71,7.85,6.41,3.26,2.14,6.25,3.89,9,5.57s5.16,3.41,7.47,5.21c.26.37,1.09,1.15-.06.45A127.41,127.41,0,0,1,221,442.87c1.16,1.08,2.38,2.1,3.49,3.21l3.35,3.21q1.65,1.56,3.21,3c1,1,1.94,1.87,2.85,2.68a5.64,5.64,0,0,1,.69,1.08c-.72-1.46-.55-2-.08-1.95,1.61,1.73,3.22,3.25,4.51,4.56a13.48,13.48,0,0,1,2.53,3.35,17.24,17.24,0,0,0-3.24-3.16l3.42,3.61c2.21,4-4.57-5-5.15-4.49,1.73,1.69,3.35,3.61,5.09,5.45s3.47,3.73,5,5.65,3.14,3.76,4.55,5.52,2.54,3.52,3.56,5.07c.09.88-2.44-2.63-4.43-5.24s-3.47-4.3-.75-.18l-3.38-4.61-1.69-2.31c-.58-.76-1.19-1.49-1.78-2.24,4.61,7.51-4.41-5.35-.34,1.68,4.59,5.91,7.24,9.15,9.71,12.54l1.91,2.55.76,1c.31.43.62.86.91,1.32l1.84,2.78,4.11,6.34L264,497l1.3,2c.23.36.46.71.69,1.08s.55,1.06.48.29c-.07-3.82-.25-3.69-.42-3.73s-.35-.16-.44-3.4c.09-4.39.18-7.85.34-10.77.08-1.47.15-2.81.24-4.06,0-.44.08-.86.12-1.27s.07-.75.11-1.11a55.53,55.53,0,0,1,1.12-6.45,66.18,66.18,0,0,0,1.86-14c0-2-.22-3.49-.1-5.79a47.54,47.54,0,0,1,2-10.86c0,1.29.09,2.6.14,3.9,1.55-7,1.84-9.1,2.14-11.25a27.44,27.44,0,0,1,.85-3.86,57.82,57.82,0,0,1,2.82-7.5c-.35,1.31-1.24,4-1.89,6.12s-1.11,3.68-.74,2.65c1.84-4.53,2.36-6.16,2.64-7.6a23.64,23.64,0,0,1,1.94-6.09c.47-.36.92-.72,1.41-1.06a100.19,100.19,0,0,1,12.2-20.37c1.24-1.63,2.61-3.16,4-4.72s2.87-3,4.43-4.38a65.25,65.25,0,0,1,10-7.55c-.67.71-2.92,2.44.5.6a57.37,57.37,0,0,1,27.73-8.31,50.45,50.45,0,0,1,7.38.29c1.22.07,2.41.36,3.61.54a15,15,0,0,1,1.77.36l.39.1.1,0,.21.07a7.17,7.17,0,0,1,1.45.64,2.2,2.2,0,0,1,.46.34l.09.07s.08.06,0,.06l-.46,0c-.56,0-1,.09-1.36.13a.87.87,0,0,1-.4.48l-.11.08-.49.19-1,.38-1.91.88c-1.82.65-3.51.92-1.57.07a21.84,21.84,0,0,0-3.49,1.35c-.45.23-.34.26-.1.26.48,0,1.49-.15-.33.78-2.22.94-3.65,1.61-4.27,1.75s-.34-.18,1-1c-1.64.92-3.49,1.85-5.36,3.06-.94.58-1.93,1.16-2.92,1.81l-3,2A123.15,123.15,0,0,0,317,394.13a176.56,176.56,0,0,0-19.63,21.49c.54-.86,1-1.74,1.62-2.58a57.28,57.28,0,0,0-6.77,10.83c-.73,1.49-1.49,2.93-2.37,4.61-.45.84-1,1.73-1.55,2.69s-1.21,2.05-2,3.23l.92-1.94c-10.07,17.42-17.43,37.79-24.09,54.26l4.51.92c.29-5.42.61-10.46,1-15-.48-1.89-.2-8.3-.1-14.47s0-12.08-.76-12.9c.08-3.71.13-6.24.17-8.26s.08-3.54.07-5.26,0-3.61-.18-6.4-.4-6.47-1-11.71c-.19-1.4-.41-2.61-.67-3.74s-.59-2.19-.91-3.29-.66-2.22-1-3.5-.73-2.71-1.18-4.39l.72-.34c-.48-1.51-.95-3-1.5-4.51s-1-3-1.61-4.46c-.18-1.69-.33-3.4-.58-5.1l-1.1-3.09-1.21-3.06c.42,1.24.82,2.58,1,3.57s.28,1.64.11,1.49c-1.74-4.8-3.87-10.65-5.76-15.29s-3.46-8.08-3.34-8.29a112.63,112.63,0,0,0-14.41-19.68,13,13,0,0,1,2.16,2c1,1.09,2.19,2.52,3.27,3.74-1.08-1.24-1.9-2.2-2.53-3s-1.11-1.27-1.43-1.67a3.43,3.43,0,0,1-.8-1.31c-.14-.47-.12-.94-4.56-5.05.5.64.26.57-.13.32a12.5,12.5,0,0,0-1.13-.67,49.15,49.15,0,0,0-4-4.08c-.86-.76-1.73-1.6-2.73-2.39l-3.1-2.45A85.74,85.74,0,0,0,206.36,317c.67.11,1.33.25,2,.41a78.68,78.68,0,0,0-21-7.61,74.75,74.75,0,0,0-23.72-1.12L148,310.47,163,315.2a108.86,108.86,0,0,1,11.69,4.23c-3.12-1.49-4.3-2.16-4-2.35a3.43,3.43,0,0,1,1.52.17,31.07,31.07,0,0,1,3.24,1.15c.6.54,1.19,1.07,1.76,1.65,1.76.55.46-.15-.42-.66s-1.3-.84,2.26.5a24.17,24.17,0,0,1,3.3,1.82c.61.43.78.65.63.71-.31.15-1.86-.42-3.8-1.15,1.35.56,2.67,1.2,4,1.84l2,.95,1.94,1c.33.47-1.52-.44-2.14-.43a26.52,26.52,0,0,1,3.49,1.87c1.42.88,3,2,4.65,3.11a105.93,105.93,0,0,0,8.86,6.09l.24.5a148.21,148.21,0,0,1,17.16,15.61,141.82,141.82,0,0,1,13,15.95c.77-.16,4.15,5,7.07,8.8,5.87,10.14,11.06,22.08,15.9,35.3,1.81,4.62,2.17,5.26,2.33,5.25s.12-.67,1,1.39a10.69,10.69,0,0,0,.52,2.94c.37,1.47.8,3.21,1.11,4.48L265.07,445l.42-19.89c0-2.22.12-3.19.41,0l-5.93,1,0,0,0,0,7,22.62-1.07-23.59c-.38-8.42-.21-13.82,0-19.76.08-1.49.15-3,.23-4.62s.25-3.32.38-5.17.39-3.84.6-6,.57-4.58.94-7.23c-.65,2.24-1.14,4.82-1.15,3.45.12-1,.28-2,.46-3s.43-1.93.64-2.74c.42-1.61.78-2.66.88-2.35l-.12,1A128.82,128.82,0,0,1,273.08,360a182,182,0,0,1,7-18.75l2-4.5,2.1-4.36c1.39-2.86,2.81-5.62,4.24-8.23,2.84-5.22,5.67-9.87,8.21-13.82l-.57.88a69.36,69.36,0,0,1,12.74-14.49c.89-.66,1.5-1.09,1.89-1.36s.58-.34.6-.32a11.87,11.87,0,0,1-1.11,1.05c-1.19,1.1-2.57,2.38.13.58a41.57,41.57,0,0,1,12-7A39.79,39.79,0,0,1,334,287.14c.94,0,1.87-.1,2.8-.09s1.86,0,2.77.12l.63.07c.14,0,.28,0,.42.06s.56.09.84.17a18.43,18.43,0,0,1,1.81.54l.54.19-.35.16-.75.38c-1.06.14-1.82.2-2.35.31l-.17,0h-.07l-.44.17-1.8.71-3.8,1.56c-2.54,1.27-5.23,2.68-8,4.15s-5.44,3.39-8.24,5.14-5.34,3.92-8,5.87l-7.42,6.23c-2.29,2.15-4.49,4.24-6.59,6.16s-3.85,3.92-5.59,5.58l1.08-.52a50,50,0,0,1-3.46,4c-.93,1-1.81,1.75-3,3.14.6-.19,3.65-3.93,1.93-1.39a151.26,151.26,0,0,0-18.83,30.68,134.45,134.45,0,0,0-10.7,35.21l6.52.8c2.1-18.28,3.59-36.89,2.23-55.32-.62-7.8-1.6-9.93-2.45-12.55-.22-.65-.43-1.34-.64-2.15s-.49-1.75-.74-2.91c-.47-2.33-1.12-5.53-2.09-10.35.79,1.72,1.42,3.49,2.13,5.25a145.78,145.78,0,0,0-7.72-22.71,114.2,114.2,0,0,0-12.06-21,95.42,95.42,0,0,0-16.52-17.65A75.13,75.13,0,0,0,205.39,245c1.79.58,2,.25,4.74,1.68a20.72,20.72,0,0,0-2.61-1.45c-1-.47-2.18-1-3.4-1.5a31.75,31.75,0,0,0-3.85-1.37l-2-.61a17.55,17.55,0,0,0-2-.53,67.12,67.12,0,0,0-6.92-1.21,9.31,9.31,0,0,0-3.09,0c-2.51-.19-2.81-.25-2.86-.4s.15-.29-1.45-.4a25,25,0,0,0-5.86.65l-1.56.44a7.75,7.75,0,0,0-.77.26l-.94.34a17.72,17.72,0,0,0-2.28,1.08l-1.08.56c-.35.2-.63.44-.94.65l-.89.65-.44.32-.36.34-1.38,1.33c-.72.89-1.43,1.72-2,2.54l-1.81,2.35-.43.54-.22.35a5.75,5.75,0,0,1-.46.64c-.22.27-.13-.08.13-.64l.1-.22.24-.34.48-.7.9-1.26c-.34.47-.75,1.06-1.23,1.75l-.39.54-.22.41c-.15.27-.3.57-.47.87,2.79.43,6,.92,9.07,1.53l4.56.83,2.17.53c2.6.59,4,1,2.62.24,10.48,3.32,19.81,7.41,27,12.51a53.65,53.65,0,0,1,9.71,6.79l4.33,3.71a9,9,0,0,0,2.67,1.85c-.68.15,2.7,3.63,6.48,8,.94,1.11,1.94,2.24,2.87,3.43s1.91,2.33,2.76,3.48c1.78,2.24,3.25,4.36,4.32,5.75-1.5-1.81,2.87,5.36,1,3.27,4.06,6.81,7,13.49,7,12,1.62,5,3.27,10,4.57,14.81a86,86,0,0,1,2.71,13.46l1.68,16,3.67-15.62a88.89,88.89,0,0,1,2.36-8.69c1.56-12.48,1-24.38.56-35.78s-1-22.4.14-33.12c.48.44-.09,6.34-.2,12.09s.07,11.33.64,10.85a181.17,181.17,0,0,1,.41-26.27,84.22,84.22,0,0,1,2.13-12,60.3,60.3,0,0,1,4.79-12.77c1.28-2.23,1-1.53.41-.08-.34.72-.64,1.69-1,2.53a21.48,21.48,0,0,0-.72,2,52.8,52.8,0,0,1,7-12.76c.71-1,1.5-1.84,2.24-2.76s1.64-1.69,2.45-2.53l1.24-1.25c.42-.4.89-.74,1.33-1.12l2.7-2.2a63.78,63.78,0,0,1,24.89-10.41c0,.14-1.93.46-3.65,1,1.68-.49,3.73-.68,5.25-1s2.58-.44,2.35-.68c-1.14.11-2.25.42-3.38.63-1.41,0-1.28-.17-.26-.53.51-.18,1.24-.39,2.11-.63s1.9-.37,3-.57,2.19-.41,3.29-.52l3.1-.31c1.87-.23,3.26-.25,3.42-.35-1.54.31-1.17.53.07.71s3.38.23,5.38.55a23.85,23.85,0,0,1,4.65.85c.76.32.42.48-2,.67,2.31.16,5.24.44,4.77,0,.85.16,1.56.29,2.08.45l.63.2.15.07.05.05c0,.07,0,.13-.18.17-.34,0-.93-.06-1.81-.1.35,0,.68.1,1,.16l.85.16.56.06c.36.05.72.07,1,.12l1.77.21a13.36,13.36,0,0,1,1.79.3l1.14.28.68.19.38.11a1.41,1.41,0,0,1-.31.1c-.14.05-.66.2-1.29.37-.55-.06-.17-.26-.36-.39a.12.12,0,0,0-.08-.05l-.09,0-.23,0,.14,0v0l0,.05a6.54,6.54,0,0,1-2.46,1.27c-.37.14-.79.29-1.25.44l-.71.23-1.05.32c-1.89.55-4,1.16-6.25,1.79.54-.31-.64-.18,2.23-1A189.2,189.2,0,0,0,315,224.7,218.19,218.19,0,0,0,292.84,236c1.05-1,1.24-1.23.87-1.14a12.9,12.9,0,0,0-2.31,1.24c-2.13,1.23-4.83,3.14-5.53,3-1.37,1.05-2.69,2.17-4,3.27s-2.61,2.26-3.84,3.48c1.1-.85,2.3-1.58,3.44-2.37-7,5.77-11.84,12.22-16.48,18.4,1.19-1.89,2.37-3.81,3.72-5.61a75.94,75.94,0,0,0-9,14.36c.38-.7.73-1.43,1.15-2.11l1.27-2c.8-1.38,1.78-2.66,2.67-4-2.29,4-1.8,3.95-1.71,4.14s.05.27-.35,1c-.19.39-.49.93-.93,1.7l-1.59,3.12c.24-.55.11-.33-.25.38s-.85,2-1.48,3.39-1.17,3.13-1.79,4.7-1,3.12-1.41,4.23v0l-.49,3.94,1.61.18c0-3.26.2-6.88.66-11.52.4-1.68.94,1.43,1.21.34-.26-2.19,0-7.38.14-12.73s.09-10.86-.39-13.6c.22,1.83.71,1.93.81,1.32l-.71-3.64c.08-4.12.11-4.74.54-4.09a26,26,0,0,0-.44-4.84c-.13-.44-.23,0-.33.35s-.18.64-.29-.09-.2-2.46-.48-6.14c.17,1.15.21.59.55,3-.28-3.7-.77-7.32-1.39-10.87a105.32,105.32,0,0,0-2.45-10.38A119.16,119.16,0,0,0,246.3,197c-.5-2,.93.62,2.23,3.26s2.32,5.31,1.82,3a78.86,78.86,0,0,0-17-25.16,63.69,63.69,0,0,0-25.44-15.45c1.13.4,2.24.85,3.36,1.27a9.36,9.36,0,0,1-3.46-.71c-1.56-.39-3.43-1.13-5.6-1.63a38.4,38.4,0,0,0-14.58-1.3c2.38-.24,3.13-.82,2.48-.68a47.14,47.14,0,0,0-6,.4l-3,.54c-1,.16-2,.52-3.07.78a42.7,42.7,0,0,0-12.31,5.78l-6,4.1,7.11-1.22a67.85,67.85,0,0,1,20.53-.26l-2.41,0A82.37,82.37,0,0,1,198.12,173a77.38,77.38,0,0,1,12.88,5.6c1.12.44,2.68,1.24,3.69,1.71s1.42.67.36-.3a118.79,118.79,0,0,1,25.8,24.77A86.22,86.22,0,0,1,255.91,235c-.82-2.53-2.45-5.84-1.69-3.87a132.94,132.94,0,0,1,5.49,17.53l3-.6-.09-.52c0,.19-.07.38-.09.55l-2.64.53c0-1.29-.29-2.44-.82-5.93a50.36,50.36,0,0,1,1.88,5.7l.52-.11c-.41-2-.9-4.3-1.16-6.46,1.66,8.44.84-.21.78-3.9-.11.64-.44-.6-.59-.27.08-5-.24-5.38-.6-6.23a7.34,7.34,0,0,1-.54-2.26,40.28,40.28,0,0,1-.05-6.74l.31.73c-.08-5.08-.3-9.82.52-15.28.94-2.17-.35,5.42.27,5.82.56-7.61.69-15.3,3.24-21.88-.31,1.62-.84,3.54-1.2,5.5s-.78,3.92-.91,5.55c1.06-3.64,1.66-5.67,2.18-7.46s.85-3.37,1.8-6l-.19.52,1.06-3c.38-1,.8-2,1.2-3,.76-2,1.73-3.93,2.63-5.88l-1.5,2.92c.27-1.17.6-2.34,1-3.51s.88-2.28,1.37-3.42l.78-1.72c.29-.56.6-1.11.9-1.67.64-1.11,1.24-2.27,2-3.39a145.65,145.65,0,0,1,10.45-14.07c-1,1.22-1.78,2.17-2.29,2.94s-.88,1.28-1.1,1.63c-.43.68-.31.64,0,.33.7-.63,2.3-2.37,2.27-1.76,1.16-1.15,2.72-2.5,3.81-3.49s1.89-1.42,1.43-.89a38.35,38.35,0,0,1,3-3c1.06-.84,2.14-1.63,3.27-2.47,2.31-1.62,4.86-3.39,8.31-5.91a5,5,0,0,0,1.05-.48l1.85-.89c1.26-.59,2.34-1,1.87-.45.84-.49,1.49-.77,1.92-1a4.51,4.51,0,0,0,.74-.41c.17-.13-.27,0-.92.21l-1.07.37-1.06.44c-.64.26-1.1.41-1,.27a53,53,0,0,1,16.73-6.2l2.46-.4,1.18-.2a7.24,7.24,0,0,1,.73-.09c.95-.05,1.85-.16,2.75-.18s1.79-.06,2.75,0l1.51,0h.82c.06,0,0,0,0,0l-.06,0-.13.09-.26.17c-.83.56-1.6,1.13-2.49,1.83l-2.52,1.72-1.2.86-1.65,1.13c-2.18,1.52-4,2.84-5.78,4.16l-12.66,9.49c-2,1.25-1.39.5-.21-.58s2.93-2.41,2.93-2.41a107.35,107.35,0,0,0-16.65,12.72c1-1.1-.31-.29-2.16,1a24.39,24.39,0,0,0-3.53,3.8,21.54,21.54,0,0,1-1.52,1.71c-.69.73-1.64,1.67-3.08,3a38.4,38.4,0,0,1,3.51-4.86c-1.25,1.23-2.39,2.56-3.58,3.84s-2.26,2.67-3.39,4c-2.17,2.76-4.3,5.58-6.33,8.57-.72.66-.23-.33.64-1.74s2.16-3.23,2.89-4.29a106.81,106.81,0,0,0-8,11.47c-.6,1-1.1,2-1.59,2.86s-.94,1.74-1.28,2.52a22.77,22.77,0,0,0-1.33,3.37c.9-1.49,1.75-3,2.7-4.45-.74,1.28-1,1.56-1,1.25a5.72,5.72,0,0,1,.77-2.17,34.33,34.33,0,0,1,4.08-6.52,8.83,8.83,0,0,1,2-1.93l-1.44,2.12-1.35,2.18c2-1.84,4.92-6,8.46-10.55a100,100,0,0,1,11.67-12.77c-.85,1.2-1.63,2.46-2.43,3.68,1.17-1.31,2.35-2.62,3.58-3.88s2.45-2.53,3.71-3.77c.94-.62,1.81-1,2-.91s-.43.83-2.31,2.52c6-4.27,4.8-4.41,10.18-7.74.61-.34.39-.12-.11.3l2.81-2.23L313,149c-1,1,1.39-.08-2.3,2.31,5.41-3.46,9.64-6.43,13.09-8.8,1.71-1.2,3.25-2.22,4.62-3.09.69-.43,1.34-.81,2-1.14s1.44-.76,2.16-1.07l-1.11.74c4.59-2.87,6.86-4.31,7.93-5.06s.94-.79.6-.73-.88.22-.89,0,.51-.69,1.85-1.71a3.13,3.13,0,0,1,.52-.43l.19-.09v0l0-.08a1,1,0,0,0-.06-.16,1.72,1.72,0,0,0-.24-.33c-.05-.05-.1-.11-.16-.16l-.29-.14-.66-.26a9.84,9.84,0,0,0-1.56-.45l-1.87-.44c-1.06.26-2,.5-3,.83-2,.19-6.06.56-5.3.17-.53.1-1,.23-1.32.32l-.79.23c-.43.14-.69.22-.82.28s0,.11.31.09c.67-.05,1.67-.17-.24.45a46,46,0,0,0-7.46,1.59,75.11,75.11,0,0,0-7.71,3l-1.77.77c-.58.25-1.11.56-1.64.81-1,.53-2,1-2.87,1.4a12.19,12.19,0,0,1-3.52,1.44c-2.44,2.15,7.53-4-.41,1.24a6.39,6.39,0,0,0-2.78,1.21c-.54.35-1.13.75-1.75,1.2l-.95.7-1,.82c-2.63,2.22-5.61,5-8.66,7.75a13.26,13.26,0,0,1,1.55-2l1.77-1.79c.87-.87.75-.86-2.51,1.69a24,24,0,0,1-3,3.68c-1.22,1.37-2.59,2.91-4,4.47-.68.82-1.37,1.64-2,2.47a29.06,29.06,0,0,0-2,2.51,40.74,40.74,0,0,0-3.19,4.88c.16.19-.22,1.11-.94,2.54-.39.71-.78,1.59-1.25,2.56s-1,2-1.56,3.22a91.83,91.83,0,0,0-5.81,16.49,14.72,14.72,0,0,0-1,3.1c-.5,2.12-1.28,5.11-1.83,8.52-.35,1.69-.56,3.49-.81,5.31s-.4,3.67-.58,5.48-.24,3.56-.34,5.21-.11,3.18-.15,4.54l-.16-.32a12.18,12.18,0,0,1,.55,3.06c.19,1.46.33,3.29.5,5.31.41,4,.9,8.79,1.69,12.75-.57-.23-1.11-1.61-1.86-6l.48,3.79.62,3.77c.11.32.21.67.35,1.22l3.3-.66c-.56-1.43-1.15-3.68-2.31-7.52l1.16,1.67a113.11,113.11,0,0,0-5.24-14.79c-2.18-5-4.7-10.3-7.82-16.06-.44-.17.44,2.32.53,3.36.05.52-.1.67-.69,0a20.29,20.29,0,0,1-1.25-1.75c-.58-.83-1.32-1.92-2.24-3.34,0-.62.27-1.38,2.25,1.62l-1.59-2.34c-.7-1-1.46-2.08-2.05-3.11,1.16,1.41,2.37,2.81,3.45,4.3a19.47,19.47,0,0,0-1.6-2.61,6.86,6.86,0,0,0-.86-1,13.34,13.34,0,0,1-2.21-2.68c.46-.21-1.77-3-1.07-2.73.39.46.95,1.35,1.58,2.26s1.3,1.9,1.87,2.61c-.7-1.14-1.52-2.29-2.3-3.45s-1.59-2.29-2.33-3.34l-1.06-1.51c-.35-.46-.68-.9-1-1.3-.59-.81-1.06-1.49-1.34-2,.05.27-.08.38-.54.06a19.16,19.16,0,0,1-2.7-2.44c-1.79-1.81-2.87-2.83-3.47-3.51a3.55,3.55,0,0,1-.87-1.08c-.14-.36.16-.4-2-2.47-1.11-.61-2.82-2.09-4.47-3.17s-3.06-2-3.34-1.71a21.5,21.5,0,0,1-3.71-3,105.51,105.51,0,0,0-12.38-5.69c-1.13-.39-2.16-.78-3.06-1s-1.66-.45-2.18-.57c-1.05-.23-1.17-.13.18.5l1.27.46-.83-.23h0c-10.16-2.83-21.3-4.37-32.23-3l.68,1.76a46.79,46.79,0,0,1,18.3-6.43v.25a49.17,49.17,0,0,1,15.48.31,70.76,70.76,0,0,1,13,3.62c.34.15.7.3,1,.48l1,.59c.66.39,1.29.79,1.79,1.13,1,.69,1.45,1.25.85,1,1.64.94,2.93,1.63,4,2.39a32.55,32.55,0,0,1,3,2.15,34.3,34.3,0,0,1,3.3,2.85,53.34,53.34,0,0,1,4.47,4.82c-2.73-2.66-2.39-2.06-2.18-1.84s.13.17-.29-.29c-.22-.22-.55-.57-1.05-1.1l-2.19-2a68.62,68.62,0,0,1,7.33,8.12c1.86,2.46,3.85,4.92,6.82,9.29-1.17-1.39-.4.3.89,2.86l2.06,4.27c.65,1.49,1.36,2.87,1.8,3.95-.33-1.1-.77-2.16-1.15-3.24s-.84-2.14-1.28-3.2a79,79,0,0,1,5.45,13.44c-.49-.72-1.06-1.42-1.59-2.12a187.49,187.49,0,0,1,6,26.82,89.26,89.26,0,0,1,.52,24.13c.22,2.7.41-.06.56-2.89s.26-5.74.6-3.33c-.08,9.38-1.92,19.08-2.09,22a80.58,80.58,0,0,0-.49,11.77l4.82.53c.06-.8.13-1.6.2-2.44a17,17,0,0,1,.37-2.74,34.93,34.93,0,0,1,2.39-7.73c-.46.72-1,1.38-1,.71a8.43,8.43,0,0,1,.48-2.19,37.24,37.24,0,0,1,2.06-5.11,26.76,26.76,0,0,1,5-6.92c.42-.29.56-.2.4.27a14.78,14.78,0,0,1-1.31,2.59c-.6.93-1,1.63-1.3,2.08s-.45.63-.47.56c-.34.66-.72,1.37-1,2s-.54,1.27-.7,1.68c-.31.84-.24.94.7-.61l.26-1.2c.64-.94,1.45-2.36,2.42-3.84s2-3.06,3.1-4.37c.51-.66,1-1.28,1.41-1.8s.82-.93,1.11-1.23c.58-.6.8-.73.43-.08,1-1.39,1.66-2.21,2-2.64s.26-.46,0-.21a43.7,43.7,0,0,0-3.8,4.14A106.73,106.73,0,0,1,281,249.57a80.32,80.32,0,0,1,12.27-9.31c-1.73.88-3.37,1.67-1.79.55,3.79-2.39,6.17-3.74,7.7-4.65a21.52,21.52,0,0,0,2.71-1.74c.51-.38.86-.68,1.75-1.25.45-.28,1-.63,1.85-1.09s1.89-1,3.27-1.62c3.28-1.22,2.82-.7,2.93-.58s.75-.16,6.42-2.6c7.14-2.38,1.75.16-.93,1.46a98.25,98.25,0,0,1,14.57-5.17c2.24-.63,4.36-1.15,6.3-1.63l2.77-.69,2.58-.66-2.91,1-2.8.95c1.68-.56,3.21-1.06,4.69-1.5l3.36-1,4.09-1.13-6.42,1.17c5.94-1.57,11.12-3,11.48-2.8,2.83-1,1-.73.08-.75s-1-.29,3.29-1.74c1.3-.3,2.76-.66,4.32-1.07l-.11-.19-.05-.09-.3-.1-1.3-.43-2.71-.89-2.7-.87-2.52-.76c-1.61-.49-3-.94-4.14-1.34a12.65,12.65,0,0,1-2.35-1l1.86.49c.57.16,1.06.33,1.53.47l2.42.75c1.35.4,2.24.65,2.8.8,1.14.28,1,.13.75-.08s-.61-.45.28-.29a83.15,83.15,0,0,1,8.15,2.43c-2-.62-4.19-1.32-6.49-2.08s-4.67-1.49-7.33-2.38c-.71-.32,1,.13,2.57.58-1.35-.46-2.51-.91-3.74-1.26s-2.27-.69-3.38-.92l-2.94-.64-1.36-.27a18.49,18.49,0,0,0-3.29-.19c-1.77.07-3.58,0-11.07-.36,1.94-.35-3.47-1-5.95-.77,6.11-.15,2.88.66-2.62,1.15-2.4.14-4.26.26-5.76.45s-2.64.48-3.64.69l-1.42.32c-.45.11-.88.26-1.34.39-.9.26-1.86.52-3.09.81l2.82-.6,1.4-.29c.47-.09,1-.14,1.42-.2-.92.32-2.53.83-4.73,1.42l-1.75.47-1.91.65-2.1.72-1.12.4-1.12.5c-.32,0,1-.75,2.26-1.14s2.23-.77,1.07-.48c-.85.4-1.76.7-2.65,1.11s-1.83.82-2.8,1.21l-1.47.58c-.5.2-1,.46-1.47.69l-3.05,1.45c-4,2.18-8.38,4.86-11.77,8.92a11.85,11.85,0,0,1-1.73,1.38c-.29.2-.4.17-.48.12s-.3-.25-1.76,1.36c-.93,1.18-1.62,2.31-2.3,3.29s-1.25,1.88-1.77,2.71c-1.09,1.64-1.88,3.05-2.73,4.47a45.6,45.6,0,0,0-4.84,11.89c.83-1.62,1.27-2.56,1.22-2.07a19,19,0,0,1-.44,1.93c-.22,1.08-.59,2.62-1,4.74a74.43,74.43,0,0,1,6.9-18.94A69.63,69.63,0,0,0,263,246.65c.44-1.44,1-2.88,1.55-4.33s1.19-2.82,1.74-4.17,1.24-2.54,1.83-3.64,1.21-2,1.72-2.78l-1.57,3.05a8.25,8.25,0,0,0-.48,1.21c0,.27.4-.5,1.38-1.6a38,38,0,0,0-5.38,11.19c-1.26,4-2.19,8.31-3.38,12.89l-1.4-.56a84.7,84.7,0,0,0-2.11,20.29c-.05,6.88.4,14.2.42,23.31l.13-5.87c.63,2.44.38,11.26.61,17.12-.49-.54-.67,3.12-1,5.6.17-.15.12,3.15,0,6.67-.07,1.76-.16,3.58-.2,5.06a9.36,9.36,0,0,0,.18,3.08l-.9,3.91c-.35,1.28-.66,2.57-1,3.84s-.53,2.26-.74,3.17l4.76.35a61.25,61.25,0,0,0-3-13.34c-1.29-3.68-2.6-7.45-4.91-13.58,1.06,1.9,1,1.33,1.28,1.35s.27.19.64.93c.18.36.41.87.71,1.57s.66,1.58,1,2.73l-.53-1.7-.56-1.6c-.37-1-.69-2-1-2.76-.66-1.57-1.13-2.57-1.31-2.54a12.66,12.66,0,0,0-.46-1.32c-.24-.51-.52-1.11-.84-1.77s-.68-1.36-1.05-2.1L247.84,308c-1.71-3.11-3.72-6.25-4.69-8.25-.62-.81-1.12-1.28-1.86-2.1s-1.62-2-3.21-4.2c-.26-.54.21-.13.21-.13s-1.37-1.62-2.43-2.71-1.72-1.73-.49.27a65.39,65.39,0,0,0-7.9-10.09,94.52,94.52,0,0,0-11-10c-7.9-6.26-16.53-11-22.12-14.21-2-.93-4.22-1.75-6.43-2.61s-4.52-1.57-6.83-2.2l-1.72-.51-1.71-.42-1.7-.42-.84-.21-.53-.1-2-.39-2-.31-.85-.13c-.11,0,0-.06,0-.11l.11-.16.21-.29a10.16,10.16,0,0,1,.89-1c0,.28.45,0-.34.78a16.12,16.12,0,0,1,3.14-2.42c.39-.22.71-.45,1-.63a14,14,0,0,1,1.4-.68,10.92,10.92,0,0,1,1.6-.61,13.71,13.71,0,0,1,2.17-.51,24.91,24.91,0,0,1,7.73.13c1.8.42,2.2.67,1.89.69s-1.33-.1-2.44-.2c-2.22-.2-4.77-.21-2.53,0,.47.42,1.75.66,3.53,1s4.11.85,6.68,1.35c5.08,1.25,11,3.32,15,6.11l-2.11-1c.78.48,1.62,1,2.51,1.43s1.76,1.08,2.72,1.62,2,1.1,3,1.76l3.08,2a67.87,67.87,0,0,1,12.69,11s-.51-.33-.23.12.81.7,1.22,1.09l1.26,1.29c.86.9,1.79,1.87,2.73,2.93l2.8,3.44c.24.31.48.61.73.91l.68,1,1.38,2a103.27,103.27,0,0,1,9.34,16.83c-2.07-3.11-2.46-4.75-2.15-2.45,1.1,2.37,1.18,1.92,1.54,2.06.17.08.45.28.88,1.11a50.25,50.25,0,0,1,2.06,4.7c.36,1.69,1.1,4.36,1.58,6.78s.8,4.55.56,5.13c-.85-3.19-1.72-6.37-2.8-9.48a33.83,33.83,0,0,0,.92,4.12c.36,1.47.81,3,1.29,4.54a79.5,79.5,0,0,1,2.15,8.79l-.51-.58c.79,3.7,1.22,6.52,1.7,8.88s.75,4.32,1.09,6.29a105.5,105.5,0,0,1,1.33,16.3l.25-1.71c1.08,9-.43,7.53,0,16.51l-1.09,2.67c0,4.55-.24,14.39-.88,23.34l1.91.24c.44-2.9.85-5.55,1.22-8-.12,2.07-.4,4.86-.79,8l-2.78-.34c.25-5.91.59-13,.62-18.11-.3,4.19-.89,12.54-1.28,18l4.1.5c.32-2.24.53-4,.55-4.87-.21,1.48-.4,3.22-.65,4.85l-3.9-.47c.07-1,.17-1.89.3-2.73,0,.86,0,1.74,0,2.76l3.32.4a90.06,90.06,0,0,1,5.34-24.93c.54,1.29,3.08-5.86,7.14-13.74l1.54-3a33.21,33.21,0,0,1,1.65-3c1.19-1.93,2.36-3.83,3.46-5.6a25,25,0,0,1,1.72-2.47l1.65-2.15a37.44,37.44,0,0,1,2.71-3.15,116,116,0,0,1,20.86-22.66,137.15,137.15,0,0,1,27.88-18.12c-4.05,1.3-2.54.49-.23-.75s5.57-2.49,4.58-2.92l1.88-.86c.74-.33,1.4-.63,2.05-.88l2.86-1.14c1.45-.57,2.22-.85,2.58-.94l5.22-1.89,1.34-.5.34-.13s-.17-.09-.24-.14l-.57-.28-2.33-1.16a46.41,46.41,0,0,0-10.36-3.67c-1.47-.34-1.79-.42-1.26-.43a17.14,17.14,0,0,1,3.14.45c2.94.44,5.78,1.59,5.71,1.35-1.05-.37-1.92-.76-2.85-1l-2.64-.65a26.79,26.79,0,0,0-3.93-.77,17.93,17.93,0,0,1-1.86-.29,7,7,0,0,1-.8-.17,13.46,13.46,0,0,0-1.43-.34,23.18,23.18,0,0,0-4.16-.17c1.86.45-4.65.84-11.85,3.12a50.92,50.92,0,0,1,10.45-1.67,77,77,0,0,0-10.14,2.48l-3.35,1.1-2.88,1.05c-.91.39-1.84.76-2.82,1.22s-2,1-3.15,1.72A43.81,43.81,0,0,0,301.2,296c1.3-1.43,2.68-2.81,4.12-4.13a78.56,78.56,0,0,0-7,6.49,83.81,83.81,0,0,0-17.66,28.52c-.85,1.37-2.15,3.11-.52-.55a177.55,177.55,0,0,0-11.82,32.22c-2.93,11.07-4.85,21.72-6.32,30-.07-.56-.09-1.12-.14-1.68-.44,4-.24,7.05-1.06,12.05-.13-.27-.22-1.65-.41.21-.07,1.07-.05,3.76-.13,6.85,0,1.54,0,3.18-.05,4.77s-.09,3.13-.12,4.47l-.21-2.29-.13-2.29c-.19,2.73-.16,5.31-.19,7.75s.14,4.76.23,7l6.11-1a166.53,166.53,0,0,0-6.14-16.42c-2.23-5.16-4.62-10.3-7.48-16.17.5-.2-.92-4.11-3.12-8.83a150.78,150.78,0,0,0-7.49-13.71l.29.16a135.53,135.53,0,0,0-10.22-14.06,132.29,132.29,0,0,0-10.77-11.6,152.13,152.13,0,0,0-25.11-19.36,91.26,91.26,0,0,0-12.62-7.84,112.5,112.5,0,0,0-18.35-7.44l-.53,5.94a64.48,64.48,0,0,1,17.6.52,68.31,68.31,0,0,1,15.82,4.69c-1.49-.7-1.29-.86-.27-.66a21.57,21.57,0,0,1,4.68,1.5c1.12.6,2.53,1.18,3.9,1.91s2.84,1.35,4,2.08,2.26,1.3,2.93,1.78.91.84.6.94c-.49-.36-1-.71-1.51-1,1.35,1.45,4.2,3.59,7.37,6.19a96.36,96.36,0,0,1,9.34,8.71l1.9.09c3.26,4.34,6.89,9.37,10.29,14.89a140.52,140.52,0,0,1,9.17,17.43c5.24,11.86,8.12,23.42,8.43,29.38,1.38,5.06,2.36,11.5,3.27,16.65l-.74-.19c.74,7.24,1,12.7,1.26,18.6s.4,12.24.4,21.31l-.49-3.69c-.1,10.21,1.89,12.95,1.66,22.43l-1.15,2.82c-.07,2-.15,4.05-.22,6.08L262,503.84l6-15.29c5.84-14.86,12.13-29.53,18.29-43.83,0,.33,0,.91-1.16,3.53,1.8-3.77,5.6-10.89,9-16.57s6.16-10.06,4.71-9.22c.46.18,2.95-3.63,6.35-8.19A146.49,146.49,0,0,1,316.24,401c-.2.51-.4,1-.58,1.52,1.28-1.55,2.28-2.7,3.14-3.73s1.67-1.82,2.54-2.72l1.4-1.38,1.77-1.54c.67-.55,1.39-1.2,2.26-1.87l3-2.25c1.11-.75,1.71-.9,1.6-.72a2.89,2.89,0,0,1-.67.56c-.39.3-.94.7-1.69,1.17,1.84-1.24,3.16-2,4.17-2.72s1.74-1.27,2.57-1.81,1.67-1.14,2.93-1.9c.63-.38,1.4-.74,2.28-1.18s1.92-1,3.17-1.44c-1.17.65-2.27,1.44-3.4,2.14,8.2-3.89,7.54-3.57,12.09-5.78l1.26-.42,1.78-.55,2-.52c.68-.18,1.48-.29,2.24-.44l4.82-.85c1.64-.25,3.27-.43,4.91-.64l.48-.36.21-.17.09-.09s.06,0,0,0l-.14-.08c-.7-.41-1.34-.8-1.88-1.14a9.27,9.27,0,0,1-1.92-1.39c-.55-.15-1.38-.43-2.39-.79s-2.14-.84-3.58-1.23-2.84-.92-4.45-1.34c-.79-.22-1.66-.4-2.54-.61s-1.35-.35-2.07-.46c-.35-.18,0-.22.54-.21a6.42,6.42,0,0,1,.93.1l.48.07.57.1-1.59-.41c-.47-.11-.95-.17-1.41-.26l-2.71-.45-2.58-.21a20.24,20.24,0,0,0-2.44-.1,40.9,40.9,0,0,0-4.5.15c-1.43.12-2.8.23-4.11.47a109.32,109.32,0,0,0-15,3.59,3.76,3.76,0,0,0-1.88.29,65.18,65.18,0,0,1,15.59-4.11l2.68-.32,1.94-.11c1,0,1.49-.06,1.25,0,0-.16-.65-.26-1.5-.32s-1.9-.11-2.69-.1-1.33-.07-1.16-.23a2.52,2.52,0,0,1,.85-.35,14.49,14.49,0,0,1,2.28-.52,70,70,0,0,0-15.31,4,93.68,93.68,0,0,0-15.17,7.57,13.12,13.12,0,0,1-1.25.54c.27-.22.56-.42.84-.63a30,30,0,0,0-2.75,1.88l-1.23.94c-.4.33-.76.66-1.13,1-1.29,1-2.35,1.73-3.33,2.59s-2,1.66-3.06,2.76a9.82,9.82,0,0,0-1.92,1.52c-.88.89-2,2-3.14,3.35s-2.32,2.73-3.34,4.14c-.52.7-1,1.37-1.49,2l-1.23,1.77c.78,0-3,5.51,1,.66-.25.32-.13.11.29-.53s1.14-1.71,2.17-3c.44-.62,1-1.34,1.26-1.76l-.17.31a87,87,0,0,1,8.55-9.34c-2.69,3-5.36,6.23-9.1,10.42-1.26,2.33-2.46,4.95-3.17,6.39a72.34,72.34,0,0,0-7.4,10.61c-2.27,3.83-3.91,7.29-4.54,8A144.37,144.37,0,0,0,266,442.72a107.83,107.83,0,0,0-1.85,20.65A23.12,23.12,0,0,1,263,469.9c.06-2.51.37-5.48.31-6.85-.14,2.17-.31,4.86-.5,7.7-.08,1.42-.16,2.88-.24,4.34s-.16,3.19-.16,3.66c0,1.52,0,3.05,0,4.51,0,.73.06,1.45.11,2.13,0,.38.07.71.09,1l0,.23c0,.08,0,0,0,.07a.36.36,0,0,0,0,.11,20.24,20.24,0,0,1-1.61-3c-.08-.3.11-.16.24-.09s.22.11,0-.26-.71-1.15-1.83-2.83a6.24,6.24,0,0,0,.63.48l-.65-1.23c-.1-.19-.21-.37-.31-.54l-.14-.24-.07-.11-.17-.26c-1-1.48-2-2.92-2.93-4.32l-1.46-2.08-1.53-2-3-3.82c-2-2.54-4.17-4.81-6.25-7.12-1.06-1.13-2.07-2.32-3.18-3.39L237,452.68c-8.89-8.72-18.45-17.16-30.89-27.87a22.85,22.85,0,0,1,2.87,2.62L203.45,423c-1.88-1.41-3.81-2.77-5.73-4.15l-2.9-2.07-3-1.94c-2-1.28-4-2.6-6-3.85-4.14-2.38-8.23-4.88-12.53-7l-3.19-1.66-1.6-.82-1.63-.77-6.52-3c-2.17-1-4.42-1.86-6.62-2.8l-3.31-1.38c-.75-.31-1.51-.56-2.26-.85L143.61,391l-.07,0,.07,0,.13-.06.28-.12.56-.23,1.12-.46a18.65,18.65,0,0,1,2.27-.86,40,40,0,0,1,5.39-1.42l3.36-.68,3.41-.38a57.18,57.18,0,0,1,6.79-.34,31.73,31.73,0,0,1,3.38.13l3.35.23c2.53.35,4.49.55,6.11.75s2.88.45,4,.58,2.2.28,3.33.45,2.37.36,3.92.67l1.88,1.43c1.72.43,3.47.81,5.16,1.4l2.56.82,1.28.42,1.25.49a61,61,0,0,1,17.7,11.71c1.33,1.16,2.56,2.48,3.91,3.74.68.62,1.32,1.32,2,2l2,2.11c.71.7,1.37,1.47,2.05,2.24L233,418c.75.78,1.42,1.67,2.17,2.53l2.31,2.65c-.35-.77-.75-1.51-1.12-2.27A132.78,132.78,0,0,1,244,431.93c1.13,1.94,2.08,3.69,2.71,4.89s.83,1.91.58,1.72a15.83,15.83,0,0,1,2.46,4.35l-.27.36a154.44,154.44,0,0,1,6.91,15.61c1.82,6.39,1.27,6,1,6.33-.14.17-.23.52,0,2,.13.74.34,1.75.67,3.16s.67,3.24,1.21,5.58c.4,1.73.88,3.84,1.43,6s1,4.35,1.41,6.24c.79,3.79,1.44,6.39,1.4,5s-.35-3.29-.44-4.82a8.2,8.2,0,0,1,0-2.85c.45,2.16.75,4.34,1.11,6.52.66.52,1.43,2,1.9,1.36.24-.34.38-1.22.4-3,0-.92,0-2.07-.11-3.5s-.28-3.16-.51-5.21c-.44-1.87-1-3.73-1.42-5.58s-1.08-3.69-1.61-5.53c-.07-1.25-.24-2.48-.37-3.72l.63,2.34.56,2.35c.35,1.58.77,3.14,1.07,4.73a43,43,0,0,0-1.36-6.92c-.61-2-1.29-3.69-1.94-5.53a20.56,20.56,0,0,0-.82-4.8c-1.51-3.49-3.11-6.93-4.88-10.27-.09-1.45,2.73,4.39.12-2.78-2.64-4.64,1.14,5-2.75-2.83-.85-2.63-1.16-3.57-1.52-4.62a23,23,0,0,0-2.7-4.86c-.19-.93.69.15,2,2.37-1.54-2.46-3.4-5.81-5.38-8.68l-1.4-2.11c-.49-.64-1-1.25-1.38-1.8a23.89,23.89,0,0,0-2.17-2.51,48.87,48.87,0,0,0-3.17-4.48c-1.29-1.66-2.83-3.3-4.17-4.85-2.84-3-5.14-5.34-4.59-5.51-.39-.26-1.11-.78-2-1.46l-1.5-1.14c-.54-.42-1.12-.86-1.76-1.27l-3.86-2.66-3.73-2.38c2.21,1.08,2.28.93,1.18.08-.55-.42-1.39-1-2.4-1.71s-2.28-1.35-3.56-2.11L209,392.26l-2-1c-1.3-.66-2.51-1.3-3.52-1.84-2.08-1-3.3-1.67-2.56-1.75-.9-.2-2-.52-3.15-.88s-2.56-.68-4-1.1-3-.82-4.66-1.21l-2.53-.61c-.85-.22-1.75-.33-2.64-.5a69.91,69.91,0,0,0-21.63-.94,18.88,18.88,0,0,1,3.26-.38l-2.5.07-1.1,0-1,.09c-1.3.11-2.39.19-3.41.26l-1.49.09c-.48,0-1,.13-1.44.19-1,.14-2,.3-3.15.5a1.87,1.87,0,0,1-.72.49l-1.87.85c-1.8.8-4.07,1.73-6.45,2.68s-4.84,2.27-7.06,3.3l-.41.2-.2.1-.1.05s-.12,0,0,.05l1,.35,2,.67,3.53,1.16c2.35,1.15,3.24,1.7,3,1.77a14.48,14.48,0,0,1-3.31-.82c-1.73-.53-3.82-1.21-5.39-1.67s-2.62-.68-2-.19a20.33,20.33,0,0,1,4.38,1.25c2.34.8,5.26,1.85,7.95,2.81l3.51,1.26,1.81.6c1,.3,1.4.34.79-.09,5.76,3.07,5.07,2.4,7.75,4.59.77-.32,2.16.29,4,1.17l3.08,1.46a32.93,32.93,0,0,0,3.58,1.56c8,4.95,1.65,2,10.75,6.89C185.12,416.55,177,412.31,177,412.31Zm134.16-35.24h0c-1.74,1.12-3.25,2-4.15,2.75C307.85,379.18,309.07,378.43,311.17,377.07ZM330,369.82c-1.22.18-2.55.6-4,.93s-2.93.91-4.47,1.42c-.75,0-.13-.52,1.84-1.11-.5.24.4,0,1.79-.33l2.39-.49A24,24,0,0,1,330,369.82Zm-39.79,18.57c2.24-2.6,3.13-3.34,3.58-3.56-.58.57-1.17,1.22-1.82,1.95s-1.41,1.53-2.16,2.51c-.05.09-.16.27-.2.36A5.38,5.38,0,0,1,290.21,388.39Z"/><path class="cls-1" d="M287.08,393.72c-.29.4-.43.63-.81,1.14l1.35-1.51.55-1.08Z"/><path class="cls-1" d="M198.2,170.2l-.42-.15a8.76,8.76,0,0,1,.86.38C198.37,170.31,198.38,170.29,198.2,170.2Z"/><polygon class="cls-1" points="264 398.27 263.83 398.34 264.39 400.12 264 398.27"/><path class="cls-1" d="M261.09,237.93a10.15,10.15,0,0,0,0-1.5A9.54,9.54,0,0,0,261.09,237.93Z"/><path class="cls-1" d="M265.52,189.4c.4-1.08.74-2.18,1.18-3.24L268,183c-.58,1.37-1.09,2.56-1.53,3.61S265.8,188.58,265.52,189.4Z"/><path class="cls-1" d="M283.8,157a2.05,2.05,0,0,0,.26-.76l-.05.06Z"/><path class="cls-1" d="M307,212.13l-1.37.36C302.42,213.4,304.6,212.82,307,212.13Z"/><path class="cls-1" d="M255.23,285.16c.14-1,.35-1.91.54-2.88l.3-1.46c.12-.48.27-1,.41-1.45a30.32,30.32,0,0,0-1.15,4C255.09,284.41,255,285.07,255.23,285.16Z"/><path class="cls-1" d="M239.66,304.67h0l-.63-1Z"/><path class="cls-1" d="M259.69,271.41a35.79,35.79,0,0,0-1.92,4.15,32.31,32.31,0,0,0-1.29,3.81c.47-1.27.92-2.67,1.53-4S259.11,272.64,259.69,271.41Z"/><path class="cls-1" d="M269.05,189.38l-1,1.6c.05,0,0,.11,0,.25Z"/><path class="cls-1" d="M268,191.23c-.33.61-.62,1.25-.93,1.87A16.75,16.75,0,0,0,268,191.23Z"/><path class="cls-1" d="M265.26,197.08c.55-1.36,1.21-2.66,1.85-4A19.76,19.76,0,0,0,265.26,197.08Z"/><path class="cls-1" d="M304.25,152.46l.31-.56C304.34,152.14,304.23,152.33,304.25,152.46Z"/><path class="cls-1" d="M316.89,143.53c-3.11,2-8,4.7-12.06,7.92l-.27.45a43.16,43.16,0,0,1,5.79-4A76.87,76.87,0,0,0,316.89,143.53Z"/><path class="cls-1" d="M310.33,133.93a75.64,75.64,0,0,1,12.43-4c-2.26.35-5.3.76.48-.82a48.27,48.27,0,0,0-6.57,1.58c-.68.26-.26.22.14.2s.79,0,.06.37c-.36.18-1,.45-2.06.85l-1.91.71Z"/><path class="cls-1" d="M278.28,158.18c4.46-5.46-.39-.22-.25-.58C275.5,161.35,274.91,162.23,278.28,158.18Z"/><path class="cls-1" d="M220.88,171.91l-.92.19c1.12.62,1.62,1,1.86,1.13s.14,0-.06-.19C221.38,172.63,220.52,171.9,220.88,171.91Z"/><path class="cls-1" d="M253.83,214.69c-.41-1.71-.74-3.45-1.22-5.15l-1.39-2.18,1.37,3.64Z"/><path class="cls-1" d="M254.13,247.41c0-.77-.11-1.53-.19-2.29.23,2.91.37,5.83.49,8.76C254.35,251.72,254.27,249.56,254.13,247.41Z"/><path class="cls-1" d="M204.82,261.28l1,1.53c1.61.89,2.68,1.28,2.7,1.05S207.49,262.77,204.82,261.28Z"/><path class="cls-1" d="M260.73,353.46c-.09.56-.15,1.35-.2,2.27s-.13,2-.16,3.07c0,2.19-.06,4.55.1,6.35.08-2.33.21-4.66.25-6.71,0-1,.06-2,.08-2.81S260.77,354.05,260.73,353.46Z"/><path class="cls-1" d="M236.41,350.31c-.87-1.05-1.8-2.05-2.69-3.08l2.43,3,2.31,3.08Z"/><path class="cls-1" d="M224.56,140.34a.26.26,0,0,0-.39-.16.68.68,0,0,0-.26.33l-.31.69a3.94,3.94,0,0,1,.14,1.25A4.72,4.72,0,0,0,224.56,140.34Z"/><path class="cls-1" d="M218,142.29a6.3,6.3,0,0,1-1.8-.52c-.5-.21-1-.31-1,.39a7.28,7.28,0,0,0,1.77.93,2.22,2.22,0,0,0,1.79-.09c1,.08,1.84.17,1.75.52a10.17,10.17,0,0,1,1.05-.4,1.36,1.36,0,0,0,.91-.91,18.18,18.18,0,0,1-2.22.51,7.41,7.41,0,0,1-2.55,0C217.43,142.41,217.88,142.41,218,142.29Z"/><path class="cls-1" d="M183.48,126.58l.46.23A1.65,1.65,0,0,0,183.48,126.58Z"/><path class="cls-1" d="M164.92,91.34c.14.32.27.43.34.42C165.1,91.48,165,91.24,164.92,91.34Z"/><path class="cls-1" d="M166.62,84.2l-.25.35C166.51,84.44,166.62,84.32,166.62,84.2Z"/><path class="cls-1" d="M183.48,126.58c-.38-.23-.75-.46-1.1-.71C182.17,126.08,182.9,126.32,183.48,126.58Z"/><path class="cls-1" d="M218.63,140.71a2.11,2.11,0,0,0,.4-.83,3.68,3.68,0,0,1-.46.7Z"/><path class="cls-1" d="M195.28,118.79l-.28.27a2.33,2.33,0,0,0,0,.45Z"/><path class="cls-1" d="M191.85,133.94c-.08-.36-.79-.3-1.14-.36a1.23,1.23,0,0,1,.71.67A1,1,0,0,0,191.85,133.94Z"/><path class="cls-1" d="M213.52,141.35l.36-.34C213.79,141.1,213.62,141.24,213.52,141.35Z"/><path class="cls-1" d="M191.77,123.9a.51.51,0,0,0-.27-.09A.38.38,0,0,0,191.77,123.9Z"/><path class="cls-1" d="M229.56,160.16s0-.07,0-.11S229.37,160.21,229.56,160.16Z"/><path class="cls-1" d="M220,143.78l-.15.25a1.54,1.54,0,0,0,.28.29C220.1,144.15,220.06,144,220,143.78Z"/><path class="cls-1" d="M178.1,79.86l0,0C177.73,79.86,177.91,79.86,178.1,79.86Z"/><path class="cls-1" d="M260.67,29.16c-.84-.09-.28-.46.22-.81s.91-.65-.39-.7C260.76,27.86,258.65,29.29,260.67,29.16Z"/><path class="cls-1" d="M218.18,141c-.19.21-.38.42-.59.62A3.91,3.91,0,0,0,218.18,141Z"/><path class="cls-1" d="M260.5,27.65h0Z"/><path class="cls-1" d="M181.52,59.09a.76.76,0,0,0-.23-.35C181.29,58.81,181.34,58.91,181.52,59.09Z"/><path class="cls-1" d="M173.85,72.87l-.39-.47A3.46,3.46,0,0,0,173.85,72.87Z"/><path class="cls-1" d="M186.43,50.64a1.54,1.54,0,0,0,.37-.79.51.51,0,0,0-.13.09A.84.84,0,0,1,186.43,50.64Z"/><path class="cls-1" d="M196.81,44.68a2.49,2.49,0,0,0-.24-.17h-.45C196.35,44.55,196.59,44.63,196.81,44.68Z"/><path class="cls-1" d="M255.35,150.82l-.78-.9C255.06,150.58,254.73,150.54,255.35,150.82Z"/><path class="cls-1" d="M218.33,140.45a.61.61,0,0,1-.15.59l.39-.46C218.53,140.48,218.46,140.4,218.33,140.45Z"/><path class="cls-1" d="M181.51,48a14.31,14.31,0,0,1,1.64-2.78A10.91,10.91,0,0,0,181.51,48Z"/><path class="cls-1" d="M322.26,91.66c-.1.21-.17.43-.28.64A1.48,1.48,0,0,0,322.26,91.66Z"/><path class="cls-1" d="M191.06,39.54a12,12,0,0,0,1.79.16,1.19,1.19,0,0,0,.33-.22h-1.06Z"/><path class="cls-1" d="M254.56,149.91h0Z"/><path class="cls-1" d="M251.22,161.69c1.33-1.15,1.36-1.65,1.18-1.88s-.62-.29-.61-.71c.56-.72.81-1.2,1.06-1.45s.39-.33.54-.31.5.36,1-.12a8.21,8.21,0,0,0,.51-3.2c0-.91-.08-2.07-.08-2.14s.21-.09.39.08c-.4-.49-.41-1.07-.74-1.63a2.26,2.26,0,0,0-.23-.34l-.15-.19,0-.06h0c.07,0,.11-.06.11-.2a3.51,3.51,0,0,1,.34.35c-.59-.66-1.14-1.34-1.44-1.75a2,2,0,0,0,.82.19,1.18,1.18,0,0,1,.82.5c-.47-.15-.35.09-.4.25.16,0,.33,0,.55-.06.51.56.28.57,0,.55s-.55-.14-.28.25a9.21,9.21,0,0,0,1.51-.17l.28,0c.12,0,.3,0,.44,0l.88-.06c.56-.06,1.09-.07,1.56-.08.25.41-.86.61-1.73.65s-1.47.07-.16.48a5.13,5.13,0,0,1-1.25-.23c-.18-.07-.38-.18-.6-.27.33.4.37.57.38.64s-.06.06-.12,0-.14,0-.12.05.15.31.32.69a.34.34,0,0,0,.16.08,4.68,4.68,0,0,0,.88,0,11.39,11.39,0,0,0,1.94-.17,36.33,36.33,0,0,0,4.43-1.14c.71-.8-.54-.53.13-1.32,1.21-.8,2-1.34,2.71-1.71a11.79,11.79,0,0,1,1.76-.75,3.92,3.92,0,0,0,1.47-.82,4.35,4.35,0,0,0,1.15-2.25c0-.64-.2-1.17-.24-1.84a7.13,7.13,0,0,1,.65-2.85,12,12,0,0,1,.74,1.2,4.21,4.21,0,0,0-.16-3.22c-.06-.13-.14-.33-.19-.43a.88.88,0,0,1-.13-.28,1.38,1.38,0,0,1,0-.77c.48.47.43,1.08.54.93.36-.31.21-.36-.06-.6a2.21,2.21,0,0,1-.75-.94c.31.19.62.4.94.64a3.58,3.58,0,0,0-.25-.44l-.06-.1h.38c.19,0,.42,0,.71-.09l.5-.09c.45,0,1-.08,1.43-.13a21.42,21.42,0,0,0,2.85-.56c-.18.3-.91.73.2.75a20.66,20.66,0,0,0,8-4.45,18.93,18.93,0,0,0,5-7.64,14.36,14.36,0,0,0-.31-2.25c0-.23.35-.16.49,0,.15-.13,0-.17-.15-.24s-.43-.06-.57-.29c0-.48.4-.19.63.12a7.49,7.49,0,0,1-.38-.82l-.23-.56-.14-.31-.07-.16,0-.08h0c.25.11.82.34,1.45.55l.46.16.11,0a.58.58,0,0,0,.16,0l.57.16,2.1.5-.81.18a4.66,4.66,0,0,0,2,0,5.44,5.44,0,0,0,1.36-.54,12.92,12.92,0,0,1,1.24-.58,6.61,6.61,0,0,1,1.73-.3l-.5.27a12.94,12.94,0,0,0,4.71-2.11,14.22,14.22,0,0,0,3.56-3.75,24.38,24.38,0,0,0,3.27-8.52c-.28-.26-.33-.81-.44-1.49-.06-.35-.06-.73-.13-1.12l0-.21v-.12c0-.07,0-.13,0-.19-.05-.52-.22-.85-1.21-1.5,0,0,0-.07,0-.07a10.94,10.94,0,0,1,1.91.47,2.07,2.07,0,0,0,.6.16,13.61,13.61,0,0,0,2.94-.89c1.37-.68,1.49-1.88,2.73-3.11l.53.57a17.1,17.1,0,0,0,1.19-2.28,14.16,14.16,0,0,0,1.55-.41c.32-.49.57-1,.85-1.53-.43.55-1.11,1-1.23.78.64-1.15,1.53-2.45,2.25-3.57s1.23-2,1.44-2a17,17,0,0,0-.27-6.42c.34.09.54,1.14.75,2-.45-1.71-.31-1.85-.11-2s.45-.29-.23-1.78c-.09.45-.5-.13-.66-.16a8.25,8.25,0,0,0-.73-3.37,12.76,12.76,0,0,0-2.25-3.63l.73.1c-.25-.36-.52-.72-.79-1.08l-.89-1a1.3,1.3,0,0,0-.26-.17c0-.13,0-.15.37-2.24a29.32,29.32,0,0,0,.17-5c-.2,1.88-1.12,1.4-1.26,0l.76-.64c-.57-.89-.18,1.54-.95-.32-.15-1.81.74-1.39,1.17-.31a23.22,23.22,0,0,0-.67-2.24c.21-.19.45.32.79.4a7.33,7.33,0,0,1-.53-2.54,4,4,0,0,0-1.2-2.67l.17-.23A18.61,18.61,0,0,0,315,48.94a24.54,24.54,0,0,0-4.36-3.56c-.23.27-.67.15-1.21-.05a6.3,6.3,0,0,0-1.9-.45A18.55,18.55,0,0,0,298,41.94c-2.58.41-.74.62-1.85,1.08-.05-.33-1.3-.32-1.28-.44-.22-.08-.26-.17,0-.45a4.52,4.52,0,0,0-.64.23,5.93,5.93,0,0,0-.44-.75l0-.06-.1-.21-.22-.44a9.8,9.8,0,0,0-.53-.92,21.53,21.53,0,0,0-1.43-2.15c.08.63.3,1.23-.06,1.05-.57-.75-.89-2-.56-2L291,37c-2-2.23-3.83-5.05-6.15-7.48s-5-4.37-7.52-4.67l.28,0-1.22-.33-1.23-.24a18.59,18.59,0,0,0-2.47-.35c-2.18-.67,1.45-.14-.1-.94-2.78,0-4.87-.3-6.9-.31a14.24,14.24,0,0,0-6,.92c-1.88-.53-4.93.48-7.7,2.14s-5.28,3.88-7.38,5.1l.5.13c-.52,1.17-1.19.87-1.89,1.45.35.14,1.2-.67.86,0-.37.4-.69.86-1,1.29s-.69.86-1,1.33l-.77,1.14c-.09.12-.15.25-.23.38s-.29.49-.42.68l-.16.28s0,.13-.07.07l-.06-.26A11.16,11.16,0,0,0,240,36.3l-.07-.2,0-.09v0s0,0,0,0l-.1-.11a17.53,17.53,0,0,0-1.61-1.77,18.5,18.5,0,0,0-3.95-3,17.43,17.43,0,0,0-4.65-1.87,3.82,3.82,0,0,0-3.58.57,4.7,4.7,0,0,1-1.37.54,23.45,23.45,0,0,1-2.79.19,13.18,13.18,0,0,1,1.33-1.1A22.11,22.11,0,0,0,212.36,36a17.91,17.91,0,0,0-3.3,5.35,5.88,5.88,0,0,0-.26.74,2.17,2.17,0,0,0-.06.25,3.25,3.25,0,0,0,0,.33,5.57,5.57,0,0,0,.1,1,5.68,5.68,0,0,1-.31-.82c-.1-.08-.15-.11-.18-.1s-.09,0-.12,0a.3.3,0,0,0-.13.11,1,1,0,0,0-.27.46c-.27-.19,0-.49-.05-.79,0-.06,0-.09,0-.1l-.07,0-.15-.07-.31-.11a11.67,11.67,0,0,0-1.32-.36c-.87-.21-1.67-.36-2-.79-.1-.14.48,0,.77,0-.53-.06-1.65-.5-2.59-.75s-1.66-.34-1.25.12a12.68,12.68,0,0,0-4.11-.73l-3.89,0a5.54,5.54,0,0,1-1.42.55c-.28.08-.56.12-.88.21l-.94.3a5,5,0,0,0-1.56.75c-.4.27-.6.58-.55.89-.2-.54-1.58.07-2.78,1.32a8.91,8.91,0,0,0-2.21,4.06c0-.36-.3,0-.54.33s-.52.72-.6.25c-.88,2.26-.75,4.65-.14,4.22a6.14,6.14,0,0,0,.68,5.15,13,13,0,0,0,.77,1.08c.3.31.61.61.91.88a5.6,5.6,0,0,0,.92.72q.47.31.87.63l3.39-4.22a6.19,6.19,0,0,1-1.38-2,14,14,0,0,0-9.8-1.45,16.67,16.67,0,0,0-4.27,1.51,14.7,14.7,0,0,0-3.53,2.68c-.16-.24.07-.65.5-1.14a9.67,9.67,0,0,1,1.82-1.35l1-.58c.33-.16.64-.31.89-.46.49-.3.79-.55.64-.81A13.3,13.3,0,0,0,168.81,58a15.49,15.49,0,0,0-2.63,6.9c-.08.37-.12.5-.18.48s-.12-.19-.15-.43c-.08-.47-.13-1.23-.17-1.51-.6,6.13,2.21,11.46,6.67,13.85-.06.08-.57-.14-1-.38.41.28.86.65,1.24.89s.7.29.78,0a7.14,7.14,0,0,1-.9-.38c-.42-.77.57-.47,1.72-.27a5.27,5.27,0,0,0,2.57.11c-.45.26-.44.48-.16.69a3.68,3.68,0,0,0,1.33.53c1,.28,2.09.45.66,1.34.71,0,1.56-.37,1.38-.69a2.78,2.78,0,0,1,.71.1L193,84.31,181.26,75c-.2-.16-.18-.27.14-.31l3.88-.51-4.59,5.41a1.27,1.27,0,0,1-.4.24l.42-.07,7.57-3.4-6.82-1.82a5.68,5.68,0,0,0-2.62-.29,21.12,21.12,0,0,1-2.52,0c0-.25.65-.31,1-.58l-1.25.28c-.42.1-.83.26-1.28.36s-.92.23-1.43.37c-.25.06-.52.12-.81.17l-.88.23c.11-.19-.24-.29.5-.52a11.87,11.87,0,0,0-5,3.15,38.62,38.62,0,0,0-3.93,4.63c-.22-1.78-1.13,1.22-2,1.17-.12.45-.25.9-.35,1.35l-.17,1.39c.22-.33.45-.65.68-1a7.68,7.68,0,0,0-.25,1.68c0,.56,0,1.1.08,1.62s.18,1,.24,1.51a12.57,12.57,0,0,1,.22,1.46,11,11,0,0,1-.68-1.61,15.67,15.67,0,0,0,.5,2.13,17.32,17.32,0,0,0,.87,2,6.8,6.8,0,0,1-.3-1.18,8,8,0,0,1-.21-1.19c.55,1,.85.83,1,.79s.18,0,.28.16.21.53.49,1.16c-.17-.23.06.24.36.9a13,13,0,0,1,1,2.06h0c.46.31.92.6,1.42.92a9.18,9.18,0,0,1,.74.57,9.57,9.57,0,0,1,.81.7c.16.49-.87.64-.77,1a4.47,4.47,0,0,1,1.29.39c.5.23,1.08.53,1.7.75a7.6,7.6,0,0,0,1.83.54,1.84,1.84,0,0,0,1.29-.08.71.71,0,0,0-.51.7,7.55,7.55,0,0,1,.86-.47c.61.29.56.35.21.7.73.13.91-.2,1-.39s.26-.38,1.21-.22a6.84,6.84,0,0,1-.77.24,4,4,0,0,0,1.18-.12,4.31,4.31,0,0,0,.67-.21l.34-.13.18-.06s.08,0,.06,0l0,.05c-.24.27-.46.56-.7.87-.45.63-1,1.4-1.57,2.14-1.36.43.62-1.34-.75-.63a5.58,5.58,0,0,0-.55,1.38c0,.1-.18.45-.26.73l-.28.88c-.16.59-.34,1.18-.45,1.78a29.65,29.65,0,0,0-.53,7.09c0-.29,0-.57.06-.86.67.3.54,1.1.47,2.18a5,5,0,0,0,.72,3.41c-.3-.49-1-.44-.76-.34a11.12,11.12,0,0,0,2.69,4.36,14.82,14.82,0,0,0,5.24,3.46l-.69,0a9.15,9.15,0,0,0,3.2,1.48,13.75,13.75,0,0,0,3.73.38c.63-.36,1.79-.6,1-.93a6.92,6.92,0,0,0,4.55-1.24,9.29,9.29,0,0,0,3-3.4,14.25,14.25,0,0,0,1.45-4.1,20.28,20.28,0,0,0,.36-4.4c.23.68.6,1.67.54,1.08a11.87,11.87,0,0,0-.49-1.64l-.75-2.45-1.84,1.55a18,18,0,0,0-2.37,2.24c.69.17.66-.23,1.7-.47a8.54,8.54,0,0,1-.64,1.16c-.29.44-.66.88-1,1.32.44-.9.34-1-.11-.92a9.75,9.75,0,0,0-1.44.86c.24,0,.21.34.4.38-1.1.69-.88,1-.71,1.31s.32.75-.62,2l-.21-.28a8.71,8.71,0,0,0-.31,1.74c-.11.57-.16,1.15-.33,1.75-.76.38-.06-1.29-.51-1.52a4.23,4.23,0,0,0-.13,1.37,8.81,8.81,0,0,0,.11,1.36A6.22,6.22,0,0,1,189,128a3.21,3.21,0,0,1-.23,1.21,5.91,5.91,0,0,1-.14-1.31,9.54,9.54,0,0,0,0-1.33c-1,1.68-.77,2-.93,3.33l0-.14c-.07.53-.05,1.07-.08,1.61a11,11,0,0,0,.05,1.62l.06-.84a4.84,4.84,0,0,1,1.12,1.59,9.77,9.77,0,0,1,.66,1.71,16.21,16.21,0,0,0,.8,1.79,6,6,0,0,0,1.48,1.61c-1.22-.93-1.41-1-1.4-.76s.24.8-.14.89a8.73,8.73,0,0,0,.47,1.28c.14.37.2.63,0,.55a6.67,6.67,0,0,1,1.56,1.58,3.9,3.9,0,0,0,2.27,1.46c-.07.29,1.44.86.83,1.23,1.92.85-.24-.62.09-.79a6.37,6.37,0,0,1,1.15.42,12.74,12.74,0,0,1,1.19.47l.62.3.64.24c.44.17.89.37,1.37.53a9.33,9.33,0,0,0,6.24,0,10.19,10.19,0,0,0,2.18-.83,8.84,8.84,0,0,0,1.47-.92l1.31-1c.45-.4,1-.76,1.61-1.26.56-.12.49.18.27.53a2,2,0,0,1-.39.47l-.23.21a5.09,5.09,0,0,0,1.22-.48,10.68,10.68,0,0,0,1.05-.61,9.19,9.19,0,0,0,1.7-1.76c-.09.4.28.28.86.07,1-1.09,0-1.28,1.36-2.53a4.06,4.06,0,0,1-.07,1.74,11.71,11.71,0,0,0,.8-1.63c.19-.56.37-1.13.56-1.71l.78-2.42-2.11.62a4.39,4.39,0,0,0-1.81,1.06c-.33,0-.24-.33.16-.72a4.65,4.65,0,0,1,1.57-1l3.06-1.34L221,136.81s0,0,0,0l0,0,1.49-3.44-3.49.71a4.7,4.7,0,0,0-2.19,1.1,4.76,4.76,0,0,0-1.3,1.9,2.92,2.92,0,0,0,.14,2.85,4.11,4.11,0,0,1,.33-1.37c-.1.75-.67.34-.64-.34a2.49,2.49,0,0,1,1-2.06,1.05,1.05,0,0,1,1-.19,4.21,4.21,0,0,0-.79,1.15c.89-.18,1.48-1,2.72-1.34l.4-.13-.17.43c-.25.64-.42,1.41-.74,2.1a6.11,6.11,0,0,1-1.16,1.82,8.7,8.7,0,0,0-.16-1.42,6.9,6.9,0,0,1-.45,1.17c-.18.38-.34.79-.55,1.17-.6.13-1.2-.09-.47-.94a2.42,2.42,0,0,0-1.19.9,1.43,1.43,0,0,1-1.14.65c-.18,0-.15-.08,0-.19a10.86,10.86,0,0,1-1.19,1.06c.17-.34-.56-.53.33-.83a7.52,7.52,0,0,0-1.71.7,10.72,10.72,0,0,0-1.32.72c-.79.42-1.45.74-2,.47l.21-.11c-1.82.49-1.92.67-1.86.92s.26.57-1.27,1.11a18.46,18.46,0,0,1-1.92-1.94c-.14.26-.29.49-.44.72-.4-.09-1.17-.27-1-.55-1.55.25.19.4-.76.7a6.29,6.29,0,0,0-1.55-.7c-.55-.25-1.14-.45-1.67-.67a8,8,0,0,1-1.27-.82.88.88,0,0,1-.33-.92c-.9,0,1.21,1.48-.68.55.16-.71-.35-1-1-1.4a6.8,6.8,0,0,1-1-.72,3.18,3.18,0,0,1-.7-1.11c.88,0,1.54,1.48,1-.21a1.18,1.18,0,0,1-.92-.51,4.54,4.54,0,0,1-.53-1.13c-.13-.42-.17-.9-.27-1.31a8.37,8.37,0,0,0-.33-1.12c-.41.1-.83-.6-1-1.68l-.16-.85c0-.3-.05-.61-.08-.93s-.08-.64-.1-1,0-.63-.06-.94c.08,0,.15-.23.23-.68s.25-1.09.42-1.78a15.29,15.29,0,0,1,.75-2.12l.44-1,.49-.77.11.12c-.72-.8.6-2.76,1.61-4.11.35.4.31.78,0,1.61a7.91,7.91,0,0,1,.95-1.12,1.87,1.87,0,0,1,.23-.72,2.82,2.82,0,0,1,.75-.89c0,.26.07.52.12.77a10.71,10.71,0,0,0,1-.85l-2.77-1a5.54,5.54,0,0,1,.62,2.11,3.92,3.92,0,0,1-.65,2.49c.26.19.89-.1,1.33-.17s.87.18.38,1.76c-.38-.06-.9-.24-.74-1a2.25,2.25,0,0,1-.53,1.31,9.36,9.36,0,0,0,0-1.29c-.36.49-.37.66-.3.85a.62.62,0,0,1-.14.77c-.4-.29-.71.38-.94,0,.09-.22.68-.53.67-1-.62.86-1.69,1.63-2.25,1.58.25.14.48.49-.08,1-.78.63-1,.56-1.18.44s-.24-.33-.75-.17c-.12.24-.49.41-.79.6s-.57.33-.49.69c-.54.16-.72-.2-.95-.34a5.1,5.1,0,0,1-2.41.28c-.89,0-1.55-.15-1.09.41l.24.12h-.17a7.2,7.2,0,0,1-4.79-2.45,22.62,22.62,0,0,1-3.11-4.45l.23-.1c-1.23-1.74-1.49-4.32-1.94-5.87,0-.65.55-1.47.81-1.17a14.66,14.66,0,0,1,0-1.8,6.18,6.18,0,0,1,.83-2.2c-.09,1.67.49-.41-.18,1.67a21.6,21.6,0,0,1,1-2.09,7.43,7.43,0,0,0,.37-1c0-.1,0-.19.08-.3l0-.16.08-.24c.12-.33.22-.7.38-1.08,0,.58.52.13,1.22-.76s1.86-2.16,2.41-2.9l-1.34,1.18-1.13,1,.82-1.09.94-1.08c.62-.71,1.32-1.43,2-2.14a3.35,3.35,0,0,1,1.08.08c1.57-1.41,3-2.8,4-3.84l.37-.4.18-.19.06-.1a2.84,2.84,0,0,0,.17-.36,1.35,1.35,0,0,0,.08-.3v-.12l.27-.42c-2.72,1-5.3,2-7.38,2.71l-1.56.54-.74.26-.66.22c-.73.2-1.41.38-2.06.54l-1,.23a.74.74,0,0,1-.36,0l-.31,0a11.55,11.55,0,0,1-1.2-.21,1.49,1.49,0,0,1-.81-.39,3.42,3.42,0,0,1-.56-.52c-.58.08-.15.38.35.64a3.89,3.89,0,0,1,.62.42c.23.12.2.24-.17.35a6.21,6.21,0,0,1-1.24-.68,10.92,10.92,0,0,1-1-.93c-.51-.67-.86-1.19-1.05-1.37a4.92,4.92,0,0,0-1.07-.86,5.21,5.21,0,0,0-1-.35,4,4,0,0,1-1-.44,3.16,3.16,0,0,1-.93-1.19c-.06.39-.6,1.24-1.85-.59-.31-1-.21-1.64.1-1.91s.62-.15.9.33.15.61,0,.63c.26.52.79,1.08.74.35l-.37-.08c0-.47-.25-1.23-.24-1.84s.08-1,.32-.81c-.36-1.15-.54-.51-.6.47.06-.55.07-1,.09-1.46s.05-.85.15-1.26a5.84,5.84,0,0,1,1-2.58c-.31.24-.79.39-.61.07s.4-.66.57-.89a4.06,4.06,0,0,0,.37-.55,1.3,1.3,0,0,0,.19-.64c0-.3-.16-.59.7-1.53.68-.32.75,0,.87.1s.23,0,1.1-.81c1.4-.53.64.47.38,1a3.86,3.86,0,0,1,2.42-1.37,15.31,15.31,0,0,1,2.1-.1,6.84,6.84,0,0,0-.89.46,2.14,2.14,0,0,1,.75-.31,3.85,3.85,0,0,1,.72-.15,7.89,7.89,0,0,0-.65-.49c.61,0,1.1,0,1.1.22.28-.22.17-.46.11-.72s0-.58.62-.83a13.82,13.82,0,0,0,1.68.24c.6.05,1.06.32,1.07.72-.58-.3-.9-.33-1-.28s-.12.15-.08.29.13.58-.84.45a2.07,2.07,0,0,1,.64.06,1.76,1.76,0,0,1,.71.26c0,.11-.12.13-.26.12a2.09,2.09,0,0,0,.85.48l1-6.88c-.71.05-.36,1.23-2.22.87.38-.39-.3-.89-.65-1,.82.32.23.88-.81.84a5,5,0,0,0-1.43-.83,2.14,2.14,0,0,1-1-.49,5.89,5.89,0,0,0,.73.77c-.55.16-1.29-.42-2.25-1.32.19-.3,1,.7.76.27a2,2,0,0,1-.91-.71,5.84,5.84,0,0,1-.52-1.16,9.15,9.15,0,0,0-.91-2.55c.06-.89.75-.31.8-1a1.91,1.91,0,0,1-.11-1.84,2.92,2.92,0,0,0,.28-.72,2.8,2.8,0,0,0,.2-1c-.4.11-.5.26-.6.14s-.08-.41-.06-1.19a6.87,6.87,0,0,0-.34,3.23,6.63,6.63,0,0,1-.53-2.26c-.4,1,0,2.26,0,2.88-.51-1.06-.36-1-.84-.44a2.45,2.45,0,0,0,.22-.58,2.37,2.37,0,0,0,.14-.57,5.63,5.63,0,0,0,0-.58c0-.2,0-.4.05-.6a3.36,3.36,0,0,1,.23-1.24,2.2,2.2,0,0,1,.77-1.08l1.19.87c.9-.72,1.48-1.49,2.36-2.32a5.85,5.85,0,0,1,3.83-1.61c-.36,0-.74-.06-1.12-.07.16-.33.7-.45,1.33-.5.31,0,.64,0,1,0a4.68,4.68,0,0,0,.92,0c-.07.24.07.41.26.57s.43.36.61.54c0-.09.15-.12.37-.1l.8.17c.58.16,1.24.29,1.61,0l.43.66c.12.22.21.47.31.69s.2.2.28.28l3-3.75a5.66,5.66,0,0,0-.95-.57c-.15-.08-.32-.13-.47-.21l-.43-.26a2.41,2.41,0,0,1-1.14-2.34c.27.41.49.28.69.29s.4.15.69.81c-.13-.69,0-1.37-.36-1.39a1.16,1.16,0,0,0,.09-.56,7.3,7.3,0,0,1-.05-.87,2.17,2.17,0,0,1,.5-1.63c0-.42-.46-.79.13-1.68.15,0,.2.13.2.13s.06-.45.13-.77.08-.56-.44-.34c1.51-.79,2.94-2.12,4.72-2.77s4-.77,5.16,0a19.62,19.62,0,0,1,6.55,1.34c-.18.09-.1.23-.44,0a2.6,2.6,0,0,0,2.31.47c.56-.12,1.21-.21,2.93,1,.93.94.5.84-.14.55s-1.34-.65-.73-.17c.11.75,1,1.37,2.17,1.93.58.29,1.2.56,1.83.83l.94.44a2.66,2.66,0,0,0,.46.19l.3,0a10,10,0,0,1,.11-1.31,5.5,5.5,0,0,1,.31-1.12l0,1.1a12.16,12.16,0,0,0,.31-2.44,25.2,25.2,0,0,1,.23-2.92c.13-.51.11-.66.17-.95s.13-.53.2-.81a5.4,5.4,0,0,1,.76-1.59s.06.17.2.14A6.91,6.91,0,0,1,216.52,38a13.17,13.17,0,0,1,3-2.77c-.38.93-.79.88-.08,1.18.42-.33.24-.49.16-.76s0-.62,1-1.18c.83,0,2.44-.15,2.77.52a7.55,7.55,0,0,0-.93.26,6,6,0,0,0-.92.34,2.23,2.23,0,0,0,1.75-.2,4,4,0,0,1,1.68-.45l-.09.39c.7-.11,1.24-.13,1.7-.25s.87-.14,1.28-.21a5.52,5.52,0,0,1,3.29.53l-.21-.4a1.58,1.58,0,0,1,1.65.57,2.11,2.11,0,0,0,1.48.94c0,.38-.08.76-.13,1.13a13.36,13.36,0,0,1,2.49,1.51,13.76,13.76,0,0,1,2.92,4.08c-.25,0-.56-.35-.93-.85a8.7,8.7,0,0,1-.61-.8,4.45,4.45,0,0,0-.69-.91,7.48,7.48,0,0,0-2.65-2.07,9.93,9.93,0,0,1,.82.76c.16.17.31.3.51.51l.75,1a10.13,10.13,0,0,1,1.24,2.11,4.72,4.72,0,0,0,.78,1.17q-.16-.3-.33-.63l-.36-.62a6.9,6.9,0,0,1-.62-1.46,17,17,0,0,1,3.06,4.78.85.85,0,0,1,.17.08l.09.05s.06.12.09,0c.14-.39.29-.79.43-1.2,0,1.3.25,1.48.65.87a37.77,37.77,0,0,0,1.71-3.53l1.11-2.13a6.6,6.6,0,0,1,.61-1c.3-.4.37-.46.53-.65a3.34,3.34,0,0,1,1.77-1.23A13.05,13.05,0,0,1,252,33a40.83,40.83,0,0,1,6.19-3c-2.17-.8,1.34-.52.57-1.87,1.13-.44,1.59-.52,1.71-.46a22,22,0,0,1,3.66.31c.86.36-1,.44-.89.77,2.44-.11,1.09.49,2.65.87-.34-.52.83-.86,2.17-.5a13.94,13.94,0,0,0-1.91-.79,4.11,4.11,0,0,1,2-.07,3,3,0,0,1,1.18.53,4.42,4.42,0,0,0,1.15.58,5.51,5.51,0,0,0,1.93.32l-1.17.2a7.91,7.91,0,0,1,1.72.35l1.08.31c.37.12.74.28,1.13.41a15.08,15.08,0,0,0,4.11,1.14c.18.32.3.88-.43.56a60.56,60.56,0,0,1,5.47,4,10.92,10.92,0,0,1,3.51,5l-.47-.11c.43.65,1.3.92,1.3,2-.16,0-.47-.16-.35.2.1.17.29.46.49.84s.42.86.62,1.35A21.05,21.05,0,0,1,290.5,49l.2,0-.25.13a11.7,11.7,0,0,1-.72-1c.14.55.27,1.12.42,1.57,1.76-.43,3.49-1,5-1.4a3.9,3.9,0,0,1,.57-.13L296,48c.17,0,.34-.12.5-.16l1-.29a10.31,10.31,0,0,1,4.42-.35c-.12.52.58,1.07,1.41,1.62s1.82,1.16,2.43,1.61l-.12.11a29.38,29.38,0,0,1,4.8,3.47A14.06,14.06,0,0,1,314,59c-.13,1.26.08,3,0,5a16.76,16.76,0,0,1-.34,3.05l-.18.75c-.15.46-.3.92-.46,1.38l-.24.69-.3.77-.6,1.53c.62.53,1.22,1,1.79,1.57l.84.8.42.4.14.21c-.28-.6.69-.52,1.28,0a2.35,2.35,0,0,0,.52.66c.19.22.42.44.61.65.35.43.54.79,0,1l-.15-.31c-.49,1.09.46,2.68.68,4.18.45,0,.89,0,1.34,0-.6,2.23-.68,4.68-1.59,6.94s-2.54,4.06-3.93,4a13.36,13.36,0,0,1-2.41,2.13l-.23-.67-.57.18-.27.07-.14,0-.25.07a10.75,10.75,0,0,1-2.54.34c-.85.08-1.79.11-2.72.17s-1.83.09-2.8.16l1.38,2.82c.55,1.14,1.19,2.41,1.71,3.77-.28-.48-.78-1-1.19-1.62.22.57.56,1.11.73,1.56.08.22.19.45.25.63a1.15,1.15,0,0,0,.2.41c.26.27.5.52.8.78a2.52,2.52,0,0,1,1,2.07c-.37.15-.76.28-1.13.39a9.16,9.16,0,0,1-2,4.27,35.75,35.75,0,0,1-3.17,3.24.71.71,0,0,1,.32-.74,11.3,11.3,0,0,1-3,1c-1.1.24-2,.4-1.73,1.12,0-.47-.85-.44-1.9-.46a7.47,7.47,0,0,1-.82,0h-.13l-.22,0-.43-.07a6.36,6.36,0,0,1-.84-.28,15.41,15.41,0,0,1-3.08-1.48,3.1,3.1,0,0,1,.24-.67,19.4,19.4,0,0,0-2.51-.81,7.85,7.85,0,0,1-.91-.35,11.43,11.43,0,0,1-1.08-.61.91.91,0,0,0,0,.23l.16.43.35,1c.05.34-.12.32-.31,0a3.61,3.61,0,0,1-.47-1.34,11.09,11.09,0,0,0,.47,1.91c.2.6.43,1.15.64,1.69a9.82,9.82,0,0,1,.93,3.89l-.33-.87-.45-1c.25,1,.28,1.59.39,2.13s.1.83.16,1.12a6.67,6.67,0,0,0,.19.8c.09.26.16.39.25.7a4.27,4.27,0,0,1-.62,2.2c-.41.69-.94,1.16-1.28,1.14a2.19,2.19,0,0,1-.59,2.35c-.29,0-.15-.42-.11-.63-1.05,1.1-1.69,2-2.39,2.72a4,4,0,0,1-2.56,1.46.55.55,0,0,0-.48-.26,15.1,15.1,0,0,0,3.49-2c-.2-.23-.69-.09-1-.09s-.54-.18-.32-.92a7.44,7.44,0,0,1-1.68,2.13,4.64,4.64,0,0,1-2.75,1.23.8.8,0,0,1-.27-.18l.17-.1a3.17,3.17,0,0,0-1.1.26c-.29,0-.53-.07-.76-.09l-.77-.06c-.09-.14-.41-.23-.91-.34s-1.17-.37-1.88-.55-1.65-.65-2.45-.95l-2.27-.93c.52.6,0,.54-.16.62s0,.29,1.6,1.25c-.38-.2.26,0,1.6.5a5.59,5.59,0,0,0,.79.21l-.09,0,1,.37a9.77,9.77,0,0,0,1.07.25,5.65,5.65,0,0,0,1.15.2l.57,0h.36l-.29.12-.45.1-.51.05a6.55,6.55,0,0,1-1.68-.28,12.56,12.56,0,0,1-1.55-.72,2,2,0,0,0-1.08.88c-.55-.4-1.2-.82-1.85-1.26l-1-.67a4.36,4.36,0,0,0-.51-.31l-.33-.15c-.11.85.79,3.77.48,4l.74,1.45c.18.44.32.85.48,1.28l.23.63c.05.21.07.4.1.59s0,.56.08.84a14.2,14.2,0,0,1-.09,2.26c-.19,1.5-.59,2.83-.62,4-.38.81-.92.51-1.25.6.21-.44.58-.83.56-1.16a6.81,6.81,0,0,1-1.89,2.28c-.78.69-1.58,1.16-1.61,1.67-1.1.18-.86-.15-.72-.33s.23-.25-1.14.16l.31-.36-2.7-.06h-.62a7.12,7.12,0,0,1-1.14-.13,9.6,9.6,0,0,1-2.54-1l-5.18-2.7-1.65-.84c-.09-.06,0,0,0,.06l.05.11.09.24.1.24a1.24,1.24,0,0,1-.32,0,44.38,44.38,0,0,1,3.94,6.63,3.52,3.52,0,0,1,.16.35l.1.28.18.57.19.6a.82.82,0,0,1,0,.52l-.12,1a2.76,2.76,0,0,1-.27.69,3,3,0,0,1,.41-.76l0,.22,0,.16-.08.3a5.69,5.69,0,0,1-.16.59,9.54,9.54,0,0,1-.44,1.16,10.65,10.65,0,0,1-1.21,2.13,6.93,6.93,0,0,1-3.83,2.65,6.33,6.33,0,0,1-2.38.13,7.47,7.47,0,0,1-2.36-.79,9,9,0,0,1-1.06-.67,8.38,8.38,0,0,1-.93-.85l-.42-.47-.37-.53a4.94,4.94,0,0,1-.27-.42,3.27,3.27,0,0,1-.19-.53l-.33-1.14c-.36-.27-.64-.55-1-.82s-.43-.53-.65-.78-.21-.35-.3-.48a1,1,0,0,1-.17-.34c0-.1-.06-.18-.09-.26l0-.11,0-.06,0-.21c.06-.49.1-.93.15-1.41l0-.31v0h0l-.18,1.3h0v.12l-.07.38c0,.09,0,.16-.07.17a4.62,4.62,0,0,1-.41.85c-.09.15-.16.33-.28.5a5.49,5.49,0,0,0-.37.53,3.45,3.45,0,0,1-1.6,1.16l-.19.28-.23.18-.48.36-.25.18a1.12,1.12,0,0,1-.16.1l-.11,0-.4.14a9.65,9.65,0,0,1-1.67.32c-1.13.12-2.16.26-3.56.48a3.87,3.87,0,0,0,.38.58,7.71,7.71,0,0,1-2.45-.76c-.75-.45-1.2-1-.91-1.11a.71.71,0,0,1-.84-.52l.28-.27a7.83,7.83,0,0,1-2-2.72c-.14-1.38.34-1.29.68-1.38s.57-.31.81-1.85a21.12,21.12,0,0,1,.1-2.15c.09-.7.2-1.31-.06-1.19a5.54,5.54,0,0,1-.7.65c-.24.21-.49.35-.68.28l.25-.67c.1-.21.23-.42.34-.63-.38-.47-.58-1.16-1.08-1.4-.24-.14-.59-.11-1.11.16a3.22,3.22,0,0,0-.86.68,5.61,5.61,0,0,0-1,1.28,10,10,0,0,0,0,3.4c-.2.32-.41.67-.59,1,0-.47,0-.93,0-1.4s.11-.94.21-1.41a3.81,3.81,0,0,0,.05,3.7,2,2,0,0,0-.4,1.46,12,12,0,0,0,2.11,2.63c-.21.57-1.5-.92-.68,1.19.66.53.66.06.73-.25s.19-.5,1,.38c.53,1.47-.06,1.55,1.66,2.43,0,.38-.43.34-1.09-.11a16.75,16.75,0,0,0,2.74,1.49,3.52,3.52,0,0,0,2.42.26,5.46,5.46,0,0,0,3.37.35c.58-.07,1.09-.17,1.46-.2s.64.07.69.35c.2-.23.84-.66,1.49-1.22.33-.27.68-.55,1-.86l.45-.39c-.08,0,0,0,0-.05l.07-.07c0,.7.27.63.48.48s.53-.74.37.66c0-.49.13-.9.19-1.26,0-.15.05-.32.08-.5s0,0,0,.09a.91.91,0,0,0,.5.84l.1,0-.16.05c-.05,0-.08,0-.08-.05l0,.14a.7.7,0,0,1,0,.52,7,7,0,0,0,.77,1.4,1.14,1.14,0,0,1,.9,0,11.36,11.36,0,0,1,1.29.49c.48.2,1,.38,1.48.54a8.32,8.32,0,0,0,1.4.25c.9.83.53,1-.14,1.05s-1.52-.09-1.36.51c.06-.2.36-.21.77-.15s1,.13,1.46.21c1.05.1,2,.07,1.59-.32a10.5,10.5,0,0,0,1.64.59,3.49,3.49,0,0,1,1.07.58c.13-.6.57-.75,1.2-.86a3.9,3.9,0,0,0,1-.29,2.47,2.47,0,0,0,1-.71,5.19,5.19,0,0,1,2-.3c.26,0,.59-.08,1.61-1.33.64-.43.6,0,.32.44A8.9,8.9,0,0,1,251.22,161.69Zm26.36-28v0c-.52.15-1,.22-1.26.28C276.58,133.94,277,133.89,277.58,133.7Zm4.87-2-.94.52-1.11.53c-.26-.16-.17-.45.29-.67C280.51,132.34,281.67,132,282.45,131.69Zm-11.56-2.9a8.56,8.56,0,0,1,1.46.37,1.62,1.62,0,0,1,.55.24l-.47,0-.54-.11-1.26-.26s-.11,0-.14,0A.61.61,0,0,1,270.89,128.79Z"/><path class="cls-1" d="M268.92,129c-.19-.06-.27-.06-.51-.14.33.19.63.37.91.51l.3-.13Z"/><path class="cls-1" d="M184,126.85l-.09,0a.39.39,0,0,1,.16.15S184.06,126.88,184,126.85Z"/><polygon class="cls-1" points="318.51 96.65 318.39 96.52 318.11 96.94 318.51 96.65"/><path class="cls-1" d="M191.26,118.54a.66.66,0,0,0-.37.19A1,1,0,0,0,191.26,118.54Z"/><path class="cls-1" d="M187.69,129.86c-.07.57-.08,1.14-.12,1.73C187.65,130.83,187.65,130.29,187.69,129.86Z"/><path class="cls-1" d="M189.9,138.94a.71.71,0,0,0,.36,0h-.36Z"/><path class="cls-1" d="M171.31,76.88l-.33-.24C170.18,76.11,170.69,76.52,171.31,76.88Z"/><path class="cls-1" d="M165,96.71l-.6-.41a6.17,6.17,0,0,1-.53-.5C164.24,96.51,164.68,97,165,96.71Z"/><path class="cls-1" d="M181.36,48.35h0l.14-.34Z"/><path class="cls-1" d="M162.79,94a5.41,5.41,0,0,0,.44,1,5.35,5.35,0,0,0,.62.77l-.53-.9A6.09,6.09,0,0,0,162.79,94Z"/><path class="cls-1" d="M214.59,137.67a4.44,4.44,0,0,0-.19.62s.07,0,.09.09A5.77,5.77,0,0,1,214.59,137.67Z"/><path class="cls-1" d="M214.49,138.38a5.61,5.61,0,0,0,0,.71C214.49,138.77,214.56,138.5,214.49,138.38Z"/><path class="cls-1" d="M214.74,140.59a5.2,5.2,0,0,1-.26-1.5A2.15,2.15,0,0,0,214.74,140.59Z"/><path class="cls-1" d="M215.32,143.27l0,.29A.3.3,0,0,0,215.32,143.27Z"/><path class="cls-1" d="M212,145.17c.84-.31,2.35-.48,3.35-1.38v-.23a2.85,2.85,0,0,1-1.55.83A4.28,4.28,0,0,0,212,145.17Z"/><path class="cls-1" d="M197.8,142.2a15.83,15.83,0,0,0,2.45,1.08c-.39-.38-.84-.89.3-.64-1.45-.79-1.28-.69-1.24-.38S199.4,142.9,197.8,142.2Z"/><path class="cls-1" d="M192.43,136.38c.81,1.12.34-.21.52-.2C192.36,135.53,192.22,135.33,192.43,136.38Z"/><path class="cls-1" d="M175.61,112.36l.62.22C176.3,111.54,176,112.53,175.61,112.36Z"/><path class="cls-1" d="M176.33,102.57l-1.06.75a3.68,3.68,0,0,1,.71-.08C176.1,103,176.22,102.76,176.33,102.57Z"/><path class="cls-1" d="M176.64,97.86l1.44-.45-1.36.4-.66.2c-.16,0-.28,0-.42,0L174,97.94l1.17.06A2.89,2.89,0,0,0,176.64,97.86Z"/><path class="cls-1" d="M194.4,45.24c-.11-.25-.24-.52-.37-.76C193.35,44.72,193.35,45.58,194.4,45.24Z"/><path class="cls-1" d="M230.6,35.64a2.84,2.84,0,0,0,2,1.27A7.29,7.29,0,0,0,230.6,35.64Z"/><path class="cls-1" d="M318.54,83.31c-.08-.25-.19-.49-.29-.73a13,13,0,0,1,.23,1.39Z"/><path class="cls-1" d="M227.42,85.57c.16.15.56.43.54.29l-.61-.56Z"/><path class="cls-1" d="M229.05,86a5.48,5.48,0,0,0-1.3-1.36,13.35,13.35,0,0,0,.9,1.13c0,.14-.32,0-.55-.24.15.16-.24,0,.14.37.59.3.69.21.4-.27A2.11,2.11,0,0,1,229.05,86Z"/><path class="cls-1" d="M237.06,83.53l-.06-.09A.17.17,0,0,0,237.06,83.53Z"/><path class="cls-1" d="M241.52,85s-.09.06-.13.13A.24.24,0,0,0,241.52,85Z"/><path class="cls-1" d="M241.63,86.19v-.07C241.6,86.19,241.58,86.23,241.63,86.19Z"/><path class="cls-1" d="M237.06,83.53l.14.26C237.2,83.52,237.12,83.59,237.06,83.53Z"/><path class="cls-1" d="M228.57,83.62a.79.79,0,0,0,.07.23.53.53,0,0,1,0-.13Z"/><path class="cls-1" d="M235.06,84.5h0l.06.33Z"/><path class="cls-1" d="M233.63,85.14a6.08,6.08,0,0,0-.34-.92,1.27,1.27,0,0,1,.12.47Z"/><path class="cls-1" d="M230.78,85.47l0,.1Z"/><path class="cls-1" d="M236.19,84.44c0,.1,0,.19,0,.24A1.72,1.72,0,0,0,236.19,84.44Z"/><path class="cls-1" d="M233.51,82.33l.05.12C233.54,82.38,233.53,82.33,233.51,82.33Z"/><path class="cls-1" d="M237,85l0,0,0,.39Z"/><path class="cls-1" d="M241.86,87.6h0C241.79,87.62,241.81,87.62,241.86,87.6Z"/><path class="cls-1" d="M241.59,96.86c.45.47.24.79.79,1.29A4.93,4.93,0,0,0,241.59,96.86Z"/><path class="cls-1" d="M228.67,83.65a.22.22,0,0,1,.06-.07A.07.07,0,0,0,228.67,83.65Z"/><path class="cls-1" d="M242.38,98.15h0l.06,0Z"/><path class="cls-1" d="M243.52,89.69a2,2,0,0,0,.28-.12A1.61,1.61,0,0,0,243.52,89.69Z"/><path class="cls-1" d="M243.41,87.27l0,.1C243.41,87.31,243.42,87.28,243.41,87.27Z"/><path class="cls-1" d="M244.76,90.59s-.14.07,0,.1l.08,0C244.7,90.66,244.65,90.65,244.76,90.59Z"/><path class="cls-1" d="M244.89,91.88l.14,0,0,0Z"/><path class="cls-1" d="M228.77,87.07a3.63,3.63,0,0,1,.58.25C228.91,87.09,228.91,86.72,228.77,87.07Z"/><path class="cls-1" d="M228.83,83.91c-.11-.14-.16-.22-.16-.26a.14.14,0,0,0,0,.07A1.73,1.73,0,0,0,228.83,83.91Z"/><path class="cls-1" d="M250.23,89.73l0,.35A.59.59,0,0,0,250.23,89.73Z"/><path class="cls-1" d="M231.22,101.24l-.12,0S231.15,101.29,231.22,101.24Z"/><path class="cls-1" d="M250.39,91.08a1.37,1.37,0,0,0-.47.22l.18,0Z"/><path class="cls-1" d="M229.36,87.32h0Z"/><path class="cls-1" d="M229.4,84.5c-.26.25.57.72.92,1.13-.06.45-.64-.31-1.09-.51,0,.35.58,1,.45,1.14a.83.83,0,0,1-.32-.23c.45.64-.43.64.21,1.38l-.21-.09a8.76,8.76,0,0,1,1.1.63c-.05.11.39.49-.15.22.05,0-.15-.18-.3-.31l.16.25c-.81-.33-.17-.31-.72-.64.1.39.59,1,.28,1-.78-.34,0-.55-.82-.66l.44-.13c-1.29-.43.19-.14-1.18-.63-.44.31.11.66-.3,1,.39.29.65.26,1,.55.55.87-2.17-.37-1.3.5.49.32,1.5.7.87.82l-.89-.4c-.22.41,1.25.64.5.88-.34-.17-.21-.41-.33-.37-.82.08.46.34.4.54l-.83-.15c0,.51.52,1.11.64,1.62a1.38,1.38,0,0,0-.78-.08,1.12,1.12,0,0,1,0,1,6.31,6.31,0,0,1-.6,1.1l.75.19c0,.06-.31.15-.47.1-.23.3.47,0,.77,0,.08.14-.38.25-.62.19.7.41,1.53.95,1,1.64l-.24,0c-.15.48,1.54-.11,1,.43h-.14a2.94,2.94,0,0,0,.45,1.1,1.23,1.23,0,0,1,0,1.26c.47-.26.47,0,.54.16s.19.33.76-.14c-.24.81-.54.91-.4,1.74.1.17.83-.51,1.08-.5l-.5.59c.25-.14.5-.28.74-.44l-.46.82.28,0a.86.86,0,0,1,.23-.55c.42-.08.29.85.08,1.2a9.35,9.35,0,0,0,1-.16c-.17.27-.32.29-.51.41.74-.47-.35.75.34.3a2.27,2.27,0,0,1,.32-.52.54.54,0,0,0,.67.63l-.27.46c.46.38,1.19.2,1.76.4a1.45,1.45,0,0,1,.37-1.2l-.17.8c.25-.46-.08-.34.3-.88.17.14-.1.93-.3,1.15l.34-.2a6,6,0,0,1-.24.64c.23-.46.3.91.65.09l0,.25c.61.13.94-.13,1.43-.1.08-.7.25-.52.43-1.09.31.24.69.82,1.12.75.29-.36.07-.6.19-1,0,.64.45.55.26,1a1.86,1.86,0,0,0,1.2-.78c-.11-.25-.2-.35-.19-.57s.28.22.32.53l0,.07c.26-.53.72-.14,1.22.15s1,.54,1.08-.21v.07q.17-.43.3-.87c.3,0,0,.51.39.79.1-.61.33-.69.59-.74s.53-.06.58-.49c.68.69,1,.41,1.29.06s.45-.78,1.09-.56l-.33-.3c-.19-.43.31,0,.48,0-.26-.23-.41-.17-.51-.41A3.3,3.3,0,0,1,248,99a7.94,7.94,0,0,0,1.78-1.38c.32-.44-2-1.15-.79-1.3l.71.46a1.88,1.88,0,0,1,0-1.55,1.49,1.49,0,0,0-.08-1.44c.19.08.43.11.42.2.62-.11.11-.72-.38-.76.08-.13.45,0,.71-.06s-.73-.53-.14-.6a.3.3,0,0,1,.24.1c-.28-.14.09-.6-.61-.49.34-.34-.29-.63.09-.9-.78-.12.33-.61-.77-.56,1.14-.08.85-.7.28-.81.35,0,.32-.24.8-.23-.06-.25-.31-.43-.87-.27.63-.36.31-.53,0-.66s-.49-.24.31-.61a19.72,19.72,0,0,1-1.89-1.41c1-.45.38.57,1.45.1-.65-.42-1.7-.27-1.71-.91.07-.21.47-.16.66-.2-.69-.3-.52-1.09-1.34-1.18a.55.55,0,0,1,.31-.08c-.09-.07,0-.3-.42,0H247c-.51.56-1.49.63-1.8.87,1.25-.78,0-.6,1.58-1.58a1,1,0,0,0-.61.33c0-.14.15-.3.51-.48-.46-.11-.78.37-1,.12a4.05,4.05,0,0,1,.53-.36c-.48.2-.93.43-1,.08.12-.09.23-.26.28-.19-.4-.32-1.45.45-1.54-.23.76-.78.07-.4.59-1.18l-.41.07-.15.44c-.21-.15-.75.32-.76,0l.35-.23-.48-.09,0,.44c-.44.29-.57,1-.69.65.1-.06-.18-.1,0-.64h0c-.24.21-.47.45-.52.17s.46-.92.52-1.11c-.42.65-.6,0-1,.69a3.82,3.82,0,0,0,.32-.72l-.32.56a1.08,1.08,0,0,1,.14-.68c-.27-.22-.3,1.14-.49.54,0,0,.06-.13.15-.2-.28-.4-.8.16-1.06-.22.12-.94.36-.15.43-.95-.59,0-1.28.88-1.72.6l.08.12c-.22,1.31-.29-.71-.6-.09a2,2,0,0,0,.11-.59c-.33-.22-.74.28-1.21.72l.05-.35c-.2-.29-.52-.15-.75-.29,0,.34-.16.29-.05.78-.4-.94-.72-.62-1-.29s-.44.74-.9,0c.07,0,.1-.33,0-.32l-.41.42a3,3,0,0,0,.35.74c0,.34,0,.63-.13.65a1.72,1.72,0,0,0-.43-1.17c.07.16.09.36.15.53-.53-.91.28,1.13-.22.56l-.07-.29c-.08.18-.05.6-.2.56-.28-.62,0-.34-.15-.86-.18.1.08,1.3-.31.74,0-.2.11-.25.13-.45-.45-.67-.41-.47-.59-.53h0l-.45-.19.16.16c.47,1.7-.35.47-.13,1.66-.21-1.11-.23-.59-.55-1.27-.16-.15-.39-.3-.46-.51.14.62-.48-.29-.26.61-.12-.21-.16.06-.43-.49-.1.27.25.34.39.62.15.85-1.21-.43-1,.78-.05.61.41,1.32.42,1.83a1.55,1.55,0,0,1-.5-.74c-.37-.16-.45,0-.4.32a1.56,1.56,0,0,0-.49-.46c-.07.16.53.72.15.6a6.66,6.66,0,0,1-.57-.82c0,.29.21.75.24,1a1.94,1.94,0,0,1-.53-.77,1.22,1.22,0,0,0,.34,1.16l.26.07c0,.07-.45-.36-.5-.49-.25-.49.36,0,.53.15l0,.19c1.11.91.18-.5.44-.63l.63.83c-.14-.26-.28-.53-.4-.81a2,2,0,0,1,.64.78c.46.28-.13-.37.35,0a.31.31,0,0,1,.11.15l-.07-.34c.11.19.48.55.31.49.58.31-.13-.89.42-.32l0,.06c.1-.5-.43-.63-.68-1.54.41.48.82,1,1.22,1.45l-.39-.65s.14,0,.3.27c-.16-.52-.2-.27-.39-.73.51.47.31-.57.94.47-.22-.54-.38-.3-.39-.75.68,1.12.11-.32.55.13.25.63,0,.38.37.84-.42-1.07.4.08.42-.16-.36-.83.13-.47.24-.84.1.27.6.31.9.57l0,.14c-.24-.88,0-.8.15-1a3.34,3.34,0,0,1,.15,1l.13,0a.92.92,0,0,1,0-.58l.13.68c.17-.08.21-.88.55-.49-.09-.63-.55-1.71-.31-2.18a4,4,0,0,1,.13,1.07c0-.05,0-.3.12-.16l0,.59c.16.24,0-.49.09-.45.08.49.13.34.18.73,0,0-.12-.19-.13,0a1.19,1.19,0,0,1,.39.71c-.05-.28-.1-.66,0-.74s.14.58.27.82c0-.35.17,0,.1-.75.06,0,.1.35.14.55.07-.33.46-.12.31-.9l0,0,0,0h0c.35-.77.74.41,1.08.11l0,.25c.23-.29.46-.13.68-.63.07,0,.09.46,0,.75.17-.16.25-.43.4,0-.23.4,0,.38-.21.29.16.23.1.64.44,0-.2.6-.05.81.08.65v-.47c.12-.07.19,0,.26.08l-.26.79c0,.52.28.16.54-.11s.5-.47.3.36c.32-.51,0-.45.3-1.05.15.16-.19,1.35-.15,1.36,0,.5.71-1,.8-.62.11-.27.45-1,.77-1.13.13.21-.43,1.2-.64,1.35-.05,0,0-.1,0-.18a.68.68,0,0,0-.32.45l.16-.25c-.07.31.12.4-.18.79a.67.67,0,0,0,.31-.57c-.06.48.28.17.27.54.07-.16.25-.46.28-.44,0,.5.44-.36.71-.31-.18.43-.72.81-.31.65-.09.31-.49.61-.68.77.52-.33,0,.5,0,.62l-.22.12c.13-.07.16,0,.18,0l.39-.46a.5.5,0,0,1-.19.32,12.41,12.41,0,0,1,1.14-1c-.16.26.43,0-.14.51,0-.35-.57.54-.8.5.09,0,.12,0,.08.1a.67.67,0,0,1-.17.12c-.4.61.73-.52.86-.31-.36.25-.62.56-.53.53s.56-.5.88-.63c-.17.33.32,0,.34.08l.07-.18c.38-.23.4-.13.57-.1-.28.2-.25,0-.35.16.72-.31-.52.71,0,.57-.21.23-.71.44-.85.6.6-.14-.43.46.07.39a1.73,1.73,0,0,1,.95-.4l-.52-.11c.28-.08.57-.15.86-.21,0-.11-.43,0-.38-.13a1.42,1.42,0,0,0,.75-.38c-.71.57.6,0,.16.5l-1.33.65c-.49.47.88.06.65.53l.2-.19c.56-.17.15.16.41.18a5,5,0,0,0-.89.42c.36-.13,0,.22,1,0l-.59.32c-.2.31,1.46,0,1.35.28-.54,0-.86.22-1.27.13,0,.08-.06.18.27.11-.3.1.7.12.25.28.22,0,.73-.07.71,0a1.35,1.35,0,0,1-.24,0c.24,0,.36.12.88,0-.73.26-.7.44-.63.64s.18.39-.49.52a1.57,1.57,0,0,1,.35.62c-.15,0-.25,0-.19,0-.46.21,1.41.24.86.51-.81.07-.41-.19-.72-.13-1.62-.13.18.36-.78.42l-.09-.06c-.55,0,.54.42.38.63a1.71,1.71,0,0,0-.24,0,1.75,1.75,0,0,1,1.1,1,2.55,2.55,0,0,0-.91-.36c.05.12,1,.28,1.09.55a4.3,4.3,0,0,1-1.33-.23l0-.18c-.87-.22,0,.22-.22.26l-.36-.15c0,.26.9.68.7.94l.28.1c.78.61-.54-.11,0,.38l-.89-.44a3.52,3.52,0,0,1,.64,1.12c-.53-.53-.73-.92-1-1.25-.06.08-.11.32.27.64-.06-.09-.23-.27-.09-.22.59.53.8.93.62,1.1-.75-.6-.93-.57-1.07-.49s-.28.21-.86-.28c.14.35,0,.42-.25.42s-.49-.12-.59,0c.95,1.15-.06.09.8,1.36,0,.14-.08.14-.14.06-.26-.21-.5-.42-.73-.64s-.09-.34-.27-.63c-.21,0-.38-.53-.66-.84.28.47.31.72.14.58.14.19.29.38.44.56.12.87-.74-1.05-.63-.23l-.12-.47c0,.3-.37.16-.16,1.35a2.18,2.18,0,0,1-.2-.67c-.18,0-.25.32-.38.61s-.29.49-.48.14l0-.37c0,.12,0,.71-.14.36a1.37,1.37,0,0,0,0-.4c0,.13-.1.66-.21.45l0-.42c-.35-.47-.46,1.07-.81,1.3a2.79,2.79,0,0,0-.32-1.65V97c-.31-.2-.72.85-1.21,1.15.06-1.19-.61-.7-.68-1.44a2.49,2.49,0,0,1-.45.86c0-.24-.54.58-.09-.32l0,0c.37-.92.13-.75,0-.82l-.67,1.14c.32-.94.09-.88-.21-.83s-.57.08-.07-.62c-.27.2-.35.15-.63.33l.49-.51c0-.27,0-.39-.27-.44l.42-.29c0-.1-1.69,1.12-1.83,1l.84-.64c-.07-.1,0-.32.08-.47s0-.24-.49-.14a2.35,2.35,0,0,1,.48-.17c0-.11.53-.59-.83-.09.9-.31,0-.25-.44-.31l.68-.15c-.89.1-1.12.14-1.4,0,.08-.06.54-.14.37,0,.34-.21-.67,0-.34-.26h.46c0-.16-.22-.11-.74-.15-.28-.09.16-.36.79-.4-.38,0-.9-.08-.73-.19a1.61,1.61,0,0,1,.46,0c.45-.25-.79-.44-.1-.6a2.57,2.57,0,0,0,.41,0c0,.21-.08.37-.13.36a6.42,6.42,0,0,1,1.64,0c-.47-.1-1.5-.41-1.19-.54h.22l.07,0c.07,0,0-.07-.1-.11.12,0,.2,0,.22-.1.53.06.32-.12.35-.19a5.14,5.14,0,0,0-1.14-.22s.08,0,.09.09l.07,0-.06,0a.81.81,0,0,1,0,.22c-.34-.12-.62-.25-.21-.28-.44-.12-.89-.27-1.09-.34a15.61,15.61,0,0,1,2.14.09c-.3-.34-.11-.61-1.26-1.25-.12-.14.4,0,.6.1s.06.13.23.22c-.25-.26.06-.46-.76-.89.46,0,.72.47.69.15l.24.16c.78.1.35-.32,0-.81s-.56-1,.37-.67a1.14,1.14,0,0,1-.3-.14c.53,0,.63-.39.78-.77s.42-.68,1.08-.29c.29.12,0-.38-.15-.83l.43.62c-.1-.29-.2-.58-.27-.86s.33,0,.61.3.49.53.44-.07l-.22-.46c.15,0,.31-.42.46.15,0-.09-.11-.52,0-.28l.11.38a7.43,7.43,0,0,1,.15-.74c.3.24.3,1.54.59,1.57a5.57,5.57,0,0,0,.12-1.45c-.05,0-.16-.22-.21-.61l.12-.23c-.1-1.16,0-2.38-.61-3.11-.1.25-.18.51-.26.76l-.21-.54.3-.08c-.25-.5-.3,0-.36.32a1.4,1.4,0,0,0-.28-.58c0,.39-.08.76-.1,1.15-.16-.42-.06-.92-.36-1.09,0,.55.4.94.24,1.35-.3-.47-.38-.89-.44-.4a.93.93,0,0,1-.09-.62c-.07.4-.43.3-.3.91-.41-.57-.48.37-.9-.64a2,2,0,0,1-.05,1c-.33-1.31-.57.2-1.2-1.06.4,1.15-.44.92-.38,1.68,0-.09-.12-.27-.05-.24-.24,0-.51-.2-.76-.28a6.41,6.41,0,0,1,.75,1.74c-.81-.54-.64-1-1.3-1.6.53.6.17.91.69,1.33a3.17,3.17,0,0,1-1-.6c.83.89,0,.29.44.93-.63-.2-.89-.73-.83-.23C229.52,85,229.4,84.5,229.4,84.5Zm-1.2,7.58h0l0-.15Zm0,.59a.66.66,0,0,0,0-.25c.25,0,.49,0,.48.09C228.53,92.47,228.38,92.59,228.17,92.67Zm4.93-.41c.09.06,0,0-.19,0a.26.26,0,0,0-.07-.1l-.08,0Z"/><path class="cls-1" d="M232.21,92s0,0,0,0H232l.21.06Z"/><path class="cls-1" d="M237,83.42v0a.3.3,0,0,1,0-.1Z"/><polygon class="cls-1" points="230.43 101.04 230.54 100.9 230.4 100.98 230.43 101.04"/><path class="cls-1" d="M234,81.48a.6.6,0,0,0-.08-.16A.59.59,0,0,0,234,81.48Z"/><path class="cls-1" d="M232.72,81.74l-.26-.16A.93.93,0,0,0,232.72,81.74Z"/><path class="cls-1" d="M231.66,81.83l.11.28h0Z"/><path class="cls-1" d="M247.19,84.48h.06C247.42,84.49,247.33,84.47,247.19,84.48Z"/><path class="cls-1" d="M242.38,82.46a1.29,1.29,0,0,1,.28-.23C242.61,82.14,242.56,82.1,242.38,82.46Z"/><path class="cls-1" d="M250.24,89.69h0v0Z"/><path class="cls-1" d="M242.85,82.34c0-.17-.08-.17-.19-.11C242.7,82.3,242.74,82.39,242.85,82.34Z"/><path class="cls-1" d="M227.84,84.24l-.05,0,.07.08Z"/><path class="cls-1" d="M227.86,84.34l0,.1S227.92,84.4,227.86,84.34Z"/><path class="cls-1" d="M227.94,84.65l-.05-.21S227.81,84.49,227.94,84.65Z"/><path class="cls-1" d="M229.08,83.52l-.15-.21A.84.84,0,0,0,229.08,83.52Z"/><path class="cls-1" d="M229.36,83.2c-.11,0-.54-.27-.55,0l.12.16C228.74,83,229.56,83.59,229.36,83.2Z"/><path class="cls-1" d="M232.38,84.93l-.33,0c.18.2.42.48.36.6C233.09,86,232,85,232.38,84.93Z"/><path class="cls-1" d="M233.26,84.91c-.06.17.17.35.23.49C233.46,85.15,233.46,85.08,233.26,84.91Z"/><path class="cls-1" d="M238.76,84.07l-.11.63C238.76,84.63,238.69,84.46,238.76,84.07Z"/><polygon class="cls-1" points="240.69 81.11 240.66 80.69 240.45 81.24 240.69 81.11"/><polygon class="cls-1" points="239.94 85.66 239.88 85.73 240.09 85.56 239.94 85.66"/><path class="cls-1" d="M244.26,91.68l.78-.07C244.9,91.55,244,91.59,244.26,91.68Z"/><path class="cls-1" d="M244.31,95.38c-.37-.14-.63-.17-.31.07C244.08,95.4,244.38,95.46,244.31,95.38Z"/><polygon class="cls-1" points="235.15 96.68 235.33 96.49 235.13 96.62 235.15 96.68"/></svg>