<svg id="Layer_1" data-name="Layer 1" xmlns="http://www.w3.org/2000/svg" viewBox="0 0 512 512"><defs><style>.cls-1{fill:#202020;}</style></defs><path class="cls-1" d="M289,17.44c.82-.1.44-.67-1.76-.81l-1.65.65Z"/><path class="cls-1" d="M274.45,14.38c-2.62.23-5.64.76-4,1.62,2.6-.64,3.19-.27,6-1,2.21.11,3.81.68,3.41.94.79-.13,3.37.56,4.61.18a23.81,23.81,0,0,0-4.72-1c-.86-.1-1.76-.18-2.68-.22s-1.87,0-2.83.1C273.45,14.68,274.25,14.52,274.45,14.38Z"/><path class="cls-1" d="M78.75,88.89l1-1A11.9,11.9,0,0,0,78.75,88.89Z"/><path class="cls-1" d="M17,206.58c.2-1,.21-1.45.14-1.51C17,206,16.88,206.79,17,206.58Z"/><path class="cls-1" d="M12.52,229.19c.08-.49.14-.9.21-1.34A5.06,5.06,0,0,0,12.52,229.19Z"/><path class="cls-1" d="M78.75,88.89l-2.66,2.43C76.12,91.69,77.5,90.12,78.75,88.89Z"/><path class="cls-1" d="M244.79,15.92a14.24,14.24,0,0,0,1.91-.3l-1.8.16A.67.67,0,0,1,244.79,15.92Z"/><path class="cls-1" d="M123.89,50.54l.92-.6a6.06,6.06,0,0,0,.58-.78Z"/><path class="cls-1" d="M164.28,29.43c-1,.36-1,1.15-1.28,1.58a5.84,5.84,0,0,1,1.9-1.29C164.86,29.59,164.68,29.49,164.28,29.43Z"/><path class="cls-1" d="M234.5,13.75l1.27-.21Z"/><path class="cls-1" d="M97.57,69.85a.84.84,0,0,0-.47.08C97.15,70,97.33,70,97.57,69.85Z"/><path class="cls-1" d="M338.93,31.64c.05,0,0-.08,0-.11C338.71,31.5,338.61,31.52,338.93,31.64Z"/><path class="cls-1" d="M289.28,15.61l.72.08a.89.89,0,0,0,.21-.36Z"/><path class="cls-1" d="M10.53,271.45v-.19C10.41,270.15,10.45,270.78,10.53,271.45Z"/><path class="cls-1" d="M274.55,500.71c-4.41-.24,7.05-1.44.42-1.55C275.61,499.38,269.06,500.79,274.55,500.71Z"/><path class="cls-1" d="M243.62,15.87l-1.84.08C242.62,15.94,243.19,15.92,243.62,15.87Z"/><path class="cls-1" d="M275,499.16h0Z"/><path class="cls-1" d="M36.05,365.06a4,4,0,0,0-.18-1C35.82,364.1,35.84,364.34,36.05,365.06Z"/><path class="cls-1" d="M14.72,296l.24,1.78C14.9,297.05,14.81,296.48,14.72,296Z"/><path class="cls-1" d="M56.2,396.85A14.59,14.59,0,0,0,57.7,399c-.05-.12-.1-.23-.17-.37A7.52,7.52,0,0,1,56.2,396.85Z"/><path class="cls-1" d="M81.2,426.89c-.1-.19-.26-.41-.4-.62l-.88-.86Z"/><path class="cls-1" d="M434.39,96.21a7.1,7.1,0,0,1-.7-1.75C433.71,95.24,429.87,91.12,434.39,96.21Z"/><path class="cls-1" d="M244.75,15.52a2,2,0,0,1-1.13.35l1.28-.09C245,15.67,245,15.57,244.75,15.52Z"/><path class="cls-1" d="M61.64,394.92l3.47,5C64.17,398.49,62.91,396.68,61.64,394.92Z"/><path class="cls-1" d="M475,353.19l.48-1.32A6,6,0,0,0,475,353.19Z"/><path class="cls-1" d="M76.62,413.79a23.61,23.61,0,0,0,1.9,2.9,3.57,3.57,0,0,0,.6.41Z"/><path class="cls-1" d="M433.69,94.44a0,0,0,0,1,0,0A0,0,0,0,0,433.69,94.44Z"/><path class="cls-1" d="M403.24,68.4c4.55,3.55,2.71,1,4,1.3,5.45,4.3,2,2.6,3.49,4.49,1.72,1.31,3.35,2.34,4.85,3.32a31.05,31.05,0,0,1,3.95,3.12c.07.28.49.75-.17.38a35.73,35.73,0,0,1,3.23,2.6l1.83,1.64c.59.61,1.2,1.22,1.81,1.84a75,75,0,0,0,7.15,6.67,2.34,2.34,0,0,1,.29.68c-.23-1,0-1.38.39-1.47,1.74,2,3.65,3.28,3.84,4.42a5.8,5.8,0,0,0-1.95-1.6l2,1.89c1,2.42-2.7-2.62-3.17-2.19,1.86,1.91,3.95,3.92,5.9,5.86a58.23,58.23,0,0,1,4.73,5.65c-.13,1.19-6.17-7.31-3.36-2.57l-1.85-2.57-2-2.48c2.16,4.5-2.46-2.94-.63,1.32l1.8,2.13,1.43,1.78c.88,1.07,1.64,1.94,2.4,2.81s1.53,1.74,2.41,2.81a43.45,43.45,0,0,1,3,4.08c1.47,1.23.2-.91,1.67.32a39.56,39.56,0,0,1,3.87,5.31,17.62,17.62,0,0,1,1.43,3.36,16.57,16.57,0,0,0,3.91,6.74c1.65,1.6,3,1.83,5.62,7.45l-1.89-1.34a27.27,27.27,0,0,0,3.65,5.25c.79.92,1.55,1.94,3.22,5.82-1-1.15-3.21-5.46-2.75-4.32,1.85,5.18,2.27,3.16,4.21,6.89-.11.38-.24.77-.37,1.16.92,1.92,1.9,3.88,2.91,5.88s2.09,4,3,6.13c1.88,4.21,4,8.48,5.5,13-.41-.41-1.2-1.85-.71.33.54,1.39,1.08,2.81,1.61,4.25.26.72.52,1.45.79,2.18s.44,1.49.67,2.24c.88,3,1.76,6.06,2.56,9.12s1.33,6.17,1.94,9.18c.15.76.31,1.5.45,2.25l.33,2.24c.22,1.48.43,2.93.64,4.36l1.55,4.19c.18,1-.05,1.93-.33.85.34,4.49.49.16,1.07,2.25.41,2.53,0,3.41-.39,1.84,2.05,7.69,3.67,22.37,3.09,30.75l-.28-1.62c0,.81,0,1.53.05,2.19s.05,1.25.11,1.79c.1,1.09.26,2,.42,2.88a19.37,19.37,0,0,1,.19,6.53l-.12-1.16c-.43,7.06-.77,14.51-1.69,21.48-.2,1.75-.39,3.47-.62,5.14s-.6,3.3-.9,4.87-.63,3.09-1,4.55a34.35,34.35,0,0,1-1.1,4.12c.3,1.1-.56,4.5-1.33,7.76-.38,1.63-.76,3.23-1.05,4.48s-.32,2.18,0,2.5c-1.41,3.81-2,5.13-2.72,6.85s-1.65,3.8-3.62,9.11c-1,2.86-.64,4.55-1.82,8.13l-.75-.19-1.06,5.05c-.59.74-1.25,1.45-1.9,2.15l-1.23,3.29c.61-1.26,1.52-2.58,1.64-2.3a65.65,65.65,0,0,1-3.71,8c-1.35,2.33-2.57,4-2.77,3.94l-2.61,5.95c-.87,2-1.9,3.88-2.85,5.84-.13-.41.84-2.35,1.51-3.94-2.71,6.41-1.32.7-3.81,6.57.57-.65.18.63.24.84-.5.62-1.05,1.51-1.75,2.49s-1.46,2.12-2.24,3.32-1.57,2.47-2.34,3.73-1.5,2.51-2.25,3.61l.15-1.13c-1.41,1.95-2.82,4-4.25,6-.72,1-1.42,2.09-2.17,3.13L446,401c-1.57,2.08-3.12,4.22-4.78,6.31L436,413.49c2.7-2.78,2.83-1.52.82,1l-1.43.43c-1,1.89,2.39-2.32.11,1.29-2.82,2.92-2.54,1.37-1.15-.49l-3.15,3.77c-.38,0,.32-.89.3-1.31-1,1.79-6.32,5.64-7.86,8.19h-.37l-5.1,5c-1.53,1.45-3,2.7-4.31,3.94l-4,3.69c-1.39,1.24-2.94,2.43-4.64,3.82.3.66-2.48,2.67-4.2,4.76-2.7,1.81-5.59,3.65-8.58,5.61q-1.11.75-2.31,1.44L387.72,456c-1.6,1-3.21,2-4.83,3.08-1.1.83-1.73,1.3-2.08,1.58s-.4.41-.37.48.46.11-.5.92c-.68-.35-7.38,3.63-4.12,1.19-2,1.18-3.62,2.24-5.17,3l-4.35,2.38-4.74,2.67L355,474.74c1.28-.3,2.64-.81,2-.29-1.92,1-4.56,1.81-4.41,1.4l.49-.3A102,102,0,0,1,332.79,483c-3.5,1.09-7,1.82-10.21,2.71-1.6.44-3.13.9-4.56,1.38s-2.82.84-4.06,1.31l.56-.2-5.25,1.63c-.88.27-1.75.55-2.63.81l-2.67.68c-5,.84,2.88-1-.86-.73-2.85.82-5.43,1.44-7.84,1.95s-4.69.67-6.88.94l-3.25.39-1.62.2-1.63.14c-2.19.2-4.43.46-6.84.85a24.84,24.84,0,0,0-3.36-.24c-1.27-.07-2.68-.1-4.19-.09s-3.12.06-4.78.13-3.4.19-5.15.16c-3.5,0-7.09.08-10.43,0a84.82,84.82,0,0,1-8.95-1l.56.48c-2.66.27-3.16-.42-5.07-.76.24.37,2.8.71,1.15.77-2.77-.24-5.56-.52-8.38-.82-1.4-.17-2.82-.26-4.22-.51l-4.21-.71-4.24-.74c-1.41-.26-2.83-.47-4.22-.84l-8.42-2-2.11-.51L197,487.8l-4.15-1.25c-2.77-.83-5.55-1.62-8.25-2.65L176.41,481l-7.94-3.21a19.9,19.9,0,0,0-6.66-1.69c-1.51-.16-3.24-.55-7.84-3.16l3.08.46c-1-.37-2-.73-3-1.14l-2.9-1.31c-1.93-.89-3.85-1.8-5.78-2.73s-3.78-2-5.66-3l-5.6-3.17c-3.65-2.24-7.24-4.55-10.83-6.79q-2.61-1.8-5.23-3.54L115.47,450c-.88-.56-1.75-1.12-2.59-1.73a10.13,10.13,0,0,1,2.37,1.21c-.64-.6-1.58-1.42-2.64-2.28s-2.27-1.76-3.41-2.56c-2.28-1.61-4.33-2.84-4.5-2.68-1.92-1.72-.17-.73-1.21-1.95a35.7,35.7,0,0,0-4.62-3.72c-1.61-1.16-3.06-2.22-3.52-3.1-.16-.29.84.54,1.35.92-1.87-1.33-7.66-7.31-6.56-5.31-2.18-2.2-4.25-4.32-6.25-6.29-1-1-2-1.95-2.88-2.9-.46-.48-.91-.95-1.33-1.43s-.8-1-1.16-1.49c-2.69-1.93-6.76-8.17-8.15-8.35,1.17-.39-6.13-9-8.7-12,1,.86-1.71-3-.42-2-2.69-3.56-5-6.94-5.08-5.95-1.67-3.84-4.21-7.1-6.2-10.22-1-1.54-2-3-2.74-4.35a16.32,16.32,0,0,1-1-2,8.23,8.23,0,0,1-.48-1.91l-4.89-8.47q-2.17-4.29-4.3-8.46c-.34-.7-.7-1.38-1-2.09s-.63-1.41-.94-2.11c-.62-1.41-1.23-2.82-1.85-4.21L31,340.43l-1.59-4.22c.3,0,.73.79,1.22,1.94.25.58.51,1.25.77,2s.6,1.45.91,2.19c1.23,2.94,2.41,5.76,2.86,5.3-1.16-2.58-2.25-4.87-3.28-7s-1.82-4.25-2.69-6.31c-.42-1-.85-2.07-1.28-3.12l-.63-1.6c-.18-.55-.37-1.1-.55-1.67-.73-2.26-1.46-4.68-2.19-7.4s.94,1.46,1.4,2.35c-.44-1.35-.88-2.68-1.32-4s-.71-2.68-1.06-4L21.62,307c-.52-2.62-1-5.19-1.53-7.72q-.4-1.91-.81-3.78l-.72-3.74a8.39,8.39,0,0,1,.6,2.08c-.31-2-.47-4.6-.95-4.31l.41,1.91c-.29,3.27-2.66-7.63-3.07-8,1.76,3.21-.52-10,1.8-4.83-.21-1.3-.6-2.91-.91-2.58-.08-1.95.07-2.58.63-.65-.22-1.76-.42-2.93-.58-3.79s-.24-1.4-.34-1.93a28.18,28.18,0,0,1-.51-5.26c.25,0,.4,1.31.72,2a42.07,42.07,0,0,1-1-12c.14.32.34-.31.32,1.32,0-2.34-.06-4.52-.15-6.62,0-.53-.05-1.05-.07-1.57v-1.55c0-1,0-2.05,0-3.08,0-2.06,0-4.16.1-6.38a32.11,32.11,0,0,1,.31-3.43c.14-1.18.31-2.4.51-3.68.74,3.14.75-3.45,1.74-3.87.06-.92.09-1.84.19-2.76l.31-2.75-.81,2.13c.4-2.39.61-4.67.84-6.87a32.21,32.21,0,0,1,1.06-6.32l-.2,1.8-.1,1.82c.18-1.51.49-3,.79-4.48l.87-4.47-1.44,5c.58-4.91-1.26.28.37-6-.17,1.31,1-4.8,2.27-7.08h0a41.33,41.33,0,0,1,1.85-8.3c.53-.82.8,1,1.14.49-.06-1.26.81-4,1.64-6.77a56.85,56.85,0,0,0,1.87-7.23c-.17,1,.27,1.22.48.95l.12-2.08c1-2,1.2-2.31,1.43-1.83,2.53-6.29-1.87,1.59,1.48-5.75-.18.61,0,.36-.37,1.63,3.26-7.39,5.77-14.53,9.47-21,1.81-1.52-2.7,5.9-.87,4,4.42-9.7,9.59-20,15.49-28.52l-1.19,1.53c-.15-1,1.11-2.45,2.69-4.28a42.92,42.92,0,0,0,4.81-6.29c-.72,1.07-.42,1.78-.34,1.41,2.24-2.74,4.4-5.64,6.77-9,1.22-1.63,2.58-3.3,4-5.14.72-.92,1.46-1.86,2.22-2.85L76.16,95c.41-.5.85-1,1.29-1.49l-.66,1.19c1.55-1.41,3.46-3.39,5.4-5.4,1-1,1.91-2,2.88-3S87,84.56,87.82,83.8c.72-1.17,2.62-2.92,1.15-2.19,1.42-1,2.76-2.12,4.08-3.2S95.7,76.3,97,75.21c2.52-2.18,4.85-4.48,7.32-6.55l3.62-3.15c1.22-1,2.4-2.09,3.69-3a69.57,69.57,0,0,1,7.87-5.05c-1.2.87-2.69,2.3-1.73,1.62l2.08-1.6c.7-.53,1.44-1,2.15-1.51l4.32-3c-1,0-1.34.45-3.45,1.28A35.3,35.3,0,0,1,128.32,50c-1.89,1.46-1.76,1.65-.92,1.37s2.38-1,3.36-1.39c-.38,0,.12-.49-.12-.56,5.28-1.89.2-1.47,7.06-4.67l-.2.47L139.23,44,141,42.91a40.26,40.26,0,0,1,3.76-2.12c1.43,0-2.51,1.66-2.43,2.24,3.76-2,6.86-5.1,10.7-6-1.57.92-3.94,2-5.44,3,1-.3,1.8-.57,2.45-.79s1.19-.38,1.67-.57c1-.38,1.78-.77,3.22-1.37l-.29.12c2.24-.89,4.44-1.83,6.69-2.66-.6.15-1.18.34-1.76.54,2.08-1.9,4.6-2.92,7.32-4,1.37-.55,2.79-1.12,4.28-1.76a42.75,42.75,0,0,0,4.66-2.12c-6.24,3.32-.88,1-1.13,1.86,1.8-.41,4.5-1.1,3.82-.64A17.32,17.32,0,0,1,182.88,27a22.25,22.25,0,0,0,5.41-1.92c.27.18,3.47-1,2.91-.19,4.15-1.43-1.11-.12-.84-.52,3.11-1.44,7.1-2,11.37-2.87l3.27-.65c1.11-.18,2.25-.37,3.4-.59a62.17,62.17,0,0,0,7-1.73c1-.27,1.95-.46,2.79-.64l2.32-.54c1.42-.35,2.62-.68,3.8-1s2.34-.64,3.7-1,2.91-.54,4.86-.83c2.67.16-2.07,1.08-2.07,1.08,2.14,0,4-.1,5.83-.27s3.62-.46,5.62-.64c-.8.25.05.39,1.29.62,3.21-.19,2.11-1,6.38-.78a15.67,15.67,0,0,1-3.19,1.1c1.89-.18,3.77-.43,5.66-.67s3.82-.29,5.79-.38c1,.44-2.38.62-3.76.88,4.41-.13,11.42-.31,12.82-.78l-2.83-.41c1.62.07.81.6-.38.7-3.79.48-5.45-.29-5.66-.54l2.8-.13c-1.42-.73-4.25-.7-7.42-.51-1.58.06-3.25.34-4.87.51s-3.19.33-4.6.37l2.31-1.13-5.76,1.08c-.62-.12-1.15-.27-1.18-.47s.44-.44,1.84-.56a10.79,10.79,0,0,0-2.34,0,12.51,12.51,0,0,0-1.42.21,10.47,10.47,0,0,1-3.33.18c-.39-.06-.22-.12.13-.2l-3.93.67c.76-.29-.73-.68,1.72-.74a33.81,33.81,0,0,0-4.85.32c-1.44.23-2.72.5-3.86.75a17,17,0,0,1-5.4.68l.59-.15c-1.22.22-2.16.38-2.86.55s-1.17.32-1.49.44c-.64.22-.66.34-.61.46s.54.5-3,1.63l-5.27-.91-.8.93c-1,.19-3,.63-2.68.24-3.58,1.4.7.17-1.33,1.17a57.27,57.27,0,0,0-8.55,1.86c-2.79.84-5.13,1.48-5.84,1.06-1.52,1.05,4.63-.9-.28,1-.9-.42-2.35.07-4.12.74a32.31,32.31,0,0,1-6,2.17c1.08-1.09,5.23-2.16.78-1.25-1.1,1-3.18,1.65-5.44,2.25a45.74,45.74,0,0,0-6.35,2.13c.09.46-1.79,1.32-4.41,2.4s-5.88,2.64-8.71,4.09c.19-.55-11,4.81-16.27,7.54l.08-.22c-.27.69-1.75,1.77-3.62,3-.94.6-2,1.24-3,1.87s-2,1.35-2.94,2c-.14-.55.4-1.2,2.32-2.69-1.2.72-2.35,1.52-3.53,2.27a21,21,0,0,1-3.9,3.2l.5-1.15c-1.16.77-2.31,1.58-3.46,2.42l-3.44,2.75c-1.18.94-2.4,1.89-3.72,2.85q-1,.72-2,1.44c-.68.51-1.39,1-2.13,1.54.09.75,5.53-2.12-.1,2.9-.44-.09-1-.38.44-1.73a19.36,19.36,0,0,1-2.74,2.36l2-2.33c-2.71,1.82-1,1.44-3.1,3-.27-.41-1.74.93-1.69.4a24.64,24.64,0,0,0,2.57-2c-1.18.89-2.51,1.82-3.7,2.6a25.63,25.63,0,0,1-2.73,1.69c.38,0,.43.51-1.15,2-4.17,3.7-1.83.81-4.45,2.77-.82,1.1-3.62,3.32-3.18,3.93a5.28,5.28,0,0,1-2.22,1.38c-.91,1.14-3.38,3.45-5.12,5.39S78.56,88.68,80,87.77l.54-.5-.3.36,0,0,0,0c-1.48,1.85-3.08,3.64-4.74,5.4s-3.26,3.63-4.9,5.44a109.3,109.3,0,0,0-9.22,11.14l-.19-.16c-1.65,2.26-3.32,4.9-4.95,7.31a48.55,48.55,0,0,0-3.92,6.54c-.88,1.4-2.46,3.06-2.33,2.31-1.07,1.86-1.6,2.92-2.33,4.15S46,132.41,44.34,135c1.75-4-1.06,1.1,1.9-4-2.9,4.75-3.93,5.64-6.19,11.21.35-2.12-2.59,3.39-3.61,5.85l2.15-3.29c-1.24,2.7-2.46,5-3.69,7.35l-.11-1.64a30.81,30.81,0,0,0-1.95,3.72c-.57,1.23-1.1,2.46-1.58,3.67a73.67,73.67,0,0,0-2.5,7.09c-.7,2.32-1.38,4.53-2.19,6.65-.39,1.06-.85,2.08-1.29,3.09a30.33,30.33,0,0,1-1.43,3c-.39,3.05,2.3-5.77,2.11-3-1.72,4.94-4.57,9.78-5.05,11.37A24,24,0,0,0,19.46,193c-.07.87-.14,1.76-.33,2.87-.09.55-.22,1.17-.39,1.87s-.33,1.5-.57,2.41c.49-.88,1.45-1.57.54,4-1.21,5.08-2.58,6-2.12,2.76.25-1.24.47-1.81.55-1.74.26-1.68.61-3.89-.15-1.92l.15.73c-.43,1.24-1,3.63-1.51,5.49s-.76,3.23-.87,2.34c-.37,4,.2,1.76.83-1.11-.76,3.29-1.19,5.89-1.61,8.52-.19,1.32-.45,2.63-.61,4.06s-.37,2.95-.64,4.67c.29-1.08.75-2,.62-1-.75,5-.74,6.17-.61,6.89a7.69,7.69,0,0,1,.18,1.22,24.82,24.82,0,0,1,0,3.26c-.69,3.87-1-1.48-1,5.47-.57,4.22-.84.86-1-.84.05,1.59,0,3.12-.09,4.59s-.12,2.85-.22,4.17c-.21,2.62-.5,4.9-.57,6.72L9.83,255c.13,2,.07,3.65.11,5.32.15-.64.38-1.28.58-1.92-.08,1-.08,1.89-.09,2.55s-.06,1.06-.19,1c.47,2,.93-1.56,1.62,2.42-.1,1.31.06,3.29.14,5.06.05.88.08,1.71.05,2.38a2.93,2.93,0,0,1-.24,1.42c-.08-1-.1-1.78-.12-2.33a7.61,7.61,0,0,0-.1-1.1c-.08-.4-.18-.24-.3,0-.23.4-.5,1-.7-2.52a46.49,46.49,0,0,1,.19,4.95c-.06.3-.2-.27-.25-.8-.06,7.92,1.19,3.55,1.89,11.66-.27-.49-.44,0-.51.79a10.12,10.12,0,0,0,.16,2.5c-.45-3.27.52-1.64,1.27,1.29.38,5.22,1,5.58,1.38,8.29l-.27-3.11a8.86,8.86,0,0,1,.74,2.59c.25,1.22.59,2.74,1,4.5-.28.37-.85-3.19-.76-1.89a24.53,24.53,0,0,1,1.23,6.66c.13,1.23.2,2.54.46,3.84a28.87,28.87,0,0,0,1,4c.32,2.61-.75.44-.41,2.72a46.05,46.05,0,0,1,1.64,6.43,36.31,36.31,0,0,0,1.85,6.63c0-2-.21-2.28,1.67,2L19.41,320l2.81,6.48c-.46-1.58-1-3.22-1.56-4.7A24.76,24.76,0,0,1,19.51,318a12,12,0,0,0,1,2.35c.12.11.07-.37.08-1.19a25,25,0,0,0,1.78,6.54,55.6,55.6,0,0,1,2.23,6.95L23.2,333c.49,1.9,1.07,3.66,1.7,5.38.32.86.65,1.71,1,2.56l.52,1.29.61,1.27c.81,1.71,1.66,3.48,2.52,5.42s1.68,4.07,2.71,6.4c-.36-1-.79-2-1.1-3.09,1,1,2.68,5.67,4.26,8.56-.57-.07.12,1.88.45,3.29.25-.31,3.41,6.63,4.71,7,.52,1.43,1,2.91,1.58,4.3,3.93,7.23,5.83,7.44,10,14.07-1.74-1.7-.09,1.5-3.29-2.73,1.43,2.22,2.65,4.25,3,4.1a22.89,22.89,0,0,0,2.62,3.7,23.6,23.6,0,0,1,3.06,4.19,11.4,11.4,0,0,1,3.14,3.17c.11.32-.2.14-.2.14s.83.83,1.44,1.41,1.05.87.47-.3c3.73,7.35,14.28,17.45,18.42,23.2l3.2,3.14c1.1,1.07,2.3,2.09,3.44,3.13,2.31,2.06,4.5,4.15,6.47,5.85-.35-.11-.18.17-.89-.5,5.17,5,4.25,1.82,10.16,7.44,1.4,1.59.47,1-.57.26s-2.12-1.75-1.24-.78c-.11,1,1.91,2.47,4.37,4.22a68.76,68.76,0,0,1,7.4,5.7L112,454c3.16,2.85,8.7,5.52,14.51,9.16,0,0-.36-.05-.16.19,1.1.45,2.41,1.07,3.84,1.8s3,1.44,4.66,2.26c3.28,1.58,6.64,3.48,9.68,4.78-2.13-.36-2.84-1.05-2,.09,2.69,1.24-.29-1.31,5.06,1.17,1.56,1.15,5.21,3.38,5.47,4.17-1.72-.72-3.35-1.61-5-2.41a14.05,14.05,0,0,0,4.39,2.54c1.7.64,3.46,1.2,4.77,1.86l-.5.21c7.88,3.39,8.42,2.34,17,5.71l-.78-.61a13.84,13.84,0,0,1,4.4,1.34,12.67,12.67,0,0,0,4.36,1.43l1.15,1.4,3.21.78,4.42.86,4.88,1c1.62.34,3.21.7,4.67.94a42.59,42.59,0,0,1-6.94-.87l-7.57-1.4c3.16.92,10.81,2.87,12.58,2.85a24.79,24.79,0,0,1-4.2-.94,129.12,129.12,0,0,1,15.69,2.45c-.76.88,3.42,1.71,8.36,2.58s10.64,1.47,12.92,2.52c1.46.07,2.9.19,4.35.29s2.9.12,4.36.21c2.91.15,5.83.45,8.83.62l9.22.34c.79,0,1.59.06,2.39.06l2.43-.06c1.63,0,3.29-.11,5-.19-4.86-1.3,3.95-.2,3-1.69,1.56-.09,2.64-.23,3.36-.28a5.94,5.94,0,0,1,1.24,0c3.18,0,6.37.07,9.57,0,1.15.06.42.26-.56.45s-2.22.33-2.06.49l3.44-.21a3.58,3.58,0,0,1,1.2.1c.45.13.62.35,2.92.23-1-.41,2.28-1.11,6.22-1.45l-5.61.07a43.31,43.31,0,0,1,5.46-.92c1.38-.13,2.42-.21,3.49-.24a32.48,32.48,0,0,0,9-1.46l-2.93,1.05c2.45-.53,6.93-1.68,11.38-2.87l3.29-.91c1.06-.37,2.08-.73,3-1.09a31.8,31.8,0,0,0,4.62-2.06c.9-.08,2.14,0,.06.72,11.53-3.32,24.64-10,33.22-13.43l-.66.72c2-1.06,3.25-2.19,5.86-3.18-.06.2-.63.74.3.29a59.19,59.19,0,0,1,7.66-4.49l-2,1.54a56.24,56.24,0,0,0,6.89-3.8c2-1.27,3.81-2.49,5.55-3.71s3.3-2.58,5-3.87,3.5-2.6,5.45-4.05c.3.46,2.36-.57,4.83-2a79.66,79.66,0,0,0,7.17-4.75l0,.22c2.68-2.09,5.13-4.06,7.4-6s4.26-4,6.28-6,3.89-4,5.86-6.13,4-4.2,6-6.6a68.7,68.7,0,0,0,5.64-5.12c2.15-2.15,4.36-4.8,6.75-7.5l1.78-2.06c.58-.7,1.14-1.43,1.71-2.15l3.41-4.32c2.32-2.8,4.35-5.67,6.3-8.14-1.27,1.45-.53-.75.66-2.63,1.95-2.23,3.77-7.22,4.4-6.26l-.57.87c2-1.35,5.12-6.55,7.36-10.71l-.76-1.33a51.31,51.31,0,0,0,5.55-8.76c.85-1.65,1.69-3.35,2.51-5.06.4-.85.83-1.7,1.2-2.56s.71-1.73,1.06-2.59c1.4-3.41,2.74-6.65,3.88-9.44a33,33,0,0,1,3.15-6.51c.35-1.46.94-3,1.35-4.64s.88-3.21,1.17-4.66l.63.37,1.83-5.27c.57-1.62.95-3.18,1.42-4.79s.88-3.28,1.39-5.17c.25-.94.51-1.94.78-3s.46-2.25.71-3.5l.05,2.15a20,20,0,0,0,.39-6.53c-.07-.92-.15-1.81-.14-2.8a29.07,29.07,0,0,1,.29-3.39l1.3-1.38c.4-2.48.87-5,1.34-7.42l.36-1.86.27-1.87.52-3.74c.32-2.5.67-5,.85-7.49s.14-5,.05-7.49c.14.17.43.48.37,2.1.55-4.69,1.22-18.29-.22-16.56,1.09-.12-.15-10.36-.88-15.71l.77.79a48.31,48.31,0,0,1-2.36-10.91c-.06-1.51.43-1.38.44.64a14.2,14.2,0,0,0-.27-2.82c-.13-.68-.29-1.19-.44-1.73a22.06,22.06,0,0,1-.89-5.33l.75,2.18c-.69-5.12-.77-4.7-1.84-7.4-.89-3.13-1.64-9.64-1.21-10.52a17,17,0,0,1-2.25-6.22c.14-.46.54.58.74,1.11-.39-2.13-.83-4-1.27-5.61s-1-3.06-1.52-4.42a50.06,50.06,0,0,1-2.39-8c.18-.19.16-.59.06-1.08.6,1.62,1,3.2,1.44,4.62s.77,2.68,1.08,3.73c.59,2.09.93,3.3.83,3.06.62-.16-.85-5.55,1.26-1.53-.87-2.09-2.1-4.89-3.26-7.82a74,74,0,0,1-3.28-8.52,3.24,3.24,0,0,1,0-.75l.25.51a19.09,19.09,0,0,0-1.23-3.2c-.55-1.64-.89-2.69-1.51-4.24.13-.39-.4-1.9-1.09-3.64l-1.1-2.65c-.36-.87-.77-1.65-1-2.29-.55.49-2-2.85-1.07.47-.15-.41.31.44,1.07,2.11.18.38.37.83.51,1.07l-.12-.15c.69,1.68,1.59,3.87,2.62,6.36a24.45,24.45,0,0,1-3.07-6.88c-1-1.14-2.07-2.35-2.62-3.06a70,70,0,0,0-1.88-6.92c-.34-1.18-.72-2.25-1-3.1a7.63,7.63,0,0,1-.43-1.79c-1.06-1.84-2.19-3.85-3.33-5.91-.55-1-1.18-2.05-1.81-3l-1.86-3c-1.24-1.93-2.44-3.78-3.6-5.36a34.15,34.15,0,0,0-3.35-3.78,7.13,7.13,0,0,1-1.5-3.38c.87,1.09,1.75,2.48,2.32,3-.73-1-1.58-2.19-2.48-3.49l-1.36-2-1.45-1.89c-1.89-2.46-3.58-4.5-4.29-4.69-1.59-2.57-.93-2-.48-1.63.22.19.39.33.19,0a27.76,27.76,0,0,0-2.09-2.71l.93.71a84.63,84.63,0,0,0-6.86-9.06c-2.43-2.59-4.88-4.95-7.34-7.35s-5.16-4.64-7.8-7.31c-1.3-1.35-2.73-2.67-4.16-4.13s-2.88-3-4.37-4.75a7.79,7.79,0,0,1,1.34,1.7c-.91-.92-1.81-1.85-2.75-2.75l-2.92-2.6c-2-1.72-3.94-3.45-6-5.14l-6.31-4.81c-1.06-.79-2.1-1.61-3.18-2.38L397,57c-2.19-1.48-4.36-3-6.56-4.46s-4.46-2.8-6.67-4.21c-1.1-.7-2.18-1.44-3.29-2.12l-3.34-2q-3.33-2-6.55-4.11c-5.06-2.83-5.89-2.59-9.24-3.76l-.8-1.24c-1.94-.6-3.93-1.11-5.88-1.67A43.09,43.09,0,0,1,349.05,31c-1.76-.86-3.49-1.71-5.29-2.61s-3.66-1.8-5.75-2.66a50.52,50.52,0,0,0-7.12-2l1.17.92c-1.84-.63-4.78-1.57-7.19-2.25S320.57,21.18,321,21a5.29,5.29,0,0,1-2.76-.48l0-.41c-1.57-.3-3.13-.63-4.7-.9l-4.75-.68c-3.58-.92-3.22-1.24-3.28-1.63,0-.2-.16-.4-.95-.71a24.62,24.62,0,0,0-4.92-1.2c-4-.5-11.5-.72-10-.21,1.59.28,4,.91,4.1,1.32L290,15.69c-.83,1-3.71,1.78,4.92,4l6.23.3L303,21c-1.69-.39-3.41-.64-5.12-.91a16.36,16.36,0,0,0,3.69.83c1.09.14,2.1.16,3.16.22a6.54,6.54,0,0,0,2.4,1.16l6.19.21c.3.32-.41.36-.72.51s-.18.3,1.74,1c2.88.24-2.39-1.71,2.25-.8,2.74,1.28,1.78,1.47,5.26,1.94.39.42-.37.41-1.74.18a52.22,52.22,0,0,1,5.33,1.18,17.12,17.12,0,0,0,4.26.88,39.3,39.3,0,0,0,5.94,2.24c2.06.74,3.67,1.48,3.34,1.93a52.68,52.68,0,0,1,8.07,2.1c-2.68-.3-.16.59,2.67,1.93s6.14,2.78,5.22,3.14a15.4,15.4,0,0,1,3.78,1.07c1.46.61,3.12,1.38,4.84,2.21l5.3,2.56c1.73.92,3.42,1.78,5,2.47a5.88,5.88,0,0,1-1.62-.65,71.24,71.24,0,0,1,6.1,4.21c.91-.58,6.08,2.41,9.14,3.62,3.46,3.3-3-.56-2.28,1,.11-.39,1.95.5,3.61,1.37s3.11,1.76,2.65,1c2.61,2.54,2.37,2,3.41,3.73,1.22-.62,2.9,1.69,5.66,3,3.74,3.66.36,1.73,5.09,4.92C407.5,71.15,403.24,68.4,403.24,68.4Zm79.64,107.48h0l-1-2.64C482.1,173.79,482.39,174.55,482.88,175.88Zm3.57,10.87c-.38-1.35-.84-3-1.4-4.77.08-.45.51-.13.81,1C485.53,182.42,486.16,185.05,486.45,186.75Zm-3.63-24.65a5.88,5.88,0,0,1,.85,2.59c-.34-.81-.75-1.74-1.29-3-.05,0-.12-.13-.16-.16A1.78,1.78,0,0,1,482.82,162.1Z"/><path class="cls-1" d="M480.72,159.38c-.12-.24-.19-.37-.35-.67l.29,1.07.45.52Z"/><path class="cls-1" d="M80,87.77l-.18.16a4.44,4.44,0,0,1,.42-.3A1.75,1.75,0,0,1,80,87.77Z"/><polygon class="cls-1" points="479.54 341.33 479.71 341.38 479.92 340.4 479.54 341.33"/><path class="cls-1" d="M130.76,50a2.41,2.41,0,0,0,.81-.26A3.62,3.62,0,0,0,130.76,50Z"/><path class="cls-1" d="M154.9,37.3l3.6-1.38C156.93,36.48,155.8,36.93,154.9,37.3Z"/><path class="cls-1" d="M174.39,29.64a1,1,0,0,0,.28-.41h0Z"/><path class="cls-1" d="M19.16,293.79c.05.28.09.55.15.79C19.73,296.42,19.46,295.17,19.16,293.79Z"/><path class="cls-1" d="M22.3,195.49c-.15,1-.3,2.09-.51,3.17C22.3,197,22.67,195.64,22.3,195.49Z"/><path class="cls-1" d="M61.26,394.37h0l.39.55Z"/><path class="cls-1" d="M20.8,203.16a30.44,30.44,0,0,0,1-4.5A42.4,42.4,0,0,0,20.8,203.16Z"/><path class="cls-1" d="M263.42,15.81l1,0s0-.08.12-.11Z"/><path class="cls-1" d="M264.55,15.74h1.12A4.26,4.26,0,0,0,264.55,15.74Z"/><path class="cls-1" d="M268,15.7l-2.36,0A8.28,8.28,0,0,0,268,15.7Z"/><path class="cls-1" d="M235.75,16.24l-.29.28C235.63,16.45,235.73,16.36,235.75,16.24Z"/><path class="cls-1" d="M227.38,17.11c2-.22,5.07.07,7.84-.36l.24-.23C234.19,17,229.23,16.41,227.38,17.11Z"/><path class="cls-1" d="M192.1,20.77c2.31-.57,4.66-1,7-1.52-1.28,0-3,.06.18-.77C190.3,19.84,201.21,18.6,192.1,20.77Z"/><path class="cls-1" d="M170.87,27.19c3.59-1.39-.18-.36,0-.57a8.73,8.73,0,0,0-1.84,1C168.94,27.74,169.48,27.55,170.87,27.19Z"/><path class="cls-1" d="M48.88,126.84l-.34-.67C47,128.73,48.74,126.33,48.88,126.84Z"/><path class="cls-1" d="M37.3,155.16c.5-.81,1-1.63,1.55-2.41l.08-1.46C38.35,152.57,37.78,153.85,37.3,155.16Z"/><polygon class="cls-1" points="26.2 170.07 26.58 168.83 25.02 173.55 26.2 170.07"/><path class="cls-1" d="M75.92,422.3c0-.39,0-.79,0-1.19C74.47,419.69,73.51,420,75.92,422.3Z"/><path class="cls-1" d="M172.49,485.62a15.3,15.3,0,0,0,6.12,2.37c-1.24-.43-2.45-.92-3.52-1.34S173.14,485.79,172.49,485.62Z"/><path class="cls-1" d="M472.64,371.83l-.92,2.17c.65-1.33,1.35-2.63,1.92-4C473.31,370.61,473,371.24,472.64,371.83Z"/><path class="cls-1" d="M436.26,418.86c.2-.21.11-.7-.43-.61l-.4.82Z"/><path class="cls-1" d="M432.69,417.27c-.64.39-1.36,1.08-1,1.85.62-.78.77-.45,1.45-1.39.54-.08.94.29.84.59.19-.21.83.19,1.13-.32a2,2,0,0,0-2.51-.18C432.45,417.64,432.64,417.42,432.69,417.27Z"/><path class="cls-1" d="M380.2,421.8l.35,0A.79.79,0,0,0,380.2,421.8Z"/><path class="cls-1" d="M348,427.15c.24-.06.33-.16.33-.24C348.14,427,348,427.08,348,427.15Z"/><path class="cls-1" d="M342.41,427.08h.33C342.61,427,342.48,427,342.41,427.08Z"/><path class="cls-1" d="M380.2,421.8l-.91-.1C379.28,422,379.77,421.81,380.2,421.8Z"/><path class="cls-1" d="M425.5,419.36a1.19,1.19,0,0,0,.46-.24,3.54,3.54,0,0,1-.44.11A.59.59,0,0,1,425.5,419.36Z"/><path class="cls-1" d="M394.3,418.68l.26,0a2.56,2.56,0,0,0,.17-.37Z"/><path class="cls-1" d="M405.27,417c-.25,0-.25.71-.31,1a.81.81,0,0,1,.49-.55A1.38,1.38,0,0,0,405.27,417Z"/><path class="cls-1" d="M422.92,416.62l.3-.11C423.15,416.55,423,416.58,422.92,416.62Z"/><path class="cls-1" d="M386.45,419.84a.51.51,0,0,0-.15-.23A.46.46,0,0,0,386.45,419.84Z"/><path class="cls-1" d="M85.77,405.9s0-.08,0-.13S85.69,405.91,85.77,405.9Z"/><path class="cls-1" d="M72.58,404.56l.17-.07a2.47,2.47,0,0,0,0-.39Z"/><path class="cls-1" d="M332.29,427.47h0C332.59,427.37,332.44,427.4,332.29,427.47Z"/><path class="cls-1" d="M243.75,409.91c.7,1-1.91,0-.75,1.32C243,410.91,244.78,410.84,243.75,409.91Z"/><path class="cls-1" d="M425.21,419.28a3.15,3.15,0,0,1-.44,0A1.36,1.36,0,0,0,425.21,419.28Z"/><path class="cls-1" d="M243,411.23h0l.12.13Z"/><path class="cls-1" d="M309.26,429a.7.7,0,0,0,.23.31C309.48,429.27,309.43,429.18,309.26,429Z"/><path class="cls-1" d="M326.53,429.45l-.44-.07A1.59,1.59,0,0,0,326.53,429.45Z"/><path class="cls-1" d="M300.3,429.54c-.23-.07-.3-.17-.62-.1l.09.09A.46.46,0,0,1,300.3,429.54Z"/><path class="cls-1" d="M291.07,428.37c0,.06.1.11.15.17h.3Z"/><path class="cls-1" d="M114.06,401.37a2.08,2.08,0,0,1-.51-.57C113.76,401.28,112.41,401.62,114.06,401.37Z"/><path class="cls-1" d="M425.48,419c-.05.18-.12.27-.27.31l.31,0C425.55,419.12,425.55,419,425.48,419Z"/><path class="cls-1" d="M299.42,435c-.51-.08-1-.14-1.53-.24A8.05,8.05,0,0,0,299.42,435Z"/><path class="cls-1" d="M181.14,398.81l-.35.05A.42.42,0,0,0,181.14,398.81Z"/><path class="cls-1" d="M293.32,434.35a2.28,2.28,0,0,0-.79-.62.48.48,0,0,0-.2.15Z"/><path class="cls-1" d="M113.54,400.79h0Z"/><path class="cls-1" d="M104,403.78c1.41-.18.53-1,.76-1.55,1.65-.5.87.56,1.51.95,1-.39,1.71-1.34,2.5-1.42.08.15.24.18.09.39,1-.87,3.29-.5,4.48-1.56a.57.57,0,0,1,.19.2,2.46,2.46,0,0,1-.36-1.23c.64-.09,1.11-.72,1.43-.15-.4,0-.4.27-.56.48l.64-.34c.7.79-.88.41-.79,1.05,1.26-.44,2.68-1.34,3.71-1.22.31.82-2.29.57-.87,1.16l-1.58-.14c1.34,1.19-1,0,.31,1.31,2,0,2.21-.7,4.25-.7.4-.53-.23-.68.17-1.2,2.78-1.2,2.5,1.86,4.48.51.48-.62.58-1.71,2.15-1.29l-.42,1c2-.1,1-1.48,3.1-1-.33.41-1.51.47-1.2.56,1.4.61.89-.64,1.91-.75l.29.83c2.07-.37,4.32-1.11,6.63-1.46-.11.27-.48.56.08.78a19.47,19.47,0,0,1,4.55-.4c1.56.07,3.1.25,4.52.43l1-.78c.25,0,.48.31.21.46,1.11.23,0-.47.55-.78.63-.08.85.38.46.62a17.17,17.17,0,0,1,3.71-1,8.72,8.72,0,0,1,3.83.18l-.4.23c1.59.27,1.78-1.53,3.26-.88l-.28.14c.86.07,1.75.06,2.64.06l2.62,0a12.47,12.47,0,0,1,4.62.77c.27-.53,1.12-.39,1.93-.31s1.59.17,1.74-.57c1.93.85,1.36,1.08,4.08,1.74.73.11,1.16-.85,2.08-.95l0,.77,1.3-.73.58,1c.29-.05.58-.08.87-.11-.33-.09-.69-.43-.62-.64,1.36-.21,3.2.88,3.19,1.28l3.21-.32c-.11.3-.65.35-1.09.51,1.77-.61.22.84,1.83.28-.18-.19.17-.44.22-.59a8.21,8.21,0,0,0,3.75.76l-.32.49c2.28.5,4.9.51,7.49.93-.89-.39-.52-1.26.27-1.23l.15.85c.59-.42-.74-.43.39-.87.94.3.47,1.05-.13,1.19l1.22,0c0,.26-.28.32-.4.61.57-.39,1.84,1.23,2.7.52v.25c2.55.56,3.78.5,5.86.95.21-.67,1-.3,1.73-.68a27.62,27.62,0,0,0,4.83,2.07c1.38,0,.54-.47,1.24-.71-.09.64,1.75,1.09.67,1.27a37.66,37.66,0,0,0,5.66,1.23c-.21-.35-.5-.58-.26-.72.53.07,1,.64.86.9l-.15,0a9.6,9.6,0,0,1,4.8,2.14c1.51,1,2.92,2,4.36,1.91h-.15c.91.12,1.81.28,2.73.42,1.08.59-.87.14-.2.87,3.08.18,4.11,2,6.57,2.34.89,2.48,6,2.67,7.79,4.83l.06-.47c.77-.11.61.57,1,.86.08-.34-.47-.66,0-.7,5.23,1.84,10.08,5.4,15.32,7.9,1.93.87,1.93-1.69,4,.23l-1,.51c4.31.57,8.26,2.94,12.56,3.14-.29.12-.36.36-.75.26.71.8,3.17.84,3.29.36.63.19.05.47.39.79.8.53,2.34-.29,2.68.39.06.11-.28.14-.45.15.63-.17,2.64.62,2.22-.17,1.49.59,3,.18,4.18.79.91-.61,2.61.71,3-.33-.26,1.09,2.62,1.26,3.66.78-.37.32.82.43.39.87,1.13.07,2.18-.05,2-.65,2,1.55,4.21-.87,5.3.94,3.38-.49,6.46-.9,9.43-1.25-.08,1.13-3.3.18-3.16,1.37,2.85-.54,4.46-1.49,7.27-1.39.73.12-.39.51-.63.72,2.81-.58,5.48-.23,7.95-1,0,.11-.26.24-.51.34.49-.06,1.16.07,1.06-.43l-.47.18c-.84-.66,1.82-1.73,1.86-2.14-.69,1.55,2.5.13,1.36,2.11.31-.13.7-.41.59-.75.49.06.66.24.21.68,1.74-.45,1.05-.94,2.65-1.11,0,.24-.29.38-.42.69a4,4,0,0,1,2.87-1.11c-.06.16.12.34-.29.38,2.31-.35,3.76-1.79,6.34-1.68-.59,1.18.91.22,1.18,1.13l1.31-.48-.61-.37c1.19-.17,2.13-1,3.19-.85l-.82.52,2.19-.53-1.31-.15c1.12-.67-.31-1.14,1.3-1.14-.3.14,1.18-.19,1.88.26h0a2.75,2.75,0,0,1,2-.72c.28.26,0,1.05.17,1.22.45-.87,2.73-.69,3.31-1.64a.77.77,0,0,0,0,.81l.37-.71c.58.1.68.18.66.58,1.66-.18-.73-1.07,1.3-.92-.14.08-.05.16-.35.31,2-.09,3.7-1.07,5.55-1.1.69.83-1.53.52-.78,1.18,2.56-.64,5.14-2.09,7.68-2.35h-.49c.11-1.37,2,.29,3.13-.56-.29.16-.27.8-.21.64,1.75-.11,3.43-1,5.94-1.86l-.25.39a33.38,33.38,0,0,0,3.79-.35c.27-.4.9-.45.43-.87,3.69,1.3,6.23-2.16,9.48-1.05-.35.06-.8.43-.52.38L395,422c-.29-.54-.39-.3-1-.65a2.58,2.58,0,0,1,1.57-.87c-1.08.56.16.91.7,1.15-.11-.16,0-.38,0-.55,1.49.8,0-1.19,2-.77l-.05.31a6,6,0,0,1,2-.76c.4.61-.68.41-.65,1,1-.18,1.86-1.56,2.88-1-.41.24-1,.34-1.45.58a2.75,2.75,0,0,0,2,.45h-.08l1.79.12-.47-.15c1.06-1.9,2.58-.67,4.18-2-1.56,1.26-.2.65-.24,1.42.46.16,1.16.31,1,.55.75-.7,1.41.32,2.47-.7.08.23.88-.06.76.57,1.05-.29-.29-.4-.23-.72,1.57-1,3.95.61,6.22-.67,2-.59,2.34-1.48,4.24-2,.66.36-.48.91-.48.91a4.16,4.16,0,0,0,2.79-.11c-.19.22,0,.4.33.66.78-.1.5-.92,1.54-.59a3.52,3.52,0,0,1-.75,1c.91-.26,1.81-.71,2.77-.95.26.42-.57.65-.9.93,1.07-.2,2.77-.42,3.1-1.1l-.69-.23c.39,0,.2.57-.09.7a.85.85,0,0,1-1.38-.46l.68-.16c-.73-1.41-2.75.24-4.11.24l.54-1.07-1.39.93c-.31-.26-.54-.83.14-1-1-.47-.86.41-1.74-.12-.1-.09-.06-.14,0-.19l-1,.35c.18-.22-.2-.72.41-.6-1.78-.52-2.76,1-3.47.21l.15-.07c-2.39.51-.19.77-1.92,1.79l-1.37-1.78-.17.79c-.25,0-.74,0-.68-.33-.88.6.19.31-.3.85-1.26-.57-3.26.62-3.65-.54-.37.62,1.19.31,0,.86-.5-1.26-1.45.39-2.6-.09.26-.7,1.33-.47.17-.94-.52,1.21-2.15,0-3,.33.07.91-1.95.64-3.45,1.14.06-.33-2.95-.07-4.43-.19l0-.16c-.15.95-1.64,1-2.68,1.36,0-.55.12-.79.66-1.13l-1,.17a1.74,1.74,0,0,1-1.12.74l.15-.72c-1.34.25-2.57,1.23-4.36,1.08,0,.64,1.66,1.52-.08,2.25-.13-.33-.29-.9.16-1.12-.15.07-.51.38-.85.28l.63-.69c-.82-.12-.33.55-1,.6-.07-.49-.52-.27-.5-.67.15-.07.58.11.79-.12a3.25,3.25,0,0,1-2-.43.56.56,0,0,1-.39.81c-1.33.27-.56-.51-1.38-.62-.27.4-1.18.2-1.07.93-.39.07-.53-.26-.71-.43-.64.44-3.21.68-2.29,1.31h.19s-.07,0-.11.06h0c-2.12,1.13-4.76.45-6.94,1.18l-.05-.24c-1.28.52-2.94.72-3.79,1.42-.4.07-1-.27-.9-.59a4,4,0,0,1-2.6.54c.95-.61-.42-.31,1-.5-1.36,0-1.73-.3-3,.63.37-.71-1.14-.6-1.74-.3l1,.28a8.87,8.87,0,0,1-2,.34l.19-.88c-2.89-.51-4.58,2.59-6.94,1.27-.62.7,1.54.15,1,.93-1.27.11-2.77-.85-3.16-.78-1.78-.16-1.39,1.46-3.23,1.45.27.25.62,1-.68,1.5-1.27.09-1.73-1-1-1.35.3-.07.45,0,.46.1.38-.17.89-.38.35-.62l-.12.32c-.66-.19-2.38.11-2-.44-.9.43-.33.55.4.59-1.67-.18-2.51.37-4.2.33.29.12.58.43.32.47-2.48,0-1,.71-2.61,1.07-1-.32.18-1.12-1.42-.52-1-.16-.32-.75.05-1-1.42.78-2.85,0-3.72,0l.76-.33a4.32,4.32,0,0,1-1.23.28l.52.54c-.48-.05-.87,0-.89-.25-.43.44.48.93-.41,1.57-.65-.23-1.86.55-2.16-.22,2,.05-.3-.75,1.34-1.07a2.38,2.38,0,0,1-1.17.12c-.08-.08,0-.17.17-.23-1.94-.51-.77,1-2.7,1.15.2-.47-.53-.8-.84-.67.78-.07.45.7-.24,1.11-1.27-.22-1.33.37-2,.39l.75.1c-.21.46-.84.45-1.7.66-.1-.34.77-.3.45-.43-.91.85-2.24-.64-3.54,0-.64-.27-.11-.83-.67-1-1.47.65-1.65-.52-3.2,0,.47.57.55.42-.54,1.06l2.58-.55-1.63.95c.79,0,1.64-.46,2.12-.38-.77.53-.7.37-.3.85-1.12-.85-2.12.64-3.39.07V429.3c-1.87-.63-3.29.87-5.72.47l.78.26c-.33.59-1.5.07-2.29.3.08-.49-.4-.68-.73-1,0,.37-1.76,0-2,.91l-1.06-.7c-1.93-.37-2.3,1.34-4.18,1,.61-.49-.22-.91,1.06-1.19-.62-.06-1.18-.19-1.21.15-.34-.34-1.79.52-2.32,0-.29.19-.42.7-1.12.6a.23.23,0,0,1,0-.24c0,.24-1.14.2-.58.81a5.44,5.44,0,0,0-3.55-1.11c-1.32-.11-2.61-.28-3.33-1-.69,0-1.45-.06-2.18-.14s-1.46-.18-2.07-.29c.11-.13,0-.24.27-.14-1.57-.81-1.33,1.18-3.14.25-.79-1,1.11-.17.57-.61.11-1.64-2.33-.37-3.36-1.61h.33a2.34,2.34,0,0,0-1.76-.37,6.32,6.32,0,0,1-2.29-.26.25.25,0,0,0,.08-.23c-1.32.5-3.43.05-5-.24.68-.42.79-.08.72-.78-.7-.16-.14,1.05-1.54.73-.32-.49-1.18-1.12-1.07-1.81l1.27.42c-.34-1.08-1.63-.55-2.23-1l.22-.33c-1.94-.63-2.34.3-4.36-.61l.1.36c-1.49.43-.72-.9-2.11-.69l0-1.05a27,27,0,0,1-4.32-.65c1-.32,2.72,0,3.84,0-.72-.32-2.49-1-3.06-.72.33.05.8,0,1,.25a5.75,5.75,0,0,1-4-.52c1-1.62-3.54-2.16-4-4-2.83-.54-4.9-2.64-7.92-3.92.43,1.84-.88-.37-1.34,1.1-.74-.23-1-.37-1-.49l-1.72-1.8c-.32-.63.8,0,.88-.34-1.48-.8-.37-.88-1.22-1.71,0,.59-.86.47-1.65-.11l.94,1.2c-2.46-.22-1.33-2-3.83-2.22l.88-.14c-1.22-.24-4.16-1.78-5.73-1.09-.14-.24-.25-.74.3-.64-2.66-1.31-6.58-1-8.47-2.48l.33-.28c-.55-.08-1.12.35-1.65-.22.08-.14.33-.29.09-.39a3.85,3.85,0,0,1-2.19-.29l.71-.2a5.86,5.86,0,0,0-3.51-.69,14.88,14.88,0,0,1-3.34,0c.3-1.06-1.78-2-2.83-2.47l.08-.14a13.39,13.39,0,0,0-4.46-.56c-1.41,0-2.81.08-4.35,0-1.62-1.66-6.26-1.6-9.19-2.76.44.27-.2.84-.75.86-.68-.33-2.06.45-1.81-.53l.25.06c-.41-1.09-1.92-1-3.06-1.11l-.35,1.29c-2.79-2.23-7.89-.17-9.39-1.9-.75.28-1.65.22-2.38.51l.08-.71a26.27,26.27,0,0,0-5.5-.41l.52-.49c-1.4-.08-1.84,2-3.13,2l-.36-1.07c-2.43,0-4.91-1-7.33-.06a.58.58,0,0,1,.51-.51c-1.15,0-4.47-.64-4,.8,0-.94-2.52,0-3.82.39l.18-.7a4.27,4.27,0,0,1-2.65,1.46c-.37-.08-.34-.54.16-.39-1.24-.3-.93.71-2.42.41l.53-.47c-1.26,0-1.15.24-1.82.79-.77.32-2.38-.06-2.61-.68a1.46,1.46,0,0,1-1.55.79c-.12-.23.15-.39.28-.47-2.14-.39-3.07,1-4.55.44a.51.51,0,0,0-.28-.4,21.48,21.48,0,0,1,2.89-.11c0-.64-1.4-.65-.38-1.62-1.06.57-2.83,1.76-4.16,1.56a.65.65,0,0,1-.19-.21l.13-.08a1.37,1.37,0,0,0-.83.17,4.19,4.19,0,0,0-1.1-.11c-.2-.52-1.57-.17-2.24-.14.11.69-.78.65.1,1.16-.11,0,.12-.09.56-.15a.91.91,0,0,0,.28-.1l0,.07,1.66-.18a1.61,1.61,0,0,1-1.8.41,13.46,13.46,0,0,1-.83,1.2c-1-.91-2.82-1.24-3.12-1.82-2,.6-4.8.75-5.94,2.19-.56.23-.71-.3-1-.49.33-.16.73-.18.89-.39-1.13.44-3.42.52-3.59,1.47-1.51-.23.72-.94-1.27-.55l.24-.31c-4.13-1-6.11,3.09-10.71,1.84.32.08.48.11.56.25-5.09-.16-10.1,2.24-15.19,1.69-1.43-.06-1.49.56-2.26,1.13l-.42-.69-1.31,1.09c-2,1-3.85-1.25-6.25.36l.41.44c-1,.06-2.9.79-2.84.18-.08.11-.22.58-.63.38l-.09-.39-2.18,1.05c-1.82,0,0-1.59-2.58-1.23-.94.31-2.55,1.59-2.14,1.79.39-.05,1,.07,1.12.46l-.84.35c0,1.17-.44,2.46,1.85,2.9l1.38-.95.58.48-1.26.24c.81.41,1.18-.13,1.64-.54a1.06,1.06,0,0,0,.73.51l1.3-1.34c.25.42-.52,1,.51,1.08.61-.62-.83-.89.26-1.42.81.4.67.86,1.44.28.17.27,0,.49-.29.68.69-.48,2-.49,2.25-1.16.85.53,2.51-.57,2.61.52a4.36,4.36,0,0,1,1.87-1.22c-1.05,1.51,2.59-.34,2.48,1.11.75-1.33,3.29-1.06,4.84-2-.08.11-.23.33-.39.29a5.18,5.18,0,0,1,1.9.4c0-1,1.39-1.43,2.08-2.15,1.28.76-.52,1.24,0,2.09-.18-.78,1.86-1.09,1.37-1.68,1,.44.8.16,1.36.9,0-1.23.79-.34,1.4-1.18,1.35.42.49,1.09,1.82.53C105.18,403.18,104,403.78,104,403.78Zm32.81-5.85h0l-.68.1Zm2.79-.23c-.35,0-.77,0-1.22.07-.11-.24,0-.49.26-.5C138.51,397.44,139.18,397.53,139.61,397.7Zm-6.31-4.39c.43-.14.6,0,.67.13-.21,0-.46.07-.78.14l0,.09A.83.83,0,0,1,133.3,393.31Z"/><path class="cls-1" d="M132.57,394.29a.76.76,0,0,1-.18.06l.28.14.14-.23Z"/><path class="cls-1" d="M380.61,421.84h-.06a.39.39,0,0,1,.14.08C380.64,421.88,380.64,421.86,380.61,421.84Z"/><polygon class="cls-1" points="178.03 398.92 178.04 398.74 177.79 398.88 178.03 398.92"/><path class="cls-1" d="M396.27,421.6a.42.42,0,0,0,.23.15C396.48,421.7,396.39,421.65,396.27,421.6Z"/><path class="cls-1" d="M402.89,420.8l1,.12A5.36,5.36,0,0,0,402.89,420.8Z"/><path class="cls-1" d="M408,420.5a1.19,1.19,0,0,0,.07-.31h0Z"/><path class="cls-1" d="M327.27,434.1l-.2,0C326.61,434.32,326.93,434.25,327.27,434.1Z"/><path class="cls-1" d="M351.34,429.31a4.54,4.54,0,0,1-.72.45C351.06,429.75,351.39,429.71,351.34,429.31Z"/><path class="cls-1" d="M299.59,435.06h0l-.17,0Z"/><path class="cls-1" d="M349.5,429.93a1.84,1.84,0,0,0,1.12-.17A2.83,2.83,0,0,0,349.5,429.93Z"/><path class="cls-1" d="M430,419.33l.24,0a.21.21,0,0,1,0-.12Z"/><path class="cls-1" d="M430.3,419.24l.27-.08C430.45,419.16,430.34,419.16,430.3,419.24Z"/><path class="cls-1" d="M431.14,419l-.57.19C430.77,419.15,431,419.17,431.14,419Z"/><path class="cls-1" d="M423.29,419.2l-.06.26A.45.45,0,0,0,423.29,419.2Z"/><path class="cls-1" d="M421.25,419.37c.49,0,1.25.48,1.92.29l.06-.2C422.93,419.85,421.69,418.9,421.25,419.37Z"/><path class="cls-1" d="M412.41,416.92l1.76,0c-.33-.24-.77-.57,0-.71C411.92,415.65,414.7,416.81,412.41,416.92Z"/><path class="cls-1" d="M407,417.11c.91-.23-.06-.39,0-.55C406.41,416.88,406.27,417,407,417.11Z"/><path class="cls-1" d="M368.58,423.51l0-.65C367.86,423.08,368.59,423.11,368.58,423.51Z"/><polygon class="cls-1" points="361.88 428.11 362.64 428.38 362.86 427.74 361.88 428.11"/><polygon class="cls-1" points="356.76 424.41 357.05 424.26 355.91 424.7 356.76 424.41"/><path class="cls-1" d="M292.8,428l.09.81C293.38,428.77,293.61,427.91,292.8,428Z"/><path class="cls-1" d="M266.07,421.23a1.2,1.2,0,0,0-1.35-.84C265.28,420.68,265.74,421.21,266.07,421.23Z"/><polygon class="cls-1" points="186.04 393.33 186.65 393.13 185.54 393.23 186.04 393.33"/><path class="cls-1" d="M493,292.13c-.19.28.08.71.75.42l.27-.93Z"/><path class="cls-1" d="M497.7,292.57c-.91.12-2.06.48-1.76,1.38a5.93,5.93,0,0,1,1.67-.41l0-2.09c-.06.14-.19.33-.34.61-.67.28-1.28.08-1.24-.25-.19.27-1.13.12-1.37.73a3.34,3.34,0,0,0,3.08-.61v1.13l-.25,0C497.29,292.82,497.6,292.69,497.7,292.57Z"/><path class="cls-1" d="M436.3,258.55l.35.32A1.59,1.59,0,0,0,436.3,258.55Z"/><path class="cls-1" d="M395.66,242c.34,0,.49,0,.52-.08C395.86,241.92,395.6,241.93,395.66,242Z"/><path class="cls-1" d="M388.18,240.22l.45.1A.55.55,0,0,0,388.18,240.22Z"/><path class="cls-1" d="M436.3,258.55l-.88-.81C435.22,257.93,435.84,258.22,436.3,258.55Z"/><path class="cls-1" d="M487.8,291.21a2.22,2.22,0,0,0,.67,0l-.59-.15A.76.76,0,0,1,487.8,291.21Z"/><path class="cls-1" d="M453.12,268l.3.19a2.61,2.61,0,0,0,.43-.13Z"/><path class="cls-1" d="M465.74,275.56c-.27-.2-.72.34-1,.54a1.06,1.06,0,0,1,.87,0A1,1,0,0,0,465.74,275.56Z"/><path class="cls-1" d="M485.8,287.32l.42.07C486.11,287.38,485.93,287.33,485.8,287.32Z"/><path class="cls-1" d="M444.2,262.3a.55.55,0,0,0,0-.28A.33.33,0,0,0,444.2,262.3Z"/><path class="cls-1" d="M56.32,356.68c0-.05,0-.08,0-.13S56.2,356.69,56.32,356.68Z"/><path class="cls-1" d="M38.89,355.18l.23-.06a2.71,2.71,0,0,0,0-.4Z"/><path class="cls-1" d="M374.08,239.53h.06C374.5,239.43,374.3,239.46,374.08,239.53Z"/><path class="cls-1" d="M259.21,290.18c1.55,0-1.74,1.7.49,1.43C259.4,291.44,261,289.8,259.21,290.18Z"/><path class="cls-1" d="M487.47,291c-.19-.06-.38-.14-.57-.22A1.93,1.93,0,0,0,487.47,291Z"/><path class="cls-1" d="M259.7,291.61h0l.22,0Z"/><path class="cls-1" d="M343,247.65a.85.85,0,0,0,.41.17C343.32,247.76,343.22,247.7,343,247.65Z"/><path class="cls-1" d="M366.11,242l-.59,0A2.14,2.14,0,0,0,366.11,242Z"/><path class="cls-1" d="M332,253.31a1.56,1.56,0,0,0-.81.31l.16,0A.83.83,0,0,1,332,253.31Z"/><path class="cls-1" d="M320.51,258.85a2.28,2.28,0,0,0,.27,0l.34-.22Z"/><path class="cls-1" d="M94.39,350.29a2,2,0,0,1-.69-.51C94,350.24,92.18,350.76,94.39,350.29Z"/><path class="cls-1" d="M487.94,290.84a.47.47,0,0,1-.47.13l.41.13C488,291,488,290.93,487.94,290.84Z"/><path class="cls-1" d="M333.81,258.57l-1.85.73A14.64,14.64,0,0,0,333.81,258.57Z"/><path class="cls-1" d="M182.5,327.41l-.42.22A.74.74,0,0,0,182.5,327.41Z"/><path class="cls-1" d="M326.71,262a3.1,3.1,0,0,0-1.22.06.71.71,0,0,0-.13.26Z"/><path class="cls-1" d="M93.69,349.78h0Z"/><path class="cls-1" d="M80.89,353.72c1.9-.3.74-1,1.06-1.63,2.21-.63,1.16.5,2,.83,1.37-.47,2.31-1.49,3.37-1.63.1.14.32.16.11.39,1.37-.94,4.42-.86,6-2.09a.5.5,0,0,1,.27.19,1.91,1.91,0,0,1-.5-1.2c.84-.18,1.46-.87,1.89-.34-.52.08-.52.33-.73.56l.84-.43c1,.7-1.15.53-1,1.16,1.67-.61,3.55-1.7,4.92-1.71.44.78-3,.87-1.13,1.28l-2.11.07c1.81,1-1.27.15.44,1.28,2.75-.28,2.94-1,5.68-1.28.51-.58-.34-.65.18-1.22,3.65-1.56,3.43,1.51,6-.2.6-.72.66-1.83,2.77-1.71l-.48,1.09c2.62-.47,1.19-1.67,4-1.63-.4.47-2,.75-1.56.78,1.93.35,1.13-.81,2.49-1.1l.46.77c2.74-.75,5.66-2,8.66-2.89-.11.29-.57.67.2.75a54.22,54.22,0,0,1,12.06-2.32l1.24-1.05c.32-.08.69.15.37.39,1.5-.12,0-.47.57-.94.81-.27,1.19.12.72.47,2.38-1.29,6.87-3.25,9.74-3.21l-.46.35c2.16-.28,1.94-2.08,4.05-1.95l-.33.23c4.58-1,9.32-3.12,13.06-3.06.34-1.21,4.57-.87,4.42-2.37,2.75-.13,2.1.36,5.83-.33,1-.25,1.14-1.34,2.27-1.87l.27.72,1.35-1.29,1.14.6,1-.55c-.45.1-1,0-1.05-.25,1.62-.9,4.38-.86,4.55-.5,1.3-.65,2.57-1.36,3.86-2,0,.32-.64.66-1.11,1,1.91-1.51.66.63,2.41-.75-.32-.07,0-.49,0-.65a13,13,0,0,0,5-1.47l-.14.61c3-.95,6.28-2.43,9.62-3.73-1.29.22-1.34-.75-.39-1.2l.68.61c.46-.71-1.13.1-.05-1,1.28-.39,1.17.55.54,1.07l1.42-.84c.18.19-.13.44-.12.77.45-.71,2.92-.24,3.51-1.4l.17.19c3.35-1.27,4.77-2.09,7.47-3.2-.2-.67.91-1,1.5-1.82a52.2,52.2,0,0,0,6.84-2c1.54-1,.26-.75.86-1.45.36.54,2.73-.49,1.67.44a46.44,46.44,0,0,0,7-3.66c-.49-.07-1,0-.83-.29.61-.38,1.58-.4,1.61-.08l-.14.14c3.62-2.66,10.06-2.35,12.7-5l-.15.14,3-2.17c1.56-.61-.7.86.59.69,3.09-2.63,5.67-2.49,8.28-4.5a4.93,4.93,0,0,0,2.6-.35,22,22,0,0,0,2.95-1.48c2-1.14,4.12-2.42,5.9-2.63l-.38-.31c.59-.78,1.06-.25,1.68-.45-.24-.26-1,.07-.65-.39,1.59-.94,3.25-1.81,5-2.62s3.43-1.64,5.19-2.42c3.51-1.55,7.11-3,10.55-4.63,2.48-1.23.26-2.77,3.82-3.52l-.46,1.2c4.4-3.57,9.95-5.48,14.31-8.82-.19.32-.08.55-.55.8,1.3,0,3.74-2,3.53-2.42.77-.35.38.3.95.27,1.18-.23,2.18-2,3-1.78.14,0-.19.32-.36.45.53-.59,3.12-1.53,2.17-1.81,1.95-.64,3.3-2.07,4.94-2.4.6-1.16,3.27-1.2,3.09-2.33.35,1.06,3.59-.69,4.53-1.7-.25.49,1.15-.14.9.5,1.31-.62,2.43-1.37,2-1.8,3,.21,4.54-3.1,6.59-2.07,1.89-1,3.74-2,5.56-2.93s3.66-1.6,5.46-2.34c.2,1.12-4,1.44-3.5,2.51,1.66-.78,2.92-1.57,4.21-2.28a16.81,16.81,0,0,1,4.45-1.54c.94-.09-.4.62-.65.89a23.43,23.43,0,0,1,2.55-.89c.85-.24,1.71-.38,2.54-.57a35.39,35.39,0,0,0,4.84-1.27c0,.1-.32.26-.63.39.62-.12,1.49,0,1.34-.54l-.6.23c-1.14-.59,2.28-1.9,2.36-2.3-.88,1.61,3.25-.09,1.76,2,.4-.15.9-.47.76-.79.63,0,.85.18.27.65,2.23-.48,1.38-.93,3.45-1.08,0,.25-.4.38-.59.68a6.41,6.41,0,0,1,3.8-1c-.1.15.11.34-.41.37a31.64,31.64,0,0,0,4.11-.62,9.6,9.6,0,0,1,4.35-.05c-1.05,1,1.1.46,1.19,1.41l1.78-.12-.66-.51c1.54.15,3-.43,4.29.16l-1.2.18,2.9.34-1.57-.64c1.64-.19,0-1.2,2-.56-.44,0,1.57.29,2.26,1h0a6.8,6.8,0,0,1,1.3-.16,4.1,4.1,0,0,1,1.46.41c.22.37-.48.94-.34,1.18.93-.55,3.59.75,4.76.21a.65.65,0,0,0-.45.69l.8-.44c.65.38.71.55.48.87,2,.84-.29-1.36,2,0-.21,0-.15.11-.58.06a21.88,21.88,0,0,0,3.61,1.21c.6.17,1.2.31,1.76.52a11.8,11.8,0,0,1,1.64.79c.3,1.15-2-.61-1.56.44,1.61.6,3.36,1,5.09,1.53a22,22,0,0,1,4.85,2l-.52-.37c1-1,2,1.67,3.76,1.91-.42-.12-.82.39-.66.31,1.92,1.3,4.3,1.93,7.56,3.31l-.55.07c1,.95,3,2,4.21,2.84.55-.07,1.25.4,1.06-.28,2.89,4,8,3.62,10.55,7.14-.41-.25-1.14-.36-.81-.15l3.09,1.55c.07-.64-.2-.54-.58-1.3a4.26,4.26,0,0,1,2.25.68c-1.52-.49-.48.79-.08,1.42,0-.21.3-.26.34-.44,1,1.82.87-.83,2.6,1.06l-.27.19a10.29,10.29,0,0,1,2.59,1.05c0,.79-1-.25-1.34.18,1.21.71,3,.35,3.75,1.58-.6-.15-1.34-.59-1.94-.73a4.26,4.26,0,0,0,1.83,1.92l-.08-.06,1.84,1.52-.4-.49c2.38-.58,3.23,1.55,5.84,1.72-2.52-.2-.64.36-1.16.93.42.48,1.1,1.14.76,1.2,1.28,0,1.39,1.36,3.2,1.34-.05.24,1.05.58.54,1,1.38.51-.11-.54.15-.75a8.21,8.21,0,0,1,3.41,1.86,15.12,15.12,0,0,0,1.9,1.23,6.73,6.73,0,0,0,2.32.68c2.74.75,3.52.28,6,.92.65.69-1,.55-1,.55a7.44,7.44,0,0,0,3.5,1.43c-.33.1-.15.37.13.78,1,.34,1-.56,2.15.3a3.5,3.5,0,0,1-1.34.52c.63.13,1.27.21,1.91.28s1.32.09,2,.19c.19.51-1,.37-1.49.48,1.46.28,3.75.83,4.38.33l-.82-.52c.52.14.08.64-.33.63-1.36.11-1.64-.79-1.63-1l.93.14c-.22-.83-1.11-1.06-2.17-1.17a12.18,12.18,0,0,1-3.1-.61l1.1-.68-2.08.09c-.27-.41-.3-1.05.6-.85-1-1-1.23-.1-2.06-1-.08-.13,0-.15.12-.15l-1.32-.2c.33-.1.1-.75.77-.32-1.86-1.46-3.69-.86-4.15-1.93l.2,0c-3-1.05-.6.56-3.18.34-.22-.79-.42-1.6-.6-2.42l-.63.54c-.28-.18-.83-.54-.58-.75-1.33-.11,0,.39-.83.49-1.09-1.36-4.05-1.77-3.78-3-.79.23,1.13,1.11-.57.65.22-1.38-1.82-.78-2.79-2,.72-.37,1.74.63.78-.62-1.33.55-2.33-1.62-3.5-2-.51.75-2.48-1.05-4.41-1.85.27-.19-3.06-2.43-4.51-3.74l.13-.1c-.8.59-2.39-.6-3.72-1.2.34-.44.67-.48,1.47-.28l-1.16-.71a2.67,2.67,0,0,1-1.67-.39l.65-.4c-1.55-.92-3.51-1.24-5.25-2.85-.45.47.63,2.49-1.68,1.56.1-.34.34-.9,1-.68a2.19,2.19,0,0,1-1.08-.5l1.15,0c-.77-.77-.73.13-1.42-.36.27-.41-.36-.63-.05-.9.21.07.53.56.91.56a5.1,5.1,0,0,1-1.74-1.94c-.07.28-.35.57-1,.26-1.56-.91-.22-.83-1-1.6-.55.07-1.36-.84-1.76-.22-.46-.27-.37-.62-.44-.89-1-.2-3.84-2.14-3.32-.93l.18.17-.15,0h0c-3-1-5.36-3.5-8.2-4.69l.12-.22c-1.73-.63-3.72-1.67-5.11-1.78-.48-.24-.95-1-.61-1.13a8.51,8.51,0,0,1-3.28-1.46c1.48.17-.29-.54,1.46.29-1.58-.92-1.82-1.45-3.88-1.6.86-.32-1-1.27-1.84-1.44l1,.92c-.94-.29-1.68-.71-2.49-1l.74-.62a10.52,10.52,0,0,0-5-1.47c-1.6-.25-3.09-.36-4.25-1.55-1.12.3,1.87.93.82,1.35-1.63-.55-3.07-2.18-3.61-2.33-2.21-1.1-2.44.67-4.81-.11.26.35.39,1.18-1.46,1.13-1.65-.41-1.88-1.61-.77-1.65.42,0,.6.18.57.28.57,0,1.32,0,.69-.44l-.27.25c-.8-.45-3.17-.85-2.55-1.23-1.35.11-.62.37.32.71-.27-.11-.52-.19-.77-.27l-.72-.13c-.46-.07-.9-.11-1.34-.14a20.87,20.87,0,0,1-2.91-.36c.35.19.66.57.3.53-3.34-.66-1.51.39-3.78.48-1.28-.46.49-1.08-1.81-.72-1.4-.32-.3-.79.27-1-2.11.56-4-.45-5.18-.42l1.11-.31a8.06,8.06,0,0,1-1.77.26l.67.54c-.66,0-1.21,0-1.22-.27-.64.44.57,1-.71,1.58-.89-.24-2.58.5-3-.26,2.74.07-.38-.77,1.92-1.06a4.47,4.47,0,0,1-1.65.1c-.1-.08.08-.16.26-.22-1.36-.28-1.63,0-1.9.37a2.29,2.29,0,0,1-1.89,1c.28-.49-.73-.75-1.16-.59,1.09-.15.62.66-.31,1.13-1.76-.08-1.82.5-2.71.63.34,0,.69,0,1,0-.27.47-1.12.58-2.26,1-.16-.32,1-.45.57-.52-1.14,1-3.09-.17-4.8.72-.91-.11-.27-.79-1.06-.83-1.87,1.1-2.34,0-4.34,1,.77.41.83.25-.49,1.21l3.36-1.35-2,1.44c1-.27,2.1-1,2.75-1-.94.76-.86.59-.24.93-1.65-.48-2.67,1.27-4.47,1.13l-.37-1.43c-2.67.11-4.13,2.11-7.4,2.81.36-.05.73-.08,1.1-.11-.24.67-1.91.78-2.83,1.38-.08-.5-.77-.43-1.31-.56.18.33-2.3.84-2.22,1.86-.54,0-1.08-.05-1.61-.05-2.58.8-2.28,2.49-4.7,3.33.5-.8-.72-.66.72-1.68-.8.33-1.55.54-1.42.86-.59-.08-1.89,1.6-2.8,1.5-.24.35-.13.87-1,1.23-.14,0-.1-.22-.1-.22.1.22-1.22.93-.23,1.07-1.53-.16-3.17.68-4.76,1.53s-3.13,1.67-4.44,1.62c-1.58,1-3.5,2.18-5,3,0-.18-.11-.22.19-.33-2.27.69-.6,1.93-3.17,2.73-1.57-.07,1-1.05.15-.92-1.09-1.25-2.72,1.71-4.74,1.73l.33-.29c-1.45.17-2.62,2.14-4.62,3.11,0,0,0-.18-.11-.22-.94,1.46-3.32,3.09-5.08,4.33.28-.88.69-.76,0-1.13-.79.54.75.77-.84,1.85-.71,0-2.06.4-2.56-.11l1.56-.91c-1.24-.33-2,1.16-2.93,1.48l-.08-.4c-2.36,1.44-1.91,2.34-4.57,3.67l.41.11c-1,1.62-1.46.16-2.54,1.56l-.9-.64a52.07,52.07,0,0,1-4.46,3.67c.61-1.16,2.42-2.55,3.44-3.58-.94.49-3.14,1.76-3.4,2.45.33-.29.69-.76,1.13-.82a9.71,9.71,0,0,1-4,3.42c-.28-.94-1.54-.39-3,.29s-3.13,1.48-4.15,1.16c-3,2.3-6.76,3-10.59,5.09,2,.66-1.12.59-.22,1.84-.87.52-1.24.66-1.36.61l-3.17.48c-.85-.09.72-.71.49-1-2.06.84-1.12-.19-2.62.07.51.36-.36,1-1.59,1.38l1.91-.12c-2.46,2.05-3,0-5.45,2l.69-.85c-1.33.94-5.34,2.5-6.29,4.22-.33,0-.85-.28-.25-.67-3.57,1.37-7.27,4.63-10.3,5.13l.12-.46c-.61.39-.86,1.15-1.83,1.16,0-.16.12-.46-.19-.34a6.22,6.22,0,0,1-2.46,1.48l.59-.69c-3.64,1-4.91,3.12-7.72,4.55-.41-1-3.26-.24-4.68.15V308c-4.07,1.5-6.55,3.5-10.16,5.36-1.38-.12-3.4.52-5.57,1.29a45.21,45.21,0,0,1-6.54,1.92c.64,0,.19.85-.45,1.19-1,.1-2.2,1.58-2.4.58l.33-.09c-1-.7-2.74.19-4.17.67l.19,1.33c-4.33-.44-9.62,3.94-12.21,3-.8.61-1.93,1-2.73,1.58l-.16-.69a63.29,63.29,0,0,0-6.93,2.08l.49-.67c-1.78.48-1.63,2.61-3.26,3.14l-.79-.87c-3.08.94-6.46,1-9.24,2.8a.65.65,0,0,1,.5-.67c-1.45.43-5.84.86-4.92,2.12-.29-.9-3.22.78-4.8,1.64l.08-.74a6.09,6.09,0,0,1-3.08,2.26c-.49,0-.56-.43.11-.42-1.65.07-1.05,1-3,1.12l.6-.62c-1.63.38-1.44.59-2.2,1.31-.95.52-3.12.58-3.51,0a2.22,2.22,0,0,1-1.88,1.2c-.19-.2.12-.43.28-.55-2.82.2-3.83,1.77-5.86,1.56a.51.51,0,0,0-.41-.32,38.18,38.18,0,0,1,3.75-.81c-.16-.62-1.92-.31-.75-1.51-1.27.81-3.41,2.42-5.17,2.54a.88.88,0,0,1-.28-.16l.16-.12a2.44,2.44,0,0,0-1.05.37,6.76,6.76,0,0,0-1.44.15c-.32-.48-2.06.15-2.94.32.23.67-.94.81.26,1.14-.15,0,.14-.12.72-.27a1.65,1.65,0,0,0,.35-.16l0,.08,2.15-.53a2.66,2.66,0,0,1-2.31.79,15.91,15.91,0,0,1-1,1.37c-1.41-.7-3.82-.71-4.27-1.23-2.57,1-6.2,1.61-7.6,3.27-.73.33-1-.18-1.27-.32.41-.23.93-.32,1.13-.56-1.44.69-4.48,1-4.66,2-2,0,.92-1-1.69-.39l.3-.34c-2.73-.23-4.71.75-6.79,1.7s-4.24,1.88-7.3,1.4c.42.05.63.07.74.21A62.7,62.7,0,0,0,76.18,349c-1.68.34-3.36.7-5,.9a30.38,30.38,0,0,1-5,.17c-1.89,0-2,.61-3.08,1.21l-.5-.69-1.82,1.13c-2.66,1-5-1.12-8.31.44l.51.46c-1.26,0-3.93.75-3.79.14-.11.11-.34.58-.86.37l-.09-.39-3,1c-2.42,0,.2-1.6-3.28-1.28-1.28.3-3.56,1.57-3,1.78.53,0,1.36.09,1.44.48l-1.16.34c-.1,1.18-.89,2.47,2.11,2.95l2-.94.71.48-1.71.23c1,.42,1.6-.12,2.25-.52a1.31,1.31,0,0,0,.92.52l1.87-1.33c.3.42-.79,1,.58,1.1.88-.62-1-.92.5-1.43,1,.41.8.88,1.88.3.2.28,0,.49-.46.68,1-.48,2.68-.46,3.12-1.14,1.1.53,3.41-.55,3.45.53a7.12,7.12,0,0,1,2.6-1.28c-1.53,1.55,3.49-.41,3.23,1.05,1.1-1.35,4.48-1.16,6.61-2.12-.11.11-.33.33-.53.3a9.18,9.18,0,0,1,2.53.33c0-1,1.93-1.47,2.88-2.26,1.68.68-.75,1.29-.13,2.11-.2-.78,2.54-1.23,1.92-1.8,1.26.39,1,.12,1.78.82,0-1.24,1.06-.39,1.91-1.29,1.79.31.62,1.06,2.43.38C82.47,353,80.89,353.72,80.89,353.72Zm43.6-10.89h0l-.89.26Zm3.66-.9c-.45.08-1,.21-1.59.36-.19-.21-.11-.48.26-.56C126.66,341.94,127.55,341.86,128.15,341.93ZM119.31,339c.56-.22.78-.13.9,0-.28.08-.59.17-1,.31,0,0,0,.06,0,.09A.93.93,0,0,1,119.31,339Z"/><path class="cls-1" d="M118.48,340.17a1.74,1.74,0,0,1-.23.1l.38.08.16-.26Z"/><path class="cls-1" d="M436.71,258.92l-.06-.05a.47.47,0,0,1,.09.17A.35.35,0,0,1,436.71,258.92Z"/><polygon class="cls-1" points="178.61 329.04 178.54 328.87 178.28 329.12 178.61 329.04"/><path class="cls-1" d="M453.13,271.76a.44.44,0,0,0,.14.29A.77.77,0,0,0,453.13,271.76Z"/><path class="cls-1" d="M460.69,276.57l.95.87A10.26,10.26,0,0,0,460.69,276.57Z"/><path class="cls-1" d="M466.46,280.38a.89.89,0,0,0,.27-.19h0Z"/><path class="cls-1" d="M367.4,246.58l-.25.08C366.58,246.92,367,246.77,367.4,246.58Z"/><path class="cls-1" d="M399,245.34a9.66,9.66,0,0,1-1.08.14C398.49,245.63,398.92,245.72,399,245.34Z"/><path class="cls-1" d="M334,258.49h0l-.2.09Z"/><path class="cls-1" d="M396.48,245.2a3.12,3.12,0,0,0,1.46.28A4.79,4.79,0,0,0,396.48,245.2Z"/><path class="cls-1" d="M493.65,293.4l.31.13a.13.13,0,0,1,.07-.09Z"/><path class="cls-1" d="M494,293.44l.39,0C494.25,293.42,494.11,293.38,494,293.44Z"/><path class="cls-1" d="M495.22,293.55l-.8-.08C494.67,293.56,495,293.69,495.22,293.55Z"/><path class="cls-1" d="M485.1,289.83l-.2.19A.36.36,0,0,0,485.1,289.83Z"/><path class="cls-1" d="M482.49,288.78a10.08,10.08,0,0,1,1,.77,3.56,3.56,0,0,0,1.26.63l.16-.16C484.34,290.21,483.23,288.69,482.49,288.78Z"/><path class="cls-1" d="M473.54,280.81l1.94,1.25c-.23-.43-.53-1,.43-.57C473.73,279.43,476.15,282.31,473.54,280.81Z"/><path class="cls-1" d="M467.5,277c1.14.51.19-.35.32-.44C467,276.35,466.82,276.31,467.5,277Z"/><path class="cls-1" d="M422.57,250.76l.39-.52C422,249.89,422.84,250.46,422.57,250.76Z"/><polygon class="cls-1" points="412.16 249.91 412.88 250.59 413.51 250.19 412.16 249.91"/><path class="cls-1" d="M408.09,243.64l.43.05c-.53-.12-1.1-.15-1.65-.23Z"/><path class="cls-1" d="M322.25,257.28l.62.57C323.39,257.44,323.12,256.58,322.25,257.28Z"/><path class="cls-1" d="M289.44,275.9a2,2,0,0,0-2,.77A14.44,14.44,0,0,0,289.44,275.9Z"/><polygon class="cls-1" points="186.09 319.92 186.71 319.42 185.44 320.1 186.09 319.92"/><path class="cls-1" d="M316.4,268.12a.37.37,0,0,0-.28-.65l-.44.77Z"/><path class="cls-1" d="M313.65,266.16c-.58.32-1.28.93-1.06,1.73.64-.71.71-.36,1.41-1.22a.55.55,0,0,1,.61.67c.19-.19.66.28,1-.19a1.45,1.45,0,0,0-2-.45C313.4,266.49,313.59,266.3,313.65,266.16Z"/><path class="cls-1" d="M270.61,258.41l.26.13A.58.58,0,0,0,270.61,258.41Z"/><path class="cls-1" d="M243.89,253.94c.21,0,.31-.05.33-.13C244,253.84,243.86,253.86,243.89,253.94Z"/><path class="cls-1" d="M239.45,252.36l.26.09C239.62,252.36,239.53,252.3,239.45,252.36Z"/><path class="cls-1" d="M270.61,258.41l-.68-.37C269.84,258.3,270.27,258.29,270.61,258.41Z"/><path class="cls-1" d="M307.4,267.24a.94.94,0,0,0,.42-.16l-.38,0Z"/><path class="cls-1" d="M282.52,259.51l.22,0a2.89,2.89,0,0,0,.23-.3Z"/><path class="cls-1" d="M291.6,260.74c-.2-.06-.38.63-.5.92a.73.73,0,0,1,.52-.41A1.52,1.52,0,0,0,291.6,260.74Z"/><path class="cls-1" d="M305.79,264.12l.27-.06A2.61,2.61,0,0,0,305.79,264.12Z"/><path class="cls-1" d="M276.05,258.39a.62.62,0,0,0,0-.26A.59.59,0,0,0,276.05,258.39Z"/><path class="cls-1" d="M33.62,302.14a.53.53,0,0,0,0-.12C33.56,302.11,33.55,302.16,33.62,302.14Z"/><path class="cls-1" d="M22.36,301l.14-.07c0-.13,0-.26,0-.39Z"/><path class="cls-1" d="M231.22,250.21l0,0C231.48,250.18,231.36,250.18,231.22,250.21Z"/><path class="cls-1" d="M153.35,242.85c.94.55-1.39.93,0,1.51C153.21,244.09,154.5,243.16,153.35,242.85Z"/><path class="cls-1" d="M307.17,267.11a2.52,2.52,0,0,1-.37-.05A.78.78,0,0,0,307.17,267.11Z"/><path class="cls-1" d="M153.36,244.36h0l.14.06Z"/><path class="cls-1" d="M211.87,247.74a.77.77,0,0,0,.15.33A.61.61,0,0,0,211.87,247.74Z"/><path class="cls-1" d="M226.09,250.88l-.34-.15A.89.89,0,0,0,226.09,250.88Z"/><path class="cls-1" d="M204.26,247.6c-.18-.08-.23-.19-.51-.13a.36.36,0,0,0,.07.1C203.92,247.48,204.06,247.46,204.26,247.6Z"/><path class="cls-1" d="M196.49,246.45a1,1,0,0,0,.12.16h.25Z"/><path class="cls-1" d="M56.32,293.13a1.88,1.88,0,0,1-.6-.41C56,293.12,55.07,293.8,56.32,293.13Z"/><path class="cls-1" d="M307.45,266.85c-.07.17-.15.24-.28.26h.27A.29.29,0,0,0,307.45,266.85Z"/><path class="cls-1" d="M203.12,253l-1.21-.29A6.94,6.94,0,0,0,203.12,253Z"/><path class="cls-1" d="M105.26,265l-.21.21A.3.3,0,0,0,105.26,265Z"/><path class="cls-1" d="M198.24,252.31a1.83,1.83,0,0,0-.63-.59.85.85,0,0,0-.17.16Z"/><path class="cls-1" d="M55.71,292.72h0Z"/><path class="cls-1" d="M48.74,297.68c1.14-.46.18-1.06.21-1.65,1.23-.8.89.37,1.53.61.74-.58,1-1.64,1.65-1.89.11.12.25.12.19.35.56-1.07,2.57-1.19,3.16-2.52a.43.43,0,0,1,.23.14,2.76,2.76,0,0,1-.7-1.07c.47-.25.64-1,1.08-.51-.3.13-.22.36-.28.6l.4-.48c.83.55-.56.6-.28,1.18.86-.74,1.7-1.94,2.55-2.1.55.69-1.64,1.13-.29,1.31l-1.31.28c1.49.77-.76.27.7,1.15,1.67-.54,1.54-1.24,3.18-1.81.13-.59-.43-.56-.31-1.16,1.77-1.86,2.71,1,3.75-.84.15-.72-.21-1.75,1.18-1.85l.08,1.05c1.51-.71.17-1.66,2-1.94-.08.48-1,.91-.7.89,1.35.11.43-.87,1.18-1.29l.57.65c1.49-1,2.86-2.48,4.47-3.59,0,.27-.12.67.4.67a21.77,21.77,0,0,1,6.87-3.37l.4-1.09c.18-.1.5.08.38.32.93-.23-.2-.42,0-.9.42-.31.81,0,.64.37,1.07-1.38,3.27-3.54,5.13-3.76l-.17.36c1.29-.43.51-2.07,1.92-2.12l-.14.24c2.63-1.22,5-3.44,7.48-3.6-.18-1.12,2.69-1,2.1-2.4,1.79-.2,1.52.27,3.76-.45.56-.24.34-1.25.92-1.76l.4.66.5-1.21.93.54.53-.52c-.27.1-.69,0-.76-.22.8-.85,2.63-.85,2.84-.5l2-1.81c.09.3-.24.6-.46.94.87-1.36.61.6,1.4-.65-.23-.07-.13-.45-.18-.6a5,5,0,0,0,2.95-1.19l.06.56c1.78-.77,3.55-2,5.52-2.93a.64.64,0,0,1-.49-1.16l.57.64c.17-.63-.74,0-.22-.92.78-.24.88.63.56,1.06l.79-.66c.15.19,0,.41.06.71.17-.62,1.87.05,2.06-1l.14.2c2-.8,2.78-1.48,4.41-2.12-.22-.67.48-.77.78-1.48a26.42,26.42,0,0,0,4.28-.75c.93-.68.12-.67.46-1.23.27.57,1.73.06,1.1.74a26.09,26.09,0,0,0,4.38-1.93c-.32-.19-.63-.23-.54-.48.39-.21,1,0,1,.34l-.1.09a6.57,6.57,0,0,1,4.29-.59c1.51.12,2.91.21,3.84-.59l-.1.08,2-1c1,0-.53.56.26.85,2.2-1.35,3.7-.31,5.56-1.16,1.62,1.73,5.32-.45,7.4.74l-.13-.45c.52-.44.64.24,1,.34-.06-.35-.58-.39-.25-.64,4.47-.57,9.2.83,13.72,1.61,1.66.25,1.15-2.21,3.18-1l-.68.76c3.48-.67,6.91.77,10.34.37-.22.17-.26.41-.58.37.62.68,2.59.37,2.67-.11.51.12.06.45.34.74.66.45,1.88-.51,2.17.14.05.1-.23.16-.36.19.5-.23,2.13.37,1.79-.37,1.2.51,2.43,0,3.37.59.77-.67,2.09.69,2.46-.36-.26,1.1,2.06,1.23,2.94.82-.32.3.63.46.25.88.91.12,1.77,0,1.7-.56,1.47,1.58,3.51-.58,4.2,1.28a68.46,68.46,0,0,1,7.78-.13c-.25,1.1-2.69-.29-2.76.89,2.36-.11,3.83-.87,6.07-.26.56.24-.41.43-.64.59,2.36-.11,4.42.77,6.55.47,0,.1-.26.18-.48.23.41,0,.91.31.94-.21l-.41.08c-.53-.83,1.83-1.29,2-1.67-.9,1.35,2,.67.6,2.34.28-.06.65-.25.64-.6.37.16.47.38,0,.7,1.48-.06,1.05-.67,2.36-.46-.05.24-.32.3-.5.56a2.88,2.88,0,0,1,2.54-.38c-.09.14,0,.35-.32.29,1.91.21,3.42-.79,5.43,0-.78,1,.65.45.62,1.39l1.16-.1-.38-.52c1,.16,1.94-.38,2.74,0l-.79.27,1.86.1-1-.51c1.06-.32.07-1.18,1.33-.73-.28.06,1,.16,1.41.78h0a2,2,0,0,1,1.77-.12c.14.33-.31,1-.22,1.22.6-.7,2.33.13,3.06-.6a.89.89,0,0,0-.27.75l.5-.57c.42.27.47.38.34.75,1.35.32-.26-1.23,1.29-.49-.14,0-.09.14-.37.19,1.59.51,3.2.08,4.65.61.3,1-1.34,0-.95.89,2.17.16,4.62-.44,6.67.09l-.37-.16c.48-1.27,1.45.88,2.6.42-.27.05-.45.67-.36.54,1.4.42,3,.11,5.19,0l-.31.3a20.9,20.9,0,0,0,3.07.8c.32-.3.83-.17.59-.71,2.51,2.34,5.5-.22,7.74,1.75-.3,0-.75.19-.51.22h2.16c-.08-.6-.23-.39-.6-.9a1.92,1.92,0,0,1,1.48-.39c-1,.23-.13.92.23,1.3,0-.19.13-.36.12-.54.95,1.18.36-1.13,1.76-.21l-.12.28a4.44,4.44,0,0,1,1.76-.21c.16.7-.64.22-.76.76.86.09,1.87-1,2.55-.22-.39.13-.92,0-1.31.18.73.9.86.72,1.47.94l-.06,0,1.39.57-.33-.27c1.32-1.56,2.22,0,3.84-.9-1.57.86-.33.58-.55,1.32.34.26.86.58.67.76.78-.5,1.07.65,2.16-.09,0,.25.73.13.49.72.91-.06-.15-.45,0-.75,1.49-.61,3.06,1.48,5.2.65,1.76-.21,2.2-1,3.83-1.15.47.47-.57.81-.57.81a2.93,2.93,0,0,0,2.31.36c-.19.19,0,.39.15.7.66,0,.57-.81,1.37-.33a3.34,3.34,0,0,1-.79.87c.79-.1,1.61-.44,2.44-.54.14.45-.58.57-.9.8.92-.06,2.36,0,2.74-.66l-.54-.32c.33,0,.08.59-.17.68a.7.7,0,0,1-1.07-.65l.58-.07c-.36-1.5-2.29-.11-3.41-.36l.62-1-1.29.68c-.2-.3-.29-.9.3-1-.74-.63-.78.25-1.39-.42-.06-.1,0-.14.06-.17l-.84.19c.18-.2,0-.75.44-.53-1.34-.8-2.41.43-2.83-.43l.13-.05c-2,.06-.31.73-1.92,1.4l-.72-2-.31.73c-.2-.06-.59-.18-.47-.47-.84.41.08.35-.44.77-.88-.83-2.75-.08-2.79-1.32-.44.52.87.59-.24.83-.1-1.34-1.24,0-2.05-.69.38-.62,1.17-.14.36-.87-.71,1-1.7-.51-2.49-.41-.17.89-1.7.13-3,.24.13-.29-2.31-.85-3.44-1.36l.06-.14c-.37.87-1.56.52-2.47.57a1,1,0,0,1,.82-.9l-.83-.12a1.37,1.37,0,0,1-1.08.4l.31-.65c-1.12-.12-2.36.47-3.71-.2-.18.62.87,1.94-.71,2.13,0-.35,0-.94.45-1-.14,0-.51.21-.75,0l.69-.49c-.61-.35-.41.43-.92.3.08-.49-.33-.41-.2-.78.14,0,.42.27.65.1a2.47,2.47,0,0,1-1.42-1c0,.28-.09.66-.53.66-1.12-.13-.29-.65-.9-1-.32.3-1-.15-1.11.57-.32-.05-.33-.4-.42-.62-.63.24-2.7-.31-2.17.57l.14.07-.1,0h0c-2,.44-3.84-1-5.76-1l0-.24c-1.16.11-2.5-.21-3.38.2-.33,0-.71-.56-.53-.83a2.77,2.77,0,0,1-2.18-.28c.92-.29-.24-.42.92-.18-1.07-.37-1.26-.8-2.55-.31.5-.57-.72-.91-1.27-.81l.71.57a6.05,6.05,0,0,1-1.64-.27l.41-.78c-2.11-1.34-4.34,1.1-5.81-.84-.69.49,1.17.59.53,1.18-1-.26-1.93-1.61-2.26-1.66-1.36-.67-1.51,1-3,.47.15.32.21,1.13-.94,1.24-1-.26-1.1-1.42-.41-1.56.26,0,.36.13.34.22.35-.05.81-.11.45-.49l-.18.27c-.48-.38-1.92-.56-1.51-1-.83.16-.41.43.16.67-1.28-.63-2.09-.33-3.43-.82.2.2.35.57.13.54-2-.67-1,.42-2.36.34-.71-.56.44-1-1-.86-.8-.42-.06-.8.31-1-1.34.38-2.29-.72-3-.93l.69-.14a2.92,2.92,0,0,1-1.07,0l.29.64c-.37-.16-.7-.21-.65-.46-.46.33.16,1-.72,1.43-.47-.37-1.62.09-1.68-.72,1.59.51-.06-.81,1.33-.73a1.66,1.66,0,0,1-1-.16c0-.09.08-.15.2-.18-1.46-.93-.85.77-2.46.51.27-.4-.25-.88-.53-.83.65.11.2.78-.44,1-1-.5-1.17.08-1.7,0l.59.25c-.27.41-.78.28-1.52.31,0-.35.69-.14.45-.33-.91.65-1.69-1.07-2.88-.72-.48-.37.07-.83-.35-1.1-1.34.38-1.27-.8-2.65-.53.29.65.37.51-.64,1l2.23-.09-1.52.65c.65.1,1.43-.17,1.81,0-.73.38-.64.25-.41.78-.76-1-1.84.25-2.79-.5l.25-1.45c-1.45-.89-2.87.33-4.83-.34l.61.35c-.35.54-1.25-.1-1.94,0,.13-.48-.25-.72-.48-1.07,0,.37-1.47-.25-1.8.7l-.8-.78c-1.59-.51-2.07,1.11-3.61.71.55-.46-.11-.91,1-1.13-.52-.09-1-.25-1,.09-.26-.35-1.54.44-2-.09-.26.18-.41.68-1,.55a.28.28,0,0,1,0-.24c0,.24-1,.19-.53.81-1.38-1.77-4.52-.57-5.73-2.08-1.16,0-2.56,0-3.61-.15.09-.14,0-.25.23-.17-1.37-.65-1.08,1.28-2.64.55-.72-.9.93-.31.45-.68,0-1.64-2,0-3-1.13l.28-.06c-.77-.67-2.14.35-3.5.07a.31.31,0,0,0,0-.25c-1,.7-2.86.79-4.2.87.47-.59.63-.27.45-.94-.6,0,.06,1.05-1.14,1.1-.35-.38-1.18-.76-1.22-1.46l1.12.07c-.48-.94-1.46-.11-2-.32l.11-.38c-1.74,0-1.85,1-3.7.74l.17.31c-1.08.89-.81-.62-1.87,0l-.24-1a23,23,0,0,1-3.61.95c.71-.71,2.14-1,3-1.38-.67,0-2.27-.06-2.64.42.27-.09.62-.31.88-.14a4.52,4.52,0,0,1-3.26,1c.29-1.93-3.44-.55-4.41-2-2.36.72-4.72-.22-7.5.06,1.08,1.43-.81.09-.53,1.61-.63.15-.87.15-.94.05l-2-.74c-.51-.41.58-.39.49-.73-1.43,0-.66-.6-1.64-.89.25.52-.41.83-1.25.72l1.22.57c-1.87,1.05-1.87-1.1-3.76,0l.57-.58c-1,.46-3.81.56-4.56,2-.21-.14-.52-.5-.1-.7a13.39,13.39,0,0,0-3.72,1.29,6.46,6.46,0,0,1-3.36.9l.09-.4c-.42.21-.58.89-1.23.69,0-.16.07-.41-.14-.37-.2.19-1,1-1.62.93l.37-.55c-2.46.19-3.18,2.1-5,3-.36-1.06-2.24-.72-3.18-.56l0-.16a10.44,10.44,0,0,0-3.3,1.8c-.95.72-1.85,1.47-2.92,2.2a6.59,6.59,0,0,0-3.6.77,23.36,23.36,0,0,1-4.06,1.53c.43,0,.32.8,0,1.1-.63.07-1.12,1.42-1.49.48l.19-.08c-.84-.67-1.83.1-2.68.54l.47,1.24c-3.12-.54-5.39,3.73-7.41,2.89-.36.59-1,1-1.36,1.53l-.32-.63a17.8,17.8,0,0,0-4,2.2l.1-.65c-1,.55-.23,2.5-1.12,3.07l-.81-.74c-1.73,1-4,1.29-5.16,3.14a.52.52,0,0,1,.1-.64c-.83.46-3.51,1.28-2.46,2.34-.51-.79-1.82,1-2.53,1.91l-.22-.68c-.32,1.23-.22,1.46-1.18,2.33-.31.08-.52-.34-.08-.4-1,.21-.33,1-1.57,1.29l.16-.62c-.91.49-.72.65-.94,1.39-.42.58-1.78.86-2.23.4a1.18,1.18,0,0,1-.77,1.29c-.19-.16-.07-.4,0-.52-1.73.47-1.81,2-3.18,2a.52.52,0,0,0-.38-.26,14,14,0,0,1,2.1-1.11c-.33-.55-1.34-.09-1-1.3-.52.86-1.3,2.56-2.38,2.83a.9.9,0,0,1-.24-.12l.06-.12a.93.93,0,0,0-.54.43,3.06,3.06,0,0,0-.87.28c-.37-.4-1.24.38-1.73.64.39.59-.29.84.58,1-.1,0,0-.12.36-.33.06-.06.14-.12.16-.18v.07l1.17-.73c-.2.53-.45,1-1.17,1a12.4,12.4,0,0,1-.11,1.37c-1.15-.48-2.67-.24-3.14-.66-1.27,1.18-3.34,2.11-3.65,3.79-.34.38-.66-.07-.92-.17.18-.25.48-.39.52-.63-.67.77-2.44,1.42-2.22,2.35-1.26.19.21-1.06-1.19-.17l.07-.35c-3.53.14-3.71,4.48-7.81,4.26.28,0,.41,0,.52.12-4.06.89-7.53,4.05-11.81,4.07-1.17.13-1.11.69-1.64,1.34l-.47-.65-.89,1.19c-1.46,1.15-3.33-1-5.08.73l.39.42c-.77.11-2.33.83-2.33.24-.05.11-.13.57-.48.38l-.11-.39c-.57.36-1.14.73-1.72,1.07-1.5,0-.07-1.58-2.17-1.3-.75.28-2,1.51-1.71,1.73.32,0,.85.1.93.49l-.69.32c0,1.18-.38,2.46,1.6,2.95l1.16-.93.51.49-1.07.22c.7.42,1-.11,1.39-.5a1,1,0,0,0,.66.51c.35-.42.69-.89,1-1.34.25.41-.38,1,.51,1.07.48-.64-.76-.88.13-1.42.71.38.63.84,1.25.24.16.28.06.49-.2.69.56-.5,1.66-.51,1.83-1.21.78.47,2.07-.72,2.29.36A3.46,3.46,0,0,1,35,300.7c-.68,1.58,2.16-.57,2.29.86.43-1.37,2.64-1.36,3.77-2.48-.05.12-.13.35-.27.34a4.07,4.07,0,0,1,1.69.12c-.23-1,.87-1.57,1.27-2.39,1.25.53-.14,1.29.46,2-.32-.72,1.31-1.36.76-1.85.91.27.71,0,1.37.64-.33-1.19.57-.44.87-1.37,1.22.13.69.95,1.65.14C49.56,296.86,48.74,297.68,48.74,297.68ZM72.85,283h0l-.48.32Zm2-1.2c-.26.12-.57.3-.89.49-.2-.16-.25-.42,0-.53C73.92,282,74.46,281.79,74.87,281.79Zm-6.71-1.73c.27-.27.44-.21.56-.11-.15.1-.31.22-.52.39v.1A1,1,0,0,1,68.16,280.06Z"/><path class="cls-1" d="M68.05,281.19s0,.08-.11.12l.27,0v-.26Z"/><path class="cls-1" d="M270.92,258.57l-.05,0a.34.34,0,0,1,.09.12S270.94,258.6,270.92,258.57Z"/><polygon class="cls-1" points="103.18 266.51 103.09 266.36 102.99 266.59 103.18 266.51"/><path class="cls-1" d="M283.27,262.86a.39.39,0,0,0,.14.2C283.41,263,283.35,262.94,283.27,262.86Z"/><path class="cls-1" d="M288.74,263.84l.74.36A3.68,3.68,0,0,0,288.74,263.84Z"/><path class="cls-1" d="M292.9,264.81a.76.76,0,0,0,.13-.28h0Z"/><path class="cls-1" d="M225.68,255.57h-.17C225.11,255.66,225.38,255.64,225.68,255.57Z"/><path class="cls-1" d="M245.89,256.94a3.53,3.53,0,0,1-.69.24C245.55,257.28,245.82,257.34,245.89,256.94Z"/><path class="cls-1" d="M203.26,253.07h0l-.14,0Z"/><path class="cls-1" d="M244.28,257a1.25,1.25,0,0,0,.92.16A1.82,1.82,0,0,0,244.28,257Z"/><path class="cls-1" d="M311.15,267.87l.2.06a.18.18,0,0,1,0-.11Z"/><path class="cls-1" d="M311.39,267.82l.24-.05C311.52,267.76,311.43,267.75,311.39,267.82Z"/><path class="cls-1" d="M312.13,267.67l-.5.1C311.79,267.8,312,267.85,312.13,267.67Z"/><path class="cls-1" d="M305.61,266.71l-.1.24A.45.45,0,0,0,305.61,266.71Z"/><path class="cls-1" d="M303.9,266.53c.4.12.94.69,1.53.61l.08-.19C305.19,267.29,304.35,266.16,303.9,266.53Z"/><path class="cls-1" d="M297.28,262.35l1.39.42c-.2-.31-.48-.72.18-.69C297.18,261,299.13,262.74,297.28,262.35Z"/><path class="cls-1" d="M292.93,261.3c.78,0,.05-.39.11-.54C292.52,260.94,292.39,261,292.93,261.3Z"/><path class="cls-1" d="M261.05,256.52l.17-.62C260.62,255.9,261.18,256.15,261.05,256.52Z"/><polygon class="cls-1" points="254.47 258.88 254.98 259.36 255.34 258.82 254.47 258.88"/><polygon class="cls-1" points="251.54 253.83 251.81 253.78 250.8 253.86 251.54 253.83"/><path class="cls-1" d="M198,246l.07.8C198.45,246.76,198.66,245.9,198,246Z"/><path class="cls-1" d="M174.52,244a.93.93,0,0,0-1.31-.36C173.74,243.78,174.24,244.12,174.52,244Z"/><polygon class="cls-1" points="105.58 258 105.88 257.54 105.19 258.16 105.58 258"/><path class="cls-1" d="M492.25,210.66c.2-.28-.08-.7-.78-.43l-.3.93Z"/><path class="cls-1" d="M487,210.38c-.77.55-1.63,1.43-.92,2.07.7-.95,1-.63,1.69-1.78.7-.27,1.32,0,1.27.27.2-.27,1.17-.11,1.43-.71a3.72,3.72,0,0,0-3.41.7C486.76,210.8,487,210.54,487,210.38Z"/><path class="cls-1" d="M417.47,198.16l.38.28A1.5,1.5,0,0,0,417.47,198.16Z"/><path class="cls-1" d="M378.83,176.12c.31.16.47.16.52.11C379.06,176.11,378.81,176,378.83,176.12Z"/><path class="cls-1" d="M372.8,171.36l.36.28C373.05,171.49,372.92,171.36,372.8,171.36Z"/><path class="cls-1" d="M417.47,198.16l-1-.74C416.32,197.63,417,197.86,417.47,198.16Z"/><path class="cls-1" d="M477.34,213.84a2.26,2.26,0,0,0,.65-.26l-.62.13A.79.79,0,0,1,477.34,213.84Z"/><path class="cls-1" d="M435.87,204.62l.34.12a2.65,2.65,0,0,0,.39-.23Z"/><path class="cls-1" d="M450.32,208.2c-.33-.08-.58.57-.76.85a1.09,1.09,0,0,1,.81-.33A1,1,0,0,0,450.32,208.2Z"/><path class="cls-1" d="M473.74,211.24l.42-.13Z"/><path class="cls-1" d="M425.88,200.87a.49.49,0,0,0,0-.28A.36.36,0,0,0,425.88,200.87Z"/><path class="cls-1" d="M35.86,235.46c0-.05,0-.08,0-.12S35.75,235.48,35.86,235.46Z"/><path class="cls-1" d="M18,235.37l.23-.08a2.61,2.61,0,0,0,0-.4Z"/><path class="cls-1" d="M361.24,163.39l.05,0C361.65,163.55,361.46,163.45,361.24,163.39Z"/><path class="cls-1" d="M236.89,148.37c1.59,0-1.88,1.68.42,1.45C237,149.65,238.73,148,236.89,148.37Z"/><path class="cls-1" d="M476.94,213.78l-.64.05A2.65,2.65,0,0,0,476.94,213.78Z"/><path class="cls-1" d="M237.31,149.82h0l.23,0Z"/><path class="cls-1" d="M332.12,148.88a1.09,1.09,0,0,0,.18.42C332.32,149.23,332.29,149.12,332.12,148.88Z"/><path class="cls-1" d="M353.37,160.53l-.48-.37A3.12,3.12,0,0,0,353.37,160.53Z"/><path class="cls-1" d="M320,145.29a1.88,1.88,0,0,0-.82-.34.64.64,0,0,0,.1.13A.9.9,0,0,1,320,145.29Z"/><path class="cls-1" d="M307.35,141.66a1.9,1.9,0,0,0,.21.19l.41.06Z"/><path class="cls-1" d="M74.22,225.78a2.23,2.23,0,0,1-.75-.45C73.79,225.76,72,226.43,74.22,225.78Z"/><path class="cls-1" d="M477.3,213.45a.47.47,0,0,1-.36.33l.43-.07C477.4,213.6,477.4,213.5,477.3,213.45Z"/><path class="cls-1" d="M317.71,150.37c-.63-.25-1.25-.5-1.88-.72C316.35,149.87,317,150.14,317.71,150.37Z"/><path class="cls-1" d="M161.61,193.26l-.39.28A.84.84,0,0,0,161.61,193.26Z"/><path class="cls-1" d="M310.1,148.07a3.2,3.2,0,0,0-1-.76.9.9,0,0,0-.27.11Z"/><path class="cls-1" d="M73.46,225.32h0Z"/><path class="cls-1" d="M60.73,230.44c1.92-.46.67-1.1.94-1.72,2.22-.82,1.23.4,2.12.66,1.36-.63,2.23-1.74,3.3-2,.12.13.34.12.14.37,1.31-1.11,4.44-1.24,5.94-2.6a.63.63,0,0,1,.29.16,1.79,1.79,0,0,1-.61-1.15c.85-.24,1.42-1,1.9-.51-.52.14-.5.39-.69.64l.81-.51c1,.6-1.12.64-1,1.25,1.65-.76,3.47-2,4.86-2.2.51.74-3,1.18-1,1.39l-2.14.29c1.93.83-1.28.27.56,1.23,2.77-.56,2.9-1.3,5.67-1.85.47-.63-.4-.61.07-1.24,3.58-1.93,3.64,1.17,6.11-.79.56-.77.52-1.89,2.68-2l-.4,1.13c2.64-.73,1.07-1.78,4-2-.37.51-2,.94-1.52.93,2,.17,1.08-.91,2.44-1.34l.54.72c2.72-1,5.55-2.64,8.54-3.8-.09.29-.52.72.27.73a63.21,63.21,0,0,1,12.06-3.62l1.15-1.19c.33-.11.72.09.42.35,1.52-.28-.09-.46.5-1,.79-.36,1.21,0,.78.39,2.29-1.55,6.67-4,9.6-4.26l-.44.4c2.16-.54,1.76-2.33,3.9-2.45l-.31.26c2.28-.74,4.58-1.77,6.78-2.65a23.68,23.68,0,0,1,6.18-1.91c.22-1.24,4.55-1.43,4.24-2.9,2.79-.45,2.18.11,5.89-1,1-.36,1-1.47,2.11-2.13l.35.69,1.23-1.45,1.23.46,1-.68c-.45.16-1.06.12-1.09-.12,1.53-1.11,4.32-1.46,4.54-1.12l3.69-2.48c0,.32-.57.73-1,1.16,1.78-1.72.74.55,2.37-1-.33,0-.06-.48-.08-.64,1.18,0,3.36-1.14,4.9-2.12l-.08.63c3-1.36,6.08-3.27,9.32-5-1.28.39-1.44-.57-.53-1.15l.76.53c.38-.77-1.14.25-.16-1,1.25-.56,1.24.39.67,1l1.34-1c.2.17-.08.47,0,.79.37-.77,2.93-.62,3.39-1.85l.2.17c3.26-1.7,4.56-2.77,7.17-4.23-.29-.64.81-1.06,1.31-2a54.31,54.31,0,0,0,6.69-2.86c1.45-1.2.19-.79.71-1.55.43.49,2.7-.83,1.73.23a63.2,63.2,0,0,0,6.72-4.39c-.5,0-1,.1-.87-.21.59-.43,1.58-.54,1.63-.22l-.13.15c3.5-3,10-3.14,12.53-5.86l-.15.15c1-.74,2-1.51,3-2.23,1.58-.61-.71.86.6.69a14.69,14.69,0,0,1,4.36-2.48,15.61,15.61,0,0,0,4-1.9c3,.73,8.21-3.43,11.81-3.34l-.33-.36c.69-.69,1.08-.1,1.71-.21-.19-.3-1-.07-.58-.48,6.86-2.81,14.81-3.46,22.17-3.85a2.66,2.66,0,0,0,2.11-1.19c.43-.49,1-.86,2.74-.44l-.92.88a29.34,29.34,0,0,1,8.32-.66c1.39.09,2.79.15,4.17.2a33.48,33.48,0,0,0,4.13.05c-.35.16-.38.4-.91.35,1.07.65,4.17.59,4.27.09.83.17.13.46.6.78,1.07.5,3-.25,3.46.44.08.11-.35.13-.57.14.79-.17,3.4.72,2.84-.08,1.91.79,3.89.52,5.35,1.38,1.23-.47,3.28,1.24,3.9.32-.45,1.06,3.17,1.9,4.57,1.83-.52.18.95.7.32,1,1.4.46,2.74.7,2.7.07,2.08,2.21,5.54.9,6.32,3.12a93.73,93.73,0,0,1,11.93,3.92c-.62.95-4-1.78-4.38-.63,3.6,1.16,6,1.26,9.22,3.22.79.59-.71.18-1.09.2,3.57,1.32,6.42,3.49,9.66,4.61-.06.08-.44,0-.78-.09.6.3,1.27.91,1.45.42l-.63-.2c-.56-1.17,3.07-.05,3.37-.33-1.71.71,2.72,2,.24,2.7.42.14,1,.21,1.11-.14.51.41.59.69-.18.7,2.2,1,1.75,0,3.61,1.16-.13.21-.56.07-.9.21a6.9,6.9,0,0,1,3.86,1.41c-.18.07-.09.34-.56.06,2.74,1.55,5.27,1.66,8,3.86-1.43.39.82.92.49,1.81l1.73.74-.4-.78c1.39.86,3,1,4,2l-1.24-.31,2.7,1.45-1.29-1.21c1.66.45.47-1.1,2.18.26-.42-.15,1.39.86,1.83,1.77h0a4.89,4.89,0,0,1,2.62,1.15c.12.42-.75.76-.67,1,1.08-.25,3.39,1.79,4.68,1.6-.39,0-.66.41-.61.55l.9-.2c.54.56.59.71.28,1,1.91,1.26,0-1.39,2.05.43-.21-.07-.17.07-.6-.08,2.2,1.62,4.73,2.31,6.74,3.83.17,1.18-2-.9-1.67.21,3.21,1.66,7.06,2.69,10,4.53l-.53-.4c1-.93,2,1.79,3.86,2-.43-.11-.84.4-.67.32a16.17,16.17,0,0,0,3.45,1.59c1.31.47,2.79.94,4.52,1.51l-.55.12a42.36,42.36,0,0,0,4.64,2.47c.56-.13,1.33.27,1-.4,1.76,1.86,4,2.41,6.11,3a13.28,13.28,0,0,1,6,2.31c-.47-.16-1.23-.1-.85,0l3.49.82c-.09-.64-.34-.48-.91-1.14a4.81,4.81,0,0,1,2.4.13c-1.64-.08-.27.89.31,1.39-.06-.2.22-.32.22-.51,1.49,1.51.62-1,2.85.35l-.21.26a12.1,12.1,0,0,1,2.86.27c.25.75-1.05.05-1.25.56,1.41.32,3-.51,4.15.43-.64.06-1.48-.18-2.12-.14a4.22,4.22,0,0,0,2.4,1.31l-.1,0,2.32.86-.57-.34c2.11-1.3,3.68.4,6.25-.31-2.48.66-.48.55-.78,1.26.58.32,1.48.71,1.19.88,1.23-.46,1.86.72,3.59,0,0,.25,1.22.18.9.75,1.52,0-.31-.45-.15-.75,2.36-.6,5.36,1.53,8.77.46a10.89,10.89,0,0,0,3.1-.86,12.47,12.47,0,0,1,2.9-.87c.45.16.28.4,0,.59a3.88,3.88,0,0,1-.68.3,7.23,7.23,0,0,0,3.87-.21c-.26.23,0,.39.48.63,1.09-.15.65-.9,2.11-.73a3.58,3.58,0,0,1-1,1.11c1.27-.37,2.48-1,3.77-1.38.42.38-.71.74-1.14,1.08.73-.2,1.7-.4,2.51-.69a3.15,3.15,0,0,0,1.64-1l-1-.06c.53-.13.38.52,0,.71-1.18.78-1.87,0-2-.17l.92-.27c-.59-.65-1.51-.47-2.54-.12a11.09,11.09,0,0,1-3.11.93l.69-1.09-1.86,1c-.44-.24-.76-.8.16-1-1.38-.42-1.17.45-2.36,0-.13-.08-.07-.13,0-.18-.43.14-.86.25-1.3.36.25-.23-.24-.73.57-.6-2.35-.56-3.79.86-4.67.06l.2-.06c-3.28.24-.32.75-2.83,1.56l-1.56-1.93-.37.74c-.33-.06-1-.17-.85-.46-1.29.41.19.35-.57.78a7.49,7.49,0,0,0-2.88-.49c-1-.09-1.76-.25-1.87-.88-.65.5,1.5.65-.28.82-.32-1.37-2,0-3.42-.84.56-.58,1.89,0,.51-.85-1.06,1-2.79-.74-4.05-.73-.23.9-2.73-.19-4.85-.33.2-.27-3.72-1.43-5.49-2.29l.09-.13c-.61.78-2.5,0-4-.19.22-.51.54-.64,1.37-.65l-1.32-.39a2.77,2.77,0,0,1-1.73,0l.54-.55a24.22,24.22,0,0,0-2.79-.54,9,9,0,0,1-3-1.11c-.35.55,1.16,2.32-1.35,1.86,0-.36.15-.95.82-.85a2.26,2.26,0,0,1-1.18-.29l1.15-.2c-.92-.61-.7.26-1.49-.08.19-.45-.47-.57-.21-.89.21,0,.62.47,1,.4a5,5,0,0,1-2.07-1.63c0,.29-.25.62-.93.41-1.72-.65-.36-.78-1.25-1.41-.55.16-1.47-.65-1.79,0-.49-.22-.45-.57-.56-.84a15.93,15.93,0,0,1-2.34-.73c-.81-.28-1.41-.41-1.09.17l.2.15c-.05,0-.1,0-.16,0h0c-3.15-.64-5.68-3.15-8.58-4.28l.12-.21c-1.77-.61-3.73-1.74-5.14-1.92-.48-.26-.93-1-.58-1.16a6.93,6.93,0,0,1-3.2-1.69c1.45.32-.24-.57,1.43.44-1.5-1.09-1.67-1.63-3.72-2,.89-.22-.81-1.37-1.66-1.65l.89,1a16.4,16.4,0,0,1-2.34-1.38l.83-.48c-2.74-2.75-6.73-1.95-8.32-4.88-1.15,0,1.54,1.4.43,1.53-1.43-1-2.36-2.94-2.82-3.23-1.79-1.63-2.53-.11-4.49-1.67.12.41,0,1.25-1.77.52-1.42-1-1.17-2.18-.11-1.81.37.2.49.38.42.46.54.2,1.23.47.81-.16l-.34.14c-.58-.71-2.64-1.93-1.9-2.05-1.27-.45-.74.12,0,.76-1.68-1.53-3-1.83-4.77-3.28.22.33.33.81,0,.61-2.69-2.06-1.56-.29-3.58-1.36-.87-1.06,1-.69-1.21-1.55-1-1,.15-.83.76-.75-2.09-.59-3.17-2.35-4.15-3.05l1.08.36a7.14,7.14,0,0,1-1.59-.78l.24.84c-.5-.42-1-.71-.84-.91-.77,0-.06,1.11-1.47.89-.59-.71-2.44-1.06-2.3-1.89,2.22,1.6.14-.83,2.2.22a4.85,4.85,0,0,1-1.42-.84c0-.12.16-.09.34,0-1.91-1.92-1.48.16-3.82-1.21.52-.21-.13-1-.56-1.17.95.54.09.9-.95.7-1.34-1.15-1.77-.7-2.54-1.18l.82.65c-.52.21-1.24-.27-2.37-.72.07-.35,1.07.32.77,0-1.56,0-2.27-2.18-4.18-2.59-.63-.67.31-.78-.27-1.31-2.14-.46-1.74-1.62-3.95-2.18.31.81.47.73-1.19.56,1.15.41,2.3.83,3.44,1.27-.83-.1-1.64-.21-2.47-.29,1,.48,2.22.73,2.76,1.12-1.21-.09-1-.17-.8.52-.91-1.5-2.88-.89-4.15-2.2l.7-1.3a7.69,7.69,0,0,0-3.4-1.55,15.93,15.93,0,0,1-4-1.54l.89.68c-.66.35-1.95-.78-3.05-1,.29-.42-.27-.86-.58-1.33-.08.34-2.29-1-2.95-.2l-1.16-1.18c-2.46-1.26-3.43.19-5.83-.9.93-.23-.07-1,1.72-.71-.83-.33-1.54-.68-1.67-.36-.39-.46-2.54-.17-3.15-.87-.42.09-.7.52-1.62.19-.07-.13.08-.24.08-.24-.08.24-1.58-.13-.92.64-2.13-2.3-7.26-2-9.24-3.82l-5.95-.87c.14-.13.05-.24.37-.13-2.31-.88-1.7,1.08-4.31.2-1.27-1,1.5-.23.68-.65-.06-.83-.9-.89-1.93-.89a14.66,14.66,0,0,1-1.61,0,3.2,3.2,0,0,1-1.51-.43l.46-.05c-1.37-.67-3.51.23-5.82.05,0,0,.12-.13,0-.24a12.43,12.43,0,0,1-3.19.77c-1.22.21-2.52.34-3.62.46.67-.64,1-.34.57-1-1,.1.3,1-1.66,1.25-.65-.31-2.09-.52-2.33-1.2l1.88-.15c-1-.83-2.44.18-3.43.09l.09-.39c-2.89.28-2.81,1.37-5.88,1.66l.35.26c-1.52,1.19-1.48-.4-3,.6l-.66-.88c-1.06.46-3.67,1.61-5.55,2.25.92-1,3.16-1.75,4.51-2.47-1.09.21-3.7.76-4.15,1.37a2.7,2.7,0,0,1,1.38-.46,11.92,11.92,0,0,1-4.93,2.32c0-1-1.48-.79-3.11-.37s-3.48,1-4.47.48a26.25,26.25,0,0,1-5.55,2,45.59,45.59,0,0,0-6.07,2c2,.79-1.22.51-.38,1.83-.93.51-1.3.64-1.43.59l-3.28.42c-.88-.11.78-.71.56-1-2.17.81-1.16-.21-2.73,0,.51.36-.41,1-1.69,1.41l2-.13c-2.58,2.09-3.08,0-5.68,2.11l.72-.88c-1.38,1-5.54,2.69-6.43,4.53-.34,0-.88-.22-.28-.65-3.63,1.64-7.22,5.23-10.27,6l.08-.47c-.6.45-.79,1.23-1.78,1.34,0-.15.08-.47-.23-.32a6.69,6.69,0,0,1-2.36,1.78l.53-.76c-3.62,1.41-4.68,3.74-7.38,5.51-.53-1-3.34.18-4.75.75l0-.17c-4,2-6.2,4.43-9.65,6.72-1.41.07-3.39,1-5.5,2a50.7,50.7,0,0,1-6.39,2.79c.65-.1.29.81-.32,1.24-1,.23-2,1.88-2.35.9l.31-.13c-1.08-.56-2.74.56-4.15,1.19l.34,1.3c-4.48,0-9.28,5.21-12,4.52-.76.7-1.86,1.2-2.61,1.9l-.24-.67a64.73,64.73,0,0,0-6.81,2.9l.43-.73c-1.75.7-1.38,2.81-3,3.53l-.9-.76c-1.51.65-3.12,1.1-4.68,1.63a13.77,13.77,0,0,0-4.42,2.2.66.66,0,0,1,.44-.72c-1.45.55-5.82,1.58-4.76,2.71-.38-.84-3.2,1.16-4.71,2.17v-.74a6.31,6.31,0,0,1-2.91,2.58c-.5.1-.61-.36.07-.43-1.67.25-1,1.08-3,1.45l.54-.69c-1.61.56-1.4.74-2.1,1.54-.92.63-3.11.93-3.56.42a2.32,2.32,0,0,1-1.8,1.41c-.21-.18.08-.44.23-.57-2.84.51-3.72,2.21-5.8,2.19a.51.51,0,0,0-.45-.28c2.15-.71,3.87-1.32,3.73-1.2-.21-.61-2-.1-.9-1.43-1.21,1-3.24,2.77-5,3.05a.71.71,0,0,1-.29-.14l.15-.12a2.52,2.52,0,0,0-1,.45,7.55,7.55,0,0,0-1.46.29c-.37-.44-2.07.39-2.94.66.29.64-.88.92.36,1.11-.15,0,.14-.13.7-.35a1.81,1.81,0,0,0,.35-.2l0,.08,2.14-.77a2.82,2.82,0,0,1-2.27,1,15.3,15.3,0,0,1-.86,1.48c-1.48-.52-3.94-.29-4.45-.78-2.53,1.21-6.17,2.21-7.46,4-.7.4-1-.08-1.32-.2.4-.26.92-.4,1.11-.66-1.41.81-4.47,1.45-4.56,2.45-2,.17.83-1.12-1.76-.21l.28-.38c-2.8,0-4.73,1.25-6.77,2.37a13.16,13.16,0,0,1-7.32,2c.43,0,.64,0,.77.13a78.57,78.57,0,0,0-10.14,2.51,40.08,40.08,0,0,1-10.19,1.95c-1.92.16-2,.78-3,1.48l-.57-.64L40,230.26c-2.65,1.2-5.19-.82-8.46,1.09l.56.4c-1.28.17-3.94,1.12-3.85.49-.11.12-.31.6-.86.43l-.11-.38-3,1.24c-2.46.17.09-1.61-3.44-1-1.27.39-3.52,1.82-3,2,.53-.08,1.39,0,1.5.38l-1.16.42c0,1.19-.74,2.53,2.36,2.78L22.5,237l.76.43-1.73.36c1.08.34,1.62-.24,2.26-.69a1.32,1.32,0,0,0,1,.45l1.82-1.46c.33.4-.74,1,.67,1,.85-.69-1.1-.84.4-1.46,1.09.33.88.81,1.95.15.22.27,0,.5-.42.71,1-.54,2.69-.7,3.1-1.41,1.15.43,3.43-.88,3.55.22a7,7,0,0,1,2.56-1.46c-1.45,1.64,3.55-.65,3.39.81,1-1.45,4.48-1.57,6.58-2.72-.11.12-.31.36-.52.35a9.5,9.5,0,0,1,2.6.1c-.06-1,1.86-1.64,2.77-2.51,1.76.54-.67,1.35,0,2.11-.27-.75,2.49-1.43,1.81-2,1.32.28,1.09,0,1.89.66-.09-1.24,1-.47,1.85-1.45,1.85.16.72,1,2.5.18C62.29,229.6,60.73,230.44,60.73,230.44Zm43.48-15.15v0l-.89.34Zm3.65-1.26c-.45.14-1,.33-1.59.53-.21-.19-.15-.47.22-.58C106.35,214.2,107.25,214,107.86,214Zm-9.27-2c.54-.28.78-.22.9-.11-.27.11-.58.23-1,.42l0,.1A.88.88,0,0,1,98.59,212Z"/><path class="cls-1" d="M97.84,213.26a1.08,1.08,0,0,1-.22.12,2.85,2.85,0,0,0,.4,0c0-.1.09-.19.13-.28Z"/><path class="cls-1" d="M417.92,198.49l-.07-.05a.41.41,0,0,1,.11.17C417.93,198.55,417.94,198.53,417.92,198.49Z"/><polygon class="cls-1" points="157.84 195.37 157.76 195.21 157.52 195.49 157.84 195.37"/><path class="cls-1" d="M436.88,208.27a.47.47,0,0,0,.22.25S437,208.38,436.88,208.27Z"/><path class="cls-1" d="M445.78,210.8l1.23.52A9.43,9.43,0,0,0,445.78,210.8Z"/><path class="cls-1" d="M452.72,212.51a.72.72,0,0,0,.18-.28h0Z"/><path class="cls-1" d="M351.5,164.87a1.3,1.3,0,0,0-.25-.1C350.64,164.57,351,164.74,351.5,164.87Z"/><path class="cls-1" d="M380.86,180.48a7.89,7.89,0,0,1-1.09-.27C380.25,180.56,380.63,180.81,380.86,180.48Z"/><path class="cls-1" d="M317.91,150.46s0,0,0,0l-.21-.08Z"/><path class="cls-1" d="M378.45,179.39a3.46,3.46,0,0,0,1.32.82A4.87,4.87,0,0,0,378.45,179.39Z"/><path class="cls-1" d="M483.74,213.09l.35,0a.12.12,0,0,1,0-.12Z"/><path class="cls-1" d="M484.11,212.94l.36-.16C484.3,212.82,484.15,212.85,484.11,212.94Z"/><path class="cls-1" d="M485.24,212.46l-.77.32C484.75,212.73,485.1,212.69,485.24,212.46Z"/><path class="cls-1" d="M474.22,213.8l-.1.26A.35.35,0,0,0,474.22,213.8Z"/><path class="cls-1" d="M471.33,214c.69,0,1.76.55,2.72.3l.07-.21C473.69,214.5,472,213.52,471.33,214Z"/><path class="cls-1" d="M459.62,210.34l2.32.4c-.39-.31-.89-.72.17-.69C459.25,209,462.67,210.7,459.62,210.34Z"/><path class="cls-1" d="M452.49,208.94c1.26.09.05-.39.14-.53C451.81,208.52,451.6,208.54,452.49,208.94Z"/><path class="cls-1" d="M403.43,190.57l.42-.5C403,189.69,403.72,190.28,403.43,190.57Z"/><polygon class="cls-1" points="392.96 188.46 393.59 189.29 394.28 189.01 392.96 188.46"/><polygon class="cls-1" points="390.1 181.5 390.52 181.64 389 181 390.1 181.5"/><path class="cls-1" d="M309.78,141.6l.1.85C310.56,142.48,310.93,141.67,309.78,141.6Z"/><path class="cls-1" d="M270.69,139.82a2.24,2.24,0,0,0-2.24,0A14.36,14.36,0,0,0,270.69,139.82Z"/><polygon class="cls-1" points="164.41 185.31 165 184.74 163.78 185.56 164.41 185.31"/></svg>