<svg id="Layer_1" data-name="Layer 1" xmlns="http://www.w3.org/2000/svg" viewBox="0 0 512 512"><defs><style>.cls-1{stroke:#000;stroke-miterlimit:10;}.cls-2{fill:#fff;}</style></defs><circle class="cls-1" cx="256" cy="256" r="242.5"/><path class="cls-2" d="M231.87,495.63c-.82.13-.42.68,1.78.74l1.63-.71Z"/><path class="cls-2" d="M246.54,498.14c2.62-.33,5.61-1,4-1.77-2.58.74-3.19.39-6,1.27-2.21,0-3.82-.55-3.43-.81-.8.15-3.4-.44-4.62,0a23.82,23.82,0,0,0,4.75.86c.87.08,1.77.12,2.69.13s1.87-.11,2.83-.21C247.53,497.8,246.74,498,246.54,498.14Z"/><path class="cls-2" d="M439.36,416.33l-1,1C438.65,417.07,439,416.72,439.36,416.33Z"/><path class="cls-2" d="M496.67,296.38a3.66,3.66,0,0,0-.09,1.51C496.69,296.94,496.78,296.16,496.67,296.38Z"/><path class="cls-2" d="M500.3,273.6c-.06.5-.1.91-.16,1.36A4.54,4.54,0,0,0,500.3,273.6Z"/><path class="cls-2" d="M439.36,416.33l2.56-2.54C441.88,413.43,440.56,415.05,439.36,416.33Z"/><path class="cls-2" d="M276.14,495.5a15.22,15.22,0,0,0-1.91.36l1.8-.22A.67.67,0,0,1,276.14,495.5Z"/><path class="cls-2" d="M395.68,456.35l-.9.64a6.71,6.71,0,0,0-.55.8Z"/><path class="cls-2" d="M356.1,479c.95-.4,1-1.18,1.22-1.62a5.79,5.79,0,0,1-1.85,1.35C355.51,478.83,355.7,478.92,356.1,479Z"/><path class="cls-2" d="M286.5,497.27l-1.26.26Z"/><path class="cls-2" d="M421.26,436.06a.77.77,0,0,0,.47-.1C421.67,435.9,421.5,436,421.26,436.06Z"/><path class="cls-2" d="M181.45,483.28s0,.08,0,.12C181.68,483.42,181.77,483.39,181.45,483.28Z"/><path class="cls-2" d="M231.68,497.46l-.72,0a.72.72,0,0,0-.2.37Z"/><path class="cls-2" d="M500.73,231.29v.19C500.89,232.59,500.83,232,500.73,231.29Z"/><path class="cls-2" d="M228.35,11.92c4.42.07-7,1.7-.37,1.56C227.34,13.29,233.83,11.64,228.35,11.92Z"/><path class="cls-2" d="M277.31,495.5l1.83-.15C278.3,495.39,277.74,495.44,277.31,495.5Z"/><path class="cls-2" d="M228,13.48h0l.68,0Z"/><path class="cls-2" d="M471.75,138.67a3.86,3.86,0,0,0,.22,1C472,139.62,472,139.38,471.75,138.67Z"/><path class="cls-2" d="M495.62,206.93l-.3-1.77C495.41,205.87,495.52,206.43,495.62,206.93Z"/><path class="cls-2" d="M450.44,107.63a14.51,14.51,0,0,0-1.58-2.11c.05.12.11.23.18.37A7.36,7.36,0,0,1,450.44,107.63Z"/><path class="cls-2" d="M424.34,78.53c.11.18.28.4.42.6l.92.83Z"/><path class="cls-2" d="M83.65,422.27a7.14,7.14,0,0,1,.76,1.73C84.37,423.22,88.36,427.19,83.65,422.27Z"/><path class="cls-2" d="M276.19,495.89a2,2,0,0,1,1.12-.39l-1.28.14C275.93,495.75,275.91,495.85,276.19,495.89Z"/><path class="cls-2" d="M445.07,109.76l-3.65-4.86C442.41,106.29,443.74,108.05,445.07,109.76Z"/><path class="cls-2" d="M33.49,166.9l-.43,1.33A6.49,6.49,0,0,0,33.49,166.9Z"/><path class="cls-2" d="M429.4,91.45a24,24,0,0,0-2-2.83,3.67,3.67,0,0,0-.61-.38Z"/><path class="cls-2" d="M84.42,424h0Z"/><path class="cls-2" d="M115.81,448.92c-4.68-3.38-2.75-.85-4.06-1.15-5.61-4.09-2.1-2.53-3.66-4.36-1.76-1.25-3.43-2.22-5-3.14a31.75,31.75,0,0,1-4.06-3c-.09-.28-.52-.73.16-.39a32.61,32.61,0,0,1-3.33-2.48L94,432.86l-1.88-1.78a76,76,0,0,0-7.39-6.4,2.21,2.21,0,0,1-.31-.67c.26.95,0,1.38-.34,1.49-1.81-1.9-3.77-3.14-4-4.27a5.7,5.7,0,0,0,2,1.52L80,420.94c-1.06-2.39,2.79,2.52,3.25,2.07-1.93-1.84-4.1-3.77-6.11-5.64a59.51,59.51,0,0,1-5-5.47c.1-1.2,6.45,7.08,3.47,2.44l1.94,2.5,2,2.41c-2.33-4.42,2.56,2.85.57-1.35l-1.87-2.06-1.49-1.72c-.92-1-1.72-1.88-2.51-2.72a56.34,56.34,0,0,1-5.65-6.69c-1.51-1.18-.17.92-1.68-.27A40.2,40.2,0,0,1,63,399.29,18.85,18.85,0,0,1,61.41,396a16.44,16.44,0,0,0-4.16-6.59c-1.71-1.55-3-1.72-5.89-7.24l1.94,1.26a26.78,26.78,0,0,0-3.84-5.11c-.83-.89-1.63-1.88-3.43-5.7,1.07,1.12,3.4,5.34,2.9,4.22-2-5.11-2.38-3.08-4.46-6.74.1-.38.21-.77.33-1.16-1-1.89-2-3.82-3.12-5.78s-2.25-3.92-3.23-6c-2-4.14-4.27-8.34-6-12.78.43.4,1.27,1.81.7-.35-.59-1.37-1.18-2.77-1.77-4.19l-.86-2.15c-.26-.74-.51-1.48-.76-2.22-1-3-2-6-2.9-9s-1.55-6.13-2.28-9.11c-.17-.75-.37-1.49-.52-2.23l-.42-2.23-.8-4.33-1.71-4.13c-.22-1,0-1.93.31-.87-.52-4.47-.5-.14-1.16-2.21-.5-2.51-.18-3.4.32-1.85-2.33-7.61-4.5-22.22-4.23-30.62l.34,1.61c0-.81-.09-1.53-.13-2.19s-.1-1.24-.17-1.78c-.15-1.09-.34-2-.53-2.87a19.44,19.44,0,0,1-.44-6.52l.16,1.16c.17-7.08.24-14.53.9-21.54.14-1.75.25-3.48.43-5.16s.47-3.32.72-4.9.51-3.11.78-4.58a35.28,35.28,0,0,1,.95-4.16c-.34-1.09.39-4.52,1-7.81.32-1.65.64-3.26.88-4.51s.24-2.2-.07-2.5c1.27-3.86,1.83-5.2,2.46-7s1.51-3.85,3.28-9.23c.85-2.9.47-4.58,1.51-8.2l.76.16.88-5.09c.56-.76,1.19-1.49,1.81-2.22l1.11-3.33c-.56,1.28-1.42,2.64-1.55,2.36a64.46,64.46,0,0,1,3.4-8.09c1.26-2.38,2.43-4.06,2.62-4l2.39-6.05c.79-2,1.76-3.95,2.63-5.94.15.4-.75,2.38-1.36,4,2.47-6.51,1.3-.75,3.56-6.71-.55.67-.2-.63-.27-.83.48-.64,1-1.55,1.66-2.56s1.38-2.17,2.11-3.4,1.48-2.53,2.2-3.81,1.41-2.57,2.11-3.7l-.1,1.14q2-3,4-6.2c.68-1,1.34-2.14,2.05-3.21L60.75,118c1.49-2.13,3-4.33,4.54-6.48l5-6.35c-2.6,2.88-2.77,1.62-.86-.94l1.42-.48c.88-1.92-2.3,2.41-.16-1.28,2.7-3,2.48-1.47,1.16.45l3-3.89c.38-.06-.28.9-.25,1.32,1-1.83,6.1-5.87,7.55-8.48l.37,0,4.91-5.17c1.48-1.51,2.86-2.8,4.16-4.1l3.9-3.83c1.34-1.3,2.84-2.55,4.49-4-.32-.64,2.39-2.76,4-4.92,2.63-1.91,5.45-3.85,8.37-5.92l1.1-.79,1.15-.74,2.32-1.53c1.56-1,3.13-2.12,4.72-3.26,1.06-.87,1.67-1.36,2-1.66s.38-.42.35-.5-.46-.09.47-.92c.69.31,7.23-3.92,4.07-1.36,2-1.25,3.54-2.37,5.05-3.23l4.27-2.54,4.63-2.85,6.46-3.62c-1.26.35-2.61.9-2,.37,1.88-1.07,4.5-2,4.35-1.57l-.47.32a101.61,101.61,0,0,1,20-8.23c3.46-1.22,6.94-2.08,10.1-3.1,1.59-.5,3.1-1,4.51-1.54s2.78-.95,4-1.47l-.55.23,5.18-1.83,2.6-.91,2.64-.78c5-1-2.84,1.15.89.69,2.82-.92,5.38-1.63,7.77-2.23s4.65-.85,6.83-1.2l3.24-.51,1.61-.27,1.62-.2c2.18-.28,4.41-.62,6.81-1.1a23.66,23.66,0,0,0,3.37.11c1.27,0,2.68,0,4.19-.07s3.11-.17,4.78-.3,3.38-.31,5.13-.35c3.5-.14,7.09-.35,10.43-.38a82.37,82.37,0,0,1,9,.63l-.57-.46c2.64-.37,3.17.3,5.09.57-.26-.37-2.83-.61-1.18-.73q4.17.21,8.4.5c1.41.12,2.83.16,4.24.36l4.24.55,4.26.58c1.42.21,2.85.37,4.26.68l8.49,1.7,2.12.44,2.1.54,4.2,1.09c2.8.73,5.61,1.41,8.35,2.34l8.23,2.58,8.06,2.92A19.63,19.63,0,0,0,342,32.29c1.51.11,3.26.44,8,2.87l-3.1-.34c1,.34,2,.66,3,1l2.94,1.2q3,1.23,5.88,2.52c2,.81,3.86,1.86,5.78,2.82l5.71,3c3.73,2.11,7.4,4.29,11.07,6.4,1.79,1.13,3.58,2.25,5.36,3.34l2.69,1.61c.9.53,1.79,1.06,2.65,1.63a9.92,9.92,0,0,1-2.41-1.12c.66.58,1.62,1.36,2.72,2.19s2.33,1.67,3.51,2.43c2.34,1.52,4.42,2.68,4.59,2.51,2,1.65.2.73,1.28,1.91a35.77,35.77,0,0,0,4.75,3.54c1.66,1.1,3.15,2.11,3.64,3,.17.29-.86-.5-1.39-.87,1.92,1.26,7.93,7,6.76,5.07,2.26,2.12,4.41,4.16,6.48,6,1,1,2,1.88,3,2.8.47.46.94.91,1.38,1.38s.83,1,1.21,1.44c2.76,1.84,7.06,7.92,8.45,8-1.15.44,6.46,8.76,9.15,11.65-1.08-.83,1.81,2.9.49,2,2.82,3.46,5.24,6.75,5.29,5.76,1.81,3.77,4.48,6.94,6.57,10,1.09,1.5,2.1,2.91,2.91,4.25a18.54,18.54,0,0,1,1,2,8.36,8.36,0,0,1,.55,1.89q2.64,4.23,5.2,8.29l4.6,8.3c.38.68.77,1.36,1.12,2.05s.68,1.39,1,2.08l2,4.14q1,2.06,2,4.1l1.75,4.17c-.31,0-.76-.77-1.3-1.9-.26-.57-.55-1.23-.84-1.93s-.65-1.42-1-2.15c-1.34-2.89-2.63-5.68-3.07-5.19,1.27,2.53,2.44,4.78,3.55,6.89s2,4.18,2.92,6.21l1.39,3.07.69,1.57.62,1.65c.81,2.24,1.62,4.63,2.46,7.32s-1-1.42-1.49-2.29c.49,1.33,1,2.64,1.46,4s.82,2.65,1.22,4c.75,2.63,1.48,5.23,2.21,7.79s1.18,5.15,1.81,7.66c.32,1.26.64,2.5.95,3.74s.57,2.48.85,3.72a9,9,0,0,1-.67-2.06c.38,1.95.64,4.58,1.11,4.27l-.48-1.88c.17-3.29,2.94,7.52,3.36,7.83-1.88-3.14.9,10-1.62,4.9.26,1.29.71,2.89,1,2.55.15,1.94,0,2.57-.61.66.29,1.76.53,2.92.72,3.77s.29,1.4.42,1.92a29.47,29.47,0,0,1,.7,5.24c-.25,0-.45-1.3-.79-1.94a42,42,0,0,1,1.4,12c-.15-.32-.33.32-.37-1.31.08,2.34.23,4.51.4,6.61,0,.53.09,1,.13,1.56l.06,1.55.12,3.08c.08,2.07.14,4.16.13,6.39a33.79,33.79,0,0,1-.17,3.43c-.1,1.19-.23,2.42-.38,3.7-.85-3.11-.62,3.47-1.59,3.93,0,.92,0,1.85-.09,2.77l-.21,2.76.73-2.16c-.31,2.41-.43,4.7-.58,6.9a32.83,32.83,0,0,1-.82,6.36l.12-1.81,0-1.82c-.13,1.51-.38,3-.62,4.51l-.71,4.49,1.25-5c-.39,4.92,1.26-.33-.13,6,.12-1.32-.8,4.82-2,7.16v0a40.91,40.91,0,0,1-1.55,8.37c-.49.84-.83-1-1.16-.44.12,1.25-.65,4-1.38,6.82a57.16,57.16,0,0,0-1.6,7.3c.14-1-.31-1.21-.51-.93l0,2.08c-.92,2.08-1.12,2.36-1.37,1.88-2.28,6.38,1.81-1.65-1.25,5.81a12.36,12.36,0,0,1,.3-1.65c-3,7.51-5.23,14.74-8.68,21.35-1.75,1.59,2.48-6,.72-4.05-4.06,9.86-8.83,20.34-14.41,29.08L462,381.7c.18,1-1,2.5-2.53,4.38a42.7,42.7,0,0,0-4.57,6.47c.68-1.1.35-1.8.28-1.43-2.13,2.83-4.18,5.81-6.43,9.22-1.15,1.68-2.45,3.41-3.79,5.3l-2.11,2.92-1.12,1.55c-.4.51-.82,1-1.24,1.54l.62-1.22c-1.5,1.48-3.34,3.52-5.19,5.6-.94,1-1.84,2.12-2.78,3.08s-1.83,1.85-2.64,2.64c-.68,1.2-2.52,3-1.07,2.24-1.39,1.08-2.69,2.22-4,3.35s-2.57,2.21-3.79,3.34c-2.43,2.28-4.68,4.66-7.07,6.82l-3.51,3.29c-1.17,1.08-2.31,2.17-3.57,3.12a68,68,0,0,1-7.67,5.35c1.16-.92,2.59-2.4,1.67-1.68l-2,1.67c-.68.56-1.39,1.06-2.09,1.59L393.19,454c1,0,1.33-.51,3.4-1.42a34.93,34.93,0,0,1-5.32,4.5c1.84-1.53,1.69-1.71.87-1.41s-2.34,1.13-3.31,1.52c.39,0-.1.5.15.56-5.21,2.09-.15,1.47-6.89,4.93l.18-.47-1.68,1.24-1.7,1.17a37.84,37.84,0,0,1-3.68,2.26c-1.42.05,2.46-1.75,2.35-2.32-3.69,2.11-6.67,5.35-10.47,6.44,1.53-1,3.86-2.16,5.33-3.26-1,.35-1.78.65-2.43.89s-1.17.43-1.65.63c-.95.42-1.74.84-3.16,1.49l.28-.12c-2.2,1-4.37,2-6.58,2.91.59-.18,1.16-.4,1.74-.61-2,2-4.49,3.09-7.17,4.32-1.35.6-2.75,1.23-4.2,1.92a39.33,39.33,0,0,0-4.59,2.3c6.11-3.56.84-1,1.06-1.9-1.78.47-4.45,1.26-3.79.77a17.26,17.26,0,0,1-4.33,1.79,21.88,21.88,0,0,0-5.33,2.12c-.28-.16-3.44,1.13-2.9.3-4.1,1.59,1.11.08.86.49-3.06,1.56-7,2.29-11.26,3.3l-3.24.77c-1.11.22-2.24.45-3.38.71a62.84,62.84,0,0,0-6.91,2c-1,.31-1.93.54-2.76.75l-2.3.63c-1.41.4-2.59.77-3.76,1.14s-2.32.74-3.66,1.12-2.89.65-4.83,1c-2.68-.05,2-1.15,2-1.15-2.15.09-4,.25-5.83.49s-3.6.59-5.59.85c.79-.28-.07-.39-1.31-.57-3.2.31-2.08,1.05-6.35,1a16.4,16.4,0,0,1,3.14-1.22c-1.88.26-3.74.57-5.63.88s-3.8.44-5.77.6c-1.05-.4,2.35-.7,3.72-1-4.39.3-11.4.74-12.78,1.26l2.84.3c-1.61,0-.83-.57.36-.71,3.77-.63,5.46.09,5.68.33l-2.8.23c1.45.68,4.28.55,7.44.24,1.58-.12,3.23-.46,4.84-.69s3.19-.46,4.6-.54L274.46,498l5.71-1.3c.63.1,1.16.23,1.2.43s-.43.46-1.82.63a11,11,0,0,0,2.34-.07,13.48,13.48,0,0,0,1.41-.26,10.32,10.32,0,0,1,3.32-.3c.39,0,.23.11-.12.19l3.9-.8c-.74.31.76.64-1.69.8a36.29,36.29,0,0,0,4.84-.5c1.43-.29,2.7-.61,3.83-.9a16.79,16.79,0,0,1,5.37-.88l-.58.17c1.21-.27,2.14-.46,2.83-.66s1.16-.36,1.48-.49c.63-.25.65-.37.59-.49s-.56-.47,2.95-1.74l5.3.71.76-.95c1-.24,2.95-.74,2.67-.34,3.53-1.54-.7-.15,1.29-1.22a57.31,57.31,0,0,0,8.47-2.19c2.76-.94,5.08-1.67,5.8-1.27,1.49-1.11-4.6,1.07.25-1,.92.38,2.34-.16,4.08-.9a32.11,32.11,0,0,1,5.94-2.39c-1,1.13-5.14,2.35-.73,1.27,1.06-1,3.12-1.77,5.36-2.45a46,46,0,0,0,6.26-2.37c-.1-.45,1.74-1.38,4.32-2.56s5.78-2.86,8.55-4.41c-.17.55,10.8-5.22,16-8.15l-.07.22c.24-.7,1.68-1.83,3.51-3.1.91-.64,1.93-1.32,2.94-2s2-1.43,2.86-2.09c.16.54-.35,1.21-2.22,2.77,1.17-.77,2.29-1.61,3.44-2.4a20.68,20.68,0,0,1,3.78-3.35l-.46,1.17c1.14-.82,2.26-1.66,3.37-2.55l3.33-2.88c1.15-1,2.34-2,3.62-3,.64-.51,1.3-1,2-1.52s1.35-1.08,2.07-1.62c-.12-.74-5.44,2.33,0-2.91.43.09,1,.35-.38,1.75a19.8,19.8,0,0,1,2.65-2.46l-1.91,2.41c2.64-1.93,1-1.48,3-3.13.28.4,1.69-1,1.67-.46a24.27,24.27,0,0,0-2.5,2.13c1.15-.93,2.45-1.91,3.6-2.73a27.66,27.66,0,0,1,2.67-1.8c-.38,0-.45-.49,1.07-2,4-3.85,1.8-.87,4.35-2.93.78-1.14,3.49-3.47,3-4.05a5.35,5.35,0,0,1,2.17-1.47c.87-1.17,3.25-3.57,4.91-5.57s2.76-3.49,1.4-2.53l-.53.52.29-.37h0c1.42-1.9,2.95-3.75,4.54-5.58s3.13-3.74,4.69-5.62A110.24,110.24,0,0,0,456,395l.19.16c1.57-2.32,3.14-5,4.68-7.49a48.3,48.3,0,0,0,3.67-6.69c.83-1.43,2.35-3.15,2.25-2.39,1-1.9,1.48-3,2.16-4.24s1.49-2.71,3.08-5.36c-1.59,4,1-1.15-1.74,4.07,2.72-4.85,3.71-5.79,5.77-11.44-.28,2.14,2.46-3.48,3.38-6l-2,3.37c1.14-2.75,2.27-5.09,3.41-7.48l.18,1.63a32.68,32.68,0,0,0,1.81-3.79c.52-1.25,1-2.5,1.44-3.73.85-2.47,1.67-4.82,2.23-7.18s1.21-4.58,1.93-6.72c.36-1.08.78-2.11,1.18-3.14a30.33,30.33,0,0,1,1.32-3c.27-3.07-2.09,5.85-2,3.05,1.53-5,4.21-9.95,4.63-11.55a24.2,24.2,0,0,0,1.19-6.92c0-.88.07-1.76.22-2.88.08-.56.18-1.18.33-1.88s.27-1.52.48-2.43c-.46.89-1.4,1.62-.69-3.94,1-5.11,2.35-6.13,2-2.83-.2,1.25-.4,1.83-.49,1.76-.19,1.69-.46,3.91.23,1.91l-.18-.72c.38-1.26.88-3.67,1.31-5.55s.63-3.25.78-2.37c.22-4-.27-1.75-.79,1.14.63-3.31,1-5.93,1.29-8.57.14-1.33.35-2.65.46-4.08s.26-3,.46-4.69c-.24,1.09-.67,2.07-.58,1,.56-5.06.51-6.18.36-6.9a7.87,7.87,0,0,1-.23-1.22,24.37,24.37,0,0,1-.13-3.25c.55-3.89,1,1.44.83-5.51.41-4.24.81-.89,1,.8-.1-1.59-.11-3.12-.07-4.58s0-2.87.06-4.18c.11-2.63.31-4.93.32-6.74l.32,3.34c-.2-2-.2-3.64-.3-5.31-.13.64-.34,1.29-.51,1.94,0-1,0-1.9,0-2.55s0-1.07.15-1.06c-.54-2-.87,1.6-1.7-2.35a47.44,47.44,0,0,0-.34-5.05c-.08-.88-.13-1.71-.13-2.38a2.78,2.78,0,0,1,.19-1.43c.11,1,.17,1.78.2,2.33a8.81,8.81,0,0,0,.14,1.09c.1.4.19.24.3,0,.22-.4.47-1,.8,2.5a43.49,43.49,0,0,1-.37-4.95c.05-.3.2.26.28.79-.24-7.91-1.33-3.5-2.32-11.59.28.48.43,0,.47-.8a9.88,9.88,0,0,0-.25-2.49c.57,3.24-.46,1.66-1.32-1.25-.57-5.2-1.25-5.54-1.69-8.23L496,210a9.25,9.25,0,0,1-.84-2.57c-.29-1.2-.69-2.71-1.15-4.46.27-.38,1,3.16.83,1.87a24.19,24.19,0,0,1-1.47-6.61c-.18-1.23-.3-2.53-.61-3.83a28.88,28.88,0,0,0-1.18-3.94c-.42-2.59.73-.46.3-2.73a46.69,46.69,0,0,1-1.87-6.37,36.38,36.38,0,0,0-2.09-6.56c0,2,.29,2.28-1.75-2l3.87,10.21L487,176.72c.52,1.56,1.16,3.18,1.74,4.64A25.87,25.87,0,0,1,490,185.1a12.33,12.33,0,0,0-1.14-2.31c-.12-.1-.05.38,0,1.2a25,25,0,0,0-2-6.48,55.9,55.9,0,0,1-2.49-6.86l1.44-.37a55.31,55.31,0,0,0-1.9-5.32c-.35-.85-.71-1.68-1.09-2.52s-.77-1.68-1.22-2.51c-.87-1.68-1.79-3.42-2.72-5.33s-1.83-4-2.94-6.3c.4,1,.86,2,1.21,3-1.08-1-2.89-5.57-4.58-8.4.58.05-.19-1.87-.57-3.27-.23.32-3.66-6.5-5-6.8-.58-1.42-1.08-2.88-1.74-4.25-4.2-7.07-6.1-7.21-10.53-13.69,1.8,1.63,0-1.5,3.38,2.61-1.51-2.16-2.8-4.15-3.1-4a23.33,23.33,0,0,0-2.76-3.6,24.11,24.11,0,0,1-3.22-4.07,11.46,11.46,0,0,1-3.25-3.06c-.12-.32.19-.15.19-.15s-.86-.79-1.48-1.35-1.09-.84-.46.31c-4-7.2-14.92-16.91-19.28-22.51l-3.31-3c-1.14-1-2.37-2-3.55-3-2.39-2-4.65-4-6.68-5.61.35.09.17-.18.91.47-5.36-4.81-4.33-1.67-10.44-7.07-1.45-1.53-.51-1,.56-.28s2.19,1.68,1.27.74c.07-1-2-2.4-4.53-4.06a67.25,67.25,0,0,1-7.6-5.42l1.18.64c-3.26-2.72-8.9-5.19-14.85-8.62,0,0,.36.05.16-.19-1.12-.41-2.45-1-3.9-1.65s-3.1-1.33-4.75-2.1l-5-2.3c-.83-.38-1.64-.79-2.45-1.13l-2.38-1c2.14.27,2.88.94,2-.17-2.73-1.14.34,1.3-5.1-1-1.6-1.09-5.33-3.19-5.62-4,1.74.66,3.41,1.49,5.12,2.23a14.09,14.09,0,0,0-4.48-2.38c-1.73-.58-3.5-1.07-4.84-1.69l.49-.22c-8-3.1-8.51-2-17.16-5.08l.81.58a13.5,13.5,0,0,1-4.45-1.18,12.85,12.85,0,0,0-4.41-1.26l-1.2-1.36-3.24-.66-4.45-.69-4.91-.8c-1.64-.28-3.24-.58-4.71-.77a42.1,42.1,0,0,1,7,.62l7.63,1.11c-3.2-.8-10.92-2.47-12.69-2.38a24.84,24.84,0,0,1,4.23.78,128.14,128.14,0,0,1-15.77-1.87c.73-.91-3.49-1.58-8.45-2.26s-10.69-1.08-13-2c-1.46,0-2.91-.08-4.36-.13s-2.9,0-4.36,0c-2.92,0-5.85-.24-8.86-.3h-9.22c-.79,0-1.59,0-2.39,0l-2.43.16c-1.63.11-3.29.23-5,.37,4.9,1.12-3.94.35-3,1.81-1.56.14-2.63.33-3.36.41a5.76,5.76,0,0,1-1.23.07c-3.18.1-6.38.17-9.57.32-1.15,0-.43-.25.55-.48s2.2-.41,2-.56l-3.43.34a3.79,3.79,0,0,1-1.2,0c-.46-.12-.63-.33-2.93-.13,1,.38-2.23,1.2-6.16,1.69l5.6-.29a41.25,41.25,0,0,1-5.41,1.13c-1.38.19-2.42.3-3.48.37a32.46,32.46,0,0,0-8.91,1.8L198,16.47c-2.43.62-6.86,1.93-11.27,3.29l-3.25,1c-1.05.4-2.06.8-3,1.2a31,31,0,0,0-4.54,2.23c-.89.11-2.14.09-.09-.72-11.4,3.75-24.25,10.9-32.7,14.67l.64-.74c-1.93,1.13-3.17,2.31-5.74,3.4.05-.2.6-.77-.31-.28a59.56,59.56,0,0,1-7.49,4.77l2-1.61a55,55,0,0,0-6.74,4.06c-2,1.34-3.72,2.63-5.41,3.91s-3.21,2.7-4.86,4.06-3.39,2.73-5.29,4.25c-.32-.45-2.34.66-4.75,2.22a80.51,80.51,0,0,0-7,5l0-.22c-2.59,2.19-5,4.25-7.16,6.3S86.93,77.5,85,79.54s-3.73,4.19-5.62,6.35-3.86,4.34-5.79,6.82A68.31,68.31,0,0,0,68.12,98c-2.07,2.24-4.18,5-6.46,7.75L60,107.91c-.55.73-1.08,1.48-1.63,2.22l-3.24,4.45c-2.22,2.88-4.14,5.83-6,8.37,1.21-1.5.55.73-.56,2.65C46.66,127.91,45,133,44.36,132l.55-.9c-1.94,1.43-4.88,6.74-7,11l.82,1.3a50.46,50.46,0,0,0-5.22,9c-.79,1.68-1.57,3.41-2.32,5.15-.37.87-.77,1.73-1.1,2.6l-1,2.63c-1.27,3.46-2.49,6.76-3.53,9.58A33.11,33.11,0,0,1,22.73,179c-.3,1.47-.83,3.05-1.19,4.68s-.75,3.25-1,4.71l-.64-.35-1.64,5.34c-.51,1.63-.82,3.22-1.23,4.84s-.77,3.31-1.21,5.22c-.21,1-.43,2-.66,3s-.37,2.26-.58,3.52l-.13-2.15a19.78,19.78,0,0,0-.14,6.55c.1.91.21,1.8.24,2.79a26.83,26.83,0,0,1-.17,3.4L13.15,222c-.31,2.49-.68,5-1.07,7.47l-.29,1.86-.19,1.88L11.21,237c-.23,2.51-.48,5-.56,7.52s0,5,.22,7.49c-.15-.16-.45-.46-.45-2.09-.37,4.72-.54,18.33.84,16.55-1.08.16.53,10.35,1.46,15.67l-.8-.76a48.26,48.26,0,0,1,2.77,10.82c.11,1.5-.39,1.39-.47-.63a14.1,14.1,0,0,0,.37,2.81c.16.68.34,1.18.51,1.71a22.5,22.5,0,0,1,1.09,5.3l-.83-2.16c.88,5.1.94,4.67,2.11,7.33,1,3.1,2,9.58,1.6,10.48a16.89,16.89,0,0,1,2.47,6.13c-.11.46-.56-.56-.78-1.08.48,2.11,1,3.93,1.49,5.56s1.14,3,1.67,4.36a50.08,50.08,0,0,1,2.69,7.94c-.17.19-.14.59,0,1.08-.66-1.59-1.13-3.16-1.6-4.56s-.88-2.66-1.22-3.69c-.68-2.08-1.06-3.27-.95-3-.61.18,1.06,5.51-1.2,1.58.94,2,2.27,4.8,3.55,7.69a75.41,75.41,0,0,1,3.59,8.39,3.38,3.38,0,0,1,.06.75l-.28-.49a21.59,21.59,0,0,0,1.36,3.15c.61,1.62,1,2.65,1.66,4.18-.11.4.48,1.89,1.23,3.59L34,361.17c.39.85.83,1.62,1.13,2.24.53-.51,2.07,2.78,1-.51.16.41-.32-.42-1.15-2.06-.19-.38-.4-.82-.55-1l.13.15c-.75-1.66-1.74-3.82-2.85-6.27a24.53,24.53,0,0,1,3.32,6.77c1,1.1,2.15,2.26,2.73,2.95a69.47,69.47,0,0,0,2.14,6.86c.38,1.16.8,2.22,1.11,3.06a6.7,6.7,0,0,1,.5,1.77c1.13,1.8,2.33,3.77,3.55,5.78.59,1,1.25,2,1.92,3s1.33,1.94,2,2.89c1.31,1.89,2.58,3.69,3.79,5.23a34,34,0,0,0,3.49,3.65,6.94,6.94,0,0,1,1.62,3.33c-.9-1.05-1.83-2.42-2.42-2.92.76.93,1.66,2.12,2.6,3.39l1.44,1.93L61,403.18c2,2.38,3.75,4.36,4.46,4.52,1.69,2.51,1,2,.55,1.62-.23-.18-.4-.31-.19,0A26.59,26.59,0,0,0,68,412l-1-.67a87.39,87.39,0,0,0,7.19,8.79c2.53,2.5,5.06,4.77,7.61,7.08s5.33,4.45,8.06,7c1.35,1.3,2.83,2.57,4.31,4s3,2.92,4.55,4.59a7.18,7.18,0,0,1-1.4-1.65c.94.88,1.88,1.78,2.85,2.65l3,2.49c2,1.65,4.07,3.31,6.16,4.92l6.48,4.57c1.09.76,2.16,1.54,3.27,2.26l3.37,2.12c2.25,1.4,4.47,2.84,6.72,4.22s4.57,2.63,6.82,4c1.13.66,2.24,1.36,3.38,2l3.41,1.88c2.26,1.26,4.49,2.55,6.69,3.85,5.17,2.65,6,2.37,9.38,3.42l.85,1.22c2,.53,4,1,5.93,1.44a42.78,42.78,0,0,1,5.66,2.25c1.8.79,3.56,1.58,5.38,2.42s3.74,1.66,5.85,2.43a49.09,49.09,0,0,0,7.2,1.74l-1.21-.87c1.87.56,4.83,1.39,7.28,2s4.33,1,3.95,1.24a5.36,5.36,0,0,1,2.78.38l0,.41c1.58.24,3.15.52,4.74.72l4.76.51c3.62.78,3.27,1.12,3.34,1.51,0,.19.18.39,1,.67a23.8,23.8,0,0,0,5,1c4,.36,11.53.3,10-.16-1.61-.22-4.08-.76-4.15-1.17l3.66.26c.79-1.08,3.64-1.92-5.07-3.84l-6.24-.07-1.88-.9c1.7.32,3.43.51,5.15.71a16.66,16.66,0,0,0-3.72-.69c-1.09-.1-2.1-.08-3.16-.1a6.4,6.4,0,0,0-2.44-1.07l-6.19,0c-.32-.31.39-.37.69-.53s.18-.31-1.78-.91c-2.88-.13,2.46,1.62-2.22.89-2.78-1.19-1.83-1.41-5.32-1.75-.41-.4.36-.42,1.73-.24a52.57,52.57,0,0,1-5.37-1,17.32,17.32,0,0,0-4.3-.72,38.35,38.35,0,0,0-6-2c-2.08-.67-3.72-1.34-3.41-1.8a53.77,53.77,0,0,1-8.14-1.8c2.69.19.15-.6-2.73-1.83s-6.24-2.55-5.34-2.95a15,15,0,0,1-3.82-.93c-1.48-.55-3.16-1.26-4.92-2l-5.39-2.36c-1.76-.85-3.49-1.65-5.08-2.28a5.37,5.37,0,0,1,1.64.59,70.32,70.32,0,0,1-6.25-4c-.89.62-6.16-2.18-9.27-3.28-3.58-3.17,3.06.44,2.25-1.08-.1.4-2-.43-3.67-1.24s-3.17-1.65-2.68-.93c-2.7-2.45-2.45-1.92-3.55-3.61-1.2.67-3-1.58-5.77-2.74-3.87-3.53-.42-1.72-5.27-4.74C111.45,446.33,115.81,448.92,115.81,448.92ZM32.25,344.43h0c.44,1.09.82,2,1.06,2.6Zm-4-10.74c.42,1.33.94,3,1.57,4.71-.07.46-.51.15-.85-.95C29.35,338,28.63,335.38,28.28,333.69Zm4.54,24.51c-.85-1.65-1-2.27-.95-2.56.37.79.81,1.71,1.4,2.91l.17.17A2,2,0,0,1,32.82,358.2Z"/><path class="cls-2" d="M35,360.84l.37.66c-.11-.37-.21-.71-.32-1.06l-.47-.5C34.73,360.24,34.88,360.55,35,360.84Z"/><path class="cls-2" d="M438.19,417.49l.17-.17a3.94,3.94,0,0,1-.41.32A2.06,2.06,0,0,1,438.19,417.49Z"/><polygon class="cls-2" points="29.44 178.91 29.26 178.87 29.09 179.87 29.44 178.91"/><path class="cls-2" d="M388.83,457.19a2.78,2.78,0,0,0-.8.29A3.59,3.59,0,0,0,388.83,457.19Z"/><path class="cls-2" d="M365.18,470.75l-3.55,1.52C363.18,471.65,364.3,471.16,365.18,470.75Z"/><path class="cls-2" d="M346,479.14a1,1,0,0,0-.27.43h0Z"/><path class="cls-2" d="M491.27,209.28c0-.27-.11-.55-.17-.79C490.61,206.67,490.92,207.91,491.27,209.28Z"/><path class="cls-2" d="M491.79,307.65c.11-1,.22-2.09.39-3.18C491.73,306.18,491.41,307.52,491.79,307.65Z"/><path class="cls-2" d="M445.47,110.3h0l-.42-.54Z"/><path class="cls-2" d="M493,299.93a30.36,30.36,0,0,0-.82,4.54A45.36,45.36,0,0,0,493,299.93Z"/><path class="cls-2" d="M257.52,496.3h-1s0,.08-.12.11Z"/><path class="cls-2" d="M256.39,496.41l-1.12,0A3.78,3.78,0,0,0,256.39,496.41Z"/><path class="cls-2" d="M252.91,496.58l2.36-.12A8.29,8.29,0,0,0,252.91,496.58Z"/><path class="cls-2" d="M285.16,494.84l.28-.3C285.28,494.62,285.17,494.71,285.16,494.84Z"/><path class="cls-2" d="M293.49,493.65c-2,.3-5.07.12-7.82.66l-.23.23C286.69,494,291.67,494.42,293.49,493.65Z"/><path class="cls-2" d="M328.62,488.67c-2.29.66-4.62,1.19-6.92,1.79,1.27-.08,3-.18-.16.77C330.45,489.53,319.6,491.19,328.62,488.67Z"/><path class="cls-2" d="M349.6,481.46c-3.54,1.52.19.35.06.56a8.73,8.73,0,0,0,1.8-1.06C351.51,480.83,351,481.05,349.6,481.46Z"/><path class="cls-2" d="M467.79,377.27l.36.66C469.56,375.31,468,377.78,467.79,377.27Z"/><path class="cls-2" d="M478.3,348.52c-.47.83-.93,1.67-1.46,2.47l0,1.47C477.35,351.16,477.87,349.86,478.3,348.52Z"/><polygon class="cls-2" points="488.84 333.2 488.5 334.47 489.88 329.69 488.84 333.2"/><path class="cls-2" d="M429.8,82.92c0,.39.05.79.07,1.19C431.34,85.48,432.28,85.15,429.8,82.92Z"/><path class="cls-2" d="M330.92,23.2a15.08,15.08,0,0,0-6.2-2.14c1.25.38,2.48.82,3.56,1.21S330.27,23.05,330.92,23.2Z"/><path class="cls-2" d="M35.19,148.18,36,146c-.6,1.35-1.25,2.68-1.77,4.07C34.57,149.42,34.84,148.78,35.19,148.18Z"/><path class="cls-2" d="M253.4,80.1c-.14-.41-.67-.29-.72.73l.71.84Z"/><path class="cls-2" d="M251,86.66c.3,1.24.89,2.65,1.71,1.93-.7-1.22-.34-1.48-1.18-2.84,0-1,.46-1.73.74-1.52-.16-.39.41-1.53,0-2.15a5.5,5.5,0,0,0-.84,2.13,6.85,6.85,0,0,0,.13,2.57C251.33,87.14,251.14,86.76,251,86.66Z"/><path class="cls-2" d="M287.76,177.73l-.34-.56A2.7,2.7,0,0,0,287.76,177.73Z"/><path class="cls-2" d="M326.57,226.22c-.28-.38-.45-.5-.53-.47C326.33,226.08,326.57,226.35,326.57,226.22Z"/><path class="cls-2" d="M331.48,235.56l-.27-.56A1.05,1.05,0,0,0,331.48,235.56Z"/><path class="cls-2" d="M287.76,177.73l.86,1.46C288.9,179.1,288.23,178.4,287.76,177.73Z"/><path class="cls-2" d="M253,100.3a3.21,3.21,0,0,0-.31-.86q.11.41.18.81A.43.43,0,0,1,253,100.3Z"/><path class="cls-2" d="M270.58,156.13l-.29-.42a2.18,2.18,0,0,0-.51-.17Z"/><path class="cls-2" d="M259.81,137.73c.17.45.89.29,1.25.32a1.52,1.52,0,0,1-.89-.73A.75.75,0,0,0,259.81,137.73Z"/><path class="cls-2" d="M250.73,105.28l-.19-.58C250.59,104.85,250.68,105.1,250.73,105.28Z"/><path class="cls-2" d="M279.35,168.54a.58.58,0,0,0-.08.31A.36.36,0,0,0,279.35,168.54Z"/><path class="cls-2" d="M242.77,119a.3.3,0,0,0,.12,0C242.86,118.94,242.82,118.89,242.77,119Z"/><path class="cls-2" d="M250.06,95.87v.34a1.38,1.38,0,0,0,.39.09Z"/><path class="cls-2" d="M339.42,252.88l0-.08C339.14,252.37,339.26,252.63,339.42,252.88Z"/><path class="cls-2" d="M257.09,366.73c1.89.86-3.29.41-.42,1.46C256.44,367.89,259.48,367.43,257.09,366.73Z"/><path class="cls-2" d="M253,100.83q.06.42.09.84A4,4,0,0,0,253,100.83Z"/><path class="cls-2" d="M256.67,368.19h0l.3.1Z"/><path class="cls-2" d="M347.56,294.94a1.17,1.17,0,0,0,.36-.42C347.85,294.53,347.75,294.62,347.56,294.94Z"/><path class="cls-2" d="M344.63,262.85l.16.8A5.35,5.35,0,0,0,344.63,262.85Z"/><path class="cls-2" d="M345.24,311.55a3.21,3.21,0,0,0-.44,1.11.66.66,0,0,0,.14-.15A1.55,1.55,0,0,1,345.24,311.55Z"/><path class="cls-2" d="M338.13,327.63a2.64,2.64,0,0,0,.29-.21l.25-.5Z"/><path class="cls-2" d="M220.72,168.21a2.73,2.73,0,0,1,1-.4C221.11,167.8,222.27,165.43,220.72,168.21Z"/><path class="cls-2" d="M252.62,100.34a.66.66,0,0,1,.36.49c0-.2-.07-.39-.1-.58S252.67,100.21,252.62,100.34Z"/><path class="cls-2" d="M350.28,314l-1.07,2.8C349.55,316,349.93,315,350.28,314Z"/><path class="cls-2" d="M175.78,288.93l-.17-.66A1.52,1.52,0,0,0,175.78,288.93Z"/><path class="cls-2" d="M345.83,324.94a6.3,6.3,0,0,0-1.19,1.28,1.26,1.26,0,0,0,0,.39Z"/><path class="cls-2" d="M221.69,167.81h0Z"/><path class="cls-2" d="M229.26,150.61c-1.25,2.38.22,1.54.43,2.29-1.29,3-1.31,1-2.24,1.75-.72,1.9-.72,3.66-1.49,5-.19,0-.38.26-.38-.14-.38,2.24-3.07,5.55-3.53,8.17a.78.78,0,0,1-.36.17,1.41,1.41,0,0,1,1.29.3c-.59,1.07-.64,2.26-1.4,2.35.4-.64.22-.81.24-1.21l-.43,1.24c-1.33.55.63-1.66.08-2-1,2.29-1.88,5.17-3.08,6.69-.92-.09,2-4,.09-2.18l1.78-2.39c-2.3,1.27,1-1.5-1.29-.43-2.18,3.22-1.85,4-4.06,7.17,0,1,.75.11.71,1.1-2.13,5.18-4.08,2.63-5.22,6.7-.06,1.19.65,2.1-1.33,4.29l-.31-1.34c-2,3.19.07,2.56-2.53,5.63,0-.8,1.26-2.72.87-2.28-2,1.82-.47,1.84-1.48,3.53l-.94-.08c-1,1.78-1.89,3.7-2.82,5.68s-1.87,4-2.91,6c-.1-.34,0-1.15-.69-.36a169.71,169.71,0,0,1-8.74,15.32c-.1.73-.16,1.48-.24,2.21-.21.44-.68.68-.58.14-1.16,1.83.37.3.2,1.36-.47,1.12-1.06,1.28-.94.49-.54,1.83-1.28,4.46-2.19,7a37.41,37.41,0,0,1-3,6.87c0-.28.05-.54.07-.81-1.33,2.85.28,3.82-1.3,6.32l0-.57a83.68,83.68,0,0,0-2.82,9.89l-.61,2.41q-.27,1.19-.54,2.31a33.36,33.36,0,0,1-1.29,4.12c.46.57.14,2.21-.13,3.81a13.61,13.61,0,0,0-.24,2.2c0,.62.19,1.08.55,1.22-.49,1.89-.78,2.57-1.06,3.45a14.87,14.87,0,0,0-.41,1.66c-.11.73-.22,1.7-.35,3.08s.86,2.19,1.16,4l-.77.07,1,2.42-.84,1.38c.09.56.22,1.12.36,1.68-.05-.68.19-1.47.42-1.38.64,2.58.24,6.48-.11,6.62.62,2,1.16,4.07,1.84,6.06-.17,0-.35-.29-.52-.65s-.33-.81-.5-1.2c.69,1.58.57,1.76.38,1.92s-.37.29.36,1.71c.07-.44.5.11.67.14a13.76,13.76,0,0,0,.46,3.41c.39,1.34.89,2.78,1.38,4l-.66-.31a56.43,56.43,0,0,0,2.59,6.91c.5,1.17,1.12,2.31,1.67,3.49s1.09,2.37,1.73,3.53c-.66-1.79.38-1.8,1.16-.49l-.44.91c.91.64-.47-1.55,1,0,.82,1.76-.2,1.59-1,.72l1.36,2c-.15.24-.53-.19-.87-.17.84.64,1.37,4,2.85,4.77l-.13.24A80.1,80.1,0,0,0,196.5,340c.6-.38,1.48,1.06,2.79,1.61,1,1.23,1.89,2.62,3,4a48.72,48.72,0,0,0,3.71,4c2.25,1.49,1,.07,2.17.54-.28.61,2.62,3,.84,2.1a42.51,42.51,0,0,0,4.29,3.18c.66.45,1.36.92,2.21,1.44l3.18,1.71c-.39-.56-.9-1-.48-1,.92.47,1.82,1.5,1.54,1.69l-.27-.1c.37.17.74.35,1.11.55l1.13.57c.75.4,1.5.85,2.25,1.33,1.47,1,3,1.94,4.55,2.89.76.48,1.52,1,2.26,1.39s1.53.76,2.27,1.09a12.51,12.51,0,0,0,4.24,1.23l-.29,0,5.27,1c2.34.7-1.55.1.1.93a27.43,27.43,0,0,1,3.91.53l1.68.39,1.6.35a22.65,22.65,0,0,0,6.45.89,9.22,9.22,0,0,0,3.55,1.22c1.47.18,3.15.24,4.86.28s3.47-.13,5.11-.11a32.86,32.86,0,0,1,4.42.22l-.32-.43c1.25-.52,1.57.15,2.53.18-.17-.33-1.43-.3-.65-.6,1.35-.13,2.69-.36,4-.57s2.74-.34,4.11-.6l4.12-.74,1-.17,1-.24,2.07-.47c2.79-.54,5.49-1.44,8.24-2.22,1.34-.47,2.67-1,4-1.49.66-.26,1.34-.49,2-.78l1.92-.91c3.72-1.86,1-3,5.87-4.83l-.8,1.48c.82-.65,1.65-1.28,2.5-1.9s1.63-1.3,2.47-1.93l2.51-1.89,2.42-2c.81-.68,1.62-1.33,2.41-2l2.22-2.19c.72-.74,1.47-1.45,2.12-2.24s1.27-1.6,1.87-2.41c-.18.48,0,.66-.54,1.24a10.69,10.69,0,0,0,2.68-2.7c.75-1.16,1.26-2.23,1.07-2.4.82-.94.53.05,1.2-.4a7.37,7.37,0,0,0,1.63-2.41c.42-.9.8-1.69,1.31-1.9.16-.07-.12.51-.26.8.41-1.08,3-4.27,1.81-3.76,1.8-2.44,2.73-5.08,4.1-7.07a7.55,7.55,0,0,1,1.24-3c.52-1,.91-2,.51-2.42.48.33,1.2-.81,1.84-2.27a14.9,14.9,0,0,0,1.08-4.29c.11.72.87-1.46,1.08-.61.17-.52.33-1,.45-1.51a10.82,10.82,0,0,0,.2-1.29c.07-.74,0-1.18-.35-1.08a9,9,0,0,0,1.18-2.79,15.67,15.67,0,0,0,.33-2.83c.09-1.82.28-3.37,1.23-4.38.05-1.64.08-3.24.12-4.82s-.11-3.12-.16-4.64-.19-3-.32-4.47c-.07-.74-.13-1.46-.2-2.19l-.3-2.15c.28,0,.47.43.61,1,.07.3.13.65.18,1s.05.76.07,1.15c.09,1.54.18,3,.77,2.9-.16-1.39-.35-2.62-.55-3.77s-.5-2.22-.73-3.28a65.83,65.83,0,0,1-1.25-6.91c-.06-.71.1-.53.31-.13s.43,1,.56,1.27c-1.39-5.32-2.09-10.44-4.23-14.86.1,0,.37.44.6.89-.33-.9-.51-2.18-1-1.91l.41.84c-.13.85-.75.05-1.47-.91a11.8,11.8,0,0,0-1.68-2.14c1,.49.64-.65.41-1.71s-.46-2,.9-1.15c-.33-.55-.86-1.18-1.12-.92-.27-.89-.19-1.25.53-.52-1.59-3.05-1.57-1.73-2.85-4.53.23-.09.58.43,1,.6a18.46,18.46,0,0,1-1.62-2,16.59,16.59,0,0,1-1.54-2.87c.21.07.24-.28.59.41a36.33,36.33,0,0,0-3.36-5.1c-.59-.8-1.16-1.61-1.71-2.5a23.51,23.51,0,0,1-1.66-2.94c1.66.69-.53-1.61.11-2.31l-1.64-2.08.18,1.13a23.74,23.74,0,0,0-2-2.6,11.13,11.13,0,0,1-1.75-2.47l1.28,1.2c-.86-1.16-1.69-2.33-2.57-3.46.38.72.73,1.47,1.08,2.2-1.7-1.64-.81.86-2.34-1.78.44.45-1.3-1.86-1.55-3.16h0a9.43,9.43,0,0,1-2.67-3c0-.53,1-.34,1-.68-1.27-.45-3.43-4.13-5-4.73.45.24.84,0,.83-.22l-1.08-.34c-.5-1-.52-1.14-.11-1.24-1.9-2.57-.29,1.52-2.25-1.74.22.19.21,0,.67.45-2.17-3.13-4.95-5.42-6.94-8.28.06-1.39,2.12,2.19,2,.78-3.36-3.75-7.58-7.2-10.57-11l.51.76c-1.44.35-1.85-3.17-3.92-4.62.46.39,1.07.12.85.09-2-2.66-4.65-4.93-8.19-8.52l.67.26c-1-1.69-3.15-4.06-4.34-5.8-.66-.27-1.37-1.25-1.3-.37-2.52-6.24-8.44-9.14-10.43-14.81.38.57,1.18,1.17.87.72l-3-3.84c-.27.64.07.72.28,1.82a7.31,7.31,0,0,1-2.3-2.34c1.51,1.64.76-.53.52-1.5-.06.23-.4.06-.51.23-.5-2.71-1.25.28-2.49-3.08H269a20.65,20.65,0,0,1-2.42-3.13c.28-.83,1,1,1.51.84-1.08-1.65-3-2.78-3.34-4.66.57.65,1.17,1.7,1.74,2.35a8.39,8.39,0,0,0-1.14-3.51l.05.14-1.2-3.13.19.85c-2.7-1.4-2.51-4.35-4.91-6.93,2.31,2.53.78.24,1.57.17-.14-.87-.42-2.14-.08-1.89-1.15-1.21-.61-2.55-2.18-4.3.2-.18-.56-1.57.14-1.45-.88-1.83-.23.59-.58.54a8.11,8.11,0,0,1-1.07-2.32c-.24-.87-.43-1.83-.63-2.81a21.29,21.29,0,0,0-1.94-6.14c-1.3-3.68-2.32-4.21-3.28-7.77.18-1.27,1,.86,1,.86a14.14,14.14,0,0,0-.2-2.7,19.68,19.68,0,0,0-.5-2.57c.25.35.39-.06.6-.64-.2-1.47-1-.91-.77-2.9a5.17,5.17,0,0,1,1.06,1.41c-.32-1.71-.86-3.41-1.14-5.22.41-.49.67,1.08,1,1.7-.07-.5-.16-1.08-.22-1.67s-.1-1.21-.17-1.78a5.07,5.07,0,0,0-.67-2.43l-.26,1.3c0-.75.59-.36.7.18.5,1.74-.27,2.51-.52,2.61l-.13-1.29a2.11,2.11,0,0,0-.6,1.42,8.35,8.35,0,0,0,.22,2c.31,1.47.73,3.06.86,4.35l-1.15-1,1.14,2.6c-.21.6-.74,1.06-1-.22-.29,1.95.5,1.63.2,3.31-.06.19-.12.12-.19,0l.61,1.78c-.28-.32-.68.43-.71-.72-.1,3.43,1.78,5.13,1.26,6.53l-.13-.26c.65,2.23.94,2.27,1.16,2.18s.52-.34,1.4,1.2l-1.21,2.76.86.22c.12.46.36,1.38,0,1.3,1,1.53.23-.39,1,.44,0,2.43,2.38,5.83,1.42,6.75.83.56-.34-2.21.88-.07-1,1.15,1.28,2.53,1.52,4.69-.86-.33-1.31-2.31-1.05-.13,1.5.73,1.46,3.83,2.41,5.37.42-.16.92.67,1.55,1.83a34.55,34.55,0,0,0,2.18,3.92c-.18,0,.38,1.27,1.13,2.88s1.78,3.49,2.34,4.77h-.17c1,0,2.45,2.46,3.72,4.11-.5.23-.88,0-1.7-.78l1.07,1.65a4.91,4.91,0,0,1,1.78,1.61l-.85,0c1.49,2.15,3.65,3.84,5.25,6.8.62-.23-.14-3.17,2.3-.61-.2.31-.6.76-1.27.11a4.49,4.49,0,0,1,1.13,1.26l-1.31-.77c.7,1.36.86.34,1.54,1.34-.4.28.26.93-.16,1-.22-.22-.47-1-.9-1.23a10.17,10.17,0,0,1,1.55,3.31c.15-.26.53-.4,1.2.35,1.62,2,.07,1.06.8,2.41.65.29,1.42,1.8,2,1.37a1.57,1.57,0,0,1,.32,1.27c1.08.86,4,4.79,3.67,3.13l-.17-.3a1.17,1.17,0,0,0,.16.15h0c3.34,2.92,5.52,7.26,8.58,10.36l-.19.15c1.9,1.79,3.88,4.27,5.49,5.33.5.58.83,1.67.4,1.61a14.1,14.1,0,0,1,3.33,3.81c-1.62-1.24.15.77-1.57-1.35,1.52,2.09,1.58,2.8,3.88,4.46-1.08-.31.64,2,1.57,2.8l-.81-1.66a32.12,32.12,0,0,1,2.42,2.91l-1.07,0c2.56,4.66,7.34,6.23,8.44,10.43,1.31.74-1.41-2.5-.12-1.94,1.39,2,2,4.68,2.41,5.29,1.58,2.9,2.82,1.73,4.55,4.73,0-.53.39-1.33,2.12.62,1.27,2.06.62,3.16-.42,2-.34-.46-.41-.75-.32-.78-.52-.58-1.23-1.34-.94-.38l.43.09c.42,1.15,2.28,3.87,1.44,3.5,1.25,1.34.84.37.22-.83a34.33,34.33,0,0,0,2,3.42,27.19,27.19,0,0,1,2,3.45c-.11-.52,0-1.1.2-.67,2,4.18,1.55,1.46,3.23,4.13.47,1.79-1.25,0,.61,2.55.66,1.84-.5.73-1.08.19a9.12,9.12,0,0,1,1.16,1.72,13,13,0,0,1,.7,1.75c.38,1.14.61,2.17.93,2.92l-.89-1.23a10.66,10.66,0,0,1,1.16,2.07l.18-1c.28.85.59,1.53.36,1.62.73.66.6-1.06,1.84.36a10.8,10.8,0,0,0,.91,2.12c.33.73.56,1.4.28,1.74-1.19-3.52-.54.68-1.92-2.13a6.75,6.75,0,0,1,.87,2c0,.15-.2,0-.33-.26.35,1.76.71,2.05,1.16,2.32s1,.52,1.61,2.25c-.57-.27-.49,1.09-.2,1.62-.5-1.38.45-.92,1.24.24.49,2.33,1,2.35,1.4,3.54l-.27-1.4c.57.32.87,1.47,1.5,3-.29.23-.68-1.37-.65-.76a4.62,4.62,0,0,1,.8,3,9.6,9.6,0,0,0,.66,3.55c-.05,1.21-.79.3-.78,1.34a6.3,6.3,0,0,1,.58,2.89,7.34,7.34,0,0,0,.35,3c.47-.92.3-1.06,1.19.93-.4-1.59-.73-3.19-1.19-4.76.52,1,.9,2,1.37,3a18.9,18.9,0,0,0-.51-2.19,10,10,0,0,1-.46-1.73c.79,1.38.61,1.26.95.47a6.06,6.06,0,0,0,.37,3.07,7.16,7.16,0,0,1,.54,3.29l-1.47.1a17,17,0,0,0,.51,5c.14.83.29,1.7.39,2.65.05.47.1,1,.11,1.48s-.05,1.06-.12,1.63l.31-1.46c.56.61,0,2.82.16,4.3-.5-.16-.67.75-1.05,1.34.37,0-.4,3.28.53,3.82-.31.65-.55,1.3-.91,1.92-1,3.54.7,4.42-.43,7.85-.25-1.17-1,.3-.76-2.08-.31,1.14-.67,2.13-.34,2.24a5.15,5.15,0,0,0-.37,2,4.39,4.39,0,0,1-.7,2.23,2.79,2.79,0,0,1,0,2.12c-.14.1-.23-.09-.23-.09.23.09-.36,2.11.53,1.18a13.39,13.39,0,0,0-1.82,2.75c-.55,1.06-1,2.26-1.51,3.39-1.1,2.25-2.05,4.55-3.5,5.56-.59,1.16-1.24,2.43-1.91,3.67s-1.47,2.35-2.13,3.34c0-.21-.19-.15.1-.49-2.2,2.42,0,2.48-2.71,5.13-1.8,1,.88-1.82-.09-1.08-.79-.3-1.43.6-2.16,1.76a9.6,9.6,0,0,1-2.9,3l.33-.51c-1.6,1.07-2.78,3.72-5.09,5.81,0,0,0-.2-.15-.19a18.8,18.8,0,0,1-2.67,3.41l-.88.92-1,.84-1.84,1.58c.39-1.07.91-1.08.07-1.27-1,.87.93.6-1.15,2.35-.91.25-2.75,1-3.32.54l2.11-1.36c-1.58-.07-2.74,1.74-3.95,2.32l-.05-.43c-.79.56-1.38,1-1.87,1.34s-.86.73-1.25,1.08a13.71,13.71,0,0,1-1.33,1.07c-.27.19-.57.39-.93.6s-.77.38-1.25.58l.52.09c-1.71,1.81-2,.27-3.79,1.85l-1-.65-3.12,1.73c-.66.35-1.34.74-2,1.05s-1.4.57-2,.8a21.09,21.09,0,0,1,2.78-1.74c1.08-.63,2.21-1.25,3-1.77a28.46,28.46,0,0,0-5.32,2.35,5.93,5.93,0,0,1,1.81-.71,12,12,0,0,1-2.8,1.7,16.74,16.74,0,0,1-3.87,1.26c.05-1-1.87-.71-4.09-.32s-4.82.59-5.95,0a27.78,27.78,0,0,1-3.86.53c-.65,0-1.3.1-2,.09l-2-.08c-1.34-.09-2.71-.1-4.11-.26s-2.84-.27-4.35-.33c1,.8.57.79-.1.77s-1.55-.14-1.44.65a5.64,5.64,0,0,1-2.08-.28l-2.08-.71c-.7-.24-1.37-.55-2-.82-.92-.63,1.38-.09,1.3-.45-3-.68-1.15-.88-3.06-1.64.15.3-.14.45-.69.45a5.74,5.74,0,0,1-2.16-.48l1.12.65,1.14.57a6.17,6.17,0,0,1-2.45-.38,6.41,6.41,0,0,1-1.41-.76,6.76,6.76,0,0,0-1.4-.75,11.61,11.61,0,0,0-2.42-.53c.48,0,1,0,1.44-.06-1.1-.18-3-.82-5-1.33s-3.9-1.14-5.16-1c-.3-.31-.62-.88.33-.63l-.92-.38-.94-.42c-.63-.28-1.29-.54-2-.8l-2-.75c-.66-.26-1.3-.57-1.95-.85a39,39,0,0,1-3.66-1.76,17.33,17.33,0,0,1-2.82-2.08l.55-.09c-.87-.46-1.88-.31-2.64-1.39.15-.09.54-.07.19-.36a11.88,11.88,0,0,1-3.41-2l1.15.34c-.47-.43-.95-.82-1.4-1.17a16.25,16.25,0,0,0-1.28-1,26,26,0,0,0-2.51-1.63,33.59,33.59,0,0,1-4.86-3.42c.74-.72-1.67-4-2.89-5.63l.17-.05c-1.79-2.41-3.61-4.21-5.22-6.14-.82-1-1.72-1.84-2.51-2.86s-1.6-2.07-2.43-3.22a21.06,21.06,0,0,0-1.11-3.27c-.51-1.26-1.25-2.61-1.84-4.1s-1.35-3-1.88-4.5-1-3-1.36-4.37c.13.86-.88.17-1.26-.76-.18-1.32-1.83-3.25-.8-3.34l.12.45c.6-1.22-.29-3.73-.77-5.77l-1.37,0a10.11,10.11,0,0,0,0-1.11c0-.38,0-.77,0-1.16a20.48,20.48,0,0,0-.25-2.42c-.29-1.63-.59-3.33-.88-4.95L181,287c-.1-.76-.15-1.49-.18-2.16a7,7,0,0,1,.41-3.24c-.37-1.31-.33-2.95-.67-4.28l.71.09c.05-1.83.28-3.2.38-4.68.06-.74.11-1.5.16-2.37s.17-1.82.25-2.95l.39,1a4.68,4.68,0,0,0-.64-3,4.38,4.38,0,0,1-.65-2.89l1.17-.53c.2-1.1.46-2.2.73-3.3s.66-2.16,1-3.25.57-2.17.83-3.27a19.44,19.44,0,0,0,.54-3.33c.13.11.39.32.22,1,.54-2.06,3.2-7.57,1.57-7.33.86.25,1.7-4.34,2.21-6.8l.51.62a10.4,10.4,0,0,1,.69-5.18c.35-.6.74-.33.22.44,1.23-2,.1-1.92,1.61-4.3l0,1.13a5.43,5.43,0,0,0,.83-3.45c.37-1.48,2.15-4,2.86-4a3.87,3.87,0,0,1,.72-3c.3-.06.2.46.14.72,2.27-3.28,2-5.6,4-7.66a.6.6,0,0,0,.59-.21c-1.56,2.75-2.76,5-2.69,4.74.57.3,1.85-1.88,1.69.32.5-2,1.3-5.58,2.76-7.61a1.14,1.14,0,0,1,.35-.17l-.06.25a4.72,4.72,0,0,0,.69-1.41,15.69,15.69,0,0,0,1.19-1.69c.6,0,1.69-2.38,2.37-3.46-.66-.27.28-1.65-1-.59.14-.15-.05.25-.46,1a3.64,3.64,0,0,0-.21.5v-.1l-1.53,2.76a5.2,5.2,0,0,1,1.49-3.13c-.06-.79-.09-1.65-.08-2.11,1.73-1,3.89-3.63,4.66-3.72,1.65-3.54,4.5-8,4.63-10.77.43-1,1-.89,1.38-1.14a9.82,9.82,0,0,0-.65,1.65c.86-2.07,3.28-5.69,2.76-6.62,1.8-2.19-.08,1.78,1.77-1.59l0,.59c5.15-5.77,4.27-11.75,10-18.17-.38.45-.57.68-.76.71a65,65,0,0,0,3.67-6.29c1.11-2.18,2.14-4.43,3.18-6.67,2-4.52,4-9,6.29-13.19,1.23-2.43.82-2.9.93-4.62l.9-.29.1-3a13.23,13.23,0,0,1,.87-2.71c.38-.83.85-1.63,1.3-2.47a12.19,12.19,0,0,0,1.73-6.18l-.65.52c.6-1.73.89-5.69,1.42-5.28a1.34,1.34,0,0,1,0-1.33h.4c.1-1.5,0-3,0-4.52.37-1.69.75-1.51,1.12-1.53.18,0,.37-.07.56-.45a6.55,6.55,0,0,0,.48-2.34c0-1.93-.74-5.47-1.06-4.76-.07.75-.39,1.91-.79,1.94l-.08-1.71c-1.14-.38-2.23-1.67-3.35,2.32l.5,2.89c-.21.29-.45.57-.67.85.12-.78.12-1.58.18-2.37a3,3,0,0,0-.32,1.7,10.66,10.66,0,0,0,.26,1.48,2,2,0,0,0-.78,1.1l.73,2.92c-.5.26-.72-1.38-1.23.42.26,1.37,1.24-1.06,1.16,1.13-.77,1.25-1.12.77-1,2.43-.34.16-.46-.21-.47-.86a17.75,17.75,0,0,1-.19,2.52,4.37,4.37,0,0,0,0,2c-1,1.23-1,4.73-2,4.29a12.09,12.09,0,0,1-.21,3.92c-.29-1.34-.66-.18-1.1,1.2s-1.08,2.91-1.64,2.38a8.68,8.68,0,0,1-.68,4.27,34.49,34.49,0,0,0-1.57,5.07,1.44,1.44,0,0,1,.09-.83,14.5,14.5,0,0,1-2,2.88c.8.59-.05,3.24-.17,4.84-1.78,1.58-.48-1.68-1.6-1.43.77.22-.88,3.75,0,3.36-1.24,1.26-.87,1.18-2,1.6,1,.8-.51,1.48-.46,3-1.63,1.89-1.3,0-2.17,2.57-.46.48-.51.14-.45-.31A8,8,0,0,1,229.26,150.61Zm-30.1,56.11h0l.62-1.17C199.63,205.79,199.45,206.12,199.16,206.72Zm-2.6,4.72c.34-.56.74-1.27,1.15-2,.31,0,.43.25.15.72C197.86,209.79,197.13,210.84,196.56,211.44Zm9.8-7.49c-.34.78-.6,1-.78,1,.19-.35.4-.76.66-1.32,0,0,0-.09,0-.13A1,1,0,0,1,206.36,204Z"/><path class="cls-2" d="M206.32,202.17a2.68,2.68,0,0,1,.14-.33,4.81,4.81,0,0,0-.4.36l0,.37Z"/><path class="cls-2" d="M287.36,177.07l.06.1a.68.68,0,0,1-.07-.25A.92.92,0,0,1,287.36,177.07Z"/><polygon class="cls-2" points="174.95 282.81 175.13 282.79 174.94 282.32 174.95 282.81"/><path class="cls-2" d="M271.69,152a.71.71,0,0,0-.06-.42A1,1,0,0,0,271.69,152Z"/><path class="cls-2" d="M265.39,141l-.59-1.7A17.39,17.39,0,0,0,265.39,141Z"/><path class="cls-2" d="M261.44,132.17a.69.69,0,0,0-.35,0v0Z"/><path class="cls-2" d="M348.91,260.78a1.94,1.94,0,0,0,.15.36C349.46,262,349.22,261.39,348.91,260.78Z"/><path class="cls-2" d="M325.56,220.13c.39.33.77.65,1.14,1C326.26,220.45,325.9,219.91,325.56,220.13Z"/><path class="cls-2" d="M350.4,313.64h0l-.11.32Z"/><path class="cls-2" d="M327.94,222.94a6.56,6.56,0,0,0-1.24-1.78A10.32,10.32,0,0,0,327.94,222.94Z"/><path class="cls-2" d="M252.78,91.79l0-.46s-.08,0-.11,0Z"/><path class="cls-2" d="M252.71,91.28l-.08-.52C252.63,91,252.63,91.2,252.71,91.28Z"/><path class="cls-2" d="M252.47,89.68l.16,1.08A1.8,1.8,0,0,0,252.47,89.68Z"/><path class="cls-2" d="M253.22,104.44l.27.11A.34.34,0,0,0,253.22,104.44Z"/><path class="cls-2" d="M253.91,108.24a16.49,16.49,0,0,0-.2-3.6l-.22-.09C254,105.08,253.35,107.45,253.91,108.24Z"/><path class="cls-2" d="M255.21,124.88c-.34-1.06-.6-2.15-.88-3.23-.08.64-.19,1.49-.72,0C254.16,126,253.88,120.7,255.21,124.88Z"/><path class="cls-2" d="M258.76,134.63c-.88-1.58-.35.18-.53.16C258.94,135.72,259.11,135.94,258.76,134.63Z"/><path class="cls-2" d="M301.92,195.1l-.6.28C302.28,196.36,301.52,195.23,301.92,195.1Z"/><polygon class="cls-2" points="313.6 203.78 313.05 202.5 312.19 202.39 313.6 203.78"/><polygon class="cls-2" points="315.33 213.14 314.88 212.74 316.48 214.37 315.33 213.14"/><path class="cls-2" d="M339.1,324.6H340C340.26,323.73,339.56,323.17,339.1,324.6Z"/><path class="cls-2" d="M302.69,360.88a3.75,3.75,0,0,0-2.81.94A28.13,28.13,0,0,0,302.69,360.88Z"/><polygon class="cls-2" points="182.95 296.18 183.4 297.15 182.82 295.26 182.95 296.18"/><path class="cls-2" d="M328.54,270.15c-.22,0-.7.1-.58.2l.83-.05Z"/><path class="cls-2" d="M327.15,271.23a4.28,4.28,0,0,0,1.88-.09c-.81,0-.48-.1-1.44-.1-.12-.11.23-.26.53-.29-.22,0,.15-.22-.37-.2-.61.27-.6.47-.05.6A2.15,2.15,0,0,1,327.15,271.23Z"/><path class="cls-2" d="M326.88,283.17l.09-.08A.15.15,0,0,0,326.88,283.17Z"/><path class="cls-2" d="M326.11,290.42c0-.06-.09-.09-.17-.1S326,290.43,326.11,290.42Z"/><path class="cls-2" d="M325.09,291.56l.06-.07C325.08,291.51,325,291.53,325.09,291.56Z"/><path class="cls-2" d="M326.88,283.17l-.27.19C326.88,283.37,326.81,283.26,326.88,283.17Z"/><path class="cls-2" d="M329.38,272.58a.46.46,0,0,0-.23-.08.45.45,0,0,1,.1.09Z"/><path class="cls-2" d="M326.12,280v-.06l-.34,0Z"/><path class="cls-2" d="M325.83,277.55a4.48,4.48,0,0,0,1,0,.93.93,0,0,1-.49-.09A4.08,4.08,0,0,0,325.83,277.55Z"/><path class="cls-2" d="M326.65,273.53l-.11-.06Z"/><path class="cls-2" d="M326,281.74l-.25,0Z"/><path class="cls-2" d="M294.94,339.1l0-.13C294.93,339,294.91,339.09,294.94,339.1Z"/><path class="cls-2" d="M292.73,334.92l0,0,.15-.37Z"/><path class="cls-2" d="M323.92,293.66h0C323.87,293.59,323.88,293.62,323.92,293.66Z"/><path class="cls-2" d="M319,313.39c.67,0,.59.67,1.37.63C320.08,313.94,319.47,313.29,319,313.39Z"/><path class="cls-2" d="M329.3,272.66a.12.12,0,0,1,0,.1C329.34,272.71,329.33,272.68,329.3,272.66Z"/><path class="cls-2" d="M320.35,314Z"/><path class="cls-2" d="M323.48,298.78h.31A1.37,1.37,0,0,0,323.48,298.78Z"/><path class="cls-2" d="M325.15,295.17l-.1.08A.22.22,0,0,0,325.15,295.17Z"/><path class="cls-2" d="M324,301c-.07,0-.17,0-.09.12H324C324,301,323.91,301,324,301Z"/><path class="cls-2" d="M323.52,303h.15l0-.07Z"/><path class="cls-2" d="M302.64,338.43a3.51,3.51,0,0,1-.26-.59C302.53,338.32,302.21,338.57,302.64,338.43Z"/><path class="cls-2" d="M329,272.64c.18,0,.27,0,.31,0l-.05-.07A.86.86,0,0,0,329,272.64Z"/><path class="cls-2" d="M329.41,302.29l-.19.32A.61.61,0,0,0,329.41,302.29Z"/><path class="cls-2" d="M316.7,328.86l0,.12S316.75,328.92,316.7,328.86Z"/><path class="cls-2" d="M329.06,303.67a1.53,1.53,0,0,0-.52.07l.17.08Z"/><path class="cls-2" d="M302.38,337.84Z"/><path class="cls-2" d="M300.05,339.92c.4,0,.08-.92.1-1.46.41-.3.29.65.51,1.1.26-.28.34-1.16.55-1.15a.87.87,0,0,1,.08.39c.16-.76.86-.21,1-1.18a.84.84,0,0,1,.1.22,9.41,9.41,0,0,1-.34-1.23c.15-.05.14-.63.34-.05-.09,0,0,.24,0,.43l.1-.29c.35.81-.15.34,0,1,.26-.34.43-1.16.73-1,.28.8-.49.43,0,1.07l-.47-.21c.63,1.22-.26,0,.37,1.29.6.09.47-.58,1.06-.49,0-.49-.24-.65-.27-1.14.41-1,1.24,1.83,1.4.58-.06-.58-.4-1.6.16-1.22l.23.94c.52-.1-.25-1.38.48-1,.07.38-.24.44-.13.52.62.56,0-.6.25-.7l.4.75c.45-.35.71-1.16,1.15-1.58.09.24.12.52.37.69.46-.73,1.45-.71,2.36-.73l-.18-.76c.06,0,.29.2.31.36.4.06-.25-.39-.31-.7.1-.14.42.21.47.46.05-.81.3-1.9,1.19-1.63l.06.23c.51,0-.62-1.43.09-1.15l0,.14c.86-.33,1.07-1.45,2.31-1.15-.68-.82.94-.3-.11-1.34.86.13,1,.41,1.8.21.17-.1-.52-.81-.49-1.08l.59.49-.42-.75.81.46V329a.86.86,0,0,1-.55-.23c-.06-.47.92-.3,1.24-.07,0-.34,0-.68,0-1a1.3,1.3,0,0,1,.34.58c-.38-.82.69.42.35-.32a2.13,2.13,0,0,1-.48-.4.61.61,0,0,0,.78-.61l.4.36c.45-.4.49-1.16.85-1.7-.34.06-1.08-.49-1.05-.69l.72.38c-.35-.37-.36,0-.74-.54.2-.15.86.36,1,.62l-.08-.4a6.31,6.31,0,0,1,.54.42c-.37-.37,1,0,.31-.61l.21.11c.35-.55.25-.95.49-1.42-.61-.36-.37-.46-.79-.87.38-.22,1.07-.32,1.24-.75-.16-.45-.48-.37-.78-.69.57.28.74-.15,1,.28a2.43,2.43,0,0,0,.07-1.53c-.27-.06-.41,0-.58-.17s.36-.13.62,0l.05.06c-.53-1.11,2.45-.78,1.52-1.92l.05.06-.36-.87c.22-.22.37.37.82.33-.7-1.07.57-.93.15-1.74,1.91.34.51-1.47,1.83-1.58l-.43-.13c-.35-.3.3-.08.44-.15-.33-.11-.43,0-.62-.17,0-1.4,1.58-2.26,2.38-3.42.27-.43-2.09-1-.89-1.24l.73.43c-.61-1.24.64-1.92.11-3.09.17.11.41.18.38.27.63,0,.24-.71-.23-.85.1-.13.44.09.7.07s-.59-.7,0-.65c.1,0,.17.11.21.16-.25-.21.22-.58-.48-.64.41-.26-.12-.74.34-.92-.7-.37.52-.51-.53-.83,1.09.3,1-.4.58-.74.31.15.39-.11.83.08.05-.25-.11-.54-.69-.62,1.42-.18-.86-1.17.89-1.07a10,10,0,0,1-.83-2.38c1.1.23,0,.77,1.14,1-.33-.74-1.23-1.28-.85-1.87.18-.14.47.18.65.27-.35-.73.31-1.24-.2-1.91a.66.66,0,0,1,.29.17c0-.12.2-.24-.31-.31l.12.14c-.76.06-1.47-.68-1.86-.75,1.43.4.44-.51,2.24.05a1.12,1.12,0,0,0-.66-.25c.11-.09.32-.1.69.06-.23-.44-.78-.37-.73-.74a4.9,4.9,0,0,1,.62.2c-.45-.25-.91-.5-.66-.78.14,0,.34,0,.33.12,0-.55-1.15-1.06-.64-1.59,1.06.29.37-.16,1.3-.1l-.25-.34-.46.08c0-.28-.61-.58-.29-.79l.37.24-.13-.53-.38.26c-.46-.32-1.18-.08-.89-.42.09.08,0-.27.6-.36h0c-.28-.16-.58-.32-.33-.51.3,0,1,.12,1.22.1-.76-.19-.16-.66-1-.88a3.45,3.45,0,0,0,.78.09l-.62-.16a1,1,0,0,1,.69-.08c.14-.38-1.18.05-.65-.37.05,0,.14,0,.24.1.28-.44-.36-.9,0-1.3.94-.09.21.38,1,.27-.14-.62-1-1.3-.84-1.88l-.1.11c-1.33-.11.66-.43,0-.74a1.67,1.67,0,0,0,.58.09c.22-.4-.31-.83-.73-1.44l.34.08c.31-.24.19-.63.33-.89-.34-.07-.29-.22-.78-.12,1.92-.83-1.08-1.47.51-2.22,0,.09.3.19.3.12l-.33-.58c-.58.07-.35.09-.79.24-.35-.06-.61-.21-.62-.36.39.25.93-.05,1.24-.18-.18,0-.38,0-.56,0,1-.37-1.16,0-.5-.45h.31c-.17-.15-.58-.27-.51-.44.67-.12.33.14.88.12-.06-.24-1.3-.39-.65-.65.19.09.21.24.4.33.76-.29.56-.31.67-.49v0l.32-.44-.2.12c-1.76-.16-.36-.59-1.53-.89,1.11.29.63,0,1.38,0,.21-.12.43-.3.65-.28-.63-.13.44-.36-.48-.55.24,0,0-.21.62-.23-.22-.23-.42.11-.73.12-.87-.3.91-1-.29-1.45-.52-.41-1.35-.4-1.8-.78a1.27,1.27,0,0,1,.89,0c.33-.29.23-.46-.08-.64a1.43,1.43,0,0,0,.65-.17c-.09-.17-.9,0-.58-.28a6.69,6.69,0,0,1,1,0c-.25-.18-.74-.32-1-.51a1.93,1.93,0,0,1,.95.07,1.36,1.36,0,0,0-1.16-.55l-.21.19c-.05-.08.56-.13.69-.09.56.13-.18.34-.42.39l-.18-.13c-1.39.38.32.59.29.92h-1.05l.9.2c-.25.11-.82.23-1,.1-.47.29.4.15-.14.41a.24.24,0,0,1-.18,0l.33.18c-.22,0-.72.13-.59,0-.55.46.85.52.08.77l-.07,0c.41.5.77,0,1.7.26l-1.84.49.77,0c0,.06-.07.17-.37.19.54.15.32-.08.83,0-.67.34.4.71-.8.89.59,0,.42-.3.85-.05-1.3.21.27.31-.31.61-.68,0-.35-.28-.92,0,1.14.05-.22.5,0,.68.91-.06.41.42.74.74-.31,0-.45.69-.76,1h-.15c.92,0,.77.35,1,.58a2.08,2.08,0,0,1-1-.13l0,.22a.74.74,0,0,1,.56.25l-.69,0c.05.3.83.57.38,1,.64,0,1.77-.38,2.21,0a2.79,2.79,0,0,1-1.08,0c.05,0,.29.12.15.2l-.59-.15c-.25.19.49.08.44.22-.49,0-.35.12-.74.11-.05,0,.2-.13,0-.18a1.14,1.14,0,0,1-.74.44c.28,0,.67,0,.73.09.05.31-.59.12-.84.3.35.07,0,.26.74.26,0,.08-.35.11-.54.14.33.15.1.73.88.55l.05,0s0,0,0,0h0c.73.51-.42,1.07-.11,1.58h-.25c.28.31.16.68.69.91,0,.09-.45.2-.75.16.19.23.46.27,0,.59-.42-.25-.39.07-.31-.25-.22.3-.62.35,0,.69-.63-.13-.81.2-.63.34l.46-.18a.46.46,0,0,1,0,.44l-.82-.12c-1,.55,1.66,1.2-.05,1.56.57.2.42-.31,1.09-.12-.12.28-1.34.48-1.35.57-.49.34,1.18.45.83.83.3,0,1.09,0,1.35.32-.14.27-1.28.23-1.5,0,0-.06.08-.09.18-.08a.46.46,0,0,0-.54-.14l.29.06c-.32.11-.32.5-.8.36a.43.43,0,0,0,.65,0c-.46.32-.07.56-.39.9.17,0,.52-.06.52,0-.42.5.54.3.62.68-.47.16-1.06-.19-.73.22-.33.19-.79,0-1-.16.53.4-.45.58-.58.75l-.22-.2a.26.26,0,0,1,.1.29l.61,0c-.12.09-.13.18-.38.14.37.16,1,.05,1.49.33-.32.1.27.47-.52.41.32-.4-.79-.06-.87-.44.09.08.07.16-.05.25a.26.26,0,0,1-.2-.07c-.75.31.86.31.79.74-.43-.12-.85,0-.76.06,0-.17.74,0,1.06.23-.38.23.21.34.14.48l.19-.14c.43.12.35.25.46.46-.35,0-.21-.21-.37-.16.73.33-.88.35-.41.73-.32.09-.83-.12-1,0,.51.42-.66.25-.25.67.6,0,.46,0,1,.31l-.32-.64.79.51c0-.17-.31-.43-.19-.52.45.26.31.22.81.22-.92.09.43.57-.21.74l-1.45-.27c-.72.29.63.87.14,1.33l.29-.12c.56.18,0,.34.21.56a2.88,2.88,0,0,0-1,0c.36.06-.11.38.84.63l-.68.1c-.35.37,1.27.79,1,1.17-.49-.24-.87-.13-1.19-.49,0,.14-.15.24.19.32-.32,0,.57.53.07.55.2.11.7.24.62.39a1.28,1.28,0,0,1-.24-.06c.24.06.26.32.83.31-1.6.06-.19,1.22-1.57,1.26a3.18,3.18,0,0,1,.11,1c-.14-.06-.23-.07-.17-.1-.55.24,1.3.6.68.89-.83,0-.35-.34-.68-.29-1.58-.38.06.57-.93.59l-.08-.09c-.59.05.44.7.22,1a1.28,1.28,0,0,0-.23-.08,2.18,2.18,0,0,1,1,1.45c-.57-.3-.27-.26-.91-.39,0,.17,1,.27,1.07.63a4.09,4.09,0,0,1-1.39-.07l.06-.3c-.89-.13-.09.38-.29.48l-.36-.14c0,.47.9.79.67,1.24l.3.05c.83.57-.59,0,0,.53l-1-.26a4.55,4.55,0,0,1,.75,1.29,6.23,6.23,0,0,1-1.17-1.27.68.68,0,0,0,.29.84c-.07-.1-.26-.27-.09-.28.65.47.9.87.76,1.2-1.77-.74-.79.68-2.26.38.44.84-.72,1-.91,1.71,1.47.35,0,.21,1.38.77,0,.19,0,.24-.13.22l-1,.1c-.45-.07-.24-.28-.56-.4-.25.28-.66-.13-1.12-.07.52.17.66.43.39.53l.76,0c.54.8-1.34-.13-.82.67l-.36-.35c.14.36-.43.86.56,1.62-.18,0-.58-.16-.63-.31-.43.47.56,1.84-.33,1.94l-.31-.21c0,.15.53.5.13.46-.14-.08-.31-.22-.36-.18s.44.58.18.61l-.31-.31c-.72.31.46,1.31.43,1.89a1.78,1.78,0,0,0-1.77-.18l-.14-.09c-.46.53.2,1.48.21,2.27-1.22-.29-1.15.88-2.07,1a1.42,1.42,0,0,1,.72.66c-.27,0,.38.79-.42.18l0,0c-.87-.49-.83-.1-1,.08l1,.82c-1.89-.66-.46,1.75-2,.92.16.32,0,.46.19.79l-.53-.47a1.27,1.27,0,0,0-.82.75l-.3-.42c-.22.16,1.24,1.66,1.07,1.89l-.8-.69c-.36.37-1.33,0-1.05,1.06-.1-.12-.29-.36-.26-.45-.19.14-1.11,0-.12,1.09-.62-.72-.45.24-.41.75l-.39-.58c.37.84.51,1,.39,1.43-.11,0-.38-.41-.2-.32-.42-.15.23.65-.24.53l-.16-.43c-.24.11-.09.29.09.8,0,.32-.52.14-.89-.37.18.34.34.85.1.78a1.12,1.12,0,0,1-.19-.42c-.61-.19-.14,1-.74.59a1.36,1.36,0,0,0-.25-.34c.3-.15.55-.26.56-.21-.34-.54-.61-.51-.89-1.38.08.52.28,1.63-.1,1.48a.94.94,0,0,1-.14-.18v-.07c-.08,0-.1,0-.1.16-.12,0-.2-.1-.27-.07-.27-.45-.4-.12-.53-.09.32.63.11.6.51,1.06,0,0,0-.09.06-.16s0,0,0-.09v.06l.29-.19c.06.37.09.69-.22.41.14.43.26.88.31,1.1a20.86,20.86,0,0,1-1.42-1.67c-.22.51-.76.61-.58,1.93-.06.2-.26-.31-.37-.5s.11-.15.08-.34c-.11.39-.62.35-.4,1.25-.42-.32-.09-.86-.44-.6l0-.29c-.59-.6-.72.06-.94.65s-.5,1.16-1.11.29a.72.72,0,0,1,.16.3,1.8,1.8,0,0,0-1.6.11,1.21,1.21,0,0,1-1.56-.44c-.26-.28-.33.32-.54.74v-.76l-.38.84c-.26.29-.4-.18-.54-.61s-.26-.77-.64-.22l0,.51c-.17-.12-.68.15-.51-.41,0,.09-.19.5-.2.22l.09-.38-.65.53c-.26-.39.51-1.49.06-1.72a3.16,3.16,0,0,0-.93,1.17c.07.05.11.3,0,.68l-.26.13c-.44,1.07-1.07,2.11-.79,3.07l.62-.53-.05.58-.34-.09c0,.57.3.17.52-.09a1.29,1.29,0,0,0,0,.65l.7-1c-.08.45-.43.82-.22,1.13.32-.45.09-1,.47-1.28.05.56-.1,1,.23.58a.87.87,0,0,1-.25.58c.28-.29.57,0,.8-.6.07.67.7-.05.5,1,.11-.25.49-.78.67-.82-.51,1.28.68.16.45,1.55.37-1.14,1-.45,1.46-1.1,0,.1-.08.29-.11.22.24.11.32.47.48.7,0-1,.42-1.22.6-1.83.33.94-.14,1.16,0,2.06,0-.79.52-.81.38-1.46a2.8,2.8,0,0,1,.39,1.07c-.05-1.22.21-.22.34-1,.38.57.19,1.13.53.73A.88.88,0,0,1,300.05,339.92Zm7.67-4.6h0l-.13.11Zm.61-.35a1,1,0,0,0-.28.13c-.14-.2-.24-.43-.17-.46C307.93,334.81,308.13,334.84,308.33,335Zm-3.47-3.66c0-.13.12,0,.2.1a.76.76,0,0,0-.1.15l0,.08C304.94,331.52,304.89,331.4,304.86,331.31Z"/><path class="cls-2" d="M305.13,332.2s0,.05,0,.07l.12.12-.07-.22Z"/><path class="cls-2" d="M327,283.08h0l.1,0Z"/><polygon class="cls-2" points="316.48 329.67 316.34 329.56 316.42 329.71 316.48 329.67"/><path class="cls-2" d="M329.3,279.48a.49.49,0,0,0,.17-.06Z"/><path class="cls-2" d="M329.34,277.93l.24-.24A1,1,0,0,0,329.34,277.93Z"/><path class="cls-2" d="M329.61,276.71h0Z"/><path class="cls-2" d="M329.82,295.8a.06.06,0,0,0,0,.05C330,296,329.92,295.9,329.82,295.8Z"/><path class="cls-2" d="M328.83,290a1.67,1.67,0,0,1,.31.2C329.21,290.1,329.23,290,328.83,290Z"/><path class="cls-2" d="M329.43,302.26h0s0,0,0,0Z"/><path class="cls-2" d="M329.11,290.45c.15-.08.13-.17,0-.26C329.09,290.27,329,290.36,329.11,290.45Z"/><path class="cls-2" d="M329.28,271.51l0-.06h-.11Z"/><path class="cls-2" d="M329.19,271.46l-.09,0S329.11,271.46,329.19,271.46Z"/><path class="cls-2" d="M328.9,271.3l.2.11C329.09,271.36,329.11,271.3,328.9,271.3Z"/><path class="cls-2" d="M329.2,273.13l.26,0A1.49,1.49,0,0,0,329.2,273.13Z"/><path class="cls-2" d="M329.34,273.6c0-.12.51-.36.32-.5h-.2C329.85,273.14,328.9,273.54,329.34,273.6Z"/><path class="cls-2" d="M326.43,275.92l.16-.41c-.27.1-.62.22-.7.06C325.14,276.13,326.48,275.4,326.43,275.92Z"/><path class="cls-2" d="M326.15,277.15c-.14-.2-.39,0-.54,0C325.86,277.29,325.93,277.32,326.15,277.15Z"/><path class="cls-2" d="M326.4,285.78l-.64,0C325.85,285.9,326,285.75,326.4,285.78Z"/><polygon class="cls-2" points="329.63 287.59 330.03 287.45 329.45 287.34 329.63 287.59"/><polygon class="cls-2" points="325.03 288.32 324.94 288.25 325.16 288.53 325.03 288.32"/><path class="cls-2" d="M323,302.46l.78.15C323.68,302.47,322.83,302.23,323,302.46Z"/><path class="cls-2" d="M322,308.64c-.39-.07-.69,0-.36.25C321.73,308.77,322.06,308.74,322,308.64Z"/><polygon class="cls-2" points="312.6 324.41 312.46 324.16 312.5 324.47 312.6 324.41"/></svg>