<svg id="Layer_1" data-name="Layer 1" xmlns="http://www.w3.org/2000/svg" viewBox="0 0 512 512"><defs><style>.cls-1{stroke:#000;stroke-miterlimit:10;}.cls-2{fill:#fff;}</style></defs><circle class="cls-1" cx="256" cy="256" r="242.5"/><path class="cls-2" d="M376.42,464.57c-.59.58.06.8,1.88-.44l.91-1.53Z"/><path class="cls-2" d="M389.8,458c1.92-1.8,4-4.06,2.17-3.74-1.66,2.1-2.35,2.17-4.12,4.52-1.81,1.26-3.42,1.79-3.26,1.35-.55.58-3,1.62-3.75,2.69a24.12,24.12,0,0,0,4.36-2.08c.75-.45,1.51-.94,2.26-1.47s1.45-1.18,2.17-1.82C390.4,457.18,389.87,457.81,389.8,458Z"/><path class="cls-2" d="M498.51,279.07l-.23,1.38A12,12,0,0,0,498.51,279.07Z"/><path class="cls-2" d="M475,148.26c.46.91.72,1.26.81,1.28C475.34,148.7,475,148,475,148.26Z"/><path class="cls-2" d="M464.63,127.66l.67,1.19A4.88,4.88,0,0,0,464.63,127.66Z"/><path class="cls-2" d="M498.51,279.07l.6-3.56C498.87,275.24,498.74,277.33,498.51,279.07Z"/><path class="cls-2" d="M412.27,438.61a15.28,15.28,0,0,0-1.34,1.41l1.33-1.24A.51.51,0,0,1,412.27,438.61Z"/><path class="cls-2" d="M486.43,337.05l-.36,1a6.23,6.23,0,0,0,0,1Z"/><path class="cls-2" d="M467.51,378.51c.54-.88.11-1.54,0-2a6,6,0,0,1-.7,2.18C467,378.74,467.16,378.71,467.51,378.51Z"/><path class="cls-2" d="M421.71,434l-.87.95Z"/><path class="cls-2" d="M495.35,305.65a1,1,0,0,0,.32-.36C495.58,305.27,495.47,305.42,495.35,305.65Z"/><path class="cls-2" d="M328.3,484c0,.06,0,.08,0,.12C328.57,484,328.63,483.91,328.3,484Z"/><path class="cls-2" d="M377.34,466.17l-.62.38a.83.83,0,0,0,.06.42Z"/><path class="cls-2" d="M440.26,93.08l.12.15C441.15,94,440.74,93.56,440.26,93.08Z"/><path class="cls-2" d="M91.1,74.25c3.63-2.53-4.68,5.46.62,1.48C91.08,76,95.38,70.81,91.1,74.25Z"/><path class="cls-2" d="M413.22,437.93l1.4-1.19C414,437.26,413.53,437.63,413.22,437.93Z"/><path class="cls-2" d="M91.72,75.73h0l.55-.41Z"/><path class="cls-2" d="M362.64,34.87a4,4,0,0,0,.77.69C363.41,35.48,363.24,35.31,362.64,34.87Z"/><path class="cls-2" d="M421.89,76.29,420.61,75C421.1,75.56,421.52,76,421.89,76.29Z"/><path class="cls-2" d="M327.21,22.15a15,15,0,0,0-2.51-.8l.36.2A7.24,7.24,0,0,1,327.21,22.15Z"/><path class="cls-2" d="M289,13.79c.2.08.47.16.7.24l1.23.14Z"/><path class="cls-2" d="M213.31,491.65a7.39,7.39,0,0,1,1.63,1C214.45,492,220,492.9,213.31,491.65Z"/><path class="cls-2" d="M412.54,438.9a1.94,1.94,0,0,1,.68-1l-1,.85C412.24,438.94,412.29,439,412.54,438.9Z"/><path class="cls-2" d="M324.1,27l-5.8-1.81C319.91,25.75,322,26.4,324.1,27Z"/><path class="cls-2" d="M23.44,313.78l.43,1.34A6.22,6.22,0,0,0,23.44,313.78Z"/><path class="cls-2" d="M300.69,21.32a23.69,23.69,0,0,0-3.27-1.13,5.16,5.16,0,0,0-.73,0Z"/><path class="cls-2" d="M215,492.62h0Z"/><path class="cls-2" d="M255,494.48c-5.78,0-2.73.91-4,1.44-6.94,0-3.19-.82-5.52-1.4-2.16,0-4.08.21-5.86.36a31.23,31.23,0,0,1-5,0c-.23-.17-.84-.29-.09-.41a32.84,32.84,0,0,1-4.15-.06l-2.45-.18-2.57-.34a75.31,75.31,0,0,0-9.73-.87,2.14,2.14,0,0,1-.65-.36c.77.62.83,1.11.6,1.4-2.58-.48-4.89-.34-5.75-1.12a5.76,5.76,0,0,0,2.52.06l-2.74-.26c-2.25-1.32,3.74.41,3.85-.22-2.64-.36-5.53-.66-8.26-1a58.29,58.29,0,0,1-7.21-1.55c-.62-1,9.37,2,4.24,0l3,.89,3.07.75c-4.47-2.22,3.74.82-.32-1.42l-2.73-.58-2.21-.52c-1.36-.31-2.49-.53-3.63-.75s-2.27-.44-3.62-.74a44,44,0,0,1-4.87-1.38c-1.92-.07.4.84-1.52.77a40.18,40.18,0,0,1-6.31-1.81,18.69,18.69,0,0,1-3.19-1.77,16.41,16.41,0,0,0-7.23-2.92c-2.29-.25-3.48.38-9-2.43l2.32-.11a27.06,27.06,0,0,0-6.1-1.9c-1.2-.24-2.42-.58-6.12-2.62,1.52.28,5.88,2.34,4.82,1.73-4.64-3-3.73-1.11-7.56-2.86-.14-.37-.28-.75-.41-1.14-1.91-.95-3.89-1.9-5.91-2.86s-4.11-1.87-6.13-3c-4.07-2.17-8.34-4.27-12.31-6.87.58.07,2.08.73.36-.7q-1.92-1.14-3.89-2.37l-2-1.23-1.9-1.36c-2.55-1.83-5.11-3.7-7.63-5.62s-4.83-4.06-7.16-6.06c-.58-.5-1.17-1-1.74-1.5L100.72,438c-1.08-1-2.15-2-3.18-3l-3.8-2.35c-.76-.69-1.15-1.56-.26-.88-3-3.33-.49.17-2.23-1.12-1.88-1.75-2.13-2.66-.82-1.69-6.34-4.81-16.64-15.4-21.32-22.37l1.21,1.11c-.49-.65-1-1.2-1.38-1.7s-.81-1-1.18-1.35c-.75-.8-1.44-1.41-2.11-2a19.61,19.61,0,0,1-4.16-5l.81.84c-4-5.84-8.3-11.92-11.86-18-.91-1.5-1.82-3-2.66-4.44s-1.56-3-2.28-4.4-1.4-2.82-2-4.17a34.76,34.76,0,0,1-1.65-3.93c-.92-.69-2.33-3.9-3.72-6.95l-1.93-4.17c-.56-1.15-1.08-1.92-1.51-2-1.23-3.87-1.56-5.29-2.07-7.08s-1-4-2.73-9.41c-1-2.85-2.29-4-3.56-7.53L27,326l-2.26-4.64c0-.94.1-1.9.17-2.86l-1-3.35c.29,1.37.39,3,.12,2.82a63.33,63.33,0,0,1-2-8.56,16.24,16.24,0,0,1-.24-4.81l-1.59-6.29c-.53-2.1-.88-4.24-1.33-6.36.35.24.77,2.37,1.22,4-1.8-6.72.62-1.36-1-7.52,0,.86-.52-.4-.7-.52,0-.8-.1-1.84-.15-3s-.15-2.57-.27-4-.28-2.91-.44-4.38-.36-2.9-.44-4.23l.58,1q-.13-3.6-.36-7.37c-.06-1.26-.16-2.53-.21-3.81s0-2.57-.06-3.88c0-2.6-.12-5.24-.1-7.91s.21-5.35.32-8.05c-.43,3.85-1.31,2.93-1.25-.26l.88-1.21c-.41-2.09-.47,3.29-.89-1,.43-4,1.16-2.63,1.21-.31l.18-4.91c.27-.26.29.89.57,1.22-.29-2.06,1.52-8.33,1.17-11.29l.28-.24c.37-2.67.68-5,1-7.06s.68-3.95,1-5.76.61-3.55.93-5.39.82-3.72,1.31-5.86c-.64-.34.32-3.64.39-6.34,1-3.09,2.18-6.31,3.33-9.7.28-.85.6-1.7.94-2.55s.66-1.72,1-2.6c.66-1.75,1.3-3.54,1.93-5.39.35-1.33.56-2.09.66-2.53s.06-.56,0-.6-.42.19-.16-1c.75-.15,3.59-7.4,2.52-3.48.86-2.17,1.48-4,2.21-5.57s1.32-3,2-4.55,1.3-3.12,2.1-5,1.87-4,3.12-6.71c-.82,1-1.59,2.26-1.44,1.49.9-2,2.49-4.23,2.62-3.81l-.2.54A102.64,102.64,0,0,1,56,124c2.1-3,4.43-5.74,6.4-8.41,1-1.33,1.92-2.62,2.76-3.88s1.7-2.39,2.39-3.53l-.31.5,3.14-4.51c.52-.75,1-1.51,1.58-2.25l1.68-2.17c3.42-3.73-1.63,2.58,1.13,0,1.75-2.4,3.41-4.47,5-6.35s3.29-3.41,4.86-5l2.32-2.31L88.08,85l1.21-1.12c1.6-1.5,3.21-3.08,4.87-4.87A24.73,24.73,0,0,0,97,77.12c1.05-.73,2.18-1.57,3.37-2.51s2.42-2,3.69-3,2.57-2.22,4-3.28c2.75-2.15,5.54-4.42,8.24-6.4a80.82,80.82,0,0,1,7.65-4.73l-.73,0c1.93-1.84,2.74-1.6,4.46-2.5-.42-.15-2.65,1.15-1.39.09,2.34-1.51,4.72-3,7.12-4.5,1.21-.73,2.39-1.53,3.65-2.19l3.76-2,3.8-2c1.27-.66,2.52-1.36,3.85-1.94l7.88-3.58,2-.88,2-.79,4-1.57c2.7-1,5.38-2.13,8.14-3l8.19-2.72,8.24-2.33a19.87,19.87,0,0,0,6.29-2.76c1.29-.8,2.9-1.56,8.13-2.33l-2.71,1.53c1-.31,2-.63,3-.92l3.1-.74c2.06-.48,4.15-.94,6.24-1.39s4.21-.74,6.33-1.08l6.36-.94c4.25-.48,8.51-.85,12.72-1.29,2.11-.13,4.21-.26,6.3-.42l3.12-.26c1-.1,2.07-.19,3.1-.23a9.72,9.72,0,0,1-2.61.5c.88.09,2.12.16,3.49.19s2.87,0,4.26-.08c2.79-.13,5.16-.41,5.19-.65,2.57.18.59.47,2.16.8a36.07,36.07,0,0,0,5.92.1c2-.08,3.79-.13,4.69.29.31.13-1,.08-1.63.1,2.29-.1,10.54,1.06,8.44.16,3.07.4,6,.8,8.79,1.12,1.4.17,2.75.33,4.06.52.65.1,1.3.2,1.93.32s1.23.29,1.83.46c3.3-.12,10.35,2.3,11.55,1.59-.68,1,10.36,3.33,14.23,4.1-1.36,0,3.16,1.3,1.56,1.32,4.3,1.17,8.2,2.41,7.65,1.59,3.68,2,7.69,3,11.17,4.25,1.75.59,3.4,1.14,4.84,1.75a18.26,18.26,0,0,1,2,1A9.14,9.14,0,0,1,352,37L361,40.67l8.58,4c.7.34,1.41.66,2.1,1s1.37.73,2,1.1l4,2.18,4,2.18,3.85,2.36c-.25.18-1.07-.17-2.16-.78-.55-.31-1.16-.68-1.81-1.08l-2.06-1.16c-2.77-1.57-5.45-3.07-5.51-2.43,2.5,1.32,4.76,2.46,6.9,3.53s4,2.23,6,3.32l2.92,1.68,1.48.87,1.46,1c2,1.34,4,2.8,6.27,4.5s-1.64-.57-2.55-1l3.5,2.35c1.15.79,2.22,1.68,3.31,2.51l6.35,5c2,1.75,4,3.49,5.94,5.16l3,2.48L421.48,82a8.19,8.19,0,0,1-1.75-1.27c1.45,1.36,3.2,3.34,3.4,2.81l-1.49-1.25c-1.79-2.76,6.77,4.39,7.3,4.4-3.36-1.45,6.57,7.58,1.55,4.92,1,.89,2.26,1.93,2.3,1.48,1.26,1.49,1.53,2.07-.1.89,1.26,1.26,2.13,2.06,2.78,2.64s1,1,1.46,1.31a27.86,27.86,0,0,1,3.63,3.85c-.2.14-1.12-.8-1.77-1.12a42.48,42.48,0,0,1,8.13,8.88c-.32-.17-.09.45-1.08-.84,1.44,1.85,2.82,3.53,4.19,5.13l1,1.19.95,1.22,1.9,2.43c1.27,1.63,2.54,3.3,3.84,5.1.66.89,1.25,1.88,1.86,2.89s1.23,2.09,1.85,3.23c-2.5-2,1.53,3.17,1,4.11.51.77,1.06,1.52,1.55,2.3l1.44,2.36-.67-2.18c1.15,2.14,2.39,4.07,3.56,5.94a32.56,32.56,0,0,1,3,5.64l-.95-1.54-1-1.5c.78,1.31,1.45,2.67,2.13,4l2,4.06-1.91-4.8c2.56,4.23.83-1,3.41,5-.68-1.14,2.17,4.38,2.55,7h0a42,42,0,0,1,3.64,7.69c.08,1-1.26-.32-1.21.32.83.95,1.8,3.62,2.87,6.35a55.92,55.92,0,0,0,3,6.85c-.48-.9-1-.8-1-.45l1.19,1.71c.46,2.22.47,2.56,0,2.32,1.86,6.51.5-2.4,2.36,5.45-.23-.59-.23-.28-.71-1.51,2,7.83,4.37,15,5.42,22.38-.49,2.32-1.49-6.31-1.78-3.7,2.47,10.37,4.71,21.66,5.28,32v-1.94c.7.67.63,2.62.5,5a43.76,43.76,0,0,0,.06,7.92c-.08-1.29-.76-1.66-.59-1.32-.09,3.54,0,7.15.16,11.23,0,2,0,4.19,0,6.51,0,1.16,0,2.36,0,3.61v1.91c0,.65-.07,1.3-.11,2l-.21-1.35c-.35,2.07-.65,4.8-.94,7.58-.16,1.39-.25,2.79-.46,4.11s-.4,2.58-.6,3.69c.15,1.37-.28,3.93.44,2.44-.5,1.69-.88,3.37-1.26,5s-.8,3.3-1.12,4.93c-.65,3.27-1.08,6.51-1.76,9.67-.31,1.58-.62,3.15-.92,4.71s-.62,3.12-1.08,4.62a69.64,69.64,0,0,1-3.11,8.81c.41-1.41.71-3.46.37-2.33l-.66,2.54c-.23.84-.52,1.67-.77,2.51l-1.57,5c.82-.6.78-1.19,1.93-3.14a34.91,34.91,0,0,1-1.7,6.76c.6-2.31.38-2.38-.11-1.64s-1.24,2.27-1.8,3.15c.29-.25.21.47.45.37-3,4.74.73,1.28-2.71,8l-.13-.49-.64,2c-.24.64-.47,1.29-.7,1.94a40.72,40.72,0,0,1-1.66,4c-1.14.87,1-2.86.54-3.26-1.75,3.87-2.28,8.24-4.73,11.34.67-1.69,1.88-4,2.42-5.75-.62.87-1.07,1.56-1.45,2.14s-.7,1-1,1.47c-.53.9-.93,1.7-1.7,3.06l.16-.27c-1.22,2.07-2.38,4.17-3.65,6.21.38-.49.72-1,1.06-1.51-.48,2.77-1.84,5.13-3.29,7.69-.74,1.28-1.52,2.6-2.29,4a41.59,41.59,0,0,0-2.39,4.53c2.89-6.45.1-1.3-.24-2.16-1.17,1.43-2.88,3.63-2.63,2.85a17.4,17.4,0,0,1-2.47,4,22.21,22.21,0,0,0-3.09,4.84c-.32,0-2.13,2.92-2.17,1.94-2.41,3.68.94-.59,1-.11-1.57,3-4.35,6-7.2,9.25l-2.19,2.52c-.77.83-1.55,1.67-2.32,2.55a60.92,60.92,0,0,0-4.45,5.65c-.63.84-1.25,1.56-1.8,2.22l-1.5,1.85c-.9,1.15-1.65,2.14-2.38,3.12s-1.45,1.95-2.32,3.05-2,2.21-3.33,3.63c-2.21,1.52,1-2.12,1-2.12-1.68,1.32-3.1,2.54-4.44,3.8s-2.57,2.58-4,3.95c.48-.68-.28-.28-1.39.3-2.42,2.12-1.08,2.07-4.56,4.53a15.47,15.47,0,0,1,1.83-2.82c-1.37,1.3-2.7,2.65-4.05,4s-2.83,2.58-4.33,3.86c-1.09.29,1.49-1.95,2.42-3-3.39,2.8-8.82,7.25-9.64,8.48l2.48-1.41c-1.31.94-1,0-.12-.79,2.7-2.71,4.48-3.11,4.8-3.05l-2.14,1.82c1.58-.29,3.8-2.05,6.18-4.15,1.21-1,2.35-2.26,3.53-3.39s2.32-2.22,3.41-3.12l-1.13,2.31,3.87-4.39c.57-.29,1.08-.49,1.23-.35s-.08.62-1.11,1.57a11.09,11.09,0,0,0,1.86-1.42,12.77,12.77,0,0,0,1-1,10.36,10.36,0,0,1,2.52-2.18c.34-.2.25,0,0,.23l2.7-2.93c-.42.69,1,.08-.9,1.63a34.39,34.39,0,0,0,3.63-3.23c1-1.07,1.84-2.07,2.58-3a17,17,0,0,1,3.84-3.85l-.37.47c.83-.92,1.47-1.62,1.92-2.18s.73-1,.91-1.26c.37-.57.31-.68.19-.74s-.72-.06,1.38-3.14l4.72-2.52.06-1.22c.67-.77,2-2.32,2-1.83,2-3.31-.66.29.33-1.74a57.58,57.58,0,0,0,5.6-6.72c1.69-2.38,3.15-4.33,4-4.42.56-1.77-3.1,3.55-.37-.94,1-.23,1.81-1.5,2.79-3.12a32.7,32.7,0,0,1,3.43-5.41c-.19,1.53-2.8,4.92.15,1.46.26-1.45,1.5-3.25,2.91-5.11a44.85,44.85,0,0,0,3.71-5.58c-.35-.3.6-2.14,2-4.6s3-5.69,4.37-8.57c.18.55,5.72-10.55,8.21-15.95l.07.22c-.21-.71.3-2.46,1-4.56.37-1.05.8-2.19,1.23-3.33s.77-2.31,1.1-3.37c.45.35.43,1.19-.18,3.54.5-1.3.92-2.64,1.39-4a21.28,21.28,0,0,1,1.12-4.92l.3,1.21c.45-1.32.86-2.66,1.25-4l1-4.28c.36-1.46.75-3,1.2-4.53.22-.78.46-1.58.72-2.39s.47-1.66.74-2.52c-.53-.53-3.07,5.07-1.71-2.36.41-.19,1.05-.32.72,1.64a19.92,19.92,0,0,1,.71-3.55l-.14,3.08c1-3.11-.07-1.77.59-4.29.47.16.8-1.79,1.1-1.34a22.66,22.66,0,0,0-.79,3.18c.39-1.42.87-3,1.33-4.32a25.73,25.73,0,0,1,1.12-3c-.33.19-.65-.14-.31-2.27,1-5.48.94-1.76,1.81-4.91,0-1.38.82-4.86.1-5.06a5.25,5.25,0,0,1,.9-2.46c0-1.46.56-4.79.74-7.39s.2-4.45-.34-2.87l-.13.73c0-.14,0-.3,0-.47v0c0-2.37.2-4.77.43-7.18s.35-4.86.52-7.3a110.05,110.05,0,0,0,.44-14.45h.24c-.07-2.8-.38-5.91-.57-8.81a48.77,48.77,0,0,0-.93-7.57c-.16-1.65.07-3.93.43-3.25-.3-2.12-.54-3.29-.72-4.71s-.37-3.07-.63-6.15c1.06,4.2.16-1.52,1,4.32-.62-5.53-.36-6.86-2-12.65,1,1.89,0-4.26-.75-6.83l.32,3.92c-.67-2.9-1.12-5.46-1.59-8.07l1.09,1.22a31.6,31.6,0,0,0-.74-4.12c-.31-1.33-.65-2.62-1-3.88-.75-2.5-1.46-4.89-2.38-7.13s-1.69-4.42-2.36-6.58c-.34-1.08-.6-2.17-.88-3.24a30,30,0,0,1-.7-3.23c-1.57-2.65,1.72,6,.16,3.64-1.68-4.95-2.4-10.53-3-12.07a23.77,23.77,0,0,0-3.08-6.32c-.48-.73-1-1.47-1.5-2.46-.27-.5-.54-1.06-.83-1.72s-.67-1.38-1-2.25c.14,1-.19,2.13-2.86-2.79-2.16-4.75-1.67-6.36,0-3.47.56,1.12.74,1.71.63,1.71.83,1.48,1.91,3.43,1.3,1.42l-.56-.49c-.43-1.24-1.44-3.49-2.19-5.26s-1.38-3-.75-2.38c-2.15-3.37-1.24-1.27,0,1.39-1.42-3.06-2.68-5.38-4-7.71-.66-1.16-1.26-2.36-2-3.58s-1.52-2.56-2.36-4.08c.43,1,.66,2.07.09,1.13-2.49-4.43-3.2-5.32-3.74-5.81a8,8,0,0,1-.89-.85,23.33,23.33,0,0,1-2-2.57c-1.83-3.47,1.68.56-2.54-5-2.15-3.68.13-1.2,1.29.06-1-1.23-1.92-2.47-2.74-3.68s-1.67-2.33-2.4-3.42c-1.44-2.2-2.62-4.18-3.68-5.66l2.22,2.52c-1.34-1.5-2.29-2.84-3.35-4.13.27.6.48,1.25.72,1.87-.54-.82-1.1-1.54-1.49-2.06s-.61-.88-.5-1c-1.6-1.3.23,1.81-2.76-.92a47.15,47.15,0,0,0-3.22-3.89c-.58-.67-1.11-1.31-1.5-1.86a2.72,2.72,0,0,1-.67-1.27c.68.77,1.17,1.35,1.52,1.77a9.22,9.22,0,0,0,.74.81c.32.27.3.08.27-.15-.06-.46-.19-1.07,2.11,1.55a43.17,43.17,0,0,1-3.2-3.79c-.13-.27.32.09.69.48-4.81-6.29-3.12-2.07-8.65-8,.51.23.34-.26-.08-.93a10.19,10.19,0,0,0-1.67-1.87c2.36,2.3.6,1.61-1.79-.24-3.51-3.89-4.25-3.77-6.18-5.7L424,78.58A8.87,8.87,0,0,1,421.83,77c-.93-.8-2.14-1.79-3.54-2.94,0-.47,2.63,2,1.76,1A24.93,24.93,0,0,1,415,70.57c-.87-.89-1.72-1.88-2.73-2.75a29.81,29.81,0,0,0-3.26-2.5c-1.85-1.86.32-.81-1.35-2.4a46.53,46.53,0,0,1-5.24-4.07,36.83,36.83,0,0,0-5.53-4.1c1.22,1.61,1.57,1.68-2.56-.56l9.11,6-6.2-3.38c1.34,1,2.8,1.9,4.12,2.74a25,25,0,0,1,3.24,2.29,11.86,11.86,0,0,0-2.28-1.21c-.16,0,.18.34.67,1a24.89,24.89,0,0,0-5.42-4.07,55.68,55.68,0,0,1-6-4.11l.95-1.15a54.45,54.45,0,0,0-4.65-3.2c-.78-.48-1.56-1-2.36-1.41l-1.2-.69L383,46.37c-1.7-.85-3.45-1.72-5.32-2.73s-3.83-2.18-6.07-3.38c.92.59,1.87,1.12,2.76,1.76-1.46-.18-5.6-2.83-8.62-4.14.49-.3-1.25-1.41-2.37-2.32,0,.4-6.77-3.14-8-2.62-1.29-.81-2.55-1.69-3.89-2.42-7.54-3.29-9.16-2.29-16.54-4.95,2.42.26-.86-1.24,4.27.13-2.49-.87-4.7-1.73-4.85-1.42A22.62,22.62,0,0,0,330.05,23a23.87,23.87,0,0,1-5-1.42,11.49,11.49,0,0,1-4.43-.58c-.28-.19.08-.23.08-.23a11.45,11.45,0,0,1-2-.23c-.84-.08-1.37-.05-.19.52-7.46-3.51-22-5-28.79-7l-4.45-.51c-1.53-.17-3.09-.24-4.64-.36-3.09-.21-6.1-.52-8.7-.65.35-.13,0-.24,1-.14-7.16-.78-4.48,1.16-12.6.36-2.07-.4-1-.51.29-.56s2.76.09,1.46-.14c-.54-.88-3-.78-6-.65a67.85,67.85,0,0,1-9.34,0l1.33-.16c-4.23-.31-10.25,1-17.08,1.68,0,0,.32-.17,0-.25-1.15.33-2.56.64-4.13.94s-3.29.73-5.07,1.08c-3.56.77-7.38,1.33-10.58,2.17,1.9-1,2.88-.92,1.54-1.31-2.89.67,1,.85-4.71,2.19-1.94,0-6.19.52-6.88.06,1.8-.48,3.64-.78,5.45-1.18a13.9,13.9,0,0,0-5,.68,49.69,49.69,0,0,1-4.92,1.46l.27-.47c-8.3,2.16-8.09,3.33-16.89,5.9h1a13.74,13.74,0,0,1-4.3,1.64,12.84,12.84,0,0,0-4.32,1.55L170.68,27l-3,1.36-4,2-4.45,2.22c-1.49.73-3,1.42-4.27,2.13a42.86,42.86,0,0,1,6-3.57l6.84-3.55c-3.06,1.21-10.3,4.38-11.68,5.48A24.21,24.21,0,0,1,160,31.27,128.84,128.84,0,0,1,146.1,39c.06-1.17-3.75.75-8.18,3.1s-9.3,5.37-11.75,5.94c-1.19.84-2.4,1.63-3.61,2.44S120.2,52.14,119,53c-2.4,1.67-4.89,3.23-7.36,4.94l-7.49,5.39c-.63.47-1.28.93-1.92,1.42l-1.88,1.54c-1.26,1-2.53,2.1-3.82,3.21,4.64-2-3,2.58-1.35,3.19-1.18,1-2,1.81-2.48,2.29a5.39,5.39,0,0,1-1,.78c-2.51,2-5.07,3.87-7.57,5.85-1,.66-.49.05.16-.7s1.55-1.62,1.33-1.65L83.06,81.5a3.76,3.76,0,0,1-1,.66c-.45.17-.71.1-2.45,1.61,1-.29-1.12,2.27-4,5L80,85.23a40.89,40.89,0,0,1-3.74,4.08c-1,1-1.79,1.66-2.61,2.33a33,33,0,0,0-6.17,6.66l1.67-2.63c-1.61,1.92-4.44,5.58-7.23,9.25l-2,2.74c-.62.94-1.2,1.85-1.73,2.72a32.25,32.25,0,0,0-2.38,4.46c-.66.61-1.68,1.33-.49-.53-7.06,9.7-13.32,23-18,31l.08-1c-.9,2-1.22,3.72-2.67,6.11-.08-.2,0-1-.42,0A58.52,58.52,0,0,1,31,158.65l.67-2.47a54.26,54.26,0,0,0-3.11,7.23c-.81,2.23-1.48,4.31-2.1,6.33s-1,4.07-1.57,6.14-1.17,4.19-1.82,6.53c-.52-.18-1.51,1.9-2.56,4.57a82.41,82.41,0,0,0-2.74,8.16l-.11-.2c-.83,3.3-1.56,6.36-2.14,9.3s-.89,5.79-1.28,8.59-.59,5.58-.86,8.43-.6,5.78-.72,8.92a71.11,71.11,0,0,0-1.31,7.51c-.37,3-.49,6.47-.72,10.06,0,.9-.09,1.8-.14,2.72s0,1.83,0,2.75c0,1.84,0,3.69,0,5.5-.11,3.64.05,7.15,0,10.29.1-1.92.87.27,1.09,2.48-.16,3,1.46,8,.37,7.65l-.08-1.05c-.73,2.29,0,8.32.76,13l1.42.58A50.93,50.93,0,0,0,15,302c.34,1.82.72,3.68,1.12,5.53.21.92.39,1.85.63,2.76s.51,1.8.75,2.69c1,3.55,1.93,6.94,2.73,9.84a33,33,0,0,1,1.52,7.07c.62,1.37,1.11,3,1.78,4.49s1.28,3.07,1.94,4.4l-.72.09,1.79,5.29c.54,1.62,1.2,3.09,1.82,4.65s1.32,3.13,2.07,4.93l1.24,2.86,1.59,3.2-1.37-1.67a19.83,19.83,0,0,0,3.71,5.39c.62.68,1.23,1.34,1.83,2.13a29.06,29.06,0,0,1,1.85,2.85l-.18,1.89c1.2,2.2,2.36,4.44,3.5,6.68l.86,1.69.93,1.64,1.89,3.27c1.28,2.17,2.53,4.36,3.93,6.43s3,4,4.56,5.95c-.22,0-.64-.11-1.59-1.43,2.45,4,10.27,15.18,10.34,12.93-.77.76,6.49,8.09,10.35,11.86l-1.1-.15a48.35,48.35,0,0,1,8.57,7.16c1,1.16.5,1.36-.74-.23a14.43,14.43,0,0,0,1.94,2.06A17.61,17.61,0,0,0,84,429.32a22.87,22.87,0,0,1,4,3.66L86,431.72c3.7,3.62,3.5,3.24,6,4.71,2.63,1.93,7.21,6.6,7.42,7.56a17,17,0,0,1,5.59,3.54c.18.44-.78-.13-1.26-.42,1.61,1.43,3.08,2.61,4.44,3.64s2.7,1.78,3.91,2.55a50.93,50.93,0,0,1,6.82,4.87c0,.26.24.57.61.89-1.46-.9-2.76-1.9-4-2.76L112.42,454c-1.76-1.29-2.77-2-2.54-1.91-.39.52,4.08,3.86,0,2,2,1.11,4.65,2.57,7.37,4.17A73.78,73.78,0,0,1,125,463a3,3,0,0,1,.48.57l-.51-.24a20,20,0,0,0,2.94,1.76c1.44,1,2.36,1.58,3.79,2.42.14.39,1.49,1.26,3.1,2.2l2.5,1.42c.81.47,1.62.83,2.23,1.17.13-.73,3.29,1,.55-1,.37.24-.51-.15-2.15-1-.37-.19-.79-.43-1-.53l.19,0-6-3.41a24.25,24.25,0,0,1,6.65,3.54c1.45.32,3.07.58,4,.8a67.08,67.08,0,0,0,5.73,4.32c1,.72,1.95,1.33,2.7,1.83a6.67,6.67,0,0,1,1.44,1.15c2,.79,4.09,1.69,6.25,2.61,1.08.48,2.19.89,3.3,1.29l3.3,1.2c2.16.76,4.24,1.48,6.12,2a34.85,34.85,0,0,0,5,.93,7,7,0,0,1,3.26,1.75c-1.35-.33-2.9-.89-3.68-1,1.17.31,2.59.75,4.09,1.22l2.3.73,2.31.61c3,.77,5.58,1.34,6.25,1.06,2.84,1.05,2,1,1.39,1-.29,0-.5,0-.15.11a25.1,25.1,0,0,0,3.31.87h-1.16a85,85,0,0,0,11,2.93c3.51.55,6.89.92,10.31,1.3s6.92.49,10.64,1c1.86.27,3.79.43,5.82.7s4.13.62,6.37,1.07a7.23,7.23,0,0,1-2.1-.52c1.28.17,2.56.35,3.85.48l3.9.26c2.61.15,5.24.31,7.88.39L259,500c1.32,0,2.65,0,4-.08l4-.25c2.64-.18,5.29-.3,7.92-.5s5.24-.54,7.84-.78c1.31-.12,2.61-.2,3.91-.35l3.86-.48c2.57-.3,5.14-.55,7.68-.78,5.74-.87,6.25-1.57,9.61-2.7l1.39.49c1.91-.72,3.79-1.54,5.67-2.3a44.66,44.66,0,0,1,5.9-1.48c1.92-.41,3.81-.8,5.78-1.18s4-.84,6.17-1.44a50.09,50.09,0,0,0,6.85-2.8H338c1.84-.64,4.74-1.69,7.06-2.64s4.12-1.7,3.93-1.3a5.47,5.47,0,0,1,2.48-1.33l.27.32c1.42-.73,2.85-1.42,4.26-2.18l4.16-2.37c3.4-1.47,3.31-1,3.59-.73s.38.22,1.2,0a24,24,0,0,0,4.6-2.08c3.49-2.07,9.53-6.49,8.07-6-1.44.76-3.76,1.77-4.06,1.48l3.12-1.93c0-1.34,1.84-3.68-6.35-.15L365.26,470l-2.05.36c1.57-.73,3.08-1.59,4.6-2.43a16.61,16.61,0,0,0-3.42,1.61c-.95.56-1.75,1.16-2.63,1.76a6.59,6.59,0,0,0-2.6.56l-5,3.63c-.43-.06.11-.53.26-.83s0-.36-2,.3c-2.42,1.58,2.93-.12-1.29,2-2.95.66-2.31-.08-5.34,1.69-.56-.09,0-.55,1.26-1.21a52.05,52.05,0,0,1-4.93,2.34,17.43,17.43,0,0,0-3.9,1.92,39.19,39.19,0,0,0-6.07,1.88c-2.08.68-3.8,1.09-3.82.53a52.81,52.81,0,0,1-7.66,3.3c2.3-1.42-.23-.57-3.28.11s-6.56,1.58-6.06.72a14.8,14.8,0,0,1-3.64,1.48c-1.52.42-3.3.83-5.18,1.24l-5.75,1.23c-1.93.33-3.79.69-5.45,1.11a5.54,5.54,0,0,1,1.67-.48,70.91,70.91,0,0,1-7.4.42c-.36,1-6.27,1.83-9.44,2.75-4.75-.47,2.75-1.42,1.2-2.18.15.37-1.85.8-3.7,1.13s-3.54.52-2.72.81c-3.62-.4-3.11-.13-5-.84-.58,1.23-3.32.44-6.28,1.14-5.2-.6-1.34-1.15-7-.77C249.92,494.93,255,494.48,255,494.48ZM126.13,458.55h0l2.38,1.49Zm-9.5-6.39c1.13.83,2.52,1.87,4,2.9.21.41-.32.42-1.24-.28C120,455,117.9,453.32,116.63,452.16Zm18,17.23c-1.65-.84-2.12-1.27-2.27-1.52l2.84,1.54a1.85,1.85,0,0,0,.23,0A1.94,1.94,0,0,1,134.64,469.39Z"/><path class="cls-2" d="M138,470.25l.69.31-.88-.67-.67-.13Z"/><path class="cls-2" d="M498.25,280.69l0-.24a2.85,2.85,0,0,1-.14.5A1.83,1.83,0,0,1,498.25,280.69Z"/><polygon class="cls-2" points="27.17 325.91 27 325.97 27.44 326.88 27.17 325.91"/><path class="cls-2" d="M481.36,341.72a2.9,2.9,0,0,0-.48.71A3.56,3.56,0,0,0,481.36,341.72Z"/><path class="cls-2" d="M470.08,366.54l-2,3.3C469,368.43,469.6,367.38,470.08,366.54Z"/><path class="cls-2" d="M459.4,384.55a.84.84,0,0,0,0,.5l0,0Z"/><path class="cls-2" d="M419.73,80.75c-.2-.19-.41-.38-.6-.54C417.66,79,418.65,79.84,419.73,80.75Z"/><path class="cls-2" d="M477.61,160.26c-.53-.92-1-1.83-1.54-2.81C476.71,159.1,477.22,160.37,477.61,160.26Z"/><path class="cls-2" d="M324.74,27.21h0L324.1,27Z"/><path class="cls-2" d="M474.09,153.29a29.59,29.59,0,0,0,2,4.16C475.49,156.12,474.81,154.56,474.09,153.29Z"/><path class="cls-2" d="M397.62,450.14l-.81.58s0,.1,0,.16Z"/><path class="cls-2" d="M396.77,450.88l-.87.7A3.79,3.79,0,0,0,396.77,450.88Z"/><path class="cls-2" d="M394.05,453.05l1.85-1.47A8.52,8.52,0,0,0,394.05,453.05Z"/><path class="cls-2" d="M419.2,432.81l.06-.41A.43.43,0,0,0,419.2,432.81Z"/><path class="cls-2" d="M425.27,427c-1.44,1.4-4,3.06-6,5.1l-.05.32C419.94,431.22,424.24,428.66,425.27,427Z"/><path class="cls-2" d="M450.87,402.43c-1.47,1.86-3.05,3.65-4.57,5.49,1-.81,2.3-1.88.32.71C452.86,402.06,445,409.74,450.87,402.43Z"/><path class="cls-2" d="M463.68,384.33c-2,3.3.36.17.38.42a8.77,8.77,0,0,0,.85-1.92C464.87,382.7,464.57,383.19,463.68,384.33Z"/><path class="cls-2" d="M498.79,230.77l.67.32C499.08,228.14,499.21,231.09,498.79,230.77Z"/><path class="cls-2" d="M490.53,201.3c.11.95.22,1.9.26,2.86l.84,1.2C491.3,204,491,202.64,490.53,201.3Z"/><polygon class="cls-2" points="490.14 182.72 490.61 183.94 488.93 179.25 490.14 182.72"/><path class="cls-2" d="M296,14.16l.75.93C298.77,15.34,299.35,14.52,296,14.16Z"/><path class="cls-2" d="M180.92,23.49a15.31,15.31,0,0,0-6.29,1.88c1.24-.42,2.5-.78,3.61-1.1S180.31,23.75,180.92,23.49Z"/><path class="cls-2" d="M13.89,297.6l-.61-2.28c.3,1.45.55,2.91.94,4.34C14.11,299,14,298.29,13.89,297.6Z"/><path class="cls-2" d="M291.63,407c-.67.81.12.84,2.18-1,.32-.64.65-1.25.94-1.91C293.74,405.06,292.67,406,291.63,407Z"/><path class="cls-2" d="M305.77,394.6a25.59,25.59,0,0,0,2-4.16c.32-1.1.23-1.64-.66-1a19.25,19.25,0,0,1-1.53,3.36c-.48.94-1,1.86-1.75,3.53-1.69,2.25-3.4,3.52-3.29,3a14.48,14.48,0,0,1-1.83,2,14.68,14.68,0,0,0-2,2.38,29.7,29.7,0,0,0,8.81-9.64C306.19,393.36,305.78,394.31,305.77,394.6Z"/><path class="cls-2" d="M258.7,334.42c.09-.58.14-1.16.2-1.75C258.82,333.15,258.78,333.75,258.7,334.42Z"/><path class="cls-2" d="M228.28,407.13a6.71,6.71,0,0,0-1.21-1.58C227.78,406.59,228.38,407.42,228.28,407.13Z"/><path class="cls-2" d="M249.77,427.74l-1.41-1A7.4,7.4,0,0,0,249.77,427.74Z"/><path class="cls-2" d="M258.7,334.42c-.24,1.5-.39,3-.69,4.47.11.17.26-.39.36-1.28S258.58,335.52,258.7,334.42Z"/><path class="cls-2" d="M318.5,359.62c-.11.93-.19,1.7-.21,2.42.11-.76.21-1.49.32-2.25A.83.83,0,0,1,318.5,359.62Z"/><path class="cls-2" d="M282.67,317.69c.23.41.49.82.71,1.25a10.59,10.59,0,0,0,.81.93l-.72-1.12Z"/><path class="cls-2" d="M294.25,338.09a3.16,3.16,0,0,0-.06,2.41,10.43,10.43,0,0,1,.74-2.73C294.82,337.7,294.6,337.78,294.25,338.09Z"/><path class="cls-2" d="M322.15,347l.13,1.64C322.25,348.21,322.19,347.49,322.15,347Z"/><path class="cls-2" d="M253.76,299.7a.93.93,0,0,0-.07.66C253.8,300.4,253.8,300.12,253.76,299.7Z"/><path class="cls-2" d="M174.74,408.08c-.06,0,0,.07-.08.09C175,408.34,175.07,408.38,174.74,408.08Z"/><path class="cls-2" d="M225.59,451.56l-.78-.5a.76.76,0,0,0-.39.2Z"/><path class="cls-2" d="M293.73,437.78l-.21.1C292.31,438.62,293,438.23,293.73,437.78Z"/><path class="cls-2" d="M307.41,105.57c1.63-2.38.69-.23,0,1.61s-1.25,3.33,1-.29c-.28.3.31-1.58.67-2.71S309.31,102.52,307.41,105.57Z"/><path class="cls-2" d="M318.78,358.19c.09-.75.18-1.52.28-2.29C318.92,356.94,318.82,357.64,318.78,358.19Z"/><path class="cls-2" d="M308.42,106.89h0l.46-.74C308.7,106.46,308.59,106.63,308.42,106.89Z"/><path class="cls-2" d="M385.13,355.21a6,6,0,0,0-.86,1C384.35,356.21,384.56,356,385.13,355.21Z"/><path class="cls-2" d="M320.31,420.59l2-1.17C321.48,419.87,320.86,420.26,320.31,420.59Z"/><path class="cls-2" d="M396.17,308.13a17.39,17.39,0,0,0,.21-3.38,4.62,4.62,0,0,0-.1.51A9.81,9.81,0,0,1,396.17,308.13Z"/><path class="cls-2" d="M391.79,258.33c0,.27,0,.62,0,.93.11.48.24,1,.35,1.54Z"/><path class="cls-2" d="M126.79,277a15.13,15.13,0,0,1-1.14,2.05C126.32,278.46,124.92,285.48,126.79,277Z"/><path class="cls-2" d="M318.89,359.66a3,3,0,0,1-.11-1.47c-.06.55-.12,1.08-.17,1.6C318.68,359.94,318.79,360,318.89,359.66Z"/><path class="cls-2" d="M390.75,305.86c.07-2.56.24-5.12.19-7.7C391,300.32,390.8,303.12,390.75,305.86Z"/><path class="cls-2" d="M222.71,106.14l.29,1.79A9.28,9.28,0,0,0,222.71,106.14Z"/><path class="cls-2" d="M389.07,275.29a28.6,28.6,0,0,0-.15-4.4,6.66,6.66,0,0,0-.32-.86C388.79,271.78,389,273.53,389.07,275.29Z"/><path class="cls-2" d="M125.64,279.09h0Z"/><path class="cls-2" d="M125.93,329.27c-1.29-7.11-1.49-3.2-2.29-4.63-.1-.54-.21-1-.28-1.46s-.1-.84-.14-1.2c-.07-.71-.12-1.25-.13-1.67,0-.84,0-1.18.15-1.33.23-.32.63.07.7-1.41-.35-2.68-.67-5.07-1-7.29a58.93,58.93,0,0,1-.36-6.35c.17-.29.28-1.08.41-.15-.09-1.44-.06-3.24,0-5.23s.4-4.15.61-6.35.67-4.41.92-6.51.63-4.06.74-5.78a3.35,3.35,0,0,1,.41-.82c-.68,1-1.18,1-1.45.75.3-1.65.59-3.18.83-4.45a6.84,6.84,0,0,1,1-2.8,9.42,9.42,0,0,0-.39,3.18l.62-3.45c1.62-2.82-.9,4.7-.28,4.85,1.26-6.67,3.11-14.46,5.11-19.31,1.08-.76-3.68,11.65-.74,5.3-1,2.49-1.81,5-2.71,7.59,3.06-5.51-1.49,4.65,1.51-.36,1.57-5,2.51-7.81,3.34-10.65a99.46,99.46,0,0,1,4-10.45c.48-2.38-.94.47-.47-1.93,2.6-7.1,4.43-9.55,5.92-11.56a33.8,33.8,0,0,0,2.21-3.14c.23-.21.24-.3.47-1.35a19.81,19.81,0,0,1,.7-3.44c.13-.53.18-.28.26-.19a4.25,4.25,0,0,1,.24.65c.08.29.16.68.25,1.13s.18,1,.28,1.67a1.21,1.21,0,0,0-.53-.13c-.17,0-.29.14-.41.28a5,5,0,0,0,.13.54q.09.3.18.54a6,6,0,0,0,.36.79c.12.24.23.38.37.63l.57,1.11c.77,1.41,1.32,2.94,2.89,8.23A31.83,31.83,0,0,1,148,238.8c-.53-1.54-.9-2.67-.71-1.89.67,3.55,1.31,4.69,1.86,5.62a19.42,19.42,0,0,1,2.13,4.18l-.37,1.37c1,2.62,2.29,5.23,3.52,7.89s2.67,5.31,4.21,7.92,3.09,5.25,4.69,7.89,3.36,5.19,5.16,7.72c-.59-.43-2-2.05-.59.51.43.61.86,1.23,1.3,1.84l1.36,1.83c.93,1.21,1.81,2.48,2.78,3.69l2.89,3.68c.49.62,1,1.21,1.51,1.83.84,1,1.67,2,2.52,3,1.69,2,3.38,3.71,5.09,5.56s3.42,3.68,5.25,5.58l2.73,2.87,1.37,1.44.35.37a1.85,1.85,0,0,0,.26.26l.16.11.34.25.18.14.58.53,1.17,1.1.6.57,1.11,1.08-4.74-11.5-2.05-5c-.33-1.09-.66-2.19-1-3.27l-.5-1.65a6.63,6.63,0,0,1-.21-.78l-.08-.65c-.1-.87-.21-1.74-.31-2.6-.05-.44-.12-.88-.15-1.3,0-.2,0-.43,0-.68v-1.6c-.12-.87-.23-1.76-.32-2.66s-.16-1.79-.16-2.7c.15-1.26.58-2.27.58-.91,1.05-5.39-.44-.35-.33-3,.53-3.14,1.29-4,1-2a60,60,0,0,1,1.93-8.47,86.77,86.77,0,0,1,3.7-9.82,172.29,172.29,0,0,1,9.39-17.81l-.78,2c4.17-7.42,3-9.22,6.66-16.22l-.47,1.45,1.4-3.2c.49-1.07.82-2.2,1.24-3.3.77-2.23,1.56-4.47,2.34-6.71,1.25-4.57,2.67-9.1,3.55-13.61.25-1.12.49-2.23.74-3.33.12-.55.25-1.1.37-1.64s.19-1.1.29-1.64c.4-2.18.78-4.3,1.16-6.36.1-.52.2-1,.29-1.53s.15-1,.23-1.51c.16-1,.31-2,.46-2.94.31-1.93.65-3.76,1-5.5-.45-1.39.05-5.93.36-10.3s.37-8.56-.37-9.16c.35-5.24.59-7.12.8-9.54.07-1.21.12-2.55.16-4.52s.11-4.57,0-8.27c-.2-3.95-1.23-5.82-1.84-10.66l.76-.18c-.46-2.18-.9-4.36-1.39-6.52l.54-3.6-.68-4.53c.15,1.82.07,3.89-.18,3.64-1.07-7.06-1.56-17.32-1.21-17.55-.93-5.4-2-10.78-3-16.15l-5,1.73.24.38a.89.89,0,0,1-.34-.32l5.18-1.81c.33.78.76,3,1.2,4.85-.85-3.56-.92-4.51-.82-4.91l-5.89,2.06c.11.64-.54.31,2.27,4.33-.4-1.05.69.28.92.37,1.64,3.78,6.27,11.86,9.78,17.78l-1.11-.9c5.95,10.91,12.86,22.81,18.92,35.32-2-4.57-.65-4,1.23-.34l0,1.83c1.58,2.17-1.55-4,1.32.64,2.14,4.75.65,3.55-.86,1l3,5.59c-.06.44-.81-.85-1.25-1.07.8,1.06,1.71,3.63,2.72,6.31a37.36,37.36,0,0,0,3.22,7l-.09.42c1.28,3.21,2.46,6,3.45,8.47s1.83,4.8,2.67,7,1.56,4.35,2.34,6.6c.39,1.13.78,2.29,1.18,3.5.21.6.41,1.22.62,1.85l.56,2c.74,0,1.77,4.3,3.23,7.39,1.7,8.12,3.24,17.18,4.36,27,.22,1.38.4,2.47.54,3.32s.23,1.6.3,2.09c.15.94.24,1.08.32,1s.13-.32.22-.27.22.37.42,1.31c-.25.75,0,4.75.22,7.87s.35,5.29-.24,1.81c.26,2.3.49,4.4.72,6.35a1.39,1.39,0,0,0,0,.15l.1-.17.18-.34.38-.67.72-1.3c.47-.85.93-1.68,1.37-2.49l2.45-4.5,1.14-2.15c.19-.36.39-.7.57-1.09s.37-.79.55-1.2c.73-1.59,1.48-3.22,2.26-5,.4-.86.76-1.81,1.11-2.76.21-.6.43-1.21.66-1.85.9-2.57,1.81-5.59,2.8-9.36-.75,1.55-1.41,3.32-1.33,2.32.76-2.71,2-6.08,2.22-5.62l-.13.74c3.76-17,8.65-39.21,9.34-52.79l0,.76c.44-4.69,1-9.35,1.61-14,1.37-6.31-.29,3.88,1-.72a89.37,89.37,0,0,1,4.28-18.56c1.82-5.28,3.84-10.09,6.32-15.69.38-.47.77-1,1.17-1.57s.87-1.17,1.32-1.82l1.4-2.06c.52-.7,1-1.44,1.58-2.21A71,71,0,0,1,325,92.17c1.52-1.52,3.13-3,4.79-4.36a60,60,0,0,1,5.14-3.72,40.07,40.07,0,0,1,9.93-4.66l-.82-.13c2.83-1.59,3.72-1.15,6-1.69-.41-.28-3.42.64-1.6-.2a40.63,40.63,0,0,1,20.26-1.62c.84.16,1.68.35,2.51.56l1.24.36a1.47,1.47,0,0,1,.25.08l.18.06c.24.09.47.19.69.29l.16.08s0,0,0,0l0,.07-.08.12-.29.5-.57,1-.14.24,0,.06-.07.16-.16.33-.63,1.3c-.84,1.74-1.72,3.46-2.43,5.26-6.09,14.23-8.94,29.77-9.39,44.9,0,1.39,0,2.53,0,3.49s.17,1.72.27,2.39a32.2,32.2,0,0,0,.76,3.13,20.53,20.53,0,0,1,.69,3.65c.09.83.13,1.83.2,3s.12,2.65.13,4.38l-1.16-3.84a354.62,354.62,0,0,0,14.19,65,13,13,0,0,1-1.33-3.16c.63,4.52,4.47,16.08,4.94,16,.83,3.22-.22.86.09,2.9.85,4.44,3.68,10.73,3.68,13.2,0,.42-.49-1.18-.75-2,.51,1.38,1.33,4.69,2,7.3s1.2,4.52,1.21,3.07c1.5,7.81,3.5,14.8,4.06,21.12a40.74,40.74,0,0,1,1.39,8.37c.29,3,.54,5.68,1.12,6.29-.61-.23-.47,3.23-.34,7.37s.34,9,.52,11.46c-.15-.83-.26.25-.39,1.29s-.34,2-.52,1.05c-.14,2.82-.27,5.52-.36,7.39s0,2.94.37,2.49c-.34,1.27-.65,2.54-.9,3.81-.12.64-.23,1.27-.35,1.9s-.25,1.26-.38,1.88c-.22,1.24-.43,2.48-.64,3.68s-.47,2.38-.69,3.52-.47,2.24-.75,3.29-.56,2.05-.86,3a18.48,18.48,0,0,1-2.31,4.67c-5.41,15.79-14.07,29.18-24.12,40.62-.12-.3.54-1.21,1.52-2.46s2.33-2.82,3.57-4.42c2.53-3.15,4.74-6.36,4.08-6.43a170.69,170.69,0,0,1-11.12,14.8,106.6,106.6,0,0,1-13.19,13c-2.91,2.31,1.29-1.74,2.09-2.72A153.53,153.53,0,0,1,330.41,408c-5.52,4-11,7.64-16.36,11.32a13.68,13.68,0,0,1,2.16-1.73c-2.13,1.41-5.12,3-4.61,3.27l2-1.41c1.93-.76,0,.91-2.5,2.82s-5.5,4-5.61,4.31c1.52-1.72-1.31-.2-3.88,1.12s-4.92,2.39-2.37-.11c-1.42.91-3.14,2.16-2.64,2.27-2.24,1.12-3,1.32-1-.24-7.9,4.65-4.78,3.57-12.12,7.49-.09-.24,1.34-1.11,2-1.77-1.75,1.2-3.5,2.41-5.61,3.69-1.05.64-2.2,1.31-3.48,2l-2,1.07-.78.39-.69.32c.2-.27-.2-.28.77-.78-.69.37-1.36.75-2.06,1.16l-.13.07s0-.06-.05-.09l-.09-.23-.18-.44a5.9,5.9,0,0,0-.45-.91l-.41-.78a6.55,6.55,0,0,0-.56-.93l-1.21-1.78a33.56,33.56,0,0,0-2.8-3.13c-1-1-2.05-1.88-3.1-2.81s-2.22-1.75-3.41-2.58c-2.35-1.71-4.89-3.41-7.62-5.31,3.88,1.23-3.62-2.75-3.65-3.91-2-1.22-3.95-2.47-5.81-3.81.61.7,1.3,1.35,2,2a73.35,73.35,0,0,1-6.78-5.31,33.43,33.43,0,0,1-2.82-2.9,23.83,23.83,0,0,1-2.35-3.17l1.48,1.7,1.58,1.6a49.77,49.77,0,0,1-6.46-9.25c.48,1,.93,1.94,1.43,2.89s1,1.89,1.6,2.8c-1.89-2.44-2-2.17-2.26-2.13s-.54-.15-2.34-3.87c.42.73-.29-.65-1.13-2.64a30.73,30.73,0,0,1-1.9-6.26v0a34.43,34.43,0,0,1-2.87-10.37c.11-1.22,1.17.77,1.25,0-.66-1.4-1.19-5-1.44-8.65s-.17-7.51-.51-9.44c.13,1.28.64,1.37.75.95-.2-.85-.33-1.7-.49-2.56.4-2.85.59-3.25.92-2.75.48-4.26.17-3.62-.15-3.17-.15.23-.29.4-.27-.11a29.71,29.71,0,0,1,.67-4.24c-.07.81.08.44-.07,2.11.85-5.07,1.71-10,2.7-14.76.26-1.2.51-2.39.77-3.57.21-.9.41-1.79.62-2.68.42-1.71.89-3.42,1.36-4.84.2.17.2.7.13,1.25a18,18,0,0,1-.35,1.78,14.57,14.57,0,0,0-.3,1.55c0,.39,0,.53.25.46.26-1.13.51-2.27.77-3.42.15-.67.29-1.34.44-2s.12-.1.16.08l.13.71c.11.5.26,1,.39,1.6l.55,1.78c.24.63.43,1.24.74,2l.46,1.14.24.61.36.82a82.83,82.83,0,0,0,6.68,12.44c-.43-.73-.9-1.43-1.29-2.18a5.33,5.33,0,0,1,1.74,1.82l2.2,3.47a32.94,32.94,0,0,0,6.68,7.88c-1.25-1.11-2.08-1-1.65-.82l1.23,1.27a5.27,5.27,0,0,0,.39.36l.44.39.9.8,1.84,1.59,2,1.6,1,.8.51.39c.05.07.06,0,.08-.06l.06-.15.11-.31c.31-.83.61-1.67.93-2.52.6-1.67,1.28-3.45,1.73-5.12a95.44,95.44,0,0,0,3.42-17.91l.11,1.76a67.37,67.37,0,0,0,1.14-9.9c.23-3.65.1-7.36,0-10.31-.43-1.74-.74-5.08-1-3a53.7,53.7,0,0,0-1.19-12l-.66-2.86c-.16-.66-.33-1.12-.5-1.71-.33-1.12-.8-2.25-1.27-3.5l-.12-.29c0-.08.05,0,.07,0l.12,0,.47.16,1,.32,1,.33,1,.47c.7.35,1.39.61,2.17,1.07l2.75,1.76.69.45.63.51,1.26,1a20.61,20.61,0,0,1,2.39,2.18c.74.78,1.47,1.58,2.18,2.37s1.26,1.74,1.86,2.61c-.59-.7-1.36-1.49-1.85-2s-.77-.58-.26-.07a56.1,56.1,0,0,1,7.79,10.49c0-1.17-.53-1.67-1.6-4.3a25.12,25.12,0,0,1,2.3,3.05c.22.33.45.66.67,1s.39.74.58,1.12c.4.76.78,1.54,1.13,2.29-1.46-2.67-1.66-2.54-1.4-1.46.13.54.38,1.32.64,2.11s.41,1.66.58,2.28c0-.47.5.29.59,0,.37,1.72.64,2.61.81,3.17a2.33,2.33,0,0,0,.65,1c.42.5,1.26,1.29,1.67,6.1l-.39-.46.3,1.3c.08.43.13.87.2,1.3.11.82.27,1.83.38,2.75a7.37,7.37,0,0,1,.1,1.42v1.43c0,1,0,1.92-.11,3.06-.34,1-.53,1.38-.57,1.18a10.88,10.88,0,0,1,0-1.49c0-1.42.12-3.29-.16-3.21-.17,1.89-.27,3.66-.27,5.13a3.45,3.45,0,0,1,0,.61l-.07.63-.11,1.15c-.05.71-.08,1.33-.09,1.87a.47.47,0,0,1,.29.14,1.18,1.18,0,0,1,0,.46A11.65,11.65,0,0,1,286,355l-.17.87-.1.48c.06-.05.19-.24.28-.34a12.15,12.15,0,0,1,1.14-1.25c-.41.63-.86,1.3-1.33,2l-.35.52s-.08.12-.07.09v-.08l0-.16.08-.65c.05-.42.09-.83.11-1.16,0-.17,0-.32,0-.44s-.19-.06-.29-.05q0,.3,0,.54a1.57,1.57,0,0,1-.05.51c-.08.36-.16.7-.23,1-.14.61-.23,1.09-.3,1.48s-.11.7-.14,1l0,.35V360l0-.05c.91-1.16,1.86-2.43,3.26-4.3l-.27.36c1-1.43,2.15-2.81,3.21-4.37l1.64-2.31c.54-.84,1.09-1.75,1.65-2.63-.59.85-1.15,1.71-1.7,2.47.51-1.2,1-2.4,1.52-3.61.24-.52.47-1.05.7-1.57l.66-1.53,2.29-5.28a47.79,47.79,0,0,0,3.62-12c-1.49,8.95.19,1.61.73,2.48.46-1.12,1-2.55,1.31-3.58s.65-1.63.62-1.1a55.36,55.36,0,0,1,1.11-6.09,25.32,25.32,0,0,0,.53-3.35c.06-.59.11-1.32.12-1.9,0-.3-.08-.71-.15-1.2.12,0,.18-.6.26-1.05s.16-.67.43,0c-.05-1.27-.15-1.46-.27-1.22s-.27.89-.4.56c-.11-1.22-.13-2.57-.16-3.82v-.68c0-.07,0,0,.05,0l.07.1.62.84c.41.58.82,1.17,1.19,1.78.77,1.21,1.4,2.41,2,3.5l.23.47.4.75.82,1.53c.51,1,1,2.09,1.58,3.15s1,2.16,1.55,3.24,1,2.22,1.56,3.33c2,4.92,2.95,8,3.93,10.9a54.59,54.59,0,0,1,2.18,10.91c-.14,1.71-.37,1-.59-.08s-.5-2.61-.5-2.61c.08,5.42.09,9.46-.15,14.57-.08-1.05-.4,0-.87,1.48a22.67,22.67,0,0,0-.13,3.58,12.43,12.43,0,0,1-.84,4.47,36.5,36.5,0,0,1-.1-4.17,74.2,74.2,0,0,1-3.18,14.11c-.44.54-.31-.22,0-1.32s.62-2.58.78-3.44a86.37,86.37,0,0,1-3.18,8.93c-.57,1.45-1.2,2.75-1.62,3.85a12.79,12.79,0,0,0-.85,2.36c.67-1,1.34-2,2-3-.92,1.84-1,.66-.42-.73,1.7-4.48,3.08-6.16,3.42-6.33l-.59,1.68-.66,1.65a7.87,7.87,0,0,0,1.06-1.37,17,17,0,0,0,1-2,37.21,37.21,0,0,0,1.76-5.29c1-3.93,1.57-8.36,2.12-11.89.24,1,.35,2.07.53,3.13.08-1.24.17-2.48.16-3.73s.06-2.48,0-3.71c.39-1.53,1.06-2.6.93,1a17.13,17.13,0,0,0,.38-4.81,25.33,25.33,0,0,1,.14-4.28c.08-.5.13-.27.19.19-.12-1.71-.35-3.4-.59-5.09.29,1,.67-.91.75,2.25A41.58,41.58,0,0,0,320.77,333c-.4-1.44-.76-2.71-1.07-3.82a13.88,13.88,0,0,1-.57-3l.27.72a37.55,37.55,0,0,0-2.06-5.35c-.4-.77-.53-.78-.63-.69s-.19.27-.51-.1a28.31,28.31,0,0,1-2-3.35l-.21-1.65-.29-1.63c-.21-1.09-.37-2.21-.65-3.3l-1.28-.72c-.59-1.22-2.22-3.77-1.77-3.63-1.68-2.15-1.49-1.71-1.25-1.2s.62,1.25-.23.36a44.89,44.89,0,0,0-2.53-3.93c-.49-.65-1-1.32-1.52-2-.25-.32-.52-.69-.76-1l-.08.94c.08,2.65,0,5.19-.1,7.1s-.46,3.26-.86,3.71c.09.74.19.61.31.23s.2-1.07.28-1.58.14-.83.18-.57a25,25,0,0,1,0,2.89c-.78.87-.88,2.78-1.17,5.16-.1,1.2-.27,2.51-.52,3.87a21.65,21.65,0,0,1-1.1,4.08c-.18-1.86,1.31-7-.54-1.62.16,1.79-.63,4.46-1.74,7.17l-.86,2c-.31.67-.62,1.33-.92,2-.58,1.31-1.18,2.53-1.62,3.64.18.14.06.83-.35,1.86-.11.25-.23.53-.35.83l-.34.75A17.69,17.69,0,0,1,293,343c-.34.62-.69,1.29-1.08,2L290.68,347c-.9,1.4-1.83,2.87-2.91,4.45.07-.17,0-.19-.09-.11l-.23.21-.16.16a3.11,3.11,0,0,1,.09-.39c.14-.58.32-1.28.51-2.07a17.24,17.24,0,0,0,.5-2.42c.13-1,.32-2,.4-3s.1-2,.15-2.91-.09-2.16-.13-3.15a14.8,14.8,0,0,0-.2-1.84c-.08-.59-.15-1.14-.22-1.66l.19.2a6.41,6.41,0,0,1-.88-2.08c-.39-1-.8-2.24-1.22-3.62a19.36,19.36,0,0,0-.76-2.12q-.42-1.08-.84-2.19c-.15-.36-.28-.74-.44-1.09l-.51-1.05c-.35-.69-.69-1.36-1-2,.29,0,.6.19,1,.74a12.23,12.23,0,0,1,.75,1.11,12.69,12.69,0,0,1,.95,1.77,22.59,22.59,0,0,0-1.1-2.52l-1.17-2.49a24.31,24.31,0,0,1-1.52-1.95c-.61-.84-1.25-2-2.35-3.37l1.36.75-1.62-2.24A22.57,22.57,0,0,0,277.5,310a50.07,50.07,0,0,0-4-4.13l-2.21-2-2.45-1.95c-.41-.33-.82-.68-1.25-1l-1.37-.94c-.45-.33-.92-.65-1.38-1l-.71-.51a5.43,5.43,0,0,0-.94-.58c-.23.09.24.46.6,1a11.27,11.27,0,0,1,.9,1.36c.17.36.1.56-.52.35a8.62,8.62,0,0,1-1.37-.62c-.6-.24-1.34-.55-2.24-1-.3-.57-.91-1.51,1.64-.34l-1.94-.85c-.8-.37-1.65-.82-2.55-1.21l.89.2.91.31,2,.7c-4.56-2.57-2.16-.63-5.57-2.09-.4-.7-3.07-1.62-3.1-2.05.47.17,1.4.59,2.34,1a17.66,17.66,0,0,0,2.59,1l-2.88-1.24-1.49-.66-.75-.33c-.17-.1-.13,0-.2,0l-.13.08a45,45,0,0,1,1.47,6.28c.21-.3.86.48,2,3.93a8.2,8.2,0,0,1,.22.8l.13.54.2.92c.11.54.18.94.22,1.25a1.86,1.86,0,0,1,0,1c-.13.27-.37.19-.12,2.2.71,1.58.93,6,1.68,6.05a7.75,7.75,0,0,1-.22,3.24,69.11,69.11,0,0,1,.62,9.24c0,3.24,0,5.55.49,3.54l.09-.93c0,.17,0,.38,0,.59v0a66,66,0,0,1-2.45,18.12c-.4,1.49-.88,3-1.31,4.44-.46,1.31-.92,2.61-1.37,3.91l-.62,1.55-.3.76-.14.39,0,.09s0,0-.07,0l-.16-.13c-.86-.69-1.7-1.33-2.58-2.09l.12-.23-.75-.61c-.26-.21-.64-.59-1-.88-.65-.64-1.36-1.24-2-1.94s-1.3-1.35-1.91-2.05l-1.8-2.11c-2.3-2.84-4.19-5.67-5.68-7.72a19.08,19.08,0,0,1-1.24-2.88c-.25-.84-.27-1.36,0-1-.6-1.19-1.12-2.09-1.49-2.94-.2-.43-.38-.82-.57-1.21l-.26-.59-.14-.3-.14-.39c-.38-1.07-.79-2.13-1.23-3.7l-.67-2.92c-.06-.28-.12-.57-.19-.87l-.09-.46-.09-.56c-.12-.77-.24-1.58-.37-2.44l.53,2.16a2.91,2.91,0,0,0,.27.77c.1.19.06-.13,0-.33s0-.28.11.42c.08.35.2.89.39,1.71.09.4.2.87.33,1.42.06.28.13.57.2.89s.18.54.28.84a21.25,21.25,0,0,1-.63-2.53l-.51-2.46c-.08-.4-.16-.75-.24-1.17s-.13-.9-.19-1.34c-.13-.89-.25-1.74-.37-2.57-.49-3.24-.93-6.7-1.44-9.81-.2.25-.42.58-.65.92l-.09.13s0,0,0,0l0,.15-.07.3c-.09.39-.18.8-.27,1.22-.19.84-.38,1.73-.59,2.67.21-1.39.21-1.86,0-1.59a17.14,17.14,0,0,0-.95,2.63c-.85,2.76-2,7-2.58,9.6.74-2.23,1.45-4.24,2.11-6.1-1.33,5.05-2.49,9.46-3.66,13.95l-.1-.49a6.74,6.74,0,0,1,0-.68l0-1.53-1,3.32c-.23.86-.47,1.71-.67,2.56-.41,1.7-.75,3.37-1,5-.56,3.3-.95,6.49-1.2,9.58-.53,6.2-.64,11.92-1.42,17.58.37,2,.36-.07.51-2.12s.36-4.15.62-2.41c-.15,3.37-.42,6.84-.46,9.77a41.2,41.2,0,0,0,.14,6.34,26.48,26.48,0,0,0,2.37,8.87c.5,1,.94,2.08,1.55,3.42.3.68.61,1.43.94,2.31s.79,1.85,1.23,3c-.11-.64-.1-1.31.33-1s1.24,1.62,3.08,4.71c.76,1.5,1.43,2.68,1.88,3.61a12,12,0,0,1,.8,2c.08.38-.06.49-.38.28a6,6,0,0,1-1.48-1.61c-.91-1.38-1.26-2.1-1.13-2.1-.59-.94-1.26-2-1.66-2.58s-.54-.54,0,.74l.69.64c.18.39.41.86.67,1.39s.61,1.07.95,1.65c.65,1.18,1.48,2.37,2.2,3.42,1.47,2.09,2.64,3.53,1.7,2.84a16,16,0,0,0,1.85,1.75c.32.24.36.2.19,0a14.2,14.2,0,0,0-1-1.27L231.06,412c.68.89,1.29,1.76,2,2.51s1.32,1.47,2,2.15a50.21,50.21,0,0,0,4.06,3.56c2.76,2.15,5.68,4.06,9.3,6.57-1.09-.9-2-1.89-.81-1.13,5.32,3.66,6.52,4.32,7.36,4.67s1.36.27,4.75,2.88c1.72,1.72,1.17,1.66,1.1,1.8s0,.21.47.66l1,.95,1.74,1.74c1.39,2.08,1.37,2.38.86,2s-1.47-1.42-2.26-2a17,17,0,0,1,3.17,4.05,7.12,7.12,0,0,1,.52,1.08l.45,1c.13.37.25.76.37,1.13l1.4,4.23c.07,1.13.87.29,1.41.13l1.74-.82,3.37-1.59,1.54-.72.91-.41c.59-.27,1.14-.53,1.65-.79l-1.82,1.09-.45.27-.61.35-1.67.94,4-2.21,2.83-1.5-2.42.6c2.25-1.06,4.11-2,4.19-1.8,2.08-1.54-2.19,0,2-2.8,3.07-1.28,8.74-5,10.12-4.92-9.3,4.74,1.39.16-6.32,4.46,1.46-.88,3.28-1.87,5.53-3,.37-.1-.23.32-.81.68,4.56-2.09,5.46-2.84,6.35-3.7s1.79-1.78,6.28-4.37c-.91,1,2.51-.47,3.92-1.43-3.61,2.13-2.09.38,1-1.87,5.87-3.14,6-4,9-5.82l-3.45,2c.9-1.09,3.75-2.8,7.53-5.48.53.07-3.38,2.51-1.92,1.73,3.86-3.46,10.14-5.82,15.55-10.63,2.82-1.81.77.47,3.21-1.18a71.36,71.36,0,0,1,6.59-5.39c.9-.68,1.83-1.35,2.89-2.25s2.26-2,3.75-3.57c-1.11.62-1.72,1-1.55.71s1.13-1.32,3.07-3.63c-3.21,3.39-6.63,6.57-10.07,9.72,2.08-2.17,4.15-4.34,6.14-6.59l-4.61,4.35a44.14,44.14,0,0,1-3.82,3.34,22.84,22.84,0,0,0,2.25-2.4c.07-.18-.44.17-1.38.61,5-3,8.24-7.86,13.3-12.15l.92,1.18a71.34,71.34,0,0,0,9.56-10.72c2.89-3.92,5.85-8.22,9.56-13.63-.8,1.16-1.7,2.25-2.55,3.36.54-1.74,4.4-6.76,6.21-10.61.12.29.55-.11,1.09-.78l1.69-2.36c-.22,0,.93-2.1,1.91-4.49s1.91-5,1.69-5.73c1-1.7,1.77-3.5,2.64-5.27a48.15,48.15,0,0,0,1.82-6.28c.35-1.76.51-3.26.69-4.74s.23-3,.45-4.68.44-3.68.84-6.18c.07,3.09,1.16-1.42.45,5.38.6-3.35,1.05-6.38.74-6.47a36.92,36.92,0,0,0,.45-5.82,46.5,46.5,0,0,1,.33-6.67,19.71,19.71,0,0,1-.6-5.68c.09-.41.24,0,.24,0-.24,0-.42-5.9-.91-2.6.69-5.18.22-12.44-.71-19.43s-2.24-13.76-2.46-18.3c-1.58-7.17-3.81-15.69-5.52-22.09.25.37.24,0,.51,1.18-1.89-9-2.79-5.07-5.05-15.22-.65-5.33,1.89,5.2,1.3,1.93,1.2-1.83-3.59-12-4.53-19l.54,1.61c-.88-5.29-4-12.37-6-20.85,0,0,.24.38.25,0-2.22-5.56-4.93-16.51-6.38-24.75,1,2.47,1,3.69,1.32,2-.69-3.67-.88,1.26-2.15-6.12,0-2.46-.27-7.85.39-8.62.19,2.33.51,4.65.79,7,.44-3.67-1-9-1.05-12.72l.41.45c-.2-2.67-.36-4.69-.49-6.38s-.33-3.08-.42-4.49a61.26,61.26,0,0,1,.05-11.52l-.4,1.17a16,16,0,0,1,.37-5.81,22.66,22.66,0,0,0,.81-5.75l1.31-1.7c.12-1,.25-2.46.54-4.11s.53-3.56,1-5.53c.21-1,.44-2,.66-3s.55-2,.83-3,.56-2,.86-3,.68-1.87,1-2.75c-.21,1.06-.61,2.34-.94,3.81s-.75,3.07-1.16,4.71l-1,4.94c-.28,1.62-.5,3.15-.69,4.48.22-1,.52-2.34.84-3.84s.8-3.09,1.2-4.66.89-3,1.2-4.28.57-2.23.67-2.77c-.53,1.57-.89,3.64-1.57,5.13q.32-1.87.81-4c.37-1.42.86-2.91,1.37-4.49a24.59,24.59,0,0,1,.91-2.41l1.07-2.5.57-1.3.78-1.5c.53-1,1.07-2,1.63-3.09.21.11.55-.15,1-.77,1.12-.83-.38-1.1-1.51-1.74-.62-.31-1.36-.59-2.16-.92l-1.27-.49a5.82,5.82,0,0,0-.67-.22l-.53-.17c-.7-.21-1.43-.43-2.2-.6s-1.57-.36-2.39-.49a50.13,50.13,0,0,0-10-.61c-3.13.09-5.81.43-7.44.38a73.86,73.86,0,0,0-21.13,9.4A62.65,62.65,0,0,0,312.3,97.46c1.17-1.1,1.65-1.34,1.61-1.15a11.23,11.23,0,0,1-1,1.66c-1.05,1.62-2.44,3.78-1.49,3.74-1,1.77-1.67,3-2.14,3.8a10.49,10.49,0,0,1-.81,1.37,101.31,101.31,0,0,0-5.89,10.85c-.69,1.29-.47.35-.06-.88s1-2.74.74-2.63c-1.78,4.12-2.13,5-2.54,5.44s-.72.54-1.8,3.32c.9-1-.27,3.2-1.75,8.07.39-1.13.86-2.25,1.29-3.37s.88-2.23,1.37-3.32a83.58,83.58,0,0,1-3.27,11.13A42.38,42.38,0,0,0,294,146.84c.08-1.32.13-2.64.24-4-.47,3.18-1.49,9-2.19,14.8a96.83,96.83,0,0,0-1,14.73c-.32,1.08-.92,2.49-.67-.28-1.07,7.46-1.87,15.76-3.11,23.55-.59,3.9-1.35,7.65-2.17,11.12a69.59,69.59,0,0,1-2.93,9.26v-1.17c-.39,1.32-.62,2.5-.92,3.75a14.82,14.82,0,0,1-.62,1.93c-.13.34-.27.68-.43,1a2.14,2.14,0,0,1-.35.62c-.1-.16-.21-.47-.35-.18a7.84,7.84,0,0,1-.31,1.6,6.33,6.33,0,0,1-1,2.11,17.28,17.28,0,0,0,.5-2,6.23,6.23,0,0,0-.53.75c-.12.29-.08-.09-.11-.17A3.7,3.7,0,0,0,278,224a15.63,15.63,0,0,0-.52-1.64l-.21-.61-.38-1.88c-.26-1.31-.51-2.63-.77-4-.56-2.67-1.27-5.43-1.86-8.48.53-.08.44-3-.2-6.65-.3-1.81-.66-3.8-1-5.69s-.85-3.66-1.18-5.09l.2.15q-.85-3.13-1.69-6.06c-.59-1.93-1.27-3.78-1.89-5.59l-1.9-5.29c-.7-1.7-1.38-3.38-2.07-5s-1.39-3.31-2.08-5l-2.26-4.93c-.76-1.66-1.53-3.34-2.31-5.07l-2.52-5.25c-.37-1.19-.85-2.57-1.41-4.1s-1.31-3.17-2.08-4.94-1.61-3.66-2.52-5.61l-2.93-6c-2-4.13-4.24-8.3-6.31-12.42s-4.19-8-6-11.59c1,2.22-.94.07-2.41-2.34-1.61-3.37-5.7-8.6-4.54-8.58l.64,1.16c-.52-2.92-4.53-9.45-7.49-14.62l-1.63-.2L218,77.12,213.13,66l.6,12.6c.38,7.84,2,17.54,3.25,26.35.66,4.4,1.14,8.59,1.51,12.18a49.93,49.93,0,0,1,.14,8.68c.34,1.85.51,3.93.73,6s.46,4.15.67,6l-.71-.16c.08,5.16.2,9,.13,13.19,0,2.08.06,4.25,0,6.68s-.13,5.13-.2,8.31c-.12-.87-.28-1.74-.41-2.61,0,.89,0,1.71,0,2.46s0,1.44.07,2.08c.1,1.3.27,2.43.45,3.54s.37,2.22.48,3.46a24.41,24.41,0,0,1-.13,4.26l-1.28,1.86c-1.51,12.46-5.13,24.55-8.35,36.41-.08-.24-.25-.69.37-2.6-1.5,5.71-9.28,20.54-7.14,19.25-.46-.14-1.91,2.73-3.69,6.42s-3.82,8.24-5.16,11.44l-.14-1.28-1.87,6c-.56,1.72-1.32,3.67-2.66,7.55-.4.89-.64,1.26-.71,1.09a5,5,0,0,1,.67-2,21,21,0,0,0-1.8,5.7c-.24,1.44-.58,3-1.53,6.85,0-1,.09-2,.18-3a30,30,0,0,0-1,6,35.52,35.52,0,0,0,.18,3.86c0,1.06,0,2.39-.06,3.79l0,3.47c0,1.75,0,2.62-.33,2.22a15.12,15.12,0,0,1,.76,1.71c.27.65.63,1.5,1,2.47.18.39.37.82.56,1.25l.12.29c0,.08,0,0-.05,0l-.12-.13-.49-.56c-.31-.5-.36-.71-.33-.8a.08.08,0,0,1,.08-.07H187s-.07-.15-.09-.21,0,.08,0,.08l-.11-.13-.22-.26-.41-.47-.73-.79-1.21-1.24c-.71-.74-1.43-1.32-2.13-2L181,290.06c-.57-.65-1.17-1.26-1.69-1.94a51.55,51.55,0,0,1-3.1-4.32c.09-.26-.1-.72-.41-1.27,1.24,1.76,2.55,3.33,3.67,4.81.55.73,1.11,1.41,1.64,2l.85,1c.83,1,1.39,1.63,1.28,1.56a18.72,18.72,0,0,0-.71-1.92.71.71,0,0,1,0-.58c.07-.14.24-.21.34-.43a.27.27,0,0,1-.22,0l-.18,0-.11,0s-.08-.07-.16-.15l-.24-.23c-1.29-1.23-2.55-2.68-3.88-4.12a61.84,61.84,0,0,1-6.85-9.06,5.32,5.32,0,0,1-.31-.86l.45.54c-.83-1.32-1.59-2.49-2.38-3.54l-1.37-2.47c-.41-.77-.81-1.53-1.32-2.43,0-.93-3.62-7-5-10.2-.51.57-2.36-3.57-1.05.51-.19-.52.34.56,1.39,2.61.26.46.56,1,.75,1.28l-.16-.18,1.83,3.43,2.35,4.09c-.83-1.1-1.67-2.23-2.5-3.53a33.22,33.22,0,0,1-2.26-4.62c-1.23-1.37-2.45-3-3.14-3.87-.15-.59-.34-1.23-.54-1.92s-.4-1.43-.61-2.19c-.42-1.5-1-3-1.33-4.53s-.78-2.84-1-3.93a9.13,9.13,0,0,1-.34-2.25c-.47-1.23-1-2.51-1.48-3.83s-.91-2.71-1.38-4.09l-.35-1c0-.13-.13-.44-.2-.72l-.23-.83-.9-3.29c-.59-2.17-1.18-4.33-1.76-6.43-.28-1-.56-2.07-.84-3.08-.14-.49-.27-1-.41-1.46l-.2-.71-.1-.35-.05-.17-.09.19c-1,2-1.94,4-2.79,5.8a82.07,82.07,0,0,0-3.7,8.79l-.49,1a6.91,6.91,0,0,1-.39.73,7.8,7.8,0,0,1-.67,1c-.4.51-.75.79-1.08,1.26.31-.83.7-1.71,1.07-2.5s.6-1.38.92-2.23c-.67,1.47-1.49,3.3-2.37,5.24s-1.73,3.75-2.46,5.6-1.44,3.53-1.91,4.89a8.53,8.53,0,0,0-.61,2.8c-1.66,3.49-1.44,2.41-1.3,1.69.08-.37.13-.64-.08-.2s-.7,1.57-1.59,4.08l.25-1.45a96.72,96.72,0,0,0-7.88,26.65c-.7,4.36-1.27,8.8-1.81,13.58-.24,2.4-.6,4.87-.8,7.49-.14,1.3-.28,2.64-.42,4s-.21,2.79-.34,4.25a12.39,12.39,0,0,1,.35-2.75c-.06,1.66-.11,3.33-.17,5l.15,5c0,1.68.24,3.36.41,5.05s.32,3.37.65,5a107.48,107.48,0,0,0,5.19,19.76c4.64,12.84,11.38,24.67,18.47,35.66,1,1.56,1.89,2.71,2.63,3.65s1.36,1.64,1.94,2.26c1.21,1.21,2.25,2.08,3.84,3.69l.47,1.71,2.86,2.65,2.92,2.56c4,3.79,6.95,7.47,10.4,11.25a73.63,73.63,0,0,0,13,11.69l-1-1.54c3.7,3.32,12.4,9.66,11.41,9.59a8.54,8.54,0,0,1,3,2l-.12.41q5.06,3.42,10.17,6.74c7.47,5.77-2.14.43,9,8.52,4.27,2.85,12.57,7.46,11.15,6.14-1.67-1.2-4.17-3.23-4.07-3.65l3.95,2.53c1.36-.47,5,.63-3.92-6.64L214,440.37l-1.76-2,5.49,3.88a30.31,30.31,0,0,0-7.42-5,10.38,10.38,0,0,0-2.33-2.47l-7-3.75c-.48-.93,3.35,1.38-.69-2-3.24-1.79,2.18,2.94-2.86-.45-2.7-2.74-1.56-2.4-5.36-4.79-.3-.63.55-.17,2,.8-1.68-1.07-3.76-2.68-5.67-4.12a29.46,29.46,0,0,0-4.6-3.15c-2.65-3-10.22-8.66-9.17-9.24a38.54,38.54,0,0,1-3.58-2.6,55.84,55.84,0,0,1-4.71-4.05c2.84,1.85.38-.5-2.36-3.41l-2.07-2.2c-.65-.73-1.24-1.44-1.72-2-1-1.2-1.45-2-.89-1.93a26,26,0,0,1-3.69-3.34c-1.4-1.46-2.89-3.24-4.43-5.13-3.06-3.81-6.14-8.17-8.77-11.62a9.36,9.36,0,0,1,1.4,1.71c-.65-1-1.18-1.88-1.6-2.63s-.74-1.42-1-2c-.59-1.22-1.09-2.23-1.74-3.65-.56,0-1.88-1.64-3.27-3.71l-2.11-3.28c-.69-1.11-1.31-2.19-1.89-3.05-1.68-5.79,2.58,2.79,2.6.7-.28.3-1.6-1.92-2.7-4s-2.07-4-2-3c-1.09-4.45-1.14-3.77-1.16-6.23-.7-.17-1.07-1.16-1.5-2.52a35.63,35.63,0,0,0-1.71-4.82c-.14-.81-.24-1.45-.3-2s0-.89,0-1.19a8.25,8.25,0,0,1,.09-1.1,3.55,3.55,0,0,0-.11-1.18c-.13-.64-.42-1.64-.78-3.4C124.41,323.12,125.84,329.29,125.93,329.27Zm42.77-49.88h0c-.86-1.27-1.6-2.34-2.07-3Zm8.9,12-4-5.1c-.13-.56.42-.26,1.33.92C174.33,286.62,176.35,289.5,177.6,291.35Zm-13.21-28.49c1.14,2,1.46,2.68,1.47,3-.55-.93-1.21-2-2-3.47-.06-.05-.15-.16-.21-.2A2.61,2.61,0,0,1,164.39,262.86Z"/><path class="cls-2" d="M161.65,259.62a7.92,7.92,0,0,1-.47-.82c.14.45.31.87.48,1.29l.58.63C162,260.35,161.83,260,161.65,259.62Z"/><path class="cls-2" d="M258.92,332.37l0,.3A3.87,3.87,0,0,1,259,332,1.81,1.81,0,0,1,258.92,332.37Z"/><polygon class="cls-2" points="224.71 122.54 224.53 122.58 224.8 123.86 224.71 122.54"/><path class="cls-2" d="M283.06,326.16a3.81,3.81,0,0,0,.18,1A5,5,0,0,0,283.06,326.16Z"/><path class="cls-2" d="M287.85,355.64c1.12-1.46,2.29-3,3.45-4.61C289.8,353.09,288.71,354.47,287.85,355.64Z"/><path class="cls-2" d="M302,328.26a1.13,1.13,0,0,0-.13-.6l0,0Z"/><path class="cls-2" d="M316.21,417.62c.3-.19.6-.39.85-.58C319,415.63,317.68,416.56,316.21,417.62Z"/><path class="cls-2" d="M224.16,392.09c.53,1.23,1.11,2.41,1.67,3.68C225.1,393.67,224.54,392,224.16,392.09Z"/><path class="cls-2" d="M390.69,306.7s0,0,0,0c0-.3,0-.56.05-.86Z"/><path class="cls-2" d="M228.21,401.05c-.42-1-.85-1.95-1.25-2.81s-.75-1.69-1.13-2.47c.34.85.7,1.77,1.07,2.69S227.76,400.25,228.21,401.05Z"/><path class="cls-2" d="M311.3,381.76l-.61,1.11c.05,0,.05.08,0,.18Z"/><path class="cls-2" d="M310.72,383.05c-.19.43-.37.87-.58,1.29A5,5,0,0,0,310.72,383.05Z"/><path class="cls-2" d="M308.82,387l1.32-2.65A12.74,12.74,0,0,0,308.82,387Z"/><path class="cls-2" d="M319.59,348.34l-.27-.39C319.38,348.16,319.47,348.3,319.59,348.34Z"/><path class="cls-2" d="M318.72,337.81c.27,2.52.25,6.32.39,9.81l.21.33a38,38,0,0,1-.1-4.8A20.15,20.15,0,0,0,318.72,337.81Z"/><path class="cls-2" d="M302.75,299.9l0-2.84.24-.25.06-.07s0,0,0,0l.08.12.34.44,1.32,1.76c.9,1.16,1.73,2.31,2.52,3.45-1.08-1.94-2.93-5,.34-.7-2.06-3.11-3.33-4.78-3.81-5.4s-.33-.28-.07.22.58,1.12.46,1.14-.23-.12-.57-.49l-.64-.74c-.08-.13-.07,0-.11,0l-.07.12-.18.25C302.72,297.69,302.74,298.7,302.75,299.9Z"/><path class="cls-2" d="M297.76,330.18c1.4-4.58-.37-.06-.45-.36a25.18,25.18,0,0,0-.59,2.52C296.76,332.48,297.07,331.84,297.76,330.18Z"/><path class="cls-2" d="M235.2,337.68l.78.17C234.43,334.56,235.72,337.93,235.2,337.68Z"/><path class="cls-2" d="M225.37,338.11l.62-1.73.3-.86.21-.44a10.49,10.49,0,0,1-.26-1.35Z"/><path class="cls-2" d="M217.1,360.16l.07-1.69q-.21,3.22-.21,6.45C217,363.33,217,361.75,217.1,360.16Z"/><path class="cls-2" d="M394,267l-.6,1.27C394,270.74,395,271.14,394,267Z"/><path class="cls-2" d="M366.15,123a22.66,22.66,0,0,0,.75-3.7,33.06,33.06,0,0,0,.36-4.43C366.73,118.09,366.2,121.33,366.15,123Z"/><polygon class="cls-2" points="213.77 84.37 213.07 81.48 214.11 86.97 213.77 84.37"/></svg>