<svg id="Layer_1" data-name="Layer 1" xmlns="http://www.w3.org/2000/svg" viewBox="0 0 512 512"><defs><style>.cls-1{fill:#00c5ff;}.cls-2{fill:#202020;}</style></defs><circle class="cls-1" cx="256" cy="256" r="242.5"/><path class="cls-2" d="M264.31,496.49c-.79.24-.32.73,1.87.5l1.52-.92Z"/><path class="cls-2" d="M279.19,497c2.55-.68,5.43-1.71,3.68-2.28-2.45,1.07-3.1.81-5.76,2.06-2.19.26-3.86,0-3.51-.35-.77.26-3.43,0-4.58.61a24.11,24.11,0,0,0,4.83.22c.87,0,1.77-.12,2.68-.24s1.84-.35,2.77-.58C280.13,496.55,279.36,496.85,279.19,497Z"/><path class="cls-2" d="M459.32,390.22l-.86,1.12A12.79,12.79,0,0,0,459.32,390.22Z"/><path class="cls-2" d="M500.09,263.72a3.49,3.49,0,0,0,.11,1.51C500.19,264.28,500.17,263.5,500.09,263.72Z"/><path class="cls-2" d="M500.64,240.67c0,.5,0,.92,0,1.37A4.67,4.67,0,0,0,500.64,240.67Z"/><path class="cls-2" d="M459.32,390.22l2.2-2.85C461.43,387,460.33,388.8,459.32,390.22Z"/><path class="cls-2" d="M308.16,490.45a14.15,14.15,0,0,0-1.84.61l1.75-.46A.4.4,0,0,1,308.16,490.45Z"/><path class="cls-2" d="M421.38,435.71l-.81.74a8.88,8.88,0,0,0-.44.87Z"/><path class="cls-2" d="M385.18,463.39c.89-.51.82-1.3,1-1.77a6,6,0,0,1-1.65,1.6C384.58,463.34,384.78,463.4,385.18,463.39Z"/><path class="cls-2" d="M318.66,490.82l-1.21.43Z"/><path class="cls-2" d="M444,412.19a.8.8,0,0,0,.45-.16C444.4,412,444.24,412,444,412.19Z"/><path class="cls-2" d="M212.71,491s0,.08,0,.12C213,491.11,213.05,491.08,212.71,491Z"/><path class="cls-2" d="M264.37,498.34l-.72,0a.79.79,0,0,0-.15.39Z"/><path class="cls-2" d="M495.4,198.7l0,.19C495.74,200,495.59,199.34,495.4,198.7Z"/><path class="cls-2" d="M196.13,17.84c4.4-.52-6.7,2.62-.14,1.6C195.32,19.33,201.53,16.82,196.13,17.84Z"/><path class="cls-2" d="M309.32,490.29l1.79-.39C310.29,490.05,309.74,490.17,309.32,490.29Z"/><path class="cls-2" d="M196,19.44h0l.67-.11Z"/><path class="cls-2" d="M454.28,110.81a3.79,3.79,0,0,0,.35,1C454.67,111.72,454.61,111.49,454.28,110.81Z"/><path class="cls-2" d="M487.08,175.24l-.54-1.71C486.73,174.22,486.91,174.77,487.08,175.24Z"/><path class="cls-2" d="M429,82.92A15,15,0,0,0,427.16,81a2.55,2.55,0,0,0,.23.34A7.52,7.52,0,0,1,429,82.92Z"/><path class="cls-2" d="M399.24,57.59c.14.17.33.36.5.54l1,.7Z"/><path class="cls-2" d="M107.64,443.67a7.35,7.35,0,0,1,1,1.61C108.47,444.51,113,447.91,107.64,443.67Z"/><path class="cls-2" d="M308.26,490.83a2,2,0,0,1,1.06-.54l-1.25.31C308,490.72,308,490.82,308.26,490.83Z"/><path class="cls-2" d="M424,85.76l-4.27-4.33C420.87,82.67,422.42,84.24,424,85.76Z"/><path class="cls-2" d="M23.75,197.39l-.25,1.38A6.34,6.34,0,0,0,23.75,197.39Z"/><path class="cls-2" d="M406,69.72a24.18,24.18,0,0,0-2.36-2.54,4.06,4.06,0,0,0-.66-.3Z"/><path class="cls-2" d="M108.63,445.29s0,0,0,0S108.62,445.28,108.63,445.29Z"/><path class="cls-2" d="M143.08,465.76c-5.1-2.72-2.84-.48-4.19-.59-6.1-3.31-2.42-2.23-4.2-3.84-1.92-1-3.7-1.73-5.35-2.43a32.9,32.9,0,0,1-4.42-2.41c-.12-.26-.61-.65.1-.4a36.38,36.38,0,0,1-3.63-2l-2.08-1.31-2.1-1.5a74.8,74.8,0,0,0-8.18-5.36,2.06,2.06,0,0,1-.4-.62c.39.91.21,1.37-.14,1.52-2-1.63-4.15-2.61-4.53-3.7a5.86,5.86,0,0,0,2.19,1.25l-2.3-1.52c-1.37-2.23,3.1,2.12,3.5,1.61-2.16-1.56-4.56-3.18-6.81-4.77a58.07,58.07,0,0,1-5.63-4.75c-.07-1.2,7.33,6.15,3.75,1.95l2.26,2.22,2.36,2.11c-2.9-4.06,2.92,2.48.39-1.41L101.53,438l-1.71-1.51c-1-.9-1.95-1.63-2.85-2.36s-1.79-1.46-2.84-2.36a41.45,41.45,0,0,1-3.65-3.51c-1.66-1,0,.94-1.7,0a39.88,39.88,0,0,1-4.72-4.57,18,18,0,0,1-2-3.06,16.49,16.49,0,0,0-5-6c-1.9-1.3-3.25-1.29-6.81-6.38l2.1,1a26.41,26.41,0,0,0-4.49-4.55c-.94-.78-1.86-1.65-4.17-5.2,1.22,1,4.09,4.84,3.45,3.8-2.71-4.79-2.78-2.73-5.33-6.08q.07-.59.18-1.2c-1.24-1.74-2.54-3.5-3.87-5.3s-2.76-3.59-4-5.52c-2.57-3.83-5.35-7.69-7.63-11.86.47.34,1.49,1.62.64-.44Q46,371,44.82,369l-1.15-2-1.05-2.1c-1.38-2.81-2.76-5.67-4.08-8.54s-2.35-5.86-3.47-8.72c-.28-.72-.57-1.43-.83-2.14s-.47-1.44-.71-2.15c-.46-1.42-.92-2.82-1.37-4.18l-2.24-3.87c-.35-1-.28-1.91.18-.9-1.1-4.36-.51-.07-1.44-2-.83-2.42-.63-3.35.07-1.88-3.33-7.23-7.43-21.41-8.29-29.77l.55,1.55c-.13-.8-.29-1.51-.42-2.15s-.26-1.22-.41-1.75c-.29-1-.6-1.91-.91-2.76a19.69,19.69,0,0,1-1.3-6.41l.31,1.13c-.78-7-1.71-14.43-2-21.46-.09-1.75-.2-3.48-.26-5.17s0-3.35.06-4.95.09-3.15.16-4.64a37.24,37.24,0,0,1,.39-4.25c-.48-1-.22-4.53,0-7.88.1-1.67.19-3.31.26-4.59s-.05-2.2-.4-2.46c.74-4,1.12-5.4,1.51-7.22s1-4,2-9.59c.45-3-.15-4.6.4-8.32l.77,0,.19-5.16c.45-.82,1-1.63,1.5-2.44l.65-3.45c-.38,1.35-1.05,2.81-1.22,2.55a64.54,64.54,0,0,1,2.29-8.48,16.41,16.41,0,0,1,2.06-4.35l1.56-6.31c.51-2.1,1.21-4.15,1.81-6.24.2.38-.43,2.46-.82,4.14,1.58-6.78,1.19-.91,2.63-7.12-.44.74-.27-.6-.37-.79.39-.7.77-1.67,1.3-2.75s1.07-2.34,1.64-3.66,1.12-2.7,1.67-4.07,1.05-2.73,1.6-3.94l.05,1.14q1.57-3.24,3.16-6.68c.53-1.14,1-2.3,1.6-3.46s1.18-2.29,1.77-3.45c1.2-2.31,2.36-4.69,3.63-7l4.07-7c-2.19,3.2-2.53,2-1-.81l1.35-.67c.62-2-2,2.69-.33-1.25,2.27-3.36,2.26-1.78,1.21.29l2.46-4.25c.37-.11-.16.92-.07,1.34.72-2,5.27-6.64,6.35-9.41l.36-.08,4.18-5.78c1.26-1.69,2.46-3.16,3.57-4.61l3.35-4.32c1.16-1.46,2.48-2.9,3.92-4.56-.41-.6,2-3.06,3.33-5.41,2.35-2.24,4.88-4.55,7.5-7,.64-.62,1.32-1.22,2-1.81l2.09-1.83c1.4-1.23,2.82-2.52,4.24-3.85.93-1,1.48-1.58,1.77-1.92s.32-.47.28-.54-.47,0,.34-1c.73.22,6.65-4.84,3.86-1.88,1.78-1.51,3.18-2.82,4.57-3.88L111.2,65l4.21-3.43,5.92-4.46c-1.21.52-2.47,1.25-2,.64,1.72-1.31,4.19-2.56,4.11-2.13L123,56A101.46,101.46,0,0,1,141.77,45.2c3.27-1.67,6.6-3,9.6-4.42,1.5-.7,2.93-1.41,4.26-2.13s2.63-1.31,3.77-2l-.51.3,4.89-2.5c.82-.42,1.63-.85,2.45-1.25l2.51-1.13c4.77-1.67-2.66,1.52,1,.57,2.67-1.29,5.11-2.34,7.39-3.25s4.5-1.46,6.62-2.1l3.13-.94,1.56-.48,1.59-.41c2.12-.57,4.29-1.21,6.6-2a23.43,23.43,0,0,0,3.35-.33c1.26-.15,2.66-.36,4.14-.63s3.06-.59,4.69-.94,3.32-.76,5.05-1c3.44-.6,7-1.29,10.28-1.77a83.73,83.73,0,0,1,9-.57l-.62-.38c2.57-.72,3.18-.12,5.12-.11-.3-.33-2.88-.23-1.27-.57q4.16-.35,8.4-.62c1.41-.08,2.82-.23,4.24-.22l4.28,0h4.29c1.44,0,2.88,0,4.31.1l8.64.55,2.16.15,2.16.25,4.31.52c2.87.35,5.74.65,8.58,1.2l8.5,1.45,8.37,1.82a19.85,19.85,0,0,0,6.85.52c1.52-.1,3.3,0,8.28,1.77l-3.12.08c1,.2,2.08.39,3.11.62l3.08.8c2.05.54,4.11,1.11,6.16,1.7s4.07,1.33,6.1,2L341.07,32c4,1.58,7.91,3.25,11.83,4.84q2.88,1.34,5.76,2.59l2.88,1.25c1,.4,1.91.8,2.84,1.25a9.75,9.75,0,0,1-2.54-.78c.73.49,1.8,1.13,3,1.8s2.54,1.34,3.8,1.94c2.52,1.19,4.74,2.06,4.89,1.87,2.18,1.36.29.69,1.53,1.71a34.66,34.66,0,0,0,5.18,2.88c1.79.87,3.4,1.67,4,2.46.21.26-.91-.39-1.48-.68,2.06,1,8.8,5.9,7.37,4.12,2.53,1.79,4.93,3.52,7.23,5.12,1.15.81,2.27,1.59,3.34,2.37.53.39,1.05.78,1.55,1.18s.95.84,1.4,1.27c3,1.45,8.05,6.9,9.45,6.84-1.09.59,7.57,7.81,10.62,10.31-1.18-.67,2.18,2.64.75,1.9,3.26,3,6.11,6,6,5,2.3,3.49,5.36,6.28,7.85,9,1.27,1.34,2.47,2.6,3.45,3.82a18.77,18.77,0,0,1,1.28,1.79,8.57,8.57,0,0,1,.8,1.8l6.26,7.52,5.68,7.6c.46.63.93,1.24,1.38,1.88l1.28,1.93,2.54,3.83,2.5,3.8,2.28,3.89c-.3.05-.85-.65-1.53-1.71-.34-.52-.71-1.14-1.09-1.8l-1.27-2c-1.71-2.69-3.37-5.27-3.73-4.74,1.59,2.34,3.05,4.42,4.44,6.36s2.51,3.88,3.72,5.76l1.79,2.85.9,1.47.83,1.55c1.1,2.1,2.23,4.36,3.42,6.92s-1.18-1.28-1.79-2.07l2,3.72c.64,1.24,1.16,2.52,1.73,3.76,1.1,2.52,2.17,5,3.24,7.43s1.86,4.95,2.81,7.35l1.45,3.58c.45,1.19.9,2.38,1.34,3.56a8.24,8.24,0,0,1-.94-1.94c.64,1.88,1.25,4.45,1.67,4.08l-.72-1.81c-.28-3.27,3.91,7.07,4.37,7.32-2.28-2.86,2.23,9.78-.95,5.07.43,1.24,1.09,2.76,1.34,2.39.41,1.9.37,2.54-.51.74.52,1.7.91,2.82,1.22,3.63s.47,1.35.67,1.85a29.35,29.35,0,0,1,1.39,5.1c-.25,0-.61-1.23-1-1.82a42.25,42.25,0,0,1,3,11.66c-.2-.3-.29.36-.54-1.25.39,2.31.83,4.44,1.28,6.5.11.51.22,1,.34,1.53s.17,1,.26,1.53l.54,3c.35,2,.69,4.1,1,6.3a33.71,33.71,0,0,1,.29,3.43c.06,1.19.1,2.42.11,3.71-1.25-3-.14,3.53-1,4.11.09.92.22,1.83.28,2.75l.16,2.76.44-2.23c0,2.43.2,4.71.34,6.91a32.74,32.74,0,0,1,0,6.41l-.12-1.81-.2-1.8c.07,1.51,0,3,0,4.54l-.1,4.55.57-5.13c.27,4.93,1.2-.5.67,6-.06-1.32-.15,4.89-1,7.37v0a40.32,40.32,0,0,1-.41,8.5c-.38.89-.95-.87-1.2-.29.28,1.22-.12,4-.46,6.95a55.69,55.69,0,0,0-.61,7.44c0-1-.48-1.15-.64-.85l.24,2.07c-.63,2.18-.79,2.48-1.1,2.05-1.41,6.62,1.57-1.89-.47,5.91a14.59,14.59,0,0,1,.08-1.66C490.23,313.5,489,321,486.44,328c-1.53,1.81,1.64-6.27.16-4.1-2.7,10.3-6,21.33-10.39,30.73l.91-1.7c.31.92-.67,2.6-1.92,4.68a43,43,0,0,0-3.67,7c.53-1.18.11-1.83.09-1.45-1.74,3.09-3.37,6.31-5.14,10-.92,1.82-2,3.7-3.05,5.75-.55,1-1.12,2.08-1.7,3.18l-.91,1.68c-.32.56-.67,1.12-1,1.7l.45-1.29c-1.28,1.66-2.83,3.93-4.39,6.24-.79,1.15-1.54,2.34-2.34,3.42s-1.57,2.08-2.27,3c-.51,1.28-2.09,3.33-.76,2.36-1.23,1.25-2.36,2.56-3.48,3.84s-2.25,2.54-3.3,3.83c-2.11,2.57-4,5.23-6.1,7.7l-3,3.72c-1,1.23-2,2.46-3.13,3.57a67.36,67.36,0,0,1-6.89,6.32c1-1.06,2.25-2.73,1.43-1.89l-1.78,1.93c-.6.64-1.24,1.24-1.86,1.86l-3.75,3.69c1-.14,1.25-.68,3.18-1.86a35.14,35.14,0,0,1-4.67,5.16c1.61-1.76,1.45-1.92.67-1.5s-2.17,1.42-3.08,1.94c.38-.09,0,.51.22.53-4.88,2.77.05,1.48-6.16,5.81l.12-.5-1.5,1.46-1.54,1.39a39.73,39.73,0,0,1-3.34,2.73c-1.4.23,2.2-2.07,2-2.62-3.37,2.59-5.89,6.19-9.52,7.78,1.39-1.18,3.55-2.65,4.85-3.93-1,.47-1.68.87-2.29,1.19s-1.1.59-1.54.85c-.89.54-1.62,1.07-2.94,1.9l.26-.16c-2,1.25-4.06,2.56-6.13,3.76.56-.25,1.1-.54,1.64-.83-1.72,2.22-4,3.66-6.53,5.24-1.25.77-2.55,1.58-3.9,2.46a39,39,0,0,0-4.24,2.89c5.58-4.34.7-1.11.8-2-1.71.71-4.25,1.85-3.66,1.28a17.49,17.49,0,0,1-4.05,2.34,22.6,22.6,0,0,0-5,2.82c-.3-.13-3.25,1.58-2.83.68-3.85,2.12,1.11-.07.91.37-2.82,1.95-6.64,3.21-10.71,4.77l-3.11,1.2c-1.07.37-2.16.75-3.25,1.16a61.57,61.57,0,0,0-6.58,2.89c-1,.44-1.84.79-2.64,1.11l-2.19.93c-1.34.59-2.46,1.11-3.57,1.64s-2.2,1-3.48,1.59-2.78,1-4.65,1.64c-2.66.31,1.86-1.42,1.86-1.42-2.11.38-3.93.79-5.7,1.27s-3.49,1.07-5.44,1.59c.75-.38-.11-.38-1.37-.39-3.13.73-1.91,1.31-6.15,1.85a15.47,15.47,0,0,1,2.95-1.63c-1.83.5-3.63,1.07-5.46,1.63s-3.71.94-5.64,1.36c-1.09-.25,2.24-1,3.55-1.51-4.31.89-11.2,2.26-12.49,3l2.85-.08c-1.6.21-.9-.46.26-.75,3.66-1.13,5.42-.64,5.67-.44l-2.74.6c1.53.48,4.31,0,7.4-.75,1.55-.33,3.14-.89,4.71-1.34s3.09-.87,4.48-1.15l-2.09,1.51,5.49-2.05c.63,0,1.18.07,1.24.26s-.36.51-1.71.87a11,11,0,0,0,2.31-.38,12.73,12.73,0,0,0,1.36-.45,10.36,10.36,0,0,1,3.25-.74c.39,0,.24.08-.1.21l3.76-1.32c-.69.41.84.54-1.56,1a36.4,36.4,0,0,0,4.72-1.14c1.38-.48,2.6-1,3.68-1.4a16.69,16.69,0,0,1,5.2-1.59l-.55.24c1.16-.43,2-.74,2.71-1s1.1-.51,1.4-.68c.59-.33.6-.45.52-.56s-.61-.4,2.69-2.12h5.35l.63-1.05c1-.37,2.82-1.13,2.6-.7,3.29-2-.72-.05,1.11-1.38a57,57,0,0,0,8.1-3.29c2.61-1.3,4.81-2.34,5.58-2,1.32-1.3-4.41,1.68.11-1,1,.25,2.3-.47,3.93-1.44a32,32,0,0,1,5.56-3.16c-.87,1.26-4.78,3-.55,1.36.92-1.16,2.85-2.17,5-3.14a45.63,45.63,0,0,0,5.89-3.18c-.16-.44,1.54-1.6,3.94-3.12s5.34-3.6,7.88-5.51c-.09.57,10-6.62,14.74-10.21l0,.23c.15-.73,1.42-2,3.06-3.54.82-.76,1.73-1.56,2.65-2.36s1.76-1.68,2.55-2.46c.23.52-.18,1.25-1.83,3,1.06-.91,2.06-1.89,3.09-2.84a21.16,21.16,0,0,1,3.3-3.81l-.3,1.21c1-1,2-1.94,3-3l2.92-3.3c1-1.12,2.05-2.27,3.18-3.44.57-.58,1.15-1.17,1.77-1.76s1.19-1.25,1.83-1.88c-.21-.73-5.08,3-.39-2.89.44,0,1.07.21-.14,1.79a18.94,18.94,0,0,1,2.3-2.8l-1.58,2.65c2.36-2.27.77-1.6,2.54-3.51.34.37,1.55-1.21,1.6-.67a24.56,24.56,0,0,0-2.19,2.44c1-1.07,2.17-2.22,3.2-3.19a27.71,27.71,0,0,1,2.41-2.13c-.38,0-.51-.43.79-2.14,3.48-4.36,1.66-1.11,3.91-3.49.63-1.23,3-3.9,2.47-4.42a5.37,5.37,0,0,1,1.95-1.74c.71-1.28,2.75-4,4.13-6.18s2.27-3.83,1-2.69l-.45.59.24-.41,0,0,0,0c1.15-2.07,2.42-4.11,3.75-6.14s2.6-4.12,3.9-6.19a109.43,109.43,0,0,0,7.18-12.55l.22.12c1.24-2.5,2.44-5.39,3.63-8a48.85,48.85,0,0,0,2.75-7.12c.63-1.52,1.9-3.43,1.9-2.66.73-2,1.08-3.16,1.58-4.49s1.12-2.88,2.34-5.73c-1,4.21.86-1.27-1.19,4.27,2-5.17,2.91-6.23,4.19-12.1,0,2.15,2-3.78,2.56-6.38l-1.56,3.61c.77-2.88,1.58-5.35,2.39-7.87l.39,1.59a31.78,31.78,0,0,0,1.28-4c.36-1.32.66-2.62.93-3.89.52-2.56,1-5,1.26-7.42s.58-4.7,1-6.91c.2-1.12.48-2.2.74-3.28a30.19,30.19,0,0,1,.91-3.18c-.15-3.08-1.29,6.08-1.58,3.29.85-5.16,2.84-10.42,3-12.06a24,24,0,0,0,.26-7c-.08-.87-.17-1.75-.17-2.88,0-.57,0-1.19.07-1.91s.07-1.53.15-2.47c-.34.94-1.16,1.79-1.21-3.81.33-5.21,1.52-6.39,1.62-3.07,0,1.26-.15,1.86-.25,1.8,0,1.7.07,3.94.48,1.87l-.27-.69c.21-1.3.38-3.76.55-5.68s.19-3.3.46-2.45c-.32-4-.5-1.7-.63,1.24.18-3.37.16-6,.13-8.67,0-1.33,0-2.67-.09-4.1s-.14-3-.17-4.71c-.1,1.11-.38,2.14-.44,1-.12-5.09-.33-6.2-.57-6.89a6.57,6.57,0,0,1-.39-1.17,23.91,23.91,0,0,1-.57-3.21c0-3.93,1.23,1.29.09-5.57-.16-4.25.68-1,1.11.66-.32-1.56-.53-3.07-.69-4.53s-.38-2.84-.5-4.15c-.24-2.61-.35-4.92-.58-6.72l.77,3.27c-.48-2-.69-3.58-1-5.22,0,.65-.16,1.32-.25,2-.09-1-.24-1.88-.34-2.53s-.12-1.06,0-1.06c-.81-1.91-.65,1.69-2-2.11a46.79,46.79,0,0,0-1-5,23,23,0,0,1-.45-2.34,2.84,2.84,0,0,1,0-1.44c.25,1,.41,1.74.51,2.28a7.07,7.07,0,0,0,.29,1.06c.14.39.22.21.3,0,.16-.44.34-1,1.13,2.36a45.81,45.81,0,0,1-1-4.85c0-.3.24.23.39.75-1.29-7.81-1.78-3.3-3.85-11.17.34.44.42-.08.36-.86a10.38,10.38,0,0,0-.58-2.44c1,3.14-.23,1.71-1.48-1.06-1.26-5.07-2-5.32-2.77-7.93l.8,3a8.91,8.91,0,0,1-1.18-2.43c-.45-1.15-1-2.59-1.74-4.27.22-.41,1.38,3,1.07,1.74a24.58,24.58,0,0,1-2.34-6.35c-.34-1.19-.63-2.47-1.11-3.71a30.93,30.93,0,0,0-1.7-3.74c-.77-2.51.66-.56-.07-2.75a47.41,47.41,0,0,1-2.71-6.06,35.28,35.28,0,0,0-3-6.21c.32,2,.59,2.21-2-1.71l5.2,9.6-3.87-5.9c.72,1.48,1.57,3,2.34,4.36a23.77,23.77,0,0,1,1.78,3.54,12.76,12.76,0,0,0-1.44-2.14c-.13-.08,0,.38.12,1.19a25.18,25.18,0,0,0-2.86-6.14,55.12,55.12,0,0,1-3.39-6.47l1.38-.56a54.66,54.66,0,0,0-2.6-5c-.46-.8-.93-1.58-1.42-2.36l-.73-1.17-.81-1.15c-1.1-1.55-2.23-3.15-3.41-4.91s-2.36-3.73-3.77-5.84c.54,1,1.13,1.86,1.61,2.85-1.2-.84-3.61-5.13-5.65-7.71.57,0-.44-1.83-1-3.16-.19.35-4.49-6-5.83-6.08-.76-1.32-1.46-2.7-2.29-4-5.11-6.45-7-6.33-12.27-12.15,2,1.38-.18-1.49,3.7,2.13-1.79-1.94-3.33-3.74-3.61-3.54A23,23,0,0,0,431.12,85a22.78,22.78,0,0,1-3.73-3.61,11.19,11.19,0,0,1-3.64-2.59c-.16-.3.17-.17.17-.17s-.95-.68-1.65-1.14-1.19-.68-.42.37c-4.92-6.6-17-14.75-22.11-19.72l-3.68-2.55c-1.27-.86-2.62-1.66-3.92-2.49-2.63-1.64-5.15-3.33-7.38-4.66.36,0,.14-.2,1,.34-6-4.05-4.5-1.07-11.28-5.6-1.65-1.33-.64-.92.51-.36s2.4,1.37,1.36.57c-.06-1-2.3-2.12-5-3.42A66.07,66.07,0,0,1,363,35.6l1.25.49c-3.6-2.27-9.52-4-15.87-6.55,0,0,.37,0,.13-.21-1.16-.26-2.56-.65-4.09-1.12s-3.24-.9-5-1.44c-3.5-1-7.13-2.29-10.35-3.05,2.16,0,3,.54,2-.43-2.86-.77.51,1.23-5.18-.29-1.74-.87-5.71-2.45-6.1-3.18,1.81.42,3.58,1,5.37,1.52a14,14,0,0,0-4.76-1.76c-1.79-.34-3.61-.59-5-1l.46-.29c-8.35-2-8.71-.87-17.69-2.74l.88.47a13.43,13.43,0,0,1-4.56-.57,12.77,12.77,0,0,0-4.55-.66l-1.36-1.19-3.3-.22-4.5-.09-5-.13c-1.66-.06-3.29-.15-4.77-.13a41.75,41.75,0,0,1,7-.33l7.7.08c-3.27-.36-11.15-1-12.88-.65a23.6,23.6,0,0,1,4.29.21,130.1,130.1,0,0,1-15.88.25c.6-1-3.66-1.09-8.67-1.11s-10.74.37-13.17-.28c-1.44.18-2.89.31-4.33.46s-2.88.37-4.33.54c-2.89.34-5.83.54-8.81.89l-9.14,1.24c-.78.11-1.58.21-2.37.34l-2.38.48c-1.6.32-3.22.67-4.88,1,5,.45-3.86.86-2.7,2.18-1.53.35-2.56.68-3.27.85a5.63,5.63,0,0,1-1.21.24c-3.13.53-6.29,1-9.44,1.59-1.14.14-.45-.18.48-.54s2.13-.7,1.94-.83l-3.35.79a3.46,3.46,0,0,1-1.2.11c-.47-.06-.67-.24-2.92.27,1.06.24-2,1.48-5.88,2.49l5.51-1a39.87,39.87,0,0,1-5.21,1.84c-1.34.37-2.36.63-3.4.83a32.75,32.75,0,0,0-8.58,3l2.71-1.54c-2.33.94-6.54,2.83-10.73,4.77l-3.09,1.46c-1,.54-1.92,1.07-2.8,1.58a33.79,33.79,0,0,0-4.2,2.82c-.86.23-2.1.38-.18-.69-10.8,5.23-22.57,14-30.44,18.89l.53-.82c-1.76,1.38-2.83,2.72-5.24,4.14,0-.21.5-.84-.34-.24A58.18,58.18,0,0,1,103.39,64l1.74-1.86A54.75,54.75,0,0,0,99,67.1c-1.77,1.59-3.34,3.1-4.84,4.6s-2.82,3.1-4.27,4.67-3,3.15-4.68,4.91c-.37-.4-2.22,1-4.4,2.84A76.44,76.44,0,0,0,74.55,90V89.8c-2.28,2.52-4.36,4.87-6.26,7.2s-3.51,4.69-5.17,7-3.14,4.65-4.73,7-3.24,4.82-4.82,7.53a70.27,70.27,0,0,0-4.69,6c-1.75,2.49-3.48,5.48-5.37,8.54l-1.4,2.33c-.46.79-.88,1.61-1.32,2.42l-2.63,4.83c-1.81,3.16-3.32,6.33-4.81,9.1,1-1.65.64.65-.2,2.7-1.54,2.54-2.49,7.76-3.27,6.92l.41-1c-1.72,1.68-3.93,7.33-5.43,11.82l1,1.18a50.72,50.72,0,0,0-4,9.57c-.56,1.77-1.1,3.59-1.61,5.41-.25.91-.53,1.82-.75,2.73s-.4,1.83-.6,2.73c-.8,3.6-1.56,7-2.22,10a33.44,33.44,0,0,1-2,6.95c-.1,1.5-.42,3.14-.55,4.8s-.31,3.32-.36,4.8l-.68-.26c-.33,2-.63,3.82-.91,5.51s-.38,3.29-.57,5-.32,3.39-.5,5.34c-.08,1-.16,2-.25,3.1s-.07,2.29-.1,3.57l-.42-2.12A20,20,0,0,0,11.1,247c.22.89.45,1.76.61,2.74a29.47,29.47,0,0,1,.29,3.38L11,254.69c0,2.51,0,5,0,7.55l0,1.89.06,1.89.12,3.77c.11,2.52.19,5,.45,7.53s.71,4.95,1.22,7.39c-.17-.14-.51-.4-.73-2,.27,4.73,1.92,18.24,3,16.29-1,.3,1.91,10.18,3.54,15.33l-.89-.65A48.66,48.66,0,0,1,21.87,324c.31,1.47-.19,1.43-.54-.55a13.42,13.42,0,0,0,.74,2.72,17.45,17.45,0,0,0,.74,1.64,22.88,22.88,0,0,1,1.78,5.09l-1.11-2c1.55,4.93,1.56,4.5,3.07,7,1.41,2.93,3.26,9.22,3,10.16a17,17,0,0,1,3.28,5.75c-.06.47-.64-.48-.92-1,.75,2,1.49,3.77,2.21,5.31s1.54,2.84,2.25,4.09a51,51,0,0,1,3.72,7.51c-.14.22,0,.61.12,1.07-.86-1.49-1.54-3-2.19-4.3S36.78,364,36.31,363c-1-2-1.49-3.1-1.35-2.88-.58.27,1.78,5.32-1,1.73,1.21,1.91,2.9,4.46,4.55,7.15a72.35,72.35,0,0,1,4.68,7.83,3.08,3.08,0,0,1,.16.74l-.34-.46a20.23,20.23,0,0,0,1.77,2.94c.82,1.52,1.33,2.5,2.2,3.92-.06.41.73,1.81,1.7,3.39.5.79,1,1.64,1.54,2.43s1,1.5,1.42,2.08c.45-.58,2.42,2.47,1-.65.21.39-.38-.37-1.42-1.89-.24-.34-.51-.75-.69-1l.16.12c-1-1.53-2.24-3.54-3.67-5.82a24.29,24.29,0,0,1,4.19,6.26c1.13,1,2.44,1.95,3.11,2.56a66.88,66.88,0,0,0,3,6.5c.54,1.11,1.1,2.1,1.52,2.89a7.07,7.07,0,0,1,.73,1.69c1.36,1.62,2.82,3.42,4.29,5.25.72.92,1.51,1.82,2.3,2.69l2.35,2.6c1.55,1.7,3,3.31,4.45,4.67a34.79,34.79,0,0,0,4,3.16A7,7,0,0,1,79,424c-1-.92-2.14-2.14-2.79-2.57.88.83,1.93,1.89,3,3l1.68,1.72,1.75,1.62c2.29,2.1,4.3,3.82,5,3.89,2,2.26,1.26,1.82.75,1.53-.25-.15-.43-.26-.18,0a24.26,24.26,0,0,0,2.51,2.32l-1-.54a84.72,84.72,0,0,0,8.3,7.75c2.84,2.14,5.65,4.05,8.49,6s5.87,3.69,8.93,5.86c1.51,1.12,3.14,2.17,4.8,3.36s3.36,2.5,5.12,3.95a7.94,7.94,0,0,1-1.61-1.45c1,.74,2.1,1.51,3.18,2.23l3.32,2.07c2.23,1.36,4.48,2.73,6.76,4.05l7,3.66c1.18.6,2.34,1.23,3.54,1.8l3.62,1.65c2.42,1.08,4.81,2.22,7.22,3.28s4.88,2,7.29,3c1.21.5,2.4,1,3.61,1.52l3.64,1.4c2.41.94,4.79,1.93,7.14,2.92,5.47,1.93,6.25,1.55,9.75,2.13l1,1.09c2,.26,4.06.43,6.08.64a42.9,42.9,0,0,1,5.91,1.47c1.88.54,3.73,1.09,5.65,1.67s3.92,1.15,6.12,1.63a47.9,47.9,0,0,0,7.36.76l-1.31-.7c1.92.3,5,.73,7.47,1s4.44.44,4.09.7a5.3,5.3,0,0,1,2.8,0l.09.4c1.6,0,3.19.09,4.79.08l4.79-.13c3.68.29,3.39.67,3.51,1.05.06.18.23.37,1.06.54a24.48,24.48,0,0,0,5.05.33c4-.18,11.46-1.25,9.93-1.5-1.62,0-4.14-.21-4.27-.6l3.66-.24c.64-1.17,3.35-2.39-5.54-3.12l-6.19.76-2-.64c1.73.09,3.47,0,5.2,0a16.31,16.31,0,0,0-3.77-.19c-1.1.05-2.1.2-3.15.32a6.57,6.57,0,0,0-2.57-.73l-6.13.84c-.35-.26.34-.42.62-.62s.13-.32-1.88-.65c-2.88.25,2.64,1.27-2.08,1.17-2.92-.8-2-1.15-5.51-1-.46-.34.29-.47,1.68-.47a53.31,53.31,0,0,1-5.45-.26,17.69,17.69,0,0,0-4.35-.14,39.23,39.23,0,0,0-6.24-1.19c-2.16-.38-3.87-.83-3.62-1.33a54,54,0,0,1-8.31-.69c2.69-.17.07-.61-2.95-1.45s-6.53-1.69-5.68-2.21a15.41,15.41,0,0,1-3.91-.41c-1.55-.34-3.31-.82-5.15-1.34L181,483.41c-1.86-.61-3.67-1.17-5.33-1.59a5.57,5.57,0,0,1,1.7.37,73.59,73.59,0,0,1-6.73-3.11c-.8.73-6.4-1.34-9.62-2-4-2.66,3.09,0,2.08-1.37,0,.4-2-.16-3.8-.74s-3.37-1.2-2.78-.56c-3-2.06-2.68-1.58-4-3.1-1.1.82-3.14-1.17-6.08-1.95-4.32-3-.65-1.64-5.86-4C138.4,463.78,143.08,465.76,143.08,465.76ZM46.27,373.44h0l1.39,2.43Zm-5.37-10.1c.6,1.26,1.34,2.83,2.19,4.46,0,.45-.48.21-1-.83C42.54,367.45,41.47,365,40.9,363.34ZM48.68,387c-1.06-1.52-1.27-2.11-1.28-2.41.47.74,1,1.59,1.78,2.7,0,0,.13.11.19.14A2,2,0,0,1,48.68,387Z"/><path class="cls-2" d="M51.21,389.33l.46.61c-.16-.35-.31-.68-.47-1l-.52-.44Z"/><path class="cls-2" d="M458.31,391.53l.15-.19a3.22,3.22,0,0,1-.36.37A2.08,2.08,0,0,1,458.31,391.53Z"/><polygon class="cls-2" points="21.34 209.84 21.16 209.82 21.12 210.83 21.34 209.84"/><path class="cls-2" d="M414.7,437.45a2.59,2.59,0,0,0-.75.4A4.07,4.07,0,0,0,414.7,437.45Z"/><path class="cls-2" d="M393.08,454l-3.31,2C391.22,455.19,392.26,454.56,393.08,454Z"/><path class="cls-2" d="M375.19,464.91a1,1,0,0,0-.21.46l0,0Z"/><path class="cls-2" d="M483.08,178.16c-.09-.27-.19-.53-.28-.76C482.07,175.66,482.55,176.85,483.08,178.16Z"/><path class="cls-2" d="M496.75,275.55c0-1.06-.06-2.1,0-3.2C496.5,274.1,496.36,275.47,496.75,275.55Z"/><path class="cls-2" d="M424.44,86.23h0l-.48-.47Z"/><path class="cls-2" d="M496.92,267.74a30.29,30.29,0,0,0-.2,4.61A44.31,44.31,0,0,0,496.92,267.74Z"/><path class="cls-2" d="M289.81,493.73l-1,.13c0,.05,0,.09-.11.13Z"/><path class="cls-2" d="M288.71,494l-1.1.2A3.74,3.74,0,0,0,288.71,494Z"/><path class="cls-2" d="M285.29,494.62l2.32-.43A8.73,8.73,0,0,0,285.29,494.62Z"/><path class="cls-2" d="M317,488.59l.24-.33A.39.39,0,0,0,317,488.59Z"/><path class="cls-2" d="M325.11,486.3c-1.93.56-5,.8-7.66,1.7l-.2.26C318.41,487.53,323.41,487.3,325.11,486.3Z"/><path class="cls-2" d="M359.25,476.67c-2.18,1-4.42,1.8-6.62,2.7,1.25-.25,2.91-.57-.05.78C361.18,477.28,350.64,480.37,359.25,476.67Z"/><path class="cls-2" d="M379.07,466.73c-3.3,2,.23.32.13.55a8.15,8.15,0,0,0,1.65-1.3C380.88,465.86,380.38,466.14,379.07,466.73Z"/><path class="cls-2" d="M482.28,347.73l.44.6C483.77,345.55,482.5,348.21,482.28,347.73Z"/><path class="cls-2" d="M488.85,317.85c-.35.88-.7,1.77-1.12,2.64l.18,1.45C488.26,320.59,488.6,319.23,488.85,317.85Z"/><polygon class="cls-2" points="497.25 301.26 497.09 302.56 497.81 297.63 497.25 301.26"/><path class="cls-2" d="M405.23,61.21q.13.57.24,1.17C407.1,63.54,408,63.09,405.23,61.21Z"/><path class="cls-2" d="M299.27,15.29A15.3,15.3,0,0,0,292.84,14c1.29.21,2.57.49,3.69.72S298.61,15.23,299.27,15.29Z"/><path class="cls-2" d="M22.93,178.62l.54-2.3c-.42,1.42-.88,2.82-1.21,4.27C22.48,179.93,22.67,179.26,22.93,178.62Z"/><path class="cls-2" d="M404.35,297.35c.39-.82-.27-.74-1.85,1.17-.18.62-.36,1.26-.59,1.86C402.77,299.41,403.54,298.36,404.35,297.35Z"/><path class="cls-2" d="M391.07,307.33c-2.11,2-4.68,4.24-2.66,3.93,1-1.08,1.72-1.67,2.41-2.3a14,14,0,0,0,2.35-2.59,23.23,23.23,0,0,1,2.46-1.75c.62-.37,1-.47.94-.22.28-.34,1-.95,1.78-1.64.38-.34.76-.69,1.09-1a5.15,5.15,0,0,0,.71-1.06,88,88,0,0,0-8.92,7.22C390.37,308.24,391,307.57,391.07,307.33Z"/><path class="cls-2" d="M217.59,215.21l.11,1.52C217.69,216.31,217.65,215.79,217.59,215.21Z"/><path class="cls-2" d="M307.34,134a4,4,0,0,0-1.6-.21C306.74,134,307.56,134.13,307.34,134Z"/><path class="cls-2" d="M328.82,145.05l-1.12-.89A5.45,5.45,0,0,0,328.82,145.05Z"/><path class="cls-2" d="M217.59,215.21c-.07-1.3-.21-2.59-.23-3.89-.14-.12-.16.38-.09,1.15Z"/><path class="cls-2" d="M361.3,321.64a12.94,12.94,0,0,0,2.09-.66c-.66.2-1.31.36-2,.51A.63.63,0,0,1,361.3,321.64Z"/><path class="cls-2" d="M237.87,276c.19.34.37.69.58,1a8,8,0,0,0,.79.67C238.78,277.1,238.3,276.55,237.87,276Z"/><path class="cls-2" d="M273.06,308a2.61,2.61,0,0,0-2.15.12,7.13,7.13,0,0,1,2.41.53C273.39,308.49,273.32,308.29,273.06,308Z"/><path class="cls-2" d="M349.78,320.39l1.38-.23Z"/><path class="cls-2" d="M225,243.25a1,1,0,0,0,.11-.5C225,242.77,225,243,225,243.25Z"/><path class="cls-2" d="M90.11,334.5c0-.06-.08,0-.12,0C90,334.77,90,334.88,90.11,334.5Z"/><path class="cls-2" d="M45.27,343.05l.26.74a.71.71,0,0,0,.42,0Z"/><path class="cls-2" d="M350.55,181.69c0-.08,0-.11,0-.19C350.24,180.41,350.37,181,350.55,181.69Z"/><path class="cls-2" d="M253.91,247.79c-2.1-4.43,5,6.24,1.6-.3C255.61,248.26,251.09,242.38,253.91,247.79Z"/><path class="cls-2" d="M360,321.8c-.67.15-1.36.25-2.05.36A17.68,17.68,0,0,0,360,321.8Z"/><path class="cls-2" d="M255.51,247.49h0l-.35-.67Z"/><path class="cls-2" d="M287.43,227a4.39,4.39,0,0,0,.67.82C288.11,227.76,288,227.56,287.43,227Z"/><path class="cls-2" d="M348.78,206.85l-.82,1.68C348.31,207.88,348.57,207.33,348.78,206.85Z"/><path class="cls-2" d="M270.58,194.81c.22-1,.31-1.3.52-2.64a3.76,3.76,0,0,0-.17.39A10.15,10.15,0,0,1,270.58,194.81Z"/><path class="cls-2" d="M297.83,174.83c-.17-.12-.41-.24-.62-.37a9.36,9.36,0,0,0-1.19-.28A12.57,12.57,0,0,1,297.83,174.83Z"/><path class="cls-2" d="M121.37,209.24a8.4,8.4,0,0,1-1.36,1.54C120.74,210.38,118.43,216.14,121.37,209.24Z"/><path class="cls-2" d="M361.2,321.26a2.43,2.43,0,0,1-1.21.54l1.42-.31C361.51,321.36,361.52,321.26,361.2,321.26Z"/><path class="cls-2" d="M265.37,192.21a35.6,35.6,0,0,1,2.25-7.18A30.65,30.65,0,0,0,265.37,192.21Z"/><path class="cls-2" d="M361.35,125l-1-1.1A7,7,0,0,0,361.35,125Z"/><path class="cls-2" d="M283.66,169.4c1.41-.19,2.87-.38,4.38-.49a6.41,6.41,0,0,0,.87-.28l-1.32.07c-.44.05-.87.12-1.31.18A21.3,21.3,0,0,0,283.66,169.4Z"/><path class="cls-2" d="M120,210.79h0Z"/><path class="cls-2" d="M107.29,253.14c1.73-6.15-.07-3.14-.21-4.59,1.87-7.43,1.65-3.21,2.83-5.57.55-2.32.93-4.4,1.31-6.33a34.66,34.66,0,0,1,1.34-5.4c.23-.2.51-.83.42,0,.88-5,5.07-14.07,6.5-19.83a2.35,2.35,0,0,1,.52-.62c-.8.69-1.3.65-1.53.34,1.14-2.65,1.6-5.15,2.59-5.9a7.25,7.25,0,0,0-.72,2.68l1-2.87c1.89-2.13-1.38,3.89-.78,4.15.51-1.38,1-2.82,1.56-4.26s1.13-2.89,1.67-4.29a54.12,54.12,0,0,1,3.42-7.35c.59-.23-.53,2.15-1.38,4s-1.37,3.07.28.54c-1.13,2-2.17,4.09-3.27,6.15,3.47-4.25-1.86,3.78,1.5,0,1-2,1.76-3.65,2.41-5s1.18-2.53,1.7-3.69a79.8,79.8,0,0,1,4.43-8.55c.59-2-1,.24-.35-1.77a44.31,44.31,0,0,1,3.62-6.24,24.51,24.51,0,0,1,2.64-3,23.82,23.82,0,0,0,2.26-2.45,26.41,26.41,0,0,0,2.77-4.48c.44-1.18.6-2.11,1.2-3.4a22.56,22.56,0,0,1,3.89-5.48c-.23.8-.44,1.6-.62,2.42a27.54,27.54,0,0,0,3.8-5.89c.57-1.22,1.31-2.39,4.52-5.73-.77,1.5-4.21,5.52-3.26,4.57,2.21-2.05,2.78-3,3.17-3.78a9.92,9.92,0,0,1,2.13-3.31l1.28-.14c6.12-7.08,13.12-14.76,21.15-21.4-.29.56-1.51,1.87.55.56,2.44-2.18,5.17-4.17,7.92-6.21,1.39-1,2.86-1.92,4.3-2.88l2.17-1.41c.74-.45,1.49-.87,2.24-1.31a125.78,125.78,0,0,1,18-8.77c1.35-.88,2.71-1.76,4.12-2.57,1-.41,2-.47,1,.12,4.64-1.58.06-.53,2.14-1.68,2.6-1,3.62-.86,2-.07a116.06,116.06,0,0,1,15.72-5.76A84.71,84.71,0,0,1,258,93.5l-1.72.49c7.05-.73,7.8-2.56,14.47-2.4l-1.26.23a178,178,0,0,1,23.56.25A84.2,84.2,0,0,1,313.41,96a8.93,8.93,0,0,1,3.33.45c.74.2,1.57.42,2.41.68l2.58.87c1.73.57,3.38,1.24,4.72,1.62s2.3.65,2.67.4a59.13,59.13,0,0,1,6.87,4.07l1.38.88,1.74,1.17c1.37.87,3.13,2.08,5.57,3.87s4.48,2,7.65,4.59l-.44.64c.76.51,1.56,1,2.3,1.52l2.23,1.64c.49.88.88,1.85,1.31,2.76l1.34,1.32,1.27,1.4a17.28,17.28,0,0,1-1.19-1.79c-.31-.5-.46-.86-.3-.85a36.57,36.57,0,0,1,3.1,3.62c.95,1.33,1.86,2.68,2.59,3.94s1.31,2.38,1.69,3.22a4.15,4.15,0,0,1,.48,1.47,101.38,101.38,0,0,1,7,12.15c-.42-.16-1.47-2.28-2.46-3.86,2,3.22,1.89,3.64,1.81,3.95s-.22.58,1.44,3.61c-.2-.91.62.29.81.38.2.85.52,1.95.92,3.19s.82,2.68,1.31,4.15c.92,3,1.94,6.24,2.75,9l-.78-.95c2.55,10.16,5,21.63,5.59,33.38,0-4.22,1-3.34,1.27.14l-.74,1.41c.58,2.22.16-3.63.94.95,0,4.43-.86,3-1.18.46.14,1.78.28,3.56.32,5.34-.25.31-.36-.94-.66-1.27a22.83,22.83,0,0,1-.28,5.78c-.24,2.4-.65,4.88-.34,6.49l-.27.27a121.3,121.3,0,0,1-2.39,13.74c-.51,1.9-.92,3.76-1.57,5.65-.32.95-.58,1.94-1,2.94l-1.2,3.13c.3.23,0,1.16-.41,2.39s-1,2.75-1.45,4.12a85.17,85.17,0,0,1-14.28,18c-1.95,2.19-2.23,2.53-2.14,2.67s.49,0-.38,1c-.4-.12-2.1,1.28-3.49,2.1s-2.21,1.37-.63-.1c-1.94,1.57-3.67,2.64-5.21,3.68-.76.53-1.55.91-2.3,1.36s-1.48.89-2.25,1.29l-2.44,1.21-1.32.65-1.45.6a57.17,57.17,0,0,1-7.42,2.58,14.91,14.91,0,0,0,1.88-.15c.47,0,.67,0,.31.21a12.62,12.62,0,0,1-3.39.64c-1,.08-1.65,0-1.51-.15l.58-.18-1.3.34c-.44.09-.89.14-1.35.21l-2.76.37c-.94.1-1.9.05-2.86.08s-1.93,0-2.91,0l-2.92-.33a22.17,22.17,0,0,1-2.92-.46,49.09,49.09,0,0,1-5.7-1.47c-7.46-2.31-13.89-6-19-8.45l.58.28L287,274.61l-2.5-1.58c-.82-.54-1.69-1-2.48-1.61l-2.42-1.75c-4.14-3.54,2.84,1.71,0-1.15a61.11,61.11,0,0,1-11.71-11.16c-3-3.76-5.63-7.37-8.72-11.67-1.42-3.93-5.09-10.15-7.93-17.1A63.29,63.29,0,0,1,247.82,218a33.75,33.75,0,0,1-.92-9.38l-.4.64a6.59,6.59,0,0,1-.13-2.94c.12-.75.3-1.39.42-2.39-.41.26-.45,3-.69,1.25a43.65,43.65,0,0,1,.84-8.74A41.34,41.34,0,0,1,249.7,188l.44-1,.53-1c.35-.66.68-1.33,1.05-2,.81-1.27,1.55-2.58,2.47-3.78a44.74,44.74,0,0,1,6-6.78l1.68-1.52,1.77-1.39a18.14,18.14,0,0,1,1.83-1.33c.63-.41,1.23-.86,1.88-1.24a46.78,46.78,0,0,1,8-3.89,39.19,39.19,0,0,1,17.16-2.24c2.06.2,3.36.36,4.37.37s1.71,0,2.47,0a7.76,7.76,0,0,1,2.83.51,14.79,14.79,0,0,1,4.8,3,21.85,21.85,0,0,0-2.89-.89,21.71,21.71,0,0,1,9,8.28A19.34,19.34,0,0,1,316,184.88a16.53,16.53,0,0,1-5.28,10.38,16,16,0,0,1-10.43,4.52,9.35,9.35,0,0,0,1-.28,4.52,4.52,0,0,1,1.35-.28,31.64,31.64,0,0,1-4.11-.32l-.14,6.92c.68-.15,1.37-.32,2.05-.51a15.51,15.51,0,0,0,1.92-.8,10.53,10.53,0,0,0,1.68-1l.75-.53.63-.57c.39-.38.76-.72,1.06-1.05s.5-.65.68-.92c.37-.52.55-.84.49-.91,1-1.36,1.21-1.47,1.35-1.42s.22.26.84-.62a15.3,15.3,0,0,0,2.35-7.5c.18-2.64-.17-5-.13-6.25,0-.22.11.1.23.58a7.76,7.76,0,0,1,.28,1.57l-.08-.67c-.05-.25-.11-.52-.16-.82a16.27,16.27,0,0,0-.44-2,17,17,0,0,0-1.75-4.22,19.26,19.26,0,0,0-1.12-1.67c-.37-.43-.7-.79-.95-1-.49-.48-.66-.52-.32.15a9.3,9.3,0,0,0-1-1.14,13.17,13.17,0,0,0-1.09-1,17.65,17.65,0,0,0-2.42-1.7,20.13,20.13,0,0,0-5.15-2.13,31.25,31.25,0,0,0-10-.74,47.94,47.94,0,0,0-7.9,2.75c-2.73,1.37-4.7,3.18-4.77,4-.17-.62-2.95,1.5-5.15,5a28.36,28.36,0,0,0-2.65,5.57,24.18,24.18,0,0,0-1.09,4.77c0-.81-.3.17-.61,1.13s-.54,1.92-.63.95a28.62,28.62,0,0,0-.24,7.19c.22,1.81.54,2.79.78,2.29a25.49,25.49,0,0,0,4.06,13.69c2.27,3.83,4.83,6.64,6.07,9.27a48.35,48.35,0,0,0,19.38,11.76,43,43,0,0,0,21.23,1.43c-.07.32-1.08.61-2.55.88a31,31,0,0,1-5.31.31c-3.8,0-7.37-.78-7.19-.13a39.64,39.64,0,0,0,9.29.38,36.89,36.89,0,0,0,8-1.49,55.75,55.75,0,0,0,15.36-7.16c1.44-.89,1.12-.52.32.18s-2.06,1.76-2.55,2.08a55.91,55.91,0,0,0,14.19-13,46.92,46.92,0,0,0,8.2-16.06,9.83,9.83,0,0,1-.53,2.47c.75-2.2,1.91-5.08,1.28-5-.11.75-.36,1.46-.54,2.19-.47.82-.61.65-.57-.06s.3-1.95.42-3.35a27.26,27.26,0,0,0,.34-6.22c.43,2,1-.78,1.26-3.36.19-1.28.23-2.49.39-3s.46-.33.95,1.24c-.12-1.54-.41-3.44-.75-3.07a12.87,12.87,0,0,1,.1-2c.09-.19.3.19.58,1.33-.25-2.08-.5-3.44-.69-4.43s-.48-1.59-.67-2.18-.37-1.16-.6-2-.62-2-1.1-3.82c.25-.05.72,1.38,1.2,2.06-.37-.89-.69-1.78-1.1-2.69s-.86-1.83-1.29-2.84-1-2.05-1.5-3.23-1.16-2.43-1.82-3.85c.3.27.14-.47,1,1.2a50.45,50.45,0,0,0-8.49-11.89,113,113,0,0,0-11.25-10.33c3.44,1.19-3-2.67-3.09-3.68-1.82-1.11-3.78-2-5.69-2.92l2,1.62c-4.9-2.69-9.7-3.79-14.14-5.38l4,.86A71.77,71.77,0,0,0,304,129.82c1.9.42,3.75,1.06,5.61,1.63-2.76-.43-2.67-.11-2.79.07s-.39.15-3.92-.61c1.46.13-5.32-.94-8.14-1.51h0c-2.71.12-5.46.41-9.47.36-1.07-.23.78-1.07.09-1.23-1.32.49-4.51.77-7.76,1.35-1.62.26-3.24.67-4.67,1a19.81,19.81,0,0,0-3.37,1.23c1-.45,1-1,.6-1-.68.39-1.36.74-2,1.17-2.47.53-2.86.54-2.58,0-3.66,1.12-3,1.27-2.49,1.34.25,0,.44.09,0,.29a9.87,9.87,0,0,1-1.12.42c-.58.18-1.37.42-2.43.81a11.74,11.74,0,0,1,1.63-.9c-8.62,3-15.68,7.86-22.32,12.82-1.25.43.11-.81,1.52-1.91s2.81-2.15,1.43-1.63a68.34,68.34,0,0,0-7,6,72,72,0,0,0-11.37,14.68c-.81,1.29-1.47,2.66-2.2,4s-1.36,2.66-1.89,4c.3-.66.61-1.32,1-1.95.2,1-.7,2.92-2,5.34-.53,1.24-1.12,2.61-1.66,4a26.65,26.65,0,0,0-1,4.42c.25-1.42-.27-2-.21-1.59a49.65,49.65,0,0,0-1.21,6c-.15,1-.2,2.11-.31,3.2s-.18,2.22-.17,3.37a93.8,93.8,0,0,0,1,15.66l-.48-1.45a70,70,0,0,0,.82,8.5c.26,1.54.5,3.1.77,4.58s.54,2.86.76,4.11c.66,1.38,1.26,4.19,1.35,2.38.81,7.77,3.17,14.82,5.68,21.52s5.25,13.07,7.42,19.66c-.69-1.49-1.9-3.46-1.36-2.26,1.69,3.55,3.54,7,5.54,10.41.06-1.1-.43-1.53-1.21-3.9a24.88,24.88,0,0,1,2,2.7c.75,1.15,1.62,2.42,2.35,3.67-1.5-2.15-1.7-2-1.4-1.09.14.46.41,1.14.7,1.82l.9,1.89c-.06-.41.53.14.58-.12a9.43,9.43,0,0,0,1.4,2.53,1.87,1.87,0,0,0,.88.58,2.94,2.94,0,0,1,1.16.88,24.3,24.3,0,0,1,2.5,3.27l-.51-.15c1.06,1.15,2.18,2.17,3.28,3.23s2.27,2.1,3.5,3.24c.3.7-.38.22-1.18-.44s-1.69-1.53-2-1.42a35.29,35.29,0,0,0,5.53,4.34c1,.62,1.9,1.25,2.79,1.91a18.13,18.13,0,0,1,2.56,2c-.87-.5-1.9-1.17-2.94-1.84s-2-1.45-2.84-2a25.31,25.31,0,0,0,3.48,3.41c.92.72,1.74,1.33,3.21,2.29l-.28-.2c1.11.78,2.22,1.56,3.39,2.25l1.74,1.07,1.78,1-1.76-1.12a51.51,51.51,0,0,1,8.86,3,42.83,42.83,0,0,0,10.35,3c-7.71-1.23-1.41.23-2.19.8,1.9.79,4.85,1.85,3.93,1.82,3.83.36,6.06,2,11.49,2.21.19.28,4,.77,3,1.21,4.88.64-1.07-.6-.61-.86,3.8.27,8.13,1.22,12.91,2.08a71.07,71.07,0,0,0,15.51,1.42,69.25,69.25,0,0,0,10.18-.51l9.58-1.14c1.47.09.89.36-.06.6-.48.12-1.05.23-1.5.32l-.78.12a48,48,0,0,0,12.69-1.35c-.86.35.1.41,1.49.42,3.54-.76,2.2-1.28,6.88-2.07a14.7,14.7,0,0,1-3.28,1.8,89.91,89.91,0,0,0,12.09-4.54c.61,0,.06.39-.84.87s-2.13,1-2.83,1.41a72,72,0,0,0,7.82-3.37,19.35,19.35,0,0,0,5-3.22c-.95.45-1.94.83-2.92,1.22,1.59-.82,1.09.11-.06.81-3.64,2.29-5.73,2.19-6,2.06.94-.44,1.9-.83,2.83-1.31-1.75,0-4.59,1.17-7.86,2.45a55.43,55.43,0,0,1-10.06,3.13c.79-.51,1.57-1,2.34-1.54q-3,1.11-6.14,2c-.69,0-1.29-.16-1.34-.36s.47-.44,2-.76c-4.47.14-3.86.93-7.72.74-.43,0-.24-.11.14-.19-1.43.22-2.86.43-4.31.6.84-.27-.75-.67,1.91-.7-7.75-.11-12.54,1-15.45.11l.66,0c-5.4-.09-5.68,0-5.62.3s.45.64-3.65.74q-2.65-1.2-5.25-2.44l-1.15.63c-1.11-.17-3.29-.5-2.85-.75-4.19-.05.66.42-1.8.58-2.62-.71-6.3-1.17-9.45-1.7s-5.76-1.08-6.23-1.8c-2,.19,5,1.44-.75.71-1.33-1.59-6.56-1.15-11.14-3.09,1.63-.2,6,1.27,1.45-.55a8.48,8.48,0,0,1-2.81-.34,30.7,30.7,0,0,1-3.38-1.19c-1.17-.48-2.34-1-3.47-1.53a31.12,31.12,0,0,0-3.17-1.33c-.13.2-.72.1-1.62-.22a28.46,28.46,0,0,1-3.51-1.5,96.58,96.58,0,0,1-9.06-5.14c.14,0-.44-.5-1.46-1.29-.52-.39-1.09-.92-1.76-1.48s-1.42-1.16-2.15-1.88a60.26,60.26,0,0,1-8.09-9.05l.24.05c-.74-.18-2.13-1.58-3.58-3.51s-3-4.32-4.32-6.36c.59-.12,1.16.55,2.77,2.59-.84-1.23-1.55-2.56-2.33-3.83a19.93,19.93,0,0,1-3-4.5l1.12.71c-2.77-5.29-5.9-10.64-8.11-18.13-.74-.22.44,6.47-2.75-1.21.22-.4.68-.88,1.53,1.12a22.62,22.62,0,0,1-1.42-3.7c.52,1,1.08,2,1.62,2.93-.92-3.44-1.08-1.59-1.92-4.32.49-.1-.32-2.11.18-1.84a29,29,0,0,0,1.1,3.39,42.71,42.71,0,0,1-1.81-8.19c-.19.35-.64.2-1.37-2-1.72-5.82,0-2.16-.72-5.63-.72-1.32-1.32-5.14-2.07-5.06a6.3,6.3,0,0,1-.09-2.83,79.72,79.72,0,0,1-1.86-7.8c-.28-1.38-.54-2.56-.73-3.16s-.33-.65-.39.26l.09.8c0-.15-.08-.32-.12-.5v0a65.85,65.85,0,0,1-1.49-15.69,104.42,104.42,0,0,1,1.48-15.54l.24.06q.08-.56.15-1.14c.08-.37.15-.75.23-1.14.17-.77.34-1.55.5-2.33a23.57,23.57,0,0,1,.63-2.33c.22-.77.45-1.53.67-2.28.47-1.5,1.06-2.89,1.5-4.22s1-2.47,1.32-3.52c.86-1.58,2.45-3.46,2.33-2.64.56-1,1-1.79,1.38-2.48s.78-1.28,1.21-1.92a19.4,19.4,0,0,1,1.59-2.12,39.07,39.07,0,0,1,2.69-2.95c-1.34,1.89-1,1.65-.86,1.53s.05-.16-1.89,2.31l1.31-1.54,1.18-1.25,1-1.09c.35-.33.68-.66,1-1l2.06-2.16c.39-.41.79-.85,1.22-1.35l1.5-1.59c-.6,1,.34.33,1.74-.68s3.27-2.45,4.35-3.35c-1.19.71-2.42,1.37-3.58,2.14a51.42,51.42,0,0,1,7.18-5l-.84,1.51c5.33-2.82,10-5.58,14.62-7.72s9.25-3.64,13.92-3.64c1.52-.59-.1-.38-1.79-.18s-3.39.56-2.07-.13a38.46,38.46,0,0,1,8-.75c1.19,0,2.27.06,3.15.09a18.94,18.94,0,0,0,2,0,42.13,42.13,0,0,0,4.42-.13,27.7,27.7,0,0,0,2.95-.36,21.56,21.56,0,0,1,3-.25,22.44,22.44,0,0,1,4.64.43c-.48-.21-.94-.54-.53-.76a3.72,3.72,0,0,1,1.39-.22,26.68,26.68,0,0,1,3.34.32,17.66,17.66,0,0,1,3.29,1,4.81,4.81,0,0,1,1.56.86c.47.49-.16.61-1.9.33-1.3-.3-1.91-.54-1.83-.63-1.79-.28-4.13-.54-2,.16l.77-.16c.67.18,1.61.5,2.65.79s2.14.61,3.08,1c1.92.68,3.24,1.26,2.32,1.2,2,.6,2.45.65,2.06.38a18.35,18.35,0,0,0-3.1-1.38l1.22.45,1.13.49,2.14.88c1.36.59,2.6,1.2,3.88,1.76s2.47,1.29,3.78,2l2,1.28a20.6,20.6,0,0,1,2.09,1.51c-.82-.83-1.54-1.68-.57-1,2.12,1.65,3.43,2.62,4.24,3.31a8.43,8.43,0,0,0,1.62,1.06c.72.32,1.1.37,3.81,2.87,1.25,1.7.79,1.6.69,1.74s0,.19.36.61c.18.22.46.51.84.9s.84,1,1.45,1.64c2.56,3.67,0,1.2-1.31,0,.57.6,1.11,1.2,1.63,1.8s.94,1.26,1.38,1.88.86,1.23,1.22,1.86.66,1.26,1,1.86a31.62,31.62,0,0,1,1.56,3.45l.64,1.52c.17.49.34,1,.51,1.39-.26-.51-.5-1-.79-1.51l-.89-1.47a31.33,31.33,0,0,1,2.38,4.86l-.23-2c.34,1,.72,1.81.9,2.46s.25,1.07.13,1.09c1.05,1.85.4-1.87,2.27,1.94.5,2.69,2.25,8.1,1.4,9.16,0-.54-.08-1-.11-1.4s-.12-.73-.17-1a9.29,9.29,0,0,0-.26-1.12c-.14-.41-.22-.23-.31,0s-.17.48-.33.24a2.78,2.78,0,0,1-.3-.78c-.12-.42-.24-1-.5-1.9a12.57,12.57,0,0,1,.54,2.23c.14.83.32,1.73.4,2.73-.07.31-.17-.26-.33-.79a39,39,0,0,0,.3,4.06,7.51,7.51,0,0,0,.39,1.77,9.9,9.9,0,0,1,.51,1.85,21.91,21.91,0,0,1,0,4.28c-.31-1.09-1.12,1.8-1.24,3.14.25-1.64.5-2,.66-1.58a4.67,4.67,0,0,1,.17,1.19,8.65,8.65,0,0,1-.08,2c-.41,1.29-.66,2.31-.89,3.13s-.43,1.44-.57,2-.24,1.06-.35,1.58-.37,1-.66,1.69l.72-1.47c.23-.5.4-1,.61-1.52a7,7,0,0,1-.65,2.77l-.8,2.07c-.31.76-.74,1.55-1.15,2.42-.45.13,1.4-3.2.64-2.05a16.91,16.91,0,0,1-1.39,3.11c-.61,1-1.42,2-2.19,3.06s-1.77,2-2.63,3.1-1.9,2.1-2.76,3.31c-2.14,1.7-.78-.39-2.61,1.1a17.38,17.38,0,0,1-2.86,2.69c-.42.32-.8.63-1.2.88l-1.19.66c-1.55.9-3.15,1.72-6.05,3.4,1-.09,1.57-.31,1.39-.08a21.26,21.26,0,0,1-3.24,2,45.57,45.57,0,0,0,9.57-5.88c-.89.81-1.82,1.6-2.74,2.41s-2,1.44-2.95,2.18c.75-.42,1.52-.87,2.26-1.32a20.62,20.62,0,0,0,2.09-1.5c.65-.51,1.29-.94,1.82-1.4s1-.86,1.43-1.16c-1.19,1.3-1.77,1.85-1.85,2s.43,0,1.21-.39c-2.18,1.08-4,2.51-6.13,3.8a21.82,21.82,0,0,1-3.3,1.82,12.23,12.23,0,0,1-1.82.76c-.64.19-1.3.36-2,.5l-.3-1.45-1.42.37-1.42.26c-.93.17-1.83.41-2.74.58a48.87,48.87,0,0,1-5.53.67,30.19,30.19,0,0,1-13-2c1,.44,2.08.88,3.15,1.25a10.69,10.69,0,0,1-4.11-1c-1.78-.67-3.68-1.66-5.25-2.38.51-.28-1.27-1.47-2.31-2.51,0,.19-1.63-.84-3.29-2.05s-3.35-2.63-4-2.63a40.37,40.37,0,0,1-2.65-3.93c-2.46-3.41-3.83-5.35-5.17-7.37-.34-.5-.63-1-.94-1.57a14.93,14.93,0,0,1-.87-1.79,19,19,0,0,1-1.32-4.93c.45,1.19.65.82.85.86s.22.11.4.54.45,1.16.89,2.43c-.77-2.56-.9-5-1.26-5,0-.79-.27-2.62-.36-4.61a13.63,13.63,0,0,1,.58-5.27,8.51,8.51,0,0,1,.59-4.59c.2-.28.22.1.22.1a8.21,8.21,0,0,1,.49-2c.27-.82.38-1.39-.48-.27a48,48,0,0,1,4.55-5.86,23,23,0,0,1,6.64-5,19,19,0,0,1,7.9-1.82,13.69,13.69,0,0,1,6.37,1.39,15.2,15.2,0,0,1,2,.74,14.77,14.77,0,0,1,2,1,14.21,14.21,0,0,1,3.42,2.95,12.43,12.43,0,0,1,2.84,7.83c-.17-.33-.25,0-.24-1,0,.44,0,.84,0,1.2s-.05.71-.06,1,0,.59,0,.85-.05.49-.06.7c0,.44,0,.81,0,1.15s0,.65,0,1a7.21,7.21,0,0,1-.4,2.33,15.15,15.15,0,0,1-.83,1.7,11.69,11.69,0,0,1-1.72,2.06c-.85.68-1.18.65-1.09.51s.47-.6.87-1.09a9,9,0,0,0,1-1.35c.19-.31.19-.36-.25.12-.64,0-1.41.83-2.56,1.77a10.27,10.27,0,0,1-4.61,2.4l-10.79,2.1,10.7,1.86a27.24,27.24,0,0,0,7.71,0c-.53.15-1.06.31-1.6.44a15.38,15.38,0,0,0,8.49-3.61,26.39,26.39,0,0,0,7.08-8.9s0,.43.2.15a24.65,24.65,0,0,0,1.08-11,26,26,0,0,0-1.6-6.1,28.3,28.3,0,0,0-2.84-5.24c1.77,1.63,2,2.82,1.87,1.21-.91-1.47-1-1.11-1.32-1.12-.15,0-.38-.08-.8-.5-.22-.21-.47-.5-.81-.9s-.78-.89-1.33-1.5a24.67,24.67,0,0,0-2.71-3.46c-.52-.59-1-1.14-1.43-1.58a3.1,3.1,0,0,1-.71-1.06,30.24,30.24,0,0,1,5,4.18,12.08,12.08,0,0,0-4.26-4.13,52.42,52.42,0,0,0-5.35-2.73l.56-.17a24.71,24.71,0,0,0-5.72-1.74,27,27,0,0,0-4.14-.4,71.31,71.31,0,0,0-10.39.45c.37,0,.73.12,1.1.17a20.66,20.66,0,0,1-5.06,1,12.21,12.21,0,0,0-1.95.27c-.39.1-.82.22-1.31.39s-1,.45-1.67.76c-.64-.13-1.29-.26-1.95-.37-.84.43-2,1-3.33,1.72s-2.8,1.65-4.26,2.74a57,57,0,0,0-8.24,7.08,20.43,20.43,0,0,1,2.24-2.67l1.49-1.5c.54-.49,1.12-1,1.7-1.46,1.14-1,2.45-1.87,3.66-2.76s2.46-1.55,3.51-2.2c-.84.41-2,1-3.2,1.67s-2.52,1.52-3.7,2.41a25.66,25.66,0,0,0-4.94,4.45c.52-.54,1.13-1.12,1.75-1.71.31-.29.62-.57.93-.83a8.11,8.11,0,0,1,1-.66c-1.63,1.65-3.42,3.58-5.4,5.77a81.27,81.27,0,0,0-6,7.8c-.2-.53-1.06.13-2.11,1.63a20.72,20.72,0,0,0-1.74,2.77c-.3.54-.61,1.12-.93,1.71s-.56,1.25-.85,1.9a59.08,59.08,0,0,0-2.82,8.1c-.32,1.31-.6,2.53-.91,3.59a19.91,19.91,0,0,1-.73,2.63,80.33,80.33,0,0,0,.24,9.94,85.44,85.44,0,0,0,1.55,9.9,78.68,78.68,0,0,0,7.49,19.94c-.58-2.72-.06-1.74.72-.28s1.88,3.34,2.32,2.57l1.94,3.18a6.36,6.36,0,0,1,.67,1.2c1.6,3.14,3.38,6.2,5.28,9.19.61,1.12,0,.53-.72-.3s-1.57-2-1.62-1.71c1.08,1.6,1.78,2.53,2.19,3.16a5,5,0,0,1,.61,1.19c.16.5,0,.8,1.54,2.9-.14-.58.45-.19,1.43.76s2.29,2.5,3.8,4.13c-1.32-1.62-2.48-3.36-3.67-5.06,1,.95,1.77,1.77,2.45,2.52s1.32,1.34,1.82,1.92c1,1.15,1.72,2.12,2.47,3a30.35,30.35,0,0,0,7.54,6.83l-3-1.81c.57.41,1.25.93,2,1.53l1.21.93,1.37,1,3,2.09c1.06.68,2.19,1.33,3.31,2l1.67,1,1.73.85c1.14.55,2.25,1.08,3.29,1.55a35.81,35.81,0,0,0,5.46,1.66c.87.5,2,1.34-.42.6a55.7,55.7,0,0,0,21.09,4.05c1.8,0,3.57-.16,5.3-.23s3.39-.42,5-.59,3.14-.6,4.61-.85,2.81-.67,4.12-.92l-.89.64a21.17,21.17,0,0,0,3.28-1.41,22.9,22.9,0,0,1,3.76-1.43c-.08.21-.78.77.3.3l3.74-2.14c.81-.51,1.69-1.05,2.54-1.55l1.27-.71c.4-.24.78-.48,1.15-.68-.37.31-.72.64-1.1.94l-1.14.88a49.14,49.14,0,0,0,13-10,121,121,0,0,0,9.09-11.53c.22.17.77-.21,1.52-.95a22,22,0,0,0,2.68-3.13,43.37,43.37,0,0,0,2.85-4.23c.87-1.46,1.72-2.85,2.27-4l.07.23A73.69,73.69,0,0,0,389,230.6a123.09,123.09,0,0,0,1.71-19.32c.83-4.28,1-11.65.3-19.59s-2.22-16.43-3.46-23.25c.26,2.11-.87-.15-1.61-2.5-.52-3.22-3.14-8.41-2-8.21l.33,1.11c.27-2.63-2.09-9-4.13-13.82l-1.55-.29a50.06,50.06,0,0,0-4.39-10.66c-1-1.85-2.1-3.63-3.23-5.42s-2.39-3.5-3.7-5.11c-5-6.61-10.78-11.46-13.14-14.54-1.44-.9-2.92-2.06-4.52-3-.79-.5-1.56-1-2.34-1.49s-1.57-.86-2.31-1.23l.53-.51a80.29,80.29,0,0,0-10.37-5.8,86,86,0,0,0-12.59-4.76l2.38.23a22.11,22.11,0,0,0-4-1,28.24,28.24,0,0,0-3.21-.17c-1,0-2,0-3.1,0a26.83,26.83,0,0,1-3.73-.49l-1.52-1.39a167.25,167.25,0,0,0-16.54-2.58,79.43,79.43,0,0,0-16.6-.09c.17-.17.49-.48,2.3-.53-1.31,0-3.23,0-5.35,0-1.06,0-2.17,0-3.27.09l-3.24.24a33.84,33.84,0,0,0-5.12.7c-1.2.29-1.75.58-1.23.89-.06-.23-.81-.27-2-.18s-2.76.41-4.52.76-3.68.85-5.53,1.33-3.59,1-5,1.46l.75-.89a95.66,95.66,0,0,1-11.46,4.49c-1.61.42-1.55-.09.61-.59a21.06,21.06,0,0,0-4.8,1.68,28.2,28.2,0,0,1-5.55,2.14l2.2-1.26a28.78,28.78,0,0,0-4.78,2c-.87.48-1.42.91-2.78,1.73a61.78,61.78,0,0,1-6.27,2.73c-2.17.9-4.1,1.56-4.63,1.47a22.44,22.44,0,0,1-6,4.06c-.52,0,.48-.7,1-1.06a31.46,31.46,0,0,0-3,1.59c-.9.53-1.75,1-2.54,1.56s-1.54,1-2.25,1.47l-2,1.47c-1.27,1-2.47,1.85-3.71,2.7s-2.45,1.75-3.88,2.58c-.25-.11-.66.05-1.14.32l4.3-3.14,3.58-2.37c2-1.32,3.18-2.06,3-1.88-.35-.57-5.53,2.78-1.94-.69C188,114.68,181.7,120.36,177,124a4.62,4.62,0,0,1-.76.32l.44-.44c-.56.41-1.07.82-1.55,1.23s-.88.85-1.29,1.28c-1.5,1.18-2.47,1.92-3.86,3.12-.46,0-1.78,1.19-3.28,2.6s-3.18,3.06-4.24,4.17c.68.32-2.19,3.1.84.83-.37.32.32-.5,1.75-1.93.32-.33.71-.71.9-.95l-.11.19,2.47-2.38,1.44-1.39,1.61-1.43a35.35,35.35,0,0,1-5.89,5.85c-.84,1.38-1.66,3-2.19,3.81-.9.58-1.94,1.34-3,2.18s-2.15,1.8-3.17,2.67a39.77,39.77,0,0,1-4.35,3.54c-1.41,1.87-3,3.82-4.58,5.91s-3.15,4.17-4.54,6.28-2.76,4.11-3.8,6a42,42,0,0,0-2.44,5,8.79,8.79,0,0,1-2.65,3.07c.71-1.36,1.66-2.9,2-3.67l-2.36,4.05c-.88,1.5-1.86,3-2.65,4.56-1.61,3-3,5.59-2.81,6.38-3.53,5.64,1-3.7-3.19,4.41L126,188c-4.87,7.62-7.45,14.54-9.9,21.68s-4.75,14.55-8.75,23.69a8.08,8.08,0,0,1,1-2.13,248.85,248.85,0,0,0-9.49,33.26c-2.55,11.34-4.68,22.71-7.14,33.61-1.29,6.22-.79,7-.93,10.88l-1,1.25-.09,6.65a44.73,44.73,0,0,1-3.1,12.57c-.76,2-1.62,4-2.59,6.16S82,340,80.65,342.51c.42-.3.82-.63,1.24-.94a37.35,37.35,0,0,1-5,6.18c-1.92,1.84-3.7,2.87-3.57,2.45a6.62,6.62,0,0,1-.71.77,4.31,4.31,0,0,1-1.66.93l-.29-.3a21.2,21.2,0,0,1-4.48,2,18.48,18.48,0,0,1-4.88.75,8,8,0,0,1-3.14-.82.63.63,0,0,1-.3-.64c0-.19-.14-.41-.88-.75a34.15,34.15,0,0,1-4.2-2.34,17.27,17.27,0,0,1-4.91-4.43l-.78-1.2c-.19-.37-.35-.69-.5-.93-.28-.47-.44-.64-.4-.25s.23.84.33,1.3.32.9.44,1.32c.3.81.55,1.48.41,1.65a13.36,13.36,0,0,1-1.82-3.47c-.67-.17-1.5-1-1.93-.51-.24.23-.32.87-.18,2.16A13.26,13.26,0,0,0,46,351a19.83,19.83,0,0,0,6.7,4.17l1,.79,1.07.7a20.76,20.76,0,0,1-5.86-3.1c.35.33.69.64,1,.93s.7.49,1,.71a11.13,11.13,0,0,0,2,1,18,18,0,0,0,3.91.88,4,4,0,0,0,1.18.64,8.2,8.2,0,0,0,2,.53,21,21,0,0,0,7.55-1.7c.5.1-.25.53-.53.81s-.15.24.19.24a8.59,8.59,0,0,0,2.29-.44c1.62-.84.69-.79.1-.83-.31,0-.53-.05-.35-.22a15.39,15.39,0,0,1,2-1.12c1.72-.52,2.4-.65,3.07-.93a9,9,0,0,0,2.89-2.17c.63-.16.12.61-1.22,1.68A42.33,42.33,0,0,0,80.92,349a15,15,0,0,0,2.87-4.31,23.31,23.31,0,0,0,4-6.36c1.07-2.33,1.77-4.26,2.24-3.91.19-1.12,1.07-6.23,1.63-9.48,0,3,.74.07,1.38-3.44s1.23-7.49,1.83-6.63c-.29-2.21.15-6,.72-10.23s1.35-8.8,1.7-12.56a6.92,6.92,0,0,1-.11,1.92,68.79,68.79,0,0,1,2.13-7.92c-.43-.36-.41-2.17-.23-4.34s.49-4.7.55-6.51c2-4.87.46,3.33,1.71,1.92-.88.08,1.14-9,.11-7.39,1.43-3.74,1-3.27,2.3-5.07-1-1,.63-3.64.74-7,2-5.4,1.44-1.15,2.76-7.31C108.37,247.64,107.29,253.14,107.29,253.14Zm73.63-126.79h0l-2.38,2Zm10-7.5c-1.31.8-2.82,2-4.44,3.14-.5.07-.26-.42.76-1.15C186.84,121.39,189.26,119.68,191,118.85ZM167,132c1.41-1.48,2-1.85,2.29-1.94l-2.52,2.52-.12.23A2.21,2.21,0,0,1,167,132Z"/><path class="cls-2" d="M165,135.17c-.2.21-.3.35-.57.62.35-.25.67-.48,1-.73l.37-.65Z"/><path class="cls-2" d="M217.72,217l0-.27a5,5,0,0,1,0,.57A1.74,1.74,0,0,1,217.72,217Z"/><polygon class="cls-2" points="351.79 115.39 351.89 115.24 351 114.65 351.79 115.39"/><path class="cls-2" d="M238.61,283.36a3.35,3.35,0,0,0,.36.88A4.06,4.06,0,0,0,238.61,283.36Z"/><path class="cls-2" d="M260.05,305.1l1.78,1.26,1.85,1.18-2.08-1.36Z"/><path class="cls-2" d="M281.41,315.06a1.07,1.07,0,0,0,.53-.15l-.05,0Z"/><path class="cls-2" d="M353.77,207.13c-.12.3-.24.61-.33.88C352.69,210.1,353.24,208.69,353.77,207.13Z"/><path class="cls-2" d="M294.79,129.4c1.18,0,2.36-.12,3.6,0C296.42,129.09,294.87,129,294.79,129.4Z"/><path class="cls-2" d="M265.23,193h0c.05-.28.09-.54.13-.82Z"/><path class="cls-2" d="M303.53,130.13a24.47,24.47,0,0,0-5.14-.77Z"/><path class="cls-2" d="M381.45,315.21l1-.48s0-.1.08-.17Z"/><path class="cls-2" d="M382.57,314.56l1.1-.63A5.17,5.17,0,0,0,382.57,314.56Z"/><path class="cls-2" d="M386,312.51c-.76.47-1.5,1-2.28,1.42A9.45,9.45,0,0,0,386,312.51Z"/><path class="cls-2" d="M351.16,322.85l-.33.29C351,323.07,351.13,323,351.16,322.85Z"/><path class="cls-2" d="M341.71,323.48a55.33,55.33,0,0,0,8.84-.11l.28-.23a16.81,16.81,0,0,1-4.32.23A25.54,25.54,0,0,0,341.71,323.48Z"/><path class="cls-2" d="M303.14,316.91c2.55.5,5.1,1,7.66,1.4-1.31-.47-3-1.09.49-.64C301.72,315.4,313.19,318.62,303.14,316.91Z"/><path class="cls-2" d="M279.91,310.93c4,1.14.07-.39.33-.47C277.7,309.83,277.07,309.67,279.91,310.93Z"/><path class="cls-2" d="M226.37,165.2l.33.69C228.27,163.19,226.5,165.73,226.37,165.2Z"/><path class="cls-2" d="M248.24,140.07c-1,.43-2,.9-3,1.35-.34.43-.64.9-1,1.34C245.59,141.8,246.93,141,248.24,140.07Z"/><path class="cls-2" d="M268,136.42l-1.28.48c1.64-.57,3.28-1.16,5-1.62l-1.86.53Z"/><path class="cls-2" d="M291.11,174.36c-.29-.25-.59-.51-.91-.76-1,.15-1.55.49-1.46.69s.24.17.62.18a6.89,6.89,0,0,0,.72,0C290.37,174.42,290.72,174.4,291.11,174.36Z"/><path class="cls-2" d="M285.48,156.06a12.65,12.65,0,0,0-3.46.05,14,14,0,0,0-3.94,1A59.5,59.5,0,0,1,285.48,156.06Z"/><path class="cls-2" d="M376.73,138.4q.72,1.11,1.38,2.25c-.73-1.48-1.6-2.9-2.39-4.35Z"/></svg>