<svg id="Layer_1" data-name="Layer 1" xmlns="http://www.w3.org/2000/svg" viewBox="0 0 512 512"><defs><style>.cls-1{fill:#f9f871;}.cls-2{fill:#202020;}</style></defs><circle class="cls-1" cx="256" cy="256" r="242.5"/><path class="cls-2" d="M340.07,481.69c-.68.48-.07.79,1.93-.13l1.15-1.35Z"/><path class="cls-2" d="M354.35,477.47c2.2-1.45,4.6-3.34,2.77-3.33-2,1.8-2.69,1.75-4.82,3.78-2,.94-3.67,1.2-3.44.78-.64.49-3.24,1.11-4.15,2a23.22,23.22,0,0,0,4.65-1.32c.82-.31,1.64-.67,2.47-1.07s1.63-.92,2.44-1.44C355.09,476.73,354.46,477.26,354.35,477.47Z"/><path class="cls-2" d="M491.3,319.06l-.45,1.33A12.74,12.74,0,0,0,491.3,319.06Z"/><path class="cls-2" d="M489.85,186.16c.3,1,.5,1.37.59,1.4C490.12,186.66,489.86,185.92,489.85,186.16Z"/><path class="cls-2" d="M483.07,164.13l.45,1.28A4.8,4.8,0,0,0,483.07,164.13Z"/><path class="cls-2" d="M491.3,319.06l1.19-3.41C492.29,315.35,491.82,317.38,491.3,319.06Z"/><path class="cls-2" d="M379.73,462.05a15,15,0,0,0-1.54,1.16l1.51-1A.55.55,0,0,1,379.73,462.05Z"/><path class="cls-2" d="M469.75,374.23l-.53,1a8.4,8.4,0,0,0-.14,1Z"/><path class="cls-2" d="M444.2,412c.68-.78.37-1.5.38-2a6.06,6.06,0,0,1-1.06,2C443.61,412.11,443.82,412.1,444.2,412Z"/><path class="cls-2" d="M389.81,459.08l-1,.78Z"/><path class="cls-2" d="M483.76,344.75a.87.87,0,0,0,.38-.3C484.06,344.42,483.92,344.54,483.76,344.75Z"/><path class="cls-2" d="M289.39,492.85s0,.08,0,.12C289.66,492.87,289.73,492.81,289.39,492.85Z"/><path class="cls-2" d="M340.71,483.42l-.67.27a.87.87,0,0,0,0,.42Z"/><path class="cls-2" d="M464.78,126l.09.17C465.5,127.07,465.17,126.53,464.78,126Z"/><path class="cls-2" d="M123.61,49.36c4-1.88-5.52,4.62.37,1.57C123.31,51,128.41,46.69,123.61,49.36Z"/><path class="cls-2" d="M380.78,461.54l1.58-1C381.63,461,381.14,461.29,380.78,461.54Z"/><path class="cls-2" d="M124,50.93h0l.6-.32Z"/><path class="cls-2" d="M397.92,55.67a3.53,3.53,0,0,0,.64.81C398.58,56.4,398.44,56.21,397.92,55.67Z"/><path class="cls-2" d="M449.45,106.37l-1.05-1.45C448.8,105.51,449.14,106,449.45,106.37Z"/><path class="cls-2" d="M365.1,37.24a14.86,14.86,0,0,0-2.35-1.2l.33.25A7.53,7.53,0,0,1,365.1,37.24Z"/><path class="cls-2" d="M328.84,22.65c.18.12.43.24.65.36l1.19.34Z"/><path class="cls-2" d="M174.73,481.28a7.49,7.49,0,0,1,1.45,1.21C175.79,481.81,181.12,483.62,174.73,481.28Z"/><path class="cls-2" d="M380,462.38a2,2,0,0,1,.83-.84l-1.08.68C379.66,462.37,379.69,462.46,380,462.38Z"/><path class="cls-2" d="M361.23,41.52l-5.43-2.75C357.3,39.58,359.27,40.57,361.23,41.52Z"/><path class="cls-2" d="M17.07,274.32l.2,1.38A6.14,6.14,0,0,0,17.07,274.32Z"/><path class="cls-2" d="M339.09,32a23.21,23.21,0,0,0-3-1.65,3.29,3.29,0,0,0-.72-.08Z"/><path class="cls-2" d="M176.19,482.5h0Z"/><path class="cls-2" d="M215.35,491c-5.7-1-2.85.45-4.16.76-6.84-1.2-3-1.34-5.2-2.3-2.14-.33-4.06-.47-5.85-.61a32.17,32.17,0,0,1-5-.88c-.19-.21-.78-.43,0-.42a34.12,34.12,0,0,1-4.08-.75l-2.39-.58-2.47-.76a76.7,76.7,0,0,0-9.46-2.49,2,2,0,0,1-.57-.46c.65.74.63,1.23.35,1.49-2.46-.9-4.77-1.16-5.48-2.07a5.76,5.76,0,0,0,2.48.48l-2.66-.71c-2-1.68,3.61,1,3.83.42-2.55-.8-5.34-1.57-8-2.36a59.2,59.2,0,0,1-6.85-2.72c-.44-1.12,8.91,3.5,4.18.66l2.85,1.38,2.9,1.26c-4-2.94,3.56,1.42-.07-1.46l-2.6-1-2.09-.89c-1.29-.52-2.37-.93-3.45-1.34s-2.17-.81-3.45-1.33a42.85,42.85,0,0,1-4.57-2.17c-1.88-.39.25.9-1.63.51a39.76,39.76,0,0,1-5.92-2.84,18.18,18.18,0,0,1-2.86-2.28,16.55,16.55,0,0,0-6.64-4.08c-2.21-.62-3.49-.19-8.48-3.89l2.3.28a26.65,26.65,0,0,0-5.69-2.89c-1.14-.44-2.29-1-5.6-3.6,1.45.53,5.41,3.28,4.47,2.51-4.09-3.69-3.5-1.72-7-4.08-.08-.39-.15-.79-.22-1.19-1.72-1.26-3.51-2.53-5.35-3.8s-3.75-2.53-5.55-4c-3.65-2.82-7.51-5.6-11-8.83.56.17,1.93,1.07.47-.62-1.13-1-2.28-2-3.43-3l-1.73-1.55-1.66-1.65c-2.2-2.23-4.42-4.5-6.58-6.81s-4.09-4.81-6.06-7.17c-.49-.59-1-1.17-1.46-1.77l-1.35-1.81L70,406.08l-3.35-3c-.64-.8-.88-1.72-.12-.91-2.43-3.78-.5.1-2-1.47-1.56-2-1.66-3-.53-1.8-5.44-5.8-13.84-17.95-17.3-25.61l1,1.3c-.37-.72-.75-1.34-1.08-1.91s-.64-1.07-.94-1.52c-.61-.91-1.18-1.63-1.74-2.34a19.7,19.7,0,0,1-3.27-5.66l.66,1c-3-6.42-6.2-13.14-8.7-19.71-.65-1.64-1.3-3.24-1.89-4.83s-1-3.18-1.51-4.71-.92-3-1.32-4.45a34.55,34.55,0,0,1-1-4.16c-.79-.82-1.65-4.22-2.51-7.46l-1.2-4.44c-.37-1.23-.76-2.08-1.17-2.21-.57-4-.65-5.48-.86-7.32s-.35-4.13-1.13-9.74c-.52-3-1.59-4.31-2.26-8l.76-.19L17.09,282c.17-.93.42-1.86.65-2.79l-.47-3.49c.06,1.4-.11,3-.35,2.81a64.77,64.77,0,0,1-.51-8.77A16,16,0,0,1,17,265l-.53-6.47c-.17-2.16-.16-4.33-.25-6.5.3.3.37,2.47.53,4.19-.65-6.93.84-1.24.24-7.6-.19.85-.45-.47-.61-.62.15-.79.21-1.83.36-3s.28-2.55.39-4,.22-2.92.3-4.39.13-2.92.27-4.25l.41,1.07c.31-2.38.6-4.83.87-7.33.15-1.25.26-2.52.43-3.79s.39-2.55.58-3.84c.4-2.57.75-5.19,1.22-7.82s1.1-5.24,1.65-7.88c-1.06,3.73-1.77,2.67-1.18-.46l1.06-1.06c-.06-2.12-1,3.18-.71-1.08,1.09-3.91,1.58-2.41,1.24-.11l1-4.81c.31-.22.14.92.36,1.29.06-2.07,2.88-8,3-10.94l.31-.19c.81-2.57,1.5-4.79,2.13-6.8s1.33-3.78,1.92-5.51,1.2-3.41,1.81-5.16,1.44-3.54,2.28-5.57c-.58-.43.92-3.53,1.43-6.18,1.52-2.87,3.2-5.86,4.9-9,.41-.79.87-1.58,1.35-2.36l1.41-2.4c.93-1.61,1.87-3.28,2.79-5,.57-1.25.91-2,1.08-2.38s.15-.54.09-.59-.45.12,0-1.05c.77,0,4.77-6.69,3.06-3,1.22-2,2.13-3.69,3.11-5.13l2.7-4.16,2.91-4.6,4.2-6.1c-1,.87-1.94,2-1.67,1.23,1.21-1.79,3.16-3.76,3.22-3.32l-.29.49A102.24,102.24,0,0,1,80.73,92.55c2.57-2.61,5.32-4.93,7.7-7.23,1.2-1.14,2.33-2.27,3.37-3.37s2.08-2.08,3-3.08l-.4.44,3.85-3.92c.64-.65,1.28-1.32,1.93-2l2-1.87c4-3.1-2,2.28,1.11.23,2.12-2.07,4.1-3.84,6-5.43s3.8-2.81,5.61-4.08l2.67-1.89,1.33-1,1.37-.9c1.84-1.21,3.69-2.5,5.62-4a22.92,22.92,0,0,0,3.07-1.38c1.16-.54,2.41-1.18,3.74-1.91s2.71-1.53,4.14-2.38,2.91-1.77,4.46-2.58c3.08-1.67,6.2-3.44,9.19-4.94A81.07,81.07,0,0,1,158.77,38l-.71-.17c2.21-1.49,3-1.12,4.81-1.73-.38-.21-2.8.7-1.38-.13q3.84-1.65,7.77-3.26c1.31-.51,2.61-1.11,4-1.55l4.05-1.37,4.07-1.36c1.37-.44,2.72-.92,4.12-1.27l8.37-2.22,2.1-.54,2.12-.44,4.25-.88c2.83-.58,5.65-1.2,8.52-1.58l8.53-1.32,8.51-.93a20.11,20.11,0,0,0,6.66-1.68c1.41-.57,3.12-1.05,8.41-.94L240,17.66c1.05-.14,2.09-.3,3.15-.41l3.17-.21c2.12-.14,4.25-.24,6.38-.34s4.28,0,6.43,0l6.42.13c4.28.24,8.54.57,12.76.84,2.1.23,4.2.44,6.28.63l3.12.27c1,.07,2.08.15,3.1.29a10.24,10.24,0,0,1-2.65.06c.84.23,2,.5,3.4.76s2.83.46,4.22.63c2.77.33,5.15.46,5.23.23,2.5.6.5.56,2,1.14a35.42,35.42,0,0,0,5.82,1.08c2,.26,3.76.51,4.58,1.07.28.18-1-.08-1.63-.18,2.28.29,10.22,2.81,8.3,1.57,3,.9,5.79,1.78,8.48,2.57,1.35.4,2.66.78,3.92,1.19.63.2,1.24.4,1.84.62s1.17.5,1.73.77c3.28.42,9.83,4,11.13,3.48-.84.91,9.66,5,13.35,6.42-1.33-.27,2.9,1.81,1.31,1.56,4.06,1.86,7.69,3.74,7.29,2.83,3.29,2.59,7.08,4.25,10.31,6.06,1.63.86,3.16,1.68,4.48,2.52a18.82,18.82,0,0,1,1.79,1.3A8.46,8.46,0,0,1,387,56l8.33,5.14,7.79,5.41c.63.45,1.28.89,1.9,1.35l1.83,1.42,3.62,2.83,3.58,2.81,3.4,3c-.27.13-1-.35-2-1.14-.48-.39-1-.85-1.6-1.36L412,73.92c-2.47-2-4.86-3.93-5-3.3,2.25,1.71,4.29,3.21,6.22,4.62s3.62,2.87,5.36,4.28c.86.71,1.73,1.41,2.6,2.14l1.32,1.1L423.78,84c1.71,1.64,3.49,3.43,5.43,5.48s-1.52-.84-2.35-1.4l3.06,2.9c1,1,1.91,2,2.84,3l5.43,6c1.68,2.06,3.33,4.1,5,6.07l2.5,2.94,2.41,3a8.6,8.6,0,0,1-1.51-1.54c1.2,1.58,2.6,3.82,2.88,3.34l-1.26-1.48c-1.3-3,6,5.45,6.47,5.55-3.08-2,5.21,8.57.7,5.11.8,1,1.91,2.27,2,1.83,1,1.68,1.16,2.3-.25.87,1,1.45,1.76,2.38,2.31,3.06s.88,1.12,1.22,1.54a28.6,28.6,0,0,1,2.94,4.39c-.23.11-1-1-1.56-1.39a42.25,42.25,0,0,1,6.53,10.11c-.28-.22-.16.43-.91-1,1.1,2.06,2.19,3.95,3.27,5.75l.81,1.35.74,1.36L474,153.5c1,1.82,2,3.67,2.94,5.67.51,1,.92,2.06,1.36,3.16s.86,2.27,1.29,3.49c-2.14-2.42,1,3.39.31,4.22.38.85.79,1.67,1.14,2.53l1,2.56-.3-2.25c.78,2.29,1.68,4.4,2.52,6.44a33.23,33.23,0,0,1,2.07,6.07l-.69-1.68-.77-1.65c.56,1.42,1,2.87,1.43,4.32l1.35,4.35-1.09-5.06c1.83,4.6,1-.85,2.53,5.47-.47-1.24,1.42,4.68,1.36,7.31v0a41.4,41.4,0,0,1,2.31,8.19c-.08,1-1.18-.52-1.24.11.66,1.08,1.17,3.88,1.77,6.74a56.71,56.71,0,0,0,1.78,7.25c-.32-1-.81-.95-.87-.6l.89,1.88c.09,2.27,0,2.6-.4,2.29.76,6.73.89-2.28,1.43,5.76a14.84,14.84,0,0,1-.45-1.6c.63,8,1.81,15.52,1.62,23-.87,2.2-.42-6.47-1.14-3.94.71,10.63,1,22.14-.11,32.44l.32-1.9c.59.77.19,2.68-.34,5a43.78,43.78,0,0,0-1.25,7.81c.12-1.27-.48-1.76-.37-1.4-.67,3.48-1.2,7.06-1.71,11.11-.3,2-.7,4.13-1.07,6.42-.2,1.15-.4,2.33-.61,3.56-.1.61-.21,1.24-.32,1.88s-.28,1.27-.43,1.93l0-1.37c-.69,2-1.45,4.63-2.19,7.32-.39,1.34-.72,2.71-1.14,4s-.83,2.47-1.21,3.54c-.08,1.37-.92,3.82,0,2.47-.77,1.59-1.43,3.18-2.08,4.75s-1.33,3.12-1.92,4.68c-1.18,3.11-2.15,6.24-3.34,9.23l-1.7,4.5a46.78,46.78,0,0,1-1.83,4.37,66.92,66.92,0,0,1-4.53,8.18c.65-1.33,1.27-3.29.76-2.24l-1.08,2.4c-.37.79-.78,1.56-1.17,2.34l-2.39,4.69c.91-.45,1-1,2.43-2.77a35.18,35.18,0,0,1-2.8,6.38c1-2.18.77-2.28.16-1.64s-1.6,2-2.3,2.82c.33-.21.14.49.38.43-3.75,4.17.52,1.39-4,7.46l-.05-.5-1,1.86-1,1.8A42.14,42.14,0,0,1,456,392.7c-1.26.66,1.43-2.66,1.08-3.12-2.37,3.52-3.62,7.74-6.55,10.39.94-1.56,2.52-3.63,3.34-5.27-.75.76-1.31,1.36-1.78,1.86s-.86.91-1.2,1.3c-.67.79-1.2,1.52-2.18,2.73l.2-.24c-1.55,1.84-3.05,3.72-4.63,5.52.45-.42.87-.87,1.29-1.31-.93,2.65-2.67,4.75-4.53,7-.94,1.14-1.92,2.31-2.92,3.58a40.66,40.66,0,0,0-3.1,4.08c3.91-5.88.31-1.27.11-2.17-1.39,1.21-3.44,3.09-3.06,2.37A17.55,17.55,0,0,1,429,423a21.89,21.89,0,0,0-3.85,4.25c-.32,0-2.58,2.53-2.47,1.55-3,3.23,1-.42,1,.05-2.06,2.76-5.29,5.16-8.65,7.93l-2.57,2.12c-.9.69-1.81,1.39-2.71,2.13a61,61,0,0,0-5.33,4.83c-.76.72-1.49,1.33-2.15,1.89l-1.78,1.58c-1.09,1-2,1.84-2.87,2.68s-1.76,1.68-2.79,2.62-2.31,1.85-3.89,3c-2.43,1.13,1.31-1.94,1.31-1.94-1.88,1-3.48,2-5,3s-3,2.12-4.64,3.23c.59-.59-.23-.32-1.43.07-2.73,1.69-1.4,1.85-5.24,3.71a15.39,15.39,0,0,1,2.28-2.49c-1.58,1.06-3.11,2.17-4.67,3.28s-3.22,2.07-4.91,3.08c-1.12.11,1.8-1.67,2.89-2.55-3.81,2.2-9.91,5.68-10.91,6.76l2.67-1c-1.45.7-1-.15,0-.8,3.11-2.22,4.94-2.32,5.25-2.21l-2.41,1.44c1.6,0,4.08-1.39,6.77-3.06,1.37-.8,2.7-1.84,4.05-2.76s2.65-1.81,3.88-2.51l-1.5,2.09,4.55-3.69c.61-.18,1.15-.3,1.27-.14s-.18.6-1.36,1.36a10.87,10.87,0,0,0,2.07-1.08,12.69,12.69,0,0,0,1.15-.86,10.51,10.51,0,0,1,2.85-1.74c.37-.13.25,0,0,.24l3.15-2.45c-.53.61,1,.24-1.16,1.46a34.79,34.79,0,0,0,4.12-2.58c1.16-.89,2.15-1.74,3-2.49a16.52,16.52,0,0,1,4.43-3.16l-.45.4c1-.77,1.72-1.35,2.25-1.83s.88-.84,1.11-1.09c.46-.51.42-.62.32-.7s-.71-.18,1.87-2.86l5.08-1.7.26-1.2c.79-.64,2.32-2,2.25-1.48,2.48-2.93-.7.18.61-1.66a58.2,58.2,0,0,0,6.65-5.7c2.05-2.06,3.81-3.73,4.64-3.7.84-1.65-3.66,3-.22-1,1-.07,2-1.18,3.28-2.61a31.77,31.77,0,0,1,4.27-4.76c-.43,1.47-3.58,4.38-.09,1.46.49-1.39,2-3,3.72-4.56a44.9,44.9,0,0,0,4.58-4.88c-.29-.36,1-2,2.75-4.2s3.92-5.12,5.72-7.74c.1.58,7.4-9.44,10.75-14.35l0,.23c-.09-.74.69-2.38,1.77-4.33.54-1,1.16-2,1.77-3.08s1.14-2.15,1.64-3.14c.39.42.22,1.24-.77,3.46.71-1.2,1.35-2.45,2-3.67a21.26,21.26,0,0,1,1.92-4.66l.1,1.24c.66-1.23,1.29-2.48,1.9-3.77l1.72-4.05c.6-1.38,1.23-2.8,1.93-4.27.35-.73.72-1.48,1.12-2.23s.73-1.57,1.14-2.37c-.43-.62-3.86,4.49-1.29-2.61.43-.12,1.08-.14.43,1.74a20,20,0,0,1,1.3-3.38l-.66,3c1.52-2.9.23-1.76,1.3-4.13.44.23,1.09-1.64,1.3-1.15a25.92,25.92,0,0,0-1.3,3c.62-1.34,1.35-2.79,2-4a25.92,25.92,0,0,1,1.6-2.78c-.35.14-.62-.25.08-2.29,1.91-5.23,1.22-1.58,2.6-4.55.2-1.36,1.61-4.64.93-5a5.28,5.28,0,0,1,1.31-2.27c.26-1.44,1.34-4.63,1.95-7.17s.94-4.35.14-2.88l-.24.7.09-.46v0c.43-2.33,1-4.67,1.62-7s1.15-4.74,1.73-7.11a109.1,109.1,0,0,0,2.83-14.18l.24.05c.39-2.78.61-5.89.9-8.79a49.45,49.45,0,0,0,.35-7.61c.11-1.65.71-3.86,1-3.14.05-2.14,0-3.33.07-4.76s.14-3.08.4-6.17c.35,4.32.41-1.47.23,4.43.3-5.56.78-6.83.14-12.81.69,2,.67-4.21.4-6.86l-.34,3.92c-.18-3-.2-5.58-.23-8.23l.88,1.39a32.4,32.4,0,0,0-.05-4.19c-.08-1.36-.21-2.69-.35-4a74.32,74.32,0,0,0-1.17-7.42c-.48-2.37-.93-4.65-1.22-6.89-.16-1.12-.24-2.23-.33-3.34a28,28,0,0,1-.15-3.3c-1.12-2.88.7,6.17-.45,3.61-.83-5.15-.62-10.77-.95-12.4a23.82,23.82,0,0,0-2-6.74c-.35-.8-.71-1.61-1.07-2.67-.18-.54-.36-1.14-.54-1.84s-.43-1.47-.64-2.39c0,1-.54,2.07-2.36-3.22-1.33-5-.59-6.55.56-3.43.37,1.2.45,1.81.34,1.79.57,1.6,1.31,3.71,1.05,1.62l-.48-.58c-.21-1.29-.83-3.68-1.28-5.55s-.86-3.2-.34-2.47c-1.56-3.68-1-1.46-.21,1.37-.89-3.25-1.74-5.75-2.62-8.26-.46-1.25-.85-2.53-1.38-3.86s-1.08-2.78-1.66-4.42c.26,1.09.32,2.16-.09,1.14-1.73-4.79-2.27-5.78-2.73-6.36a9.67,9.67,0,0,1-.74-1,25.14,25.14,0,0,1-1.55-2.86c-1.23-3.73,1.57.83-1.68-5.31-1.5-4,.33-1.16,1.26.28-.8-1.38-1.48-2.76-2.09-4.09s-1.26-2.57-1.79-3.77c-1.06-2.41-1.89-4.56-2.69-6.19l1.77,2.85c-1.07-1.7-1.79-3.17-2.62-4.63.17.64.27,1.31.4,2-.4-.9-.83-1.7-1.13-2.29s-.45-1-.33-1c-1.37-1.55-.08,1.82-2.57-1.36a46.51,46.51,0,0,0-2.53-4.38c-.46-.76-.87-1.48-1.17-2.08a2.69,2.69,0,0,1-.45-1.36c.55.87.93,1.52,1.2,2a7.41,7.41,0,0,0,.61.92c.26.32.28.13.28-.1,0-.46,0-1.09,1.82,1.88a44.15,44.15,0,0,1-2.52-4.27c-.08-.29.3.15.6.59-3.7-7-2.73-2.56-7.19-9.37.47.3.38-.21.07-.93a9.9,9.9,0,0,0-1.33-2.13c1.95,2.66.33,1.69-1.73-.54-2.81-4.41-3.56-4.41-5.15-6.64l1.72,2.61a8.8,8.8,0,0,1-1.88-1.93c-.79-1-1.82-2.12-3-3.49.07-.46,2.27,2.41,1.57,1.31a25,25,0,0,1-4.24-5.28c-.7-1-1.38-2.14-2.23-3.17a29.05,29.05,0,0,0-2.8-3c-1.52-2.14.45-.74-.93-2.59a46.69,46.69,0,0,1-4.49-4.88,36,36,0,0,0-4.77-5c.93,1.79,1.26,1.91-2.43-1l8,7.46-5.55-4.37c1.15,1.17,2.44,2.34,3.6,3.39a26.62,26.62,0,0,1,2.82,2.79,12.91,12.91,0,0,0-2.05-1.57c-.15,0,.12.37.49,1.09a24.87,24.87,0,0,0-4.66-4.91,54.91,54.91,0,0,1-5.26-5.06l1.13-1a55.14,55.14,0,0,0-4.06-3.93c-.69-.61-1.38-1.2-2.09-1.79l-1.07-.88-1.13-.83c-1.53-1.12-3.12-2.28-4.79-3.58s-3.42-2.78-5.42-4.34c.8.73,1.65,1.41,2.42,2.19-1.4-.42-5-3.72-7.8-5.51.53-.22-1-1.6-2-2.69-.07.4-6.15-4.21-7.46-3.91-1.14-1-2.24-2.1-3.43-3C380.78,45,379,45.75,372.18,41.9c2.34.67-.64-1.36,4.19.84-2.31-1.27-4.35-2.48-4.55-2.2a22,22,0,0,0-4.06-2,23.64,23.64,0,0,1-4.68-2.24A11.24,11.24,0,0,1,358.81,35c-.25-.23.11-.21.11-.21a11.35,11.35,0,0,1-1.93-.56c-.82-.22-1.35-.27-.28.48C349.94,30,335.86,26.11,329.49,23l-4.31-1.25c-1.47-.42-3-.75-4.51-1.13-3-.71-5.93-1.52-8.47-2.08.36-.07.07-.23,1,0-6.92-2-4.61.4-12.48-1.74-2-.74-.89-.67.38-.5s2.7.54,1.47.1c-.39-1-2.85-1.27-5.85-1.64a66.68,66.68,0,0,1-9.22-1.52l1.34.07c-4.13-1-10.27-.73-17.12-1.18,0,0,.34-.12.06-.25-1.19.13-2.64.21-4.24.24s-3.36.18-5.17.22c-3.64.17-7.5.08-10.79.38,2-.69,3-.42,1.73-1-3,.18.87,1-5,1.37-1.92-.27-6.19-.51-6.79-1.08,1.85-.18,3.71-.17,5.57-.26A14.11,14.11,0,0,0,242,11.6c-1.8.25-3.61.58-5.08.62l.34-.42c-8.55.75-8.53,1.94-17.64,3l1,.17a13.78,13.78,0,0,1-4.52.91,12.55,12.55,0,0,0-4.51.81L209.93,16l-3.2.83-4.29,1.35-4.76,1.45c-1.59.47-3.16.9-4.56,1.39a42.11,42.11,0,0,1,6.52-2.53L207,16.14c-3.22.69-10.88,2.6-12.42,3.46a24.29,24.29,0,0,1,4.14-1.16,130,130,0,0,1-15,5.28c.25-1.14-3.82.12-8.58,1.69s-10.07,3.75-12.58,3.91c-1.31.63-2.64,1.21-4,1.81S156,32.4,154.66,33c-2.64,1.25-5.36,2.37-8.08,3.64l-8.28,4.08c-.7.35-1.42.7-2.13,1.07L134.06,43q-2.12,1.23-4.3,2.53c4.9-1.16-3.38,2.05-1.86,2.93-1.34.82-2.22,1.45-2.83,1.85a5.16,5.16,0,0,1-1.08.6c-2.8,1.5-5.64,3-8.45,4.51-1,.49-.48,0,.29-.67s1.79-1.34,1.58-1.4l-2.93,1.82a3.84,3.84,0,0,1-1.1.48c-.47.09-.71,0-2.69,1.18,1.08-.11-1.48,2.06-4.78,4.23l4.9-2.73a41.16,41.16,0,0,1-4.37,3.4c-1.15.77-2,1.34-3,1.86a32.59,32.59,0,0,0-7.2,5.55l2.08-2.32c-1.91,1.63-5.3,4.76-8.66,7.92l-2.46,2.37c-.76.82-1.49,1.63-2.16,2.39a32.51,32.51,0,0,0-3.09,4c-.75.5-1.88,1-.39-.6-8.58,8.39-17,20.47-22.88,27.58l.24-.95c-1.22,1.87-1.81,3.47-3.65,5.59,0-.21.2-1-.4-.12a59.73,59.73,0,0,1-4.61,7.58l1.06-2.31a54.49,54.49,0,0,0-4.26,6.6c-1.17,2.07-2.18,4-3.13,5.9s-1.68,3.84-2.57,5.79-1.84,3.94-2.87,6.14c-.49-.26-1.81,1.62-3.28,4.09a78.37,78.37,0,0,0-4.07,7.58l-.08-.21c-1.36,3.11-2.59,6-3.65,8.81s-1.84,5.56-2.69,8.26-1.51,5.4-2.25,8.17S21,187,20.33,190.08a70.49,70.49,0,0,0-2.54,7.19c-.87,2.91-1.56,6.3-2.38,9.8l-.6,2.66c-.18.89-.32,1.8-.48,2.71-.32,1.81-.64,3.63-1,5.42-.71,3.56-1.14,7-1.68,10.15.43-1.88.82.41.67,2.63-.66,2.89.1,8.14-.91,7.6l.09-1.05c-1.1,2.14-1.4,8.2-1.4,12.93l1.3.81a51.63,51.63,0,0,0-.73,10.34c0,1.86.1,3.75.19,5.64,0,.95.08,1.89.16,2.83s.2,1.86.29,2.78c.38,3.67.75,7.16,1.06,10.16a33.37,33.37,0,0,1,.32,7.22c.38,1.45.6,3.1,1,4.72s.75,3.24,1.18,4.67l-.73,0c.33,2,.62,3.83.89,5.52s.67,3.25,1,4.88.78,3.31,1.22,5.21l.75,3,1,3.41L18,319.43a19.91,19.91,0,0,0,2.76,5.94c.49.77,1,1.52,1.45,2.4a28.79,28.79,0,0,1,1.34,3.12l-.48,1.83c.82,2.37,1.58,4.77,2.34,7.17L26,341.7l.65,1.77L28,347c.9,2.35,1.77,4.72,2.8,7s2.26,4.47,3.51,6.62c-.21-.08-.61-.22-1.33-1.68,1.75,4.4,7.61,16.68,8,14.48-.89.62,5.05,9.05,8.23,13.41l-1.05-.33A47.79,47.79,0,0,1,55.44,395c.77,1.3.27,1.41-.69-.36A13.22,13.22,0,0,0,56.32,397a16.37,16.37,0,0,0,1.22,1.32,22.84,22.84,0,0,1,3.31,4.27L59.15,401c3,4.19,2.91,3.77,5.13,5.64,2.27,2.34,6,7.72,6,8.7a16.82,16.82,0,0,1,4.93,4.41c.1.46-.75-.26-1.18-.63,1.36,1.69,2.62,3.1,3.79,4.33s2.36,2.21,3.43,3.17a51,51,0,0,1,5.91,5.94c-.07.25.14.6.45,1-1.28-1.14-2.4-2.33-3.44-3.38l-2.72-2.78c-1.52-1.56-2.39-2.46-2.19-2.3-.47.44,3.38,4.48-.38,2,1.75,1.43,4.16,3.31,6.57,5.34a73.75,73.75,0,0,1,6.93,5.94,3,3,0,0,1,.38.65l-.46-.33A19.65,19.65,0,0,0,95,440.87c1.26,1.19,2.06,1.95,3.33,3,.08.41,1.26,1.48,2.69,2.68l2.23,1.82c.72.59,1.46,1.09,2,1.52.25-.69,3.08,1.57.72-.93.32.3-.48-.23-2-1.34-.33-.25-.72-.55-1-.7l.18.08-5.33-4.36a24,24,0,0,1,6,4.6c1.37.55,2.93,1.08,3.76,1.45a67.16,67.16,0,0,0,4.93,5.2c.86.88,1.71,1.64,2.36,2.25a7.22,7.22,0,0,1,1.23,1.38c1.81,1.11,3.75,2.35,5.73,3.61,1,.65,2,1.25,3,1.83l3,1.72c2,1.12,3.94,2.17,5.7,3a35.43,35.43,0,0,0,4.74,1.74,6.93,6.93,0,0,1,2.93,2.27c-1.28-.55-2.72-1.36-3.47-1.55,1.1.5,2.43,1.17,3.83,1.89l2.14,1.1,2.18,1c2.83,1.26,5.28,2.25,6,2.08,2.63,1.51,1.78,1.34,1.21,1.22-.29-.06-.5-.11-.17.08a26.71,26.71,0,0,0,3.12,1.4l-1.15-.18a85.33,85.33,0,0,0,10.33,4.71c3.38,1.13,6.65,2.05,9.95,3s6.74,1.64,10.33,2.73c1.79.58,3.67,1.06,5.62,1.67s4,1.29,6.11,2.11a7.5,7.5,0,0,1-2-.87c1.24.38,2.47.78,3.73,1.12l3.8.9c2.55.59,5.11,1.18,7.69,1.7l7.84,1.24c1.31.2,2.61.43,3.93.59l3.95.41c2.64.26,5.27.58,7.89.82s5.26.34,7.87.54c1.31.09,2.61.23,3.91.3l3.89.18c2.59.13,5.15.31,7.7.5,5.81.09,6.42-.51,9.93-1.07l1.29.72c2-.39,4-.89,6-1.32a43.23,43.23,0,0,1,6.07-.49c2-.08,3.89-.15,5.9-.2s4.08-.16,6.32-.4a49.76,49.76,0,0,0,7.22-1.61l-1.46-.25c1.91-.32,4.94-.88,7.39-1.44s4.35-1,4.1-.62a5.34,5.34,0,0,1,2.66-.9l.21.36c1.52-.48,3.06-.92,4.57-1.44l4.49-1.65c3.6-.89,3.43-.43,3.67-.12.12.16.34.28,1.18.18a24.9,24.9,0,0,0,4.89-1.28c3.78-1.47,10.47-4.82,8.95-4.58-1.54.51-4,1.12-4.25.78l3.4-1.38c.23-1.32,2.42-3.33-6.24-1.21l-5.63,2.69-2.09,0c1.68-.46,3.31-1.06,4.94-1.63a16.12,16.12,0,0,0-3.64,1c-1,.39-1.92.85-2.88,1.3a6.58,6.58,0,0,0-2.66.12l-5.55,2.75c-.42-.14.19-.51.39-.79s0-.35-2,0c-2.64,1.15,2.92.36-1.6,1.77-3,.16-2.26-.46-5.55.78-.54-.18.14-.54,1.45-1a52.56,52.56,0,0,1-5.25,1.48,17.48,17.48,0,0,0-4.17,1.25,40.67,40.67,0,0,0-6.3.84c-2.16.33-3.93.45-3.85-.11a52.28,52.28,0,0,1-8.1,2c2.5-1-.13-.6-3.26-.43s-6.72.46-6.09-.3a14.81,14.81,0,0,1-3.83.85c-1.58.17-3.4.27-5.32.36l-5.87.26c-2,0-3.86.06-5.56.19a5.23,5.23,0,0,1,1.73-.19,74,74,0,0,1-7.37-.82c-.53.95-6.49.76-9.77,1.15-4.6-1.26,2.95-1,1.54-2,.09.39-1.95.48-3.83.5s-3.58-.07-2.82.35c-3.5-1-3-.65-4.78-1.67-.78,1.13-3.34-.11-6.38.08-5-1.45-1.13-1.35-6.82-1.92C210.29,490.59,215.35,491,215.35,491ZM94.26,434.14h0l2.1,1.86ZM86,426.26c1,1,2.17,2.26,3.49,3.53.14.44-.39.36-1.18-.48C88.82,429.64,87,427.62,86,426.26Zm14.89,20c-1.49-1.1-1.87-1.6-2-1.87.68.54,1.48,1.18,2.54,2l.22.07A1.79,1.79,0,0,1,100.85,446.24Z"/><path class="cls-2" d="M104,447.64l.63.43-.76-.81-.64-.24Z"/><path class="cls-2" d="M490.77,320.62l.08-.23a3.45,3.45,0,0,1-.23.47A1.75,1.75,0,0,1,490.77,320.62Z"/><polygon class="cls-2" points="18.73 286.89 18.56 286.93 18.84 287.9 18.73 286.89"/><path class="cls-2" d="M464,378a2.77,2.77,0,0,0-.59.61A3.72,3.72,0,0,0,464,378Z"/><path class="cls-2" d="M448.73,400.59l-2.52,2.93C447.33,402.27,448.11,401.34,448.73,400.59Z"/><path class="cls-2" d="M435.2,416.57a1,1,0,0,0-.05.51l0,0Z"/><path class="cls-2" d="M446.59,110.41c-.17-.23-.35-.44-.51-.63C444.84,108.36,445.67,109.33,446.59,110.41Z"/><path class="cls-2" d="M490.44,198.43c-.36-1-.72-2-1.05-3C489.74,197.14,490,198.48,490.44,198.43Z"/><path class="cls-2" d="M361.82,41.82h0l-.6-.3Z"/><path class="cls-2" d="M488.13,191a30.07,30.07,0,0,0,1.26,4.44C489,194,488.63,192.35,488.13,191Z"/><path class="cls-2" d="M363.38,471l-.91.44s0,.1-.05.15Z"/><path class="cls-2" d="M362.42,471.57l-1,.55A4,4,0,0,0,362.42,471.57Z"/><path class="cls-2" d="M359.37,473.26l2.07-1.14A8.38,8.38,0,0,0,359.37,473.26Z"/><path class="cls-2" d="M387.54,457.48l.12-.39A.42.42,0,0,0,387.54,457.48Z"/><path class="cls-2" d="M394.49,452.74c-1.65,1.14-4.49,2.35-6.72,4l-.11.31C388.53,456,393.2,454.23,394.49,452.74Z"/><path class="cls-2" d="M423.82,432.79c-1.77,1.59-3.62,3.1-5.43,4.65,1.11-.63,2.58-1.47.21.76C425.84,432.75,416.83,439,423.82,432.79Z"/><path class="cls-2" d="M439.46,417.07c-2.5,2.92.33.23.31.48a8.61,8.61,0,0,0,1.14-1.75C440.9,415.67,440.52,416.09,439.46,417.07Z"/><path class="cls-2" d="M499.6,271.48l.62.43C500.33,268.94,500,271.87,499.6,271.48Z"/><path class="cls-2" d="M496.36,241.05c-.05,1-.1,1.91-.22,2.86l.63,1.33C496.67,243.84,496.56,242.44,496.36,241.05Z"/><polygon class="cls-2" points="499.06 222.66 499.32 223.94 498.45 219.04 499.06 222.66"/><path class="cls-2" d="M335.67,24.18c.2.34.4.69.59,1C338.19,25.8,338.89,25.09,335.67,24.18Z"/><path class="cls-2" d="M220.62,14.24a15.23,15.23,0,0,0-6.51.82c1.29-.21,2.59-.36,3.73-.49S220,14.39,220.62,14.24Z"/><path class="cls-2" d="M10.34,256.77l-.22-2.35c.05,1.48.06,3,.21,4.44C10.33,258.16,10.3,257.47,10.34,256.77Z"/><path class="cls-2" d="M365.15,341.61c.15-.37-.35-.63-.79-.13a4.53,4.53,0,0,0,.34.86l.19-.38C365,341.85,365.06,341.73,365.15,341.61Z"/><path class="cls-2" d="M362.39,345.56a2.57,2.57,0,0,0,1.11,1.07.8.8,0,0,0,1-.29,2,2,0,0,1-.89-.65,7.73,7.73,0,0,0-.89-.95c-.12-.84.39-1.36.65-1.16-.1-.16,0-.41.12-.69a1.07,1.07,0,0,0,.1-.84c-1.11.47-1.48,2.22-.68,3.48C362.82,345.86,362.56,345.62,362.39,345.56Z"/><path class="cls-2" d="M343.72,353.7c-.05-.19-.11-.38-.15-.57A1.73,1.73,0,0,0,343.72,353.7Z"/><path class="cls-2" d="M390,378.13c-.42.05-.59.15-.6.23C389.77,378.27,390.08,378.19,390,378.13Z"/><path class="cls-2" d="M399.59,377.22l-.57.1A.88.88,0,0,0,399.59,377.22Z"/><path class="cls-2" d="M343.72,353.7l.4,1.46C344.41,355.14,344,354.38,343.72,353.7Z"/><path class="cls-2" d="M370.64,348.25a2.88,2.88,0,0,0-.49.41c.17-.09.34-.17.51-.28A.51.51,0,0,1,370.64,348.25Z"/><path class="cls-2" d="M345.52,329.63a3.81,3.81,0,0,1,.33-.36,2.83,2.83,0,0,0,.08-.52A4.7,4.7,0,0,0,345.52,329.63Z"/><path class="cls-2" d="M364.11,324.3c-.44-.13-.72.57-.94.84a1.25,1.25,0,0,1,1-.3A.77.77,0,0,0,364.11,324.3Z"/><path class="cls-2" d="M375.3,348.33l-.31.48C375.07,348.68,375.22,348.48,375.3,348.33Z"/><path class="cls-2" d="M340.44,342.85a.48.48,0,0,0-.25.19A.39.39,0,0,0,340.44,342.85Z"/><path class="cls-2" d="M94.29,340.92a.54.54,0,0,0,0-.11C94.21,340.83,94.16,340.86,94.29,340.92Z"/><path class="cls-2" d="M76.58,328.58l.28.1a1.72,1.72,0,0,0,.24-.31Z"/><path class="cls-2" d="M415.91,370.06l-.07,0C415.51,370.44,415.71,370.27,415.91,370.06Z"/><path class="cls-2" d="M345,299.66c1.86-.27-2.18,2.06.51,1.43C345.13,301,347.13,299,345,299.66Z"/><path class="cls-2" d="M371,348.19l.51-.28A2.45,2.45,0,0,0,371,348.19Z"/><path class="cls-2" d="M345.48,301.09h0l.28-.07Z"/><path class="cls-2" d="M436.24,335.22a1.2,1.2,0,0,0-.36.38C436,335.59,436.05,335.51,436.24,335.22Z"/><path class="cls-2" d="M422.73,362.05c.2-.16.38-.33.57-.5A6.49,6.49,0,0,0,422.73,362.05Z"/><path class="cls-2" d="M434.18,319.44a2.32,2.32,0,0,0-.26-1.09.63.63,0,0,0,0,.19A1.23,1.23,0,0,1,434.18,319.44Z"/><path class="cls-2" d="M426.49,305c0,.1.06.22.09.33l.36.38Z"/><path class="cls-2" d="M140.36,354.74a2.25,2.25,0,0,1-.59-.75C139.91,354.52,137.6,354.23,140.36,354.74Z"/><path class="cls-2" d="M370.8,348.61a.46.46,0,0,1,.21-.42l-.35.19C370.66,348.49,370.69,348.59,370.8,348.61Z"/><path class="cls-2" d="M428.67,320.33c-.2-.71-.35-1.45-.6-2.15C428.25,318.78,428.42,319.58,428.67,320.33Z"/><path class="cls-2" d="M252.89,351.14l-.53.22A1.08,1.08,0,0,0,252.89,351.14Z"/><path class="cls-2" d="M425.05,312.28a3.65,3.65,0,0,0-.32-1.31.94.94,0,0,0-.3-.12C424.64,311.33,424.85,311.8,425.05,312.28Z"/><path class="cls-2" d="M139.77,354h0Z"/><path class="cls-2" d="M123.25,351.73c2.31.68,1.33-.57,2-.94,2.84.44,1.11,1,1.94,1.67,1.8.21,3.33-.28,4.61.08.06.17.3.29,0,.4,2-.28,5.49,1.18,7.82.76a.7.7,0,0,1,.24.28,1.53,1.53,0,0,1-.08-1.31c1.05.2,2.06-.21,2.33.47-.63-.14-.73.09-1.07.22l1.15-.06c.82,1-1.56,0-1.69.65,2.21.12,4.84-.11,6.44.43.2.9-3.9-.44-1.84.72l-2.49-.8c1.7,1.68-1.54-.38,0,1.36,3.34.86,3.84.33,7.18,1.08.84-.35-.14-.73.7-1.08,4.9-.1,3.46,2.73,7.17,2,1-.45,1.47-1.47,3.91-.6l-1,.85c3.28.51,2-1.17,5.4-.18-.64.32-2.62.07-2.13.23,2.17,1,1.64-.39,3.35-.23l.28.88c.89,0,1.79.07,2.72.06l2.82-.09c1.91-.09,3.86-.11,5.81-.14-.23.25-.91.49,0,.78a68.88,68.88,0,0,1,7.7.15c2.61.13,5.2.44,7.59.62l1.8-.79c.42,0,.79.31.34.47,1.86.22.08-.47,1-.79,1-.08,1.41.38.75.62.81-.18,1.79-.36,2.86-.55s2.23-.4,3.4-.56a28.73,28.73,0,0,1,6.44-.21l-.65.27c2.7.06,2.87-1.77,5.4-1.32l-.46.18c2.91-.16,5.93-.63,8.79-1a36.11,36.11,0,0,1,7.83-.55c.65-1.19,5.76-.59,5.84-2.11,3.4.07,2.52.49,7.21,0,1.24-.2,1.61-1.3,3.07-1.84l.22.74,1.84-1.29,1.31.62,1.36-.55c-.58.1-1.28,0-1.25-.27,2.11-.85,5.45-.95,5.63-.57,1.65-.72,3.33-1.37,5-2.13,0,.32-.84.72-1.47,1.09,2.51-1.59.73.63,3-.85-.39-.06,0-.5.05-.67a17.92,17.92,0,0,0,6.25-1.77l-.23.65c1.9-.61,3.86-1.38,5.87-2.18s4-1.76,6.11-2.58c-1.59.36-1.59-.63-.41-1.19l.8.56c.59-.77-1.39.22,0-1,1.57-.55,1.39.42.6,1.05l1.76-1.07c.2.18-.18.49-.18.82.57-.79,3.55-.64,4.31-1.92l.2.17c2.06-.87,3.48-1.69,4.84-2.39l4.21-2.22c-.25-.66,1.09-1.18,1.79-2.18,1.24-.51,2.59-1,4-1.52a37.16,37.16,0,0,0,4.17-2c1.8-1.41.28-.84,1-1.7.47.5,3.22-1.18,2,.06a71.89,71.89,0,0,0,8-5.62c-.58.05-1.15.27-1-.08.69-.55,1.84-.83,1.9-.5l-.17.18c4.11-3.7,11.58-5.12,14.51-8.49l-.17.18,3.43-2.91c1.81-.95-.8,1,.7.6,3.56-3.37,6.57-3.67,9.68-6.13,1.78.13,4.11-1.13,6.59-2.41s5.1-2.6,7.19-2.76l-.38-.34c.82-.77,1.27-.2,2-.37-.22-.29-1.2,0-.68-.44,8.12-3.63,17.71-4.55,26.36-4.05a3.28,3.28,0,0,0,2.64-.89c.58-.39,1.32-.76,3.28,0-.41.23-.82.44-1.22.69a27,27,0,0,1,9.63,1.46c3.14,1,6.11,2.31,9.08,3.46-.43,0-.56.21-1.1-.07.92,1.08,4.18,2.5,4.47,2.15.77.6-.07.49.28,1a6.51,6.51,0,0,0,1.89,1.2c.69.34,1.31.66,1.36,1.14,0,.15-.4-.11-.61-.23a11.89,11.89,0,0,1,1.73,1.36c.62.5,1,.9,1,.34a31,31,0,0,0,2.22,2.5c.36.39.71.76,1,1.15a6.94,6.94,0,0,1,.71,1.27,2.28,2.28,0,0,1,.89.77,12.32,12.32,0,0,1,.64,1.19c.42.8.79,1.49,1.34,1.42-.54.19-.31,1.21.19,2.3a12.88,12.88,0,0,0,.77,1.69,8.91,8.91,0,0,0,.77,1.34c-.46-.37,0,1.31-.58.89a12.88,12.88,0,0,0,.7,2.06c.22.52.47.79.73.59a7.19,7.19,0,0,0-.07,2.35c.13.74.28,1.46.45,2.15.3,1.38.5,2.64-.42,3.49a34.87,34.87,0,0,1-1.7,14.24c-.25-.15-.26-.51-.16-1a14.52,14.52,0,0,1,.45-1.66c.34-1.17.62-2.32,0-2.37-.36,2.11-.58,3.85-1,5.53a18.13,18.13,0,0,1-.8,2.54,19.13,19.13,0,0,1-1.42,2.63c-.72.88-.07-.79-.1-1.22a23.84,23.84,0,0,1-1.46,2.85c-.6.88-1.14,1.76-1.78,2.56s-1.23,1.62-1.87,2.39c-.31.39-.61.79-.9,1.19s-.61.78-.89,1.18c-.07-.08.14-.46.35-.8-.51.57-1.35,1.16-.93,1.47l.42-.64c.69-.19.45.64,0,1.56a9.57,9.57,0,0,0-1,2.1c0-1.95-3.25,2.29-2.83-.5-.32.39-.66,1-.36,1.19-.66.38-1,.36-.61-.4-2,1.86-.91,1.75-3,3.15-.13-.21.24-.58.29-1a7.62,7.62,0,0,1-3.6,3.07c.05-.19-.26-.25.3-.54a24.81,24.81,0,0,0-2.18,1.39l-2.05,1.36a23.36,23.36,0,0,1-2.23,1.19,14.81,14.81,0,0,1-2.7.8c.41-.7.06-.66-.45-.6s-1.2.19-1.41-.24a20.36,20.36,0,0,1-2,.75l.94.27a23.79,23.79,0,0,0-2.59.8,7,7,0,0,1-2.48.41c.46-.16.9-.38,1.35-.57-1.16.26-2.34.37-3.52.54l2.05.18c-1.89.64.32,1.17-2.28,1.12.52-.13-2,.07-3-.5h0a5.82,5.82,0,0,1-3.39.23c-.35-.32.38-1,.15-1.22-1,.75-4.45-.25-5.76.28.43-.12.54-.59.43-.72l-.9.48c-.84-.36-.93-.52-.71-.85-2.55-.75.56,1.35-2.42.1.26,0,.17-.11.7-.08-3-1.06-6-1.47-8.58-3-.18-.62.4-.37,1-.16s1.14.42.85-.13c-1.94-.72-4-1.49-5.95-2.38a21.19,21.19,0,0,1-5.32-3.42l.51.56c-.62.34-1.12-.28-1.67-1.08a6.68,6.68,0,0,0-2-2.39c.41.31,1,0,.77,0a16.42,16.42,0,0,0-1.36-1.57c-.47-.54-1-1.1-1.52-1.67s-1-1.24-1.65-1.93-1.14-1.5-1.72-2.39c.17.11.35.21.54.31-.23-.8-.65-1.77-1.05-2.77a17.05,17.05,0,0,1-.87-2.88c-.47-.39-.69-1.37-1-.67.3-2.85-.13-5.19-.16-7.66,0-.6,0-1.22.08-1.82s.23-1.18.38-1.76a6.19,6.19,0,0,1,2-2.93c-.29.47-.42,1.24-.19.88l.87-1.72,1.09-1.55c-.61-.16-.57.15-1.46.51a3.67,3.67,0,0,1,.42-1.18,4.66,4.66,0,0,1,1-1.2c-1.16,1.53.66.67,1.39.45-.21-.06-.13-.39-.28-.49,1.18-.15,1.07-.42,1.06-.81s0-.94,1.54-1.24v.35a8,8,0,0,1,3-1.58c.63.5-1.06.64-1,1.2a5.55,5.55,0,0,0,1.11-.57l1.12-.58a2.86,2.86,0,0,1,2.34-.31,9,9,0,0,1-1.21.28,4.94,4.94,0,0,0-1.16.38c.43.12.75.19,1,.24a4.65,4.65,0,0,0,.68.13c.4,0,.73,0,1.32,0h-.12c.45,0,.9.14,1.35.21a8.46,8.46,0,0,1,1.31.27,5.37,5.37,0,0,0-.65-.29,3.11,3.11,0,0,1,1.62-.6,7.63,7.63,0,0,1,.83,0c.27.05.55.12.83.19a19.81,19.81,0,0,0,3.78.79c-1.49-.08-1.64.09-1.5.25s.59.43.34.74c.56.44,1.3,1.17,1,1.21a2,2,0,0,1,.85.22,5.41,5.41,0,0,1,.62.56,4.19,4.19,0,0,0,1.78,1c-.11.24.94.9.29,1.13,1.06,1.06.12-.57.36-.66a4.43,4.43,0,0,1,1.43,1.4,14.26,14.26,0,0,1,.91,2c.47,1.53.75,3.11,1.41,4.79A28.72,28.72,0,0,1,376,344a5.84,5.84,0,0,1-.71,3.41c-.49.31-.51,0-.45-.38s.18-.8.18-.8c-1.13,1.12-1.88,1.89-3,2.88.16-.32-.22-.33-.7-.38a1.81,1.81,0,0,0-.75.75c-.17.24-.44.46-1.22.4a9.42,9.42,0,0,1,.83-1.19,5.77,5.77,0,0,1-3.66.88c-.17-.49.93-.38,1.35-.64a5.29,5.29,0,0,1-2.15-.4,8.09,8.09,0,0,0-1.65-.71,5,5,0,0,0,.45.93c-.43-.41.25-.59.57-.42a1.8,1.8,0,0,1,1.06.68,1.21,1.21,0,0,1,.26.68,5,5,0,0,1-.95-.29c0,.9,1.25,1.37,2.49,1.2a12.43,12.43,0,0,0,3.38-1.21,8.88,8.88,0,0,1-.49,1.3,8.17,8.17,0,0,0,1.69-1.74c.52,0,1.19.24.29,1a2.06,2.06,0,0,0,1.33-.85,2.32,2.32,0,0,1,1.09-.9c.17-.07.17,0,.09.16a9.7,9.7,0,0,0,.75-1.56c0,.4.8.12.07,1a5.38,5.38,0,0,0,1.51-3.55c.07-1,0-1.77.42-2.33l0,.26a5,5,0,0,0-.28-1.91c-.11-.28-.24-.28-.36-.26s-.54.19-1.2-1.15a14.34,14.34,0,0,0,1.3-2.46l-.85-.14c-.11-.41-.39-1.21-.05-1.19-1.18-1.22-.17.36-1-.24a6.49,6.49,0,0,0-.63-1.62,9.86,9.86,0,0,0-1.14-1.48c-.19-.23-.36-.47-.54-.66a7,7,0,0,1-.47-.55,1.07,1.07,0,0,1-.26-1c-.91-.05,1.12,1.66-.72.5.22-.74-.38-1-1.1-1.38a8.12,8.12,0,0,1-2.33-1.27c.8-.34,2.27.84.84-.6a1.76,1.76,0,0,1-1.17-.1,5.58,5.58,0,0,1-1.26-.61,6.89,6.89,0,0,0-2.64-1.15c-.13.41-1,.36-2.18.22a13.11,13.11,0,0,0-1.95-.13H359c-.34,0-.69.09-1,.16.07-.14-1.2-.26-2.81,0a21.4,21.4,0,0,0-4.75,1.2v-.17a1.22,1.22,0,0,1-.43.76,7.57,7.57,0,0,1-.95.88,15.39,15.39,0,0,0-2.25,2c-.32-.44-.22-.83.45-1.73l-1.42,1.25a5.29,5.29,0,0,1-1,2.05l-.24-.78c-1.52,2.07-2.08,4.53-3.22,7.43.29.16.89-.33,1.35-.42s.75.18.64,1.65c-.34,0-1,0-.94-.78-.06.26.12,1-.12,1.48-.13-.43-.26-.88-.38-1.34-.46,1.31.37.8.16,1.85-.49-.08-.47.76-.84.57,0-.29.34-.94.22-1.39a14.19,14.19,0,0,1-1,3.26c.3-.11.63,0,.74.91.23,2.36-.53.85-.66,2.29.44.53.38,2.11,1.1,2a1.47,1.47,0,0,1-.27,1.18c.54,1.16,2,5.39,2.2,3.81l-.06-.31.1.17h0a23.48,23.48,0,0,1,1.47,2.58c.51.86.9,1.79,1.39,2.67a26.21,26.21,0,0,0,1.55,2.6,11.88,11.88,0,0,0,1.89,2.27l-.19.16c.86.8,1.83,1.65,2.74,2.43a10.41,10.41,0,0,0,2.69,1.67c.54.4,1,1.3.62,1.37.76.45,1.23.63,1.75.91a13.24,13.24,0,0,1,2.06,1.51c-1.75-.54.31.67-1.72-.69a22.59,22.59,0,0,0,2.07,1.59,6.48,6.48,0,0,0,2.57,1c-1,.18,1.21,1.52,2.33,1.74-.44-.36-.88-.69-1.3-1.07,1.16.43,2.13.9,3.12,1.36-.28.19-.57.38-.86.55a10.48,10.48,0,0,0,3.17,1.35,24.12,24.12,0,0,0,3.15.45c2,.17,3.86.27,5.53,1.38.67-.2,0-.39-.59-.6s-1.27-.48-.66-.71c2.08.49,4.23,1.9,4.94,1.94a4,4,0,0,0,2.95-.25,6,6,0,0,1,1.2-.4,5.45,5.45,0,0,1,1.82-.12c-.42-.3-.79-1,1.46-1.45,2.11-.07,2.76,1,1.4,1.37-.52.07-.78,0-.76-.1-.69.16-1.62.37-.73.62l.26-.32a17.51,17.51,0,0,0,2.4.09c.81,0,1.4,0,1.08.3,1.62-.52.63-.58-.6-.56a16.46,16.46,0,0,0,1.93-.09c.59-.07,1.13-.2,1.68-.31,1.1-.21,2.17-.54,3.62-.77-.49,0-1-.27-.55-.38,2.1-.39,2.49-.74,2.71-1s.25-.54,1.54-1.13c1.67-.17-.13,1.25,2.39-.2,1.73-.46.67.56.11,1.08,2.2-1.6,4.68-1.82,6.07-2.54-.37.31-.73.64-1.12.92a17.69,17.69,0,0,1,1.89-1.26l-1-.1c.77-.33,1.37-.69,1.49-.47.52-.78-1.05-.48.05-1.84a8.49,8.49,0,0,0,1.77-1.13c.58-.46,1.12-.81,1.5-.61-2.91,1.83.81.44-1.52,2.23a10.33,10.33,0,0,1,1.71-1.21c.15,0,0,.2-.15.38,3.11-1.46.7-1.63,3.33-3.79,0,.63,1.14.08,1.49-.38-1,.95-1-.1-.3-1.2,1.82-1.26,1.48-1.87,2.3-2.64l-1,.82c0-.62.78-1.34,1.63-2.58.35.13-.71,1.19-.24.88.49-1.74,3.08-2.37,4-4.65.86-.73.75.39,1.46-.3.93-2.56,2.09-2.15,3-4.89-.92.44-.82.63-.47-1.38-.25.73-.57,1.42-.86,2.13s-.6,1.41-.95,2.09c.28-1,.48-2,.67-3a28.54,28.54,0,0,1-1.59,3.35c.3-1.44.35-1.23-.41-.93a3.19,3.19,0,0,0,1-1,7.25,7.25,0,0,0,.52-1.32c.15-.46.3-.93.5-1.39a4.23,4.23,0,0,1,.77-1.34l1.32.66a10.42,10.42,0,0,0,1.64-4.42,41.54,41.54,0,0,1,1.16-5.31l-.57,1.27c-.41-.68.51-2.57.48-4,.47.21.76-.62,1.15-1.17-.34,0,.36-3.15-.65-3.58.23-.62.49-1.25.7-1.89a7.25,7.25,0,0,0-.14-2.13,9.26,9.26,0,0,0-.59-1.52c-.21-.46-.44-.91-.65-1.45a9.69,9.69,0,0,1-.45-2c.69.88.84-.67,1.51,1.49-.12-1.11-.24-2.12-.58-2.07.21-.72-1.28-2.86-1.14-3.95-.35-.38-.88-.37-1.22-1.55,0-.16.23-.07.23-.07-.23.07-1-1.68-1.13-.49a6.4,6.4,0,0,0-.08-1.43,12.1,12.1,0,0,0-.47-1.49,13.84,13.84,0,0,0-.69-1.53l-.88-1.48c-1.22-2-2.63-3.66-3.07-5.21-.8-.91-1.82-1.76-2.74-2.67s-1.94-1.65-2.78-2.34c.21,0,.17-.18.45.12a2.7,2.7,0,0,0-2.21-1.16,3.48,3.48,0,0,1-2.48-1.23c-1-1.64,1.71.65,1-.2.26-.78-.59-1.4-1.76-1.9-.58-.26-1.22-.54-1.8-.87a5,5,0,0,1-1.55-1.14l.54.17a6.11,6.11,0,0,0-2.89-1.31c-.6-.15-1.23-.3-1.87-.49a12.88,12.88,0,0,1-2-.62s.18-.09.1-.23a21.74,21.74,0,0,1-4-.35c-1.5-.16-3-.46-4.4-.56.94-.47,1.28-.1.9-.83-1.22-.13.13,1.08-2.25.82-.71-.48-2.41-1-2.57-1.69l2.31.25c-1.06-1-3-.38-4.18-.58l.18-.38a10.75,10.75,0,0,0-3.63.42,14.93,14.93,0,0,1-3.75.49l.39.28c-2,1-1.74-.45-3.72.4l-.72-.91c-1.34.38-4.59,1.5-6.89,2.2,1.18-1,3.93-1.85,5.65-2.46a20.4,20.4,0,0,0-2.86.49,5.56,5.56,0,0,0-2.28.87,3.74,3.74,0,0,1,1.7-.49,18.5,18.5,0,0,1-6.09,2.44c0-1-1.72-.67-3.71-.17s-4.2,1.26-5.37.88c-4.22,2.26-8.88,3.17-13.79,5.74,2.41.47-1.42.76-.41,2-1.08.67-1.52.87-1.67.83-1.27.34-2.55.68-3.82,1-1,.06.89-.89.63-1.13-2.5,1.26-1.34,0-3.16.56.6.29-.46,1.16-1.94,1.78l2.29-.51c-3,2.65-3.57.58-6.52,3.29l.81-1.06c-1.58,1.28-6.32,3.87-7.32,6-.39,0-1-.07-.32-.63-4.14,2.39-8.25,6.78-11.78,8.06l.11-.5c-.7.55-.94,1.4-2.08,1.66,0-.17.11-.51-.25-.31a9.42,9.42,0,0,1-2.77,2.18l.63-.87c-4.17,1.95-5.58,4.37-8.83,6.5-.5-.94-3.88.37-5.55,1l0-.17a59.22,59.22,0,0,0-6.21,3.54c-.94.6-1.85,1.24-2.82,1.84s-2,1.18-3.07,1.77a11.67,11.67,0,0,0-3,.65c-1.14.36-2.43.79-3.75,1.29s-2.7,1-4.05,1.48-2.69.82-3.9,1.08c.77-.07.17.85-.62,1.25a6.87,6.87,0,0,0-1.84.84c-.58.28-1,.41-1.09-.09l.39-.11c-1.14-.67-3.31.3-5.09.84l.1,1.36c-2.59-.16-5.61.81-8.35,1.83s-5.27,1.78-6.75,1.27c-1.06.63-2.49.9-3.55,1.48l-.09-.7c-3.21.52-4.8.8-8.71,1.67l.71-.65c-2.23.36-2.44,2.56-4.51,2.94l-.8-.95c-2,.31-4,.39-5.92.58a20,20,0,0,0-5.82,1.1c0-.16.13-.48.76-.6-1.85.26-7.21,0-6.41,1.41-.13-.94-4.06.3-6.18.81l.28-.72a8.61,8.61,0,0,1-4.29,1.65c-.61-.06-.55-.53.25-.4-2-.24-1.53.72-4,.44l.88-.47a4.24,4.24,0,0,0-3,.79,6.79,6.79,0,0,1-2.47,0,2.8,2.8,0,0,1-1.74-.74,3.11,3.11,0,0,1-2.61.72c-.16-.24.28-.39.5-.46-3.42-.45-5.12.77-7.46,0a.53.53,0,0,0-.39-.42c2.72.1,4.92.2,4.71.23,0-.62-2.18-.81-.42-1.64-1.76.43-4.81,1.39-6.94,1a.85.85,0,0,1-.27-.23l.22-.06a3.79,3.79,0,0,0-1.35,0,12.71,12.71,0,0,0-1.76-.3c-.22-.54-2.49-.44-3.58-.53,0,.71-1.39.5-.09,1.17-.17-.07.22-.08.95-.06a3.06,3.06,0,0,0,.47,0l-.08.05,2.72.12a4,4,0,0,1-3,.09,17.93,17.93,0,0,1-1.62,1c-1.43-1.06-4.26-1.89-4.6-2.52-3.38.14-7.84-.61-10.12.45-1,.06-1-.51-1.36-.77a6.72,6.72,0,0,0,1.53-.1c-1.94.11-5.59-.72-6.19.14-2.31-.78,1.47-.64-1.82-1l.49-.21c-3.07-1.27-5.75-1.21-8.54-1.18s-5.67-.14-8.94-1.95c.46.23.69.35.75.52-7.77-2.69-16.6-3.7-23.82-7.68-2.08-1-2.51-.56-4-.61l-.19-.89-2.55-.08a10.55,10.55,0,0,1-4.24-2.26,10,10,0,0,0-5-2.28l.3.69c-1.4-.67-4.61-1.76-4.12-2.19a1,1,0,0,1-1.12-.24l.13-.37-3.74-1c-2.51-1.6,1.1-1.19-2.68-3.23-1.48-.6-4.57-1.08-4.17-.57.57.32,1.36,1,1.22,1.35l-1.41-.5c-.78.91-2.38,1.42.49,3.83l2.6.54.47.88L78.5,333a3.25,3.25,0,0,0,2.65,1.08,1.73,1.73,0,0,0,.67,1.05l2.75.08c.08.54-1.4.32,0,1.28,1.28,0-.58-1.41,1.32-.88.87,1,.37,1.24,1.86,1.44,0,.36-.3.41-.87.28A15.29,15.29,0,0,1,89,338a3.27,3.27,0,0,0,1.84.27c.9,1.11,4,1.57,3.46,2.53a11.4,11.4,0,0,1,3.51.47c-2.49.43,4,1.68,3,2.79,1.89-.47,5.57,1.49,8.43,1.84a1.15,1.15,0,0,1-.75,0,16.86,16.86,0,0,1,2.68,1.63c.5-.86,2.91-.32,4.35-.49,1.55,1.49-1.47.74-1.17,1.79.15-.79,3.45.27,3-.56,1.25,1,1.14.63,1.65,1.62.59-1.1,1.38.18,2.77-.2,1.89,1.17.22,1.25,2.58,1.55C125.39,351.89,123.25,351.73,123.25,351.73Zm55.53,6.52h-1.16Zm4.68.13c-.57-.05-1.28-.07-2-.09-.16-.25,0-.49.5-.46C181.67,358,182.76,358.15,183.46,358.38Zm-9.6-5.29c.74,0,1,.1,1.06.25h-1.27l-.09.09A.82.82,0,0,1,173.86,353.09Z"/><path class="cls-2" d="M172.5,353.93a1.42,1.42,0,0,1-.31,0c.15.07.29.14.43.19l.27-.21Z"/><path class="cls-2" d="M343.55,353l0,.1a.47.47,0,0,1,0-.24A.84.84,0,0,1,343.55,353Z"/><polygon class="cls-2" points="247.9 352.75 247.85 352.58 247.49 352.83 247.9 352.75"/><path class="cls-2" d="M349.51,330.31a.78.78,0,0,0,.35,0A.56.56,0,0,0,349.51,330.31Z"/><path class="cls-2" d="M359.05,327.31c.48.09,1,.2,1.43.3A10.57,10.57,0,0,0,359.05,327.31Z"/><path class="cls-2" d="M366.58,329.07a.74.74,0,0,0,.26-.22h0Z"/><path class="cls-2" d="M418.88,359.28c.07-.09.14-.17.19-.25C419.47,358.41,419.17,358.81,418.88,359.28Z"/><path class="cls-2" d="M385,375.67c.42-.1.83-.25,1.26-.34C385.58,375.31,385,375.28,385,375.67Z"/><path class="cls-2" d="M428.74,320.57h0l-.08-.24Z"/><path class="cls-2" d="M388.1,375.29a4.56,4.56,0,0,0-1.82,0A7.39,7.39,0,0,0,388.1,375.29Z"/><path class="cls-2" d="M365.76,347.77a.74.74,0,0,1-.16-.19.27.27,0,0,1-.1.06A1.05,1.05,0,0,0,365.76,347.77Z"/><path class="cls-2" d="M365.5,347.64l-.27-.16C365.33,347.58,365.41,347.66,365.5,347.64Z"/><path class="cls-2" d="M364.72,347a3.57,3.57,0,0,0,.51.45A.9.9,0,0,0,364.72,347Z"/><path class="cls-2" d="M373.13,346.86l-.12-.24A.45.45,0,0,0,373.13,346.86Z"/><path class="cls-2" d="M374.5,344.58a4.27,4.27,0,0,1-.75.92,5.19,5.19,0,0,0-.83.92l.09.2c0-.28.43-.51.81-.86S374.58,344.94,374.5,344.58Z"/><path class="cls-2" d="M374.56,331.16l.88,1.28.68,1.38c0-.59-.08-1.43.7-.19-.66-2-.71-1.72-.8-1.42S375.8,332.76,374.56,331.16Z"/><path class="cls-2" d="M366.93,325.49c1.61.48.12-.38.25-.49C366.08,324.85,365.84,324.82,366.93,325.49Z"/><path class="cls-2" d="M356.15,369.24l-.5.42C356.71,370.32,355.8,369.47,356.15,369.24Z"/><path class="cls-2" d="M368.51,372l-.9-.76-.7.33C367.43,371.73,368,371.86,368.51,372Z"/><path class="cls-2" d="M374.27,378.41l-.55,0c.7.09,1.4.12,2.1.18Z"/><path class="cls-2" d="M428.81,306.9l-.42.77C429,308.28,429.82,307.93,428.81,306.9Z"/><path class="cls-2" d="M385.67,288.55a3,3,0,0,0-2.72-.11C384,288.41,385.12,288.65,385.67,288.55Z"/><polygon class="cls-2" points="258.17 343.44 258.98 342.93 257.37 343.62 258.17 343.44"/><path class="cls-2" d="M294,261.35c-.13.25.11.7.42.51a5,5,0,0,0-.07-.86A2.31,2.31,0,0,1,294,261.35Z"/><path class="cls-2" d="M296.94,261.17a1.46,1.46,0,0,0-1.16-1.61,1.6,1.6,0,0,1,.31.73,3.82,3.82,0,0,0,.24.9.48.48,0,0,1-.85,0c0,.27-.53.16-.48.7a1.08,1.08,0,0,0,1.53-1.1C296.77,260.79,296.85,261,296.94,261.17Z"/><path class="cls-2" d="M282.11,274.46l-.18-.28A.88.88,0,0,0,282.11,274.46Z"/><path class="cls-2" d="M309.79,270.73c-.13.2-.13.33-.07.38C309.81,270.9,309.88,270.73,309.79,270.73Z"/><path class="cls-2" d="M313.35,266.58l-.19.26C313.28,266.77,313.38,266.67,313.35,266.58Z"/><path class="cls-2" d="M282.11,274.46c.16.24.32.5.49.74C282.81,275,282.39,274.77,282.11,274.46Z"/><path class="cls-2" d="M295.92,256a.68.68,0,0,0,.29.16c-.06-.06-.11-.13-.17-.2Z"/><path class="cls-2" d="M276.37,262l0-.26a2.56,2.56,0,0,0-.29-.27Z"/><path class="cls-2" d="M281.25,252.18c-.22.15.21.72.36,1a.75.75,0,0,1,.06-.71A1.22,1.22,0,0,0,281.25,252.18Z"/><path class="cls-2" d="M297.17,252.8l.28.17C297.37,252.93,297.26,252.84,297.17,252.8Z"/><path class="cls-2" d="M277.52,269.94a.5.5,0,0,0-.18.21A.47.47,0,0,0,277.52,269.94Z"/><path class="cls-2" d="M119.29,278.94c0-.05,0-.08,0-.12S119.21,278.92,119.29,278.94Z"/><path class="cls-2" d="M109,272.55h.17a2.83,2.83,0,0,0,.16-.36Z"/><path class="cls-2" d="M316.72,257l0,0C316.76,257.3,316.76,257.15,316.72,257Z"/><path class="cls-2" d="M248.84,224.52c1.13.21-1.15,1.36.46,1.44C249.07,225.76,250.11,224.43,248.84,224.52Z"/><path class="cls-2" d="M295.92,255.79l-.13-.24A.64.64,0,0,0,295.92,255.79Z"/><path class="cls-2" d="M249.3,226h0Z"/><path class="cls-2" d="M309.38,235.42a.79.79,0,0,0-.1.37A.56.56,0,0,0,309.38,235.42Z"/><path class="cls-2" d="M315.12,251.14l0-.43A1.08,1.08,0,0,0,315.12,251.14Z"/><path class="cls-2" d="M302.72,229.84c-.13-.19-.12-.32-.41-.44a.43.43,0,0,0,0,.12C302.47,229.52,302.61,229.59,302.72,229.84Z"/><path class="cls-2" d="M295.4,224.87c0,.07.06.13.08.2l.27.1Z"/><path class="cls-2" d="M145.67,280.24a2.06,2.06,0,0,1-.44-.6C145.4,280.13,144.13,280.38,145.67,280.24Z"/><path class="cls-2" d="M296.28,255.82c-.18,0-.28,0-.36,0l.12.16C296.15,255.92,296.24,255.89,296.28,255.82Z"/><path class="cls-2" d="M298.9,233.85c-.29-.29-.6-.55-.9-.83A7.42,7.42,0,0,0,298.9,233.85Z"/><path class="cls-2" d="M203.57,259.94l-.21.24A.34.34,0,0,0,203.57,259.94Z"/><path class="cls-2" d="M295,231a1.91,1.91,0,0,0-.33-.79.63.63,0,0,0-.22.07Z"/><path class="cls-2" d="M145.23,279.63h0Z"/><path class="cls-2" d="M136.16,281.52c1.32,0,.63-.91.92-1.44,1.57-.27.72.68,1.26,1.15,1-.25,1.73-1.1,2.46-1.07,0,.16.2.21,0,.4,1-.69,3.07-.18,4.22-1.15a.55.55,0,0,1,.17.22,2.63,2.63,0,0,1-.27-1.26c.58-.05,1-.64,1.3-.05-.36,0-.37.25-.52.44l.58-.29c.62.83-.8.35-.76,1,.59-.18,1.21-.47,1.8-.69a3.34,3.34,0,0,1,1.61-.36c.28.83-2.09.53-.81,1.14a14.24,14.24,0,0,1-1.44-.2c1.19,1.27-.87,0,.24,1.33,1.91.09,2.06-.65,3.95-.6.36-.52-.22-.68.14-1.19,2.51-1.13,2.37,1.87,4.14.44.41-.64.43-1.73,1.88-1.4l-.3,1c1.81-.22.78-1.49,2.75-1.24-.25.45-1.33.59-1,.65,1.35.51.75-.71,1.67-.9l.36.79c1.86-.56,3.81-1.55,5.81-2.29,0,.27-.34.62.21.74a19.36,19.36,0,0,1,4.05-1.16c1.39-.3,2.82-.49,4.14-.66l.71-1c.22-.07.51.17.33.39,1-.09-.11-.46.25-.9.52-.25.85.13.59.47,1.47-1.23,4.27-3,6.28-3.08l-.25.35c1.46-.31.91-2,2.43-1.94l-.19.22a33.94,33.94,0,0,0,4.38-2,12.54,12.54,0,0,1,4.1-1.37c-.11-1.15,3-1.1,2.44-2.48,1.91-.29,1.61.21,4.05-.69.61-.31.37-1.32,1-1.89l.43.64.53-1.29,1,.44.56-.59c-.29.13-.75.07-.83-.14.84-1,2.79-1.18,3-.88l2-2.16c.12.29-.22.66-.42,1,.83-1.53.69.51,1.45-.89-.26,0-.18-.44-.24-.58a5.83,5.83,0,0,0,3-1.77l.12.56c1.83-1.11,3.52-2.81,5.46-4.19-.84.3-1.21-.56-.7-1l.71.5c.07-.68-.78.17-.38-.87.77-.44,1,.4.76.92l.71-.86c.2.16.07.41.19.7.07-.67,2-.42,2-1.51l.19.16c1.93-1.37,2.64-2.23,4.19-3.37-.37-.59.33-.9.48-1.69A25.13,25.13,0,0,0,229.4,242c.79-1-.05-.69.16-1.33.43.48,1.81-.5,1.33.36a30.62,30.62,0,0,0,4-3.34c-.38-.07-.7,0-.68-.27.34-.35,1-.34,1.15,0l-.07.12c1-1.16,2.64-1.64,4.22-2s3.06-.77,3.74-1.91l-.08.12,1.78-1.68c1-.39-.36.72.53.72,1.81-2.07,3.66-1.56,5.3-3,1.09.54,2.39,0,3.74-.6s2.77-1.31,4-1l-.25-.4c.41-.57.72.06,1.13,0-.14-.32-.68-.22-.42-.55a21.54,21.54,0,0,1,7-1.44,68.19,68.19,0,0,1,7.18.17c1.68.1,1-2.38,3.13-1.23l-.63.8c3.5-.9,7,.55,10.38.67-.24.14-.31.37-.63.29.53.69,2.44.81,2.64.34.47.23,0,.46.18.8.54.51,1.92,0,2,.65,0,.11-.26.09-.4.09.54-.09,1.92.91,1.82.12.95.89,2.3.84,2.95,1.73,1-.3,1.61,1.48,2.4.69-.69.86,1.21,2.07,2.2,2.14-.41.09.3.73-.24.88.67.59,1.43,1,1.7.45a2.69,2.69,0,0,0,1.61,1.84c.67.4,1.31.75.92,1.69a21.36,21.36,0,0,1,2.93,2.65,19.61,19.61,0,0,1,2.32,3c-1.06.44-1.34-2.34-2.36-1.61.77.83,1.47,1.47,2.15,2.15a6.72,6.72,0,0,1,1.43,2.59c0,.31-.13.27-.3.14a4.91,4.91,0,0,0-.55-.39,5.33,5.33,0,0,1,.71,1.51c.17.52.32,1,.47,1.54a12.27,12.27,0,0,0,.82,3c-.11,0-.22-.2-.34-.39.08.39-.1.93.41.84l-.16-.37c.69-.75,1.65,1.47,2.05,1.56-.76-.33-.82.2-.93.67s-.37.85-1.26.32c.08.25.31.58.65.53-.12.39-.33.5-.69.1.19,1.41.79,1,.66,2.26-.24,0-.29-.31-.58-.47A2.48,2.48,0,0,1,311,260c-.13-.09-.35,0-.28-.33a19.9,19.9,0,0,0-.08,2.66,4.33,4.33,0,0,1-.84,2.66c-.7-1-.64.49-1.52.16a10.9,10.9,0,0,1-.28,1.09l.62-.16c-.48.83-.4,1.94-1.15,2.47,0-.27.06-.55.1-.82-.28.55-.63,1.05-.95,1.58l.92-.62c-.24,1.1,1,.62,0,1.55.11-.27-.71.79-1.46.79h0a1.88,1.88,0,0,1-1,1.49c-.35-.1-.56-.87-.79-.94.15.92-1.62,1.6-1.72,2.58a.89.89,0,0,0-.3-.74v.75c-.5.07-.6,0-.73-.36-1.26.53,1,.85-.75,1.14.1-.1,0-.16.2-.37-1.56.48-2.8,1.64-4.38,1.56-.58-.84,1.21-.47.56-1.15-.48.13-1,.35-1.49.49l-.78.25c-.26.08-.54.13-.81.19a6.51,6.51,0,0,1-3.25,0l.37.16c-.25.62-.64.42-1.06,0s-.89-.82-1.49-.72c.28,0,.55-.59.44-.47-1.25-.62-2.77-.69-4.82-1.63l.43-.12c-.52-.7-1.57-1.51-2-2.26-.43,0-.69-.42-.89.15a6.82,6.82,0,0,0-1.63-3.64c-.72-1-1.24-2.36-.46-3.57,0,.29.34.66.33.44a10.33,10.33,0,0,1-.23-2c-.61.09-.37.22-.86.63a1.6,1.6,0,0,1-.38-.67,2.26,2.26,0,0,1,0-.86c.19,1.07.92.14,1.3-.17-.19,0-.35-.15-.53-.16,1.29-.81-1.09-.49,0-1.82l.25.18c.1-.58-.1-1.29.3-1.83.72.07,0,.7.48,1a4.58,4.58,0,0,0,.1-1.41,1,1,0,0,1,.64-1.09,9.65,9.65,0,0,0-.37,1.3,2.3,2.3,0,0,0,1.44-.94l-.05,0a11.76,11.76,0,0,1,1.15-.85l-.39.13a1.5,1.5,0,0,1,.48-1.85c.21-.23.48-.4.72-.63a3.18,3.18,0,0,0,.62-1c-.62,1.71.15.64.45,1.34.41,0,1,0,.94.22a.6.6,0,0,1,.69-.46c.3,0,.58-.09.85-.66.1.23.63-.12.64.51.68-.36-.26-.38-.28-.69a1.25,1.25,0,0,1,.95-.4,6,6,0,0,1,1.15.19,4.21,4.21,0,0,0,2.52.24c.8,0,1.37,0,1.95-.06a3.35,3.35,0,0,1,1.95.45c.12.67-.94.32-.94.35a4.44,4.44,0,0,0,1.41,1.72c-.27,0-.33.2-.5.52.16.22.39.22.58.27s.38.16.29.59c-.31-.07-.74-.13-1.09-.24a3.72,3.72,0,0,1,1.09,1.74c-.43.14-.6-.46-.9-.64a7.19,7.19,0,0,1,.24,1.21,1.87,1.87,0,0,0,.39,1.1c.14-.14.28-.28.41-.43-.07.31-.58,0-.65-.27-.34-.73.41-.87.66-.92a5,5,0,0,1,.08.56c.76-.14.8-.82.53-1.46s-.84-1.18-1-1.66a6.27,6.27,0,0,1,1.14.06,5.08,5.08,0,0,0-1.3-.72c.11-.34.47-.86.94-.39,0-.54-.23-.66-.41-.76s-.35-.18-.4-.67c0-.13.06-.14.15-.1a7.85,7.85,0,0,0-.88-.42c.28,0,.37-.67.7-.15a2.42,2.42,0,0,0-1.74-1.21c-.57-.13-1-.16-1.13-.65h.16c-1.18-.29-1.28-.07-1.34.17s-.1.57-.95.82a12,12,0,0,0-.78-2.05l-.31.74c-.23-.06-.7-.13-.6-.43-.89.5.14.34-.37.82a2.78,2.78,0,0,0-1.95,0c-.63.16-1.18.22-1.48-.29-.2.67,1.13.09.15.85-.36-.56-.69-.37-1-.08s-.66.77-1.26.74c-.08-.73,1-.92-.23-.92a.81.81,0,0,1-.31.68,1.88,1.88,0,0,1-.69.36c-.28.09-.58.16-.85.26a1.41,1.41,0,0,0-.61.47c.57.68-1.18,1.59-1.72,3-.09-.12-.62.35-1.13,1.09s-1.07,1.66-1.48,2.27l-.13-.09c.78.57.18,1.85.23,2.91-.53-.12-.71-.34-.84-1l-.19,1a2,2,0,0,1,.44,1.26l-.67-.3a6.13,6.13,0,0,0,.07,1c.09.35.18.71.28,1.08s.16.73.25,1.11a5.67,5.67,0,0,1,.09,1.26c.32,0,.68-.47,1.07-.67a.73.73,0,0,1,.59-.08,1.43,1.43,0,0,1,.6.58c-.31.15-.86.39-1.13,0,.09.13.43.41.38.73-.25-.15-.51-.31-.77-.49,0,.81.59.24.72.82-.48.16-.19.55-.58.61-.11-.13,0-.59-.24-.75a4.42,4.42,0,0,1,0,2,.54.54,0,0,1,.87.15c.71,1.11-.28.68-.08,1.5.44.11.7,1,1.3.58.24.3,0,.58,0,.83a16.79,16.79,0,0,1,1.42,1.13c.51.38.94.53.91,0l-.1-.15.11,0h0a12.44,12.44,0,0,1,2.75,1.86,10.74,10.74,0,0,0,1.38,1,4.9,4.9,0,0,0,1.53.61l-.09.23c1.3.21,2.83.63,3.8.24.36.07.82.55.63.83a4.52,4.52,0,0,1,2.55.05c-1,.44.35.38-1,.32.66.1,1.07.25,1.49.29a2.73,2.73,0,0,0,1.53-.51c-.2.33.07.52.48.54a2.91,2.91,0,0,0,1.25-.24l-1-.27c.68-.21,1.3-.28,1.92-.43l-.11.9a3.4,3.4,0,0,0,2-.47,6.9,6.9,0,0,0,1.5-1.16,11.58,11.58,0,0,1,1.31-1.1,2.86,2.86,0,0,1,1.64-.4c.26-.89-1.45.51-1.29-.42a4.77,4.77,0,0,1,1.85-.47,4.39,4.39,0,0,0,1.28-.28,1.55,1.55,0,0,0,1-1.45,2.07,2.07,0,0,1,.8-1.6c-.39,0-1.07-.39-.51-1.52.79-.84,1.89-.42,1.61.34-.16.25-.32.3-.39.23-.16.38-.39.88.17.69l-.14-.31a6.5,6.5,0,0,0,1.07-.88c.32-.33.6-.54.69-.24.3-.95-.18-.6-.69-.11a5.22,5.22,0,0,0,1.27-1.62,16.48,16.48,0,0,1,1.07-1.8c-.27.17-.68.22-.57,0,1.34-2-.06-1.18.42-2.67.72-.69.9.67,1.08-1,.57-.86.84,0,.92.49a3.52,3.52,0,0,1,.58-2,13.21,13.21,0,0,0,.82-1.5l.07.86a5.92,5.92,0,0,1,.11-1.32l-.66.36c.18-.45.24-.85.48-.8-.31-.54-1,.21-1.41-.79.39-.58-.21-1.85.6-2-.37,1.91.81-.17.84,1.51a2.39,2.39,0,0,1,.08-1.19c.09-.07.16.07.2.21.4-.94.19-1.18-.11-1.41a1.6,1.6,0,0,1-.7-1.43c.46.24.82-.48.7-.8,0,.8-.72.4-1.1-.28.25-1.25-.31-1.3-.39-1.92a4.62,4.62,0,0,1-.07.73c-.43-.2-.51-.78-.78-1.57.32-.13.37.7.46.39-.46-.4-.36-.93-.23-1.54a2,2,0,0,0-.22-1.84c.12-.66.79-.28.83-.86a1.88,1.88,0,0,1-.43-1.52,2.08,2.08,0,0,0-.52-1.54c-.38.64-.22.64-1.17-.13.43.73.94,1.44,1.32,2.21a16.06,16.06,0,0,0-1.39-1.21,5.51,5.51,0,0,0,.59,1,2.08,2.08,0,0,1,.37.83c-.68-.58-.52-.54-.89,0,.3-.64,0-1.06-.39-1.48a2,2,0,0,1-.69-1.5l1.35-.57A3.69,3.69,0,0,0,312,240.2c-.31-.33-.62-.67-.93-1.06a5.3,5.3,0,0,1-.88-1.33l.2.76c-.67.06-.86-1.14-1.47-1.63.45-.24.31-.72.35-1.15-.27.25-1-1.38-1.94-.91,0-.4-.08-.83-.17-1.22a2.48,2.48,0,0,0-1.79-1,3,3,0,0,1-1.82-.86c.77,0,.41-.84,1.56-.3-.44-.42-.78-.84-1-.6-.06-.47-1.67-.61-1.77-1.33-.34,0-.73.37-1.23-.06a.26.26,0,0,1,.15-.19c-.15.18-1-.37-.9.41a2.86,2.86,0,0,0-.85-1.47,7.65,7.65,0,0,0-1.5-1,14.33,14.33,0,0,1-1.5-1,2.56,2.56,0,0,1-1-1.15c-.61-.23-1.27-.52-1.92-.76s-1.31-.45-1.85-.66c.12-.11.09-.23.28-.09-1.32-1.08-1.43.89-2.95-.17-.62-1.06,1.06-.1.61-.57.28-1.6-2.15-.57-3.11-1.72l.32,0c-.82-.77-2.43,0-3.92-.34a.27.27,0,0,0,.05-.24,6.34,6.34,0,0,1-2.2.56c-.83.12-1.69.16-2.42.2.5-.58.69-.26.47-.94-.67,0,.1,1-1.2,1.13-.4-.36-1.33-.7-1.44-1.39h1.26c-.6-.92-1.63,0-2.28-.21l.09-.39c-1.94.14-1.94,1.12-4,1.14l.23.28c-1,1.06-1-.47-2,.34l-.43-.95a39.28,39.28,0,0,1-3.69,1.63c.6-.83,2.08-1.41,3-2-.73.09-2.47.41-2.77.95.27-.14.61-.43.92-.32a5.6,5.6,0,0,1-3.26,1.72c-.14-2-3.77.33-5.16-.79a12,12,0,0,1-3.71,1.26,20.13,20.13,0,0,0-4.09,1.14c1.54,1-.8.35-.07,1.7-.6.35-.85.44-.94.37l-2.29,0c-.64-.21.47-.57.28-.86-1.46.49-.86-.34-2-.29.41.41-.17.94-1,1.11l1.41.13c-1.58,1.63-2.24-.4-3.82,1.29l.4-.73c-.43.38-1.36.82-2.21,1.4a4,4,0,0,0-1.8,2.06c-.26-.06-.69-.3-.31-.63-2.42,1.13-4.4,4.06-6.49,4.5l0-.42c-.35.35-.33,1.05-1.05,1.06-.06-.15,0-.42-.24-.32s-.73,1.24-1.38,1.42L229,235c-2.4,1-2.67,3-4.27,4.41-.62-.91-2.45-.06-3.37.36l-.06-.15c-2.48,1.59-3.54,3.63-5.48,5.56-2.06,0-4.9,2.9-7.47,3.9.45-.07.44.74.11,1.1-.64.18-1,1.63-1.48.74l.2-.11c-.95-.54-1.86.41-2.7.95l.61,1.18c-3.23-.1-5.34,4.42-7.48,3.71-.36.61-1,1-1.38,1.63l-.34-.62a26.47,26.47,0,0,0-4.15,2.27l.13-.65c-1.07.54-.34,2.52-1.31,3.1l-.8-.77c-1.84,1-4.19,1.06-5.63,2.86a.54.54,0,0,1,.18-.65c-.9.44-3.79.88-2.88,2.08-.4-.87-2,.8-2.94,1.59l-.09-.71c-.57,1.17-.51,1.41-1.7,2.12-.33,0-.45-.43,0-.41-1.13,0-.55.91-1.9,1l.3-.59c-1,.33-.87.54-1.28,1.22-.57.48-2,.48-2.4-.07a1.26,1.26,0,0,1-1.11,1.11c-.15-.2,0-.42.12-.52-1.87.13-2.39,1.57-3.8,1.25a.5.5,0,0,0-.31-.35,22.57,22.57,0,0,1,2.45-.56c-.18-.6-1.33-.42-.69-1.51-.76.71-2,2.14-3.21,2.15a.84.84,0,0,1-.21-.18l.1-.1a1.08,1.08,0,0,0-.67.29,3.36,3.36,0,0,0-1,.06c-.25-.49-1.37,0-1.94.1.2.68-.57.73.25,1.14-.1,0,.09-.1.47-.21a.73.73,0,0,0,.23-.13l0,.07,1.41-.36a1.26,1.26,0,0,1-1.49.61c-.2.5-.42,1-.56,1.28-1-.79-2.62-1-2.94-1.53-1.67.76-4.08,1-5,2.47-.48.25-.63-.28-.85-.46.28-.17.62-.21.75-.43-1,.55-3,.5-3.1,1.46-1.33-.27.62-.92-1.12-.58l.21-.3a4.21,4.21,0,0,0-2.41,0,12.62,12.62,0,0,0-2.14.8c-1.41.6-2.93,1.25-4.88.26.27.12.4.17.46.33a39.55,39.55,0,0,0-6.72-.21,25.13,25.13,0,0,1-3.37-.13,12.9,12.9,0,0,1-3.23-.89c-1.18-.41-1.39.19-2.2.51l-.15-.8-1.41.64c-1.93.29-2.77-2.29-5.24-1.69l.18.57c-.79-.29-2.64-.32-2.36-.86-.1.07-.4.45-.64.12l.07-.39c-.72.08-1.43.08-2.14.1-1.43-.74.67-1.44-1.48-2.18-.85-.1-2.68.38-2.46.72.33.12.77.5.67.88l-.82,0c-.51,1.06-1.52,2,.15,3.36l1.56-.26.26.67L110,276c.49.7,1,.38,1.58.21a1,1,0,0,0,.39.77l1.62-.66c0,.48-.84.7,0,1.19.76-.35-.33-1.13.79-1.21.51.67.22,1,1.09.79,0,.31-.17.46-.51.51.77-.18,1.85.29,2.34-.23.53.8,2.32.39,2,1.43a3.93,3.93,0,0,1,2-.57c-1.39,1.09,2.36.49,1.83,1.83,1-1,3.2-.08,4.81-.56-.09.08-.28.25-.41.18.85.19,1.07.58,1.6.86.21-1,1.57-1,2.33-1.62,1,1-.72,1.12-.46,2,0-.79,1.9-.69,1.58-1.37.78.63.68.32,1.06,1.15.2-1.21.77-.16,1.47-.88,1.15.65.27,1.2,1.57.83C137.32,281.08,136.16,281.52,136.16,281.52Zm30.1-5.78h0l-.59.2Zm2.46-.68c-.31.06-.68.15-1.08.26-.15-.21-.12-.47.13-.53C167.68,275,168.29,275,168.72,275.06Zm-6.34-3.37c.36-.18.51-.07.6.06-.18.05-.38.12-.64.22l0,.1A1.12,1.12,0,0,1,162.38,271.69Z"/><path class="cls-2" d="M161.91,272.74a1,1,0,0,1-.15.08,1.53,1.53,0,0,0,.27.11l.08-.25Z"/><path class="cls-2" d="M281.9,274.13l0,.05a.3.3,0,0,1,0-.16C281.91,274.07,281.9,274.09,281.9,274.13Z"/><polygon class="cls-2" points="201.37 261.77 201.27 261.62 201.16 261.87 201.37 261.77"/><path class="cls-2" d="M279.76,261.2a.33.33,0,0,0,.2-.12A.44.44,0,0,0,279.76,261.2Z"/><path class="cls-2" d="M282.12,256.41a6.25,6.25,0,0,1,.66-.43A2,2,0,0,0,282.12,256.41Z"/><path class="cls-2" d="M285.2,253.9a1.31,1.31,0,0,0-.1-.3h0Z"/><path class="cls-2" d="M310.51,252.06a.47.47,0,0,0-.06-.15C310.25,251.57,310.35,251.81,310.51,252.06Z"/><path class="cls-2" d="M306.06,271a3.9,3.9,0,0,1,.2-.71C306,270.53,305.78,270.73,306.06,271Z"/><path class="cls-2" d="M299,234h0l-.1-.09Z"/><path class="cls-2" d="M306.89,269.59a1.33,1.33,0,0,0-.63.71A2,2,0,0,0,306.89,269.59Z"/><path class="cls-2" d="M296,258.54l-.07.13a.28.28,0,0,1,.11.05Z"/><path class="cls-2" d="M296,258.72l0,.19C296.07,258.83,296.1,258.77,296,258.72Z"/><path class="cls-2" d="M296.08,259.3a2.56,2.56,0,0,0,0-.39A.31.31,0,0,0,296.08,259.3Z"/><path class="cls-2" d="M295.38,254.68l-.22.13A.53.53,0,0,0,295.38,254.68Z"/><path class="cls-2" d="M294.3,253.81c.27.25.3.92.68,1.11l.18-.11c-.2.05-.26-.21-.35-.5S294.56,253.73,294.3,253.81Z"/><path class="cls-2" d="M287.85,249.54a9.09,9.09,0,0,1,1.73,0c-.3-.25-.75-.59.07-.71-1.17-.32-1.06-.17-.92,0S289,249.38,287.85,249.54Z"/><path class="cls-2" d="M282.79,251.36c.69-.66-.24-.32-.29-.47C282.14,251.46,282.08,251.58,282.79,251.36Z"/><path class="cls-2" d="M292.27,279l-.16.63C292.84,279.64,292.14,279.42,292.27,279Z"/><polygon class="cls-2" points="298.43 275.13 297.79 274.91 297.69 275.55 298.43 275.13"/><polygon class="cls-2" points="303.95 277.62 303.72 277.86 304.65 277.02 303.95 277.62"/><path class="cls-2" d="M297.11,225.08l-.23.78C297.33,226,297.88,225.28,297.11,225.08Z"/><path class="cls-2" d="M271.5,220.15A1.07,1.07,0,0,0,270,220C270.61,220,271.21,220.28,271.5,220.15Z"/><polygon class="cls-2" points="203.49 252.83 203.75 252.33 203.1 253.04 203.49 252.83"/><path class="cls-2" d="M389.73,202.08c.27-.26-.05-.73-.59-.47a2.7,2.7,0,0,0,0,.9l.12-.14.16-.08Z"/><path class="cls-2" d="M386,204.19a2.49,2.49,0,0,0,.67,1.31.83.83,0,0,0,1.07.11,2.75,2.75,0,0,1-.42-.48,1.85,1.85,0,0,1-.16-.4c-.05-.13-.11-.27-.2-.45a6,6,0,0,0-.32-.67c.16-.75.78-1,1-.72,0-.14.16-.32.32-.5a.79.79,0,0,0,.36-.66,1.7,1.7,0,0,0-.78.17,2.06,2.06,0,0,0-.64.58,2.89,2.89,0,0,0-.35.87,3.05,3.05,0,0,0,0,1C386.34,204.59,386.16,204.29,386,204.19Z"/><path class="cls-2" d="M364.94,196.33l.28-.47A1.88,1.88,0,0,0,364.94,196.33Z"/><path class="cls-2" d="M389.39,235.16c-.39-.06-.57,0-.61.06C389.16,235.24,389.47,235.25,389.39,235.16Z"/><path class="cls-2" d="M398.23,236.91l-.53,0A.73.73,0,0,0,398.23,236.91Z"/><path class="cls-2" d="M364.94,196.33l-.75,1.22C364.41,197.73,364.64,196.94,364.94,196.33Z"/><path class="cls-2" d="M391.51,210.18a4,4,0,0,0-.55.15,2.9,2.9,0,0,0,.51,0A.93.93,0,0,1,391.51,210.18Z"/><path class="cls-2" d="M381.85,181.46l.46,0a3.11,3.11,0,0,0,.35-.37Z"/><path class="cls-2" d="M398.7,187.75c-.26-.34-.86.05-1.19.17a1.14,1.14,0,0,1,.95.31A.8.8,0,0,0,398.7,187.75Z"/><path class="cls-2" d="M395.3,212.36c-.15.09-.29.2-.44.28Z"/><path class="cls-2" d="M370.11,187.17a.56.56,0,0,0-.3-.06A.39.39,0,0,0,370.11,187.17Z"/><path class="cls-2" d="M132.5,206.07s0-.08,0-.12S132.36,206.08,132.5,206.07Z"/><path class="cls-2" d="M112.7,202.63l.28,0a1.83,1.83,0,0,0,.09-.39Z"/><path class="cls-2" d="M414.69,234.23h-.08C414.23,234.49,414.46,234.38,414.69,234.23Z"/><path class="cls-2" d="M364.81,135.05c1.47,1-2.78.21-.51,1.43C364.13,136.16,366.73,135.89,364.81,135.05Z"/><path class="cls-2" d="M391.81,210.3c.17,0,.34,0,.5,0A2.24,2.24,0,0,0,391.81,210.3Z"/><path class="cls-2" d="M364.3,136.48h0l.23.12Z"/><path class="cls-2" d="M437.89,204.79a1,1,0,0,0-.38.32C437.58,205.11,437.69,205,437.89,204.79Z"/><path class="cls-2" d="M422.41,228.05l.61-.36A3.27,3.27,0,0,0,422.41,228.05Z"/><path class="cls-2" d="M437.36,190.06a2.19,2.19,0,0,0-.13-1,1.09,1.09,0,0,0-.05.17A1.25,1.25,0,0,1,437.36,190.06Z"/><path class="cls-2" d="M432.21,175.84c0,.1,0,.21,0,.31l.28.39Z"/><path class="cls-2" d="M176,195.87a2.19,2.19,0,0,1-.84-.37C175.48,195.9,173.52,196.79,176,195.87Z"/><path class="cls-2" d="M391.48,210.58a.41.41,0,0,1,.33-.28h-.34C391.43,210.41,391.41,210.51,391.48,210.58Z"/><path class="cls-2" d="M431.79,190.38c-.11-.68-.15-1.38-.31-2C431.58,188.9,431.64,189.66,431.79,190.38Z"/><path class="cls-2" d="M270.25,152.4l-.45.27A.86.86,0,0,0,270.25,152.4Z"/><path class="cls-2" d="M429.4,182.5a2.94,2.94,0,0,0,0-1.29,1,1,0,0,0-.27-.14A14.05,14.05,0,0,1,429.4,182.5Z"/><path class="cls-2" d="M175.1,195.5h0Z"/><path class="cls-2" d="M160.94,201.68c2.15-.6.76-1.16,1.07-1.8,2.48-1,1.37.31,2.37.51,1.53-.71,2.51-1.83,3.68-2.2.14.12.38.09.17.36,1.43-1.25,4.94-1.61,6.54-3.18a.61.61,0,0,1,.33.13,1.64,1.64,0,0,1-.71-1.09c.92-.35,1.52-1.17,2.07-.73-.57.19-.54.43-.74.71l.89-.6c1.17.5-1.23.76-1,1.37,1.81-1,3.79-2.4,5.3-2.74.62.7-3.29,1.53-1.08,1.52l-2.37.51c2.18.64-1.41.41.67,1.18,3.08-.83,3.17-1.63,6.21-2.54.48-.7-.48-.56,0-1.26,3.85-2.4,4.07.65,6.69-1.64.56-.86.45-1.95,2.82-2.36l-.35,1.2c2.83-1.14,1-2,4.22-2.66-.36.57-2.06,1.26-1.59,1.18,2.2-.15,1.12-1.09,2.57-1.73l.65.64c2.9-1.48,5.9-3.5,9-5.21-.07.32-.51.82.36.69a78.74,78.74,0,0,1,12.86-5.62l1.16-1.4c.35-.16.79,0,.48.29,1.64-.51-.13-.45.47-1.08.84-.47,1.33-.19.88.28,2.39-1.9,7-5,10.17-5.73l-.45.47c2.32-.84,1.79-2.59,4.13-3l-.33.31c4.9-2.08,9.87-5.28,14-6,.25-1.29,4.94-1.81,4.64-3.27,3.05-.58,2.36,0,6.44-1.29,1.07-.39,1.18-1.51,2.41-2.22l.34.7,1.42-1.51,1.3.46,1.13-.68c-.5.16-1.16.11-1.17-.13,1.77-1.1,4.83-1.4,5-1,1.42-.82,2.85-1.57,4.28-2.36,0,.33-.71.72-1.23,1.13,2.13-1.65.72.6,2.68-.92-.36-.05,0-.49,0-.66A17.73,17.73,0,0,0,285,147l-.19.62c1.7-.54,3.47-1.18,5.3-1.82s3.69-1.36,5.63-1.86c-1.45.14-1.39-.83-.27-1.23l.67.66c.6-.69-1.27,0,.07-1,1.48-.31,1.22.63.46,1.11l1.68-.75c.17.2-.21.44-.24.77.3-.34,1.11-.36,1.94-.42a2.77,2.77,0,0,0,2.13-.67l.15.21c1.94-.44,3.33-.87,4.65-1.2s2.54-.64,4.13-1c-.06-.69,1.21-.81,2.08-1.5,1.21-.06,2.49,0,3.82-.08s2.72-.12,4.15-.26c2-.55.52-.65,1.39-1.16.21.63,3.07.28,1.62.89,1.72-.21,2.82-.26,4-.43.6-.07,1.24-.17,2-.29l2.73-.35c-.48-.25-1-.36-.75-.58.8-.12,1.82.24,1.71.55l-.21.07a11,11,0,0,1,1.91-.24,19.64,19.64,0,0,1,2,.11,40.56,40.56,0,0,1,4.07.66c2.69.58,5.21,1.1,7.21.67l-.22.05c1.36-.08,2.74-.23,4.11-.25,1.84.37-1.17.32.15.91,4.48-.49,6.78,1.19,10.44,1.19,1.16,1.26,3.58,1.66,6.1,2.25,1.26.27,2.57.5,3.75.87a11,11,0,0,1,3.05,1.35l-.07-.48c1-.14,1,.57,1.69.89,0-.37-.88-.69-.23-.75,8,2,15.68,6.61,22.79,11a3,3,0,0,0,2.66.36c.68-.12,1.44-.12,2.81,1.35l-1.36.14a35.14,35.14,0,0,1,8,4.79c2.49,1.87,4.8,3.88,7.21,5.66-.39-.11-.57.07-1-.34.52,1.27,3.2,3.29,3.59,3,.55.74-.19.46,0,1.05a4.81,4.81,0,0,0,1.49,1.49c.55.45,1.05.88,1,1.32,0,.14-.37-.16-.54-.31.76.43,2.09,3.07,2.23,2.05.95,2,2.44,3.42,2.84,5.16,1.21.71,1.11,3.54,2.21,3.52-.57.11-.43,1.07-.16,2.16a12.1,12.1,0,0,0,.54,1.64,8.67,8.67,0,0,0,.59,1.3c-.42-.38-.14,1.22-.7.78.25,1.49.57,2.88,1.14,2.56a8,8,0,0,0-.1,4.18c.21,1.29.21,2.47-.7,3.16a31.34,31.34,0,0,1-2.71,12.88c-.86-.61,1.88-4.3.63-4.59-.46,1.91-.82,3.47-1.33,5a13.36,13.36,0,0,1-2.52,4.47c-.73.74,0-.76,0-1.15a19.73,19.73,0,0,1-3.54,4.49l-2,1.87c-.7.58-1.31,1.23-2,1.85-.05-.1.21-.38.44-.68-.54.45-1.43.77-1.07,1.16l.49-.5c.67,0,.33.7-.21,1.48s-1.3,1.55-1.25,1.77c.16-.95-.68-.57-1.44-.28s-1.51.38-1.08-.85c-.37.29-.78.76-.53,1-.67.22-.94.13-.49-.53a7.36,7.36,0,0,0-1.64,1.31,3.36,3.36,0,0,1-1.64,1c-.08-.24.33-.47.44-.84a6.41,6.41,0,0,1-3.83,2c.07-.17-.19-.3.37-.45-.4.12-.78.25-1.15.39s-.74.24-1.09.37c-.72.27-1.4.57-2.12.77a11.16,11.16,0,0,1-4.85.6c1.08-1.08-1.26-.35-1.43-1.29-.65.09-1.3.11-2,.17l.76.5c-.86,0-1.69.06-2.49.07a5,5,0,0,1-2.28-.3A9.84,9.84,0,0,0,392,232c-1.07-.1-2.14-.28-3.21-.47.56.29,1.15.49,1.73.74-1.84.09-.06,1.24-2.32.42.5,0-1.76-.45-2.43-1.33h0a7.21,7.21,0,0,1-1.44-.11,4.76,4.76,0,0,1-1.57-.68c-.19-.41.67-.84.56-1.1-.56.19-1.49-.24-2.45-.67a6.81,6.81,0,0,0-2.58-.94c.41.05.69-.36.65-.51l-.95.13c-.56-.63-.6-.77-.26-1-1.86-1.57-.09,1.42-2.1-.76.22.1.19,0,.63.18-2.1-2-4.48-3.51-5.83-5.88.28-1.17,1.58,1.7,1.66.5a49.52,49.52,0,0,1-3.65-4.47,14.65,14.65,0,0,1-2.28-5.22l.08.68c-.7-.07-.77-.79-.66-1.7.06-.45.09-.94.11-1.42a2.92,2.92,0,0,0-.21-1.4c.15.44.79.52.63.41,0-2.41-.41-5,.34-8.82l.19.55c.17-.33.36-.71.56-1.13s.37-.87.59-1.3a14.34,14.34,0,0,1,1.37-2.39c-.06-.57.46-1.34-.24-1.13a35.66,35.66,0,0,0,5.06-5c1.56-1.61,3.51-3.07,5.81-2.9-.48.18-1,.68-.66.55l.82-.37c.27-.11.56-.18.84-.28a8.94,8.94,0,0,1,1.72-.46c-.35-.53-.51-.36-1.36-.6a4,4,0,0,1,2.43-.92c-.87.28-.83.51-.51.7a3.29,3.29,0,0,0,.62.27l.64.3c-.11-.18.13-.37.08-.55,1.85,1.15.43-1.26,3.07-.11l-.2.28a13.06,13.06,0,0,1,1.53.07,3.43,3.43,0,0,1,1.54.38c.09.41-.19.37-.52.29s-.74-.12-.86.13a3.66,3.66,0,0,0,.56.1,5.62,5.62,0,0,0,.57.09l1.18.12a2.67,2.67,0,0,1,1.93,1,22.11,22.11,0,0,0-2.16-.75,9.65,9.65,0,0,0,1.06,1.25c.27.24.58.34,1,.72l-.08-.08a17.26,17.26,0,0,1,1.74,1.79l-.33-.58A3.28,3.28,0,0,1,397.2,190c.36.39.72.8,1.08,1.26a10.82,10.82,0,0,0,1.43,1.28,3.82,3.82,0,0,0-1.09-.65c-.2-.06-.24,0-.23.1s.22.63-.16.76c.15.66.38,1.58.07,1.45.57.33.62.83.74,1.34a2.89,2.89,0,0,0,.28.79,2.73,2.73,0,0,0,.61.89c-.21.13.27,1.16-.41,1,.35,1.34.39-.39.69-.35a4.5,4.5,0,0,1,.44,1.79,11.62,11.62,0,0,1-.35,2c-.26.67-.4,1.41-.65,2.07a18.91,18.91,0,0,0-.62,2.24c-.54,1.29-.86,2.15-1.27,3a6,6,0,0,1-2.1,2.49c-.54,0-.43-.25-.24-.54a4.36,4.36,0,0,1,.5-.61c-1.46.41-2.37.78-3.69,1.15.26-.23,0-.39-.4-.65a1.48,1.48,0,0,0-.91.34.81.81,0,0,1-.43.09,1.11,1.11,0,0,1-.68-.3l.5-.32a3.17,3.17,0,0,1,.65-.36,6.76,6.76,0,0,1-.78,0,2.54,2.54,0,0,1-.76-.11l-.39-.1-.38-.2a2.52,2.52,0,0,1-.73-.54c.08-.25.32-.2.58-.08a3,3,0,0,0,.79.25,5.65,5.65,0,0,1-1.44-1.45c-.43-.61-.76-1.22-1.13-1.4,0,.33,0,.65,0,1-.15-.53.49-.4.71-.09a1.76,1.76,0,0,1,.43.63,1,1,0,0,1,.13.51,1.33,1.33,0,0,1-.2.68,5.21,5.21,0,0,1-.6-.72c-.44.73.19,1.73,1.22,2.26a7.84,7.84,0,0,0,3.18.51,6,6,0,0,1-1,.93,7.65,7.65,0,0,0,1.12-.3c.35-.14.68-.32,1-.47.43.18.9.73-.17,1a1.74,1.74,0,0,0,1.46-.16,2.07,2.07,0,0,1,1.27-.31c.18,0,.13.09,0,.19a11.14,11.14,0,0,0,1.26-1c-.16.34.61.5-.34.85A5,5,0,0,0,399,210.1c.55-.77.85-1.39,1.48-1.58l-.09.23c1-1.72.81-1.93.59-2s-.55-.16-.4-1.54A11.22,11.22,0,0,0,403,204l-.67-.56c.1-.38.29-1.15.57-1-.26-1.53-.37.2-.71-.7a6.07,6.07,0,0,0,.16-3.3q-.06-.41-.09-.78c0-.25-.08-.47-.08-.67a1,1,0,0,1,.33-.92c-.73-.48,0,1.86-.87,0,.57-.47.31-1-.12-1.63-.21-.31-.42-.65-.65-1a3,3,0,0,1-.5-1.16c.84.11,1.36,1.78,1-.07a1.53,1.53,0,0,1-.88-.66,6.33,6.33,0,0,1-.65-1.13,5.77,5.77,0,0,0-1.4-2.26c-.64.52-2.54-2-4.85-3.07.07,0-.13-.24-.5-.53l-.68-.5c-.26-.18-.58-.33-.91-.52l-1-.55c-.36-.18-.75-.31-1.11-.46l-1.07-.44-1-.3.1-.14c-.32.43-1.05.42-1.94.47a14.34,14.34,0,0,0-2.78.2c0-.53.32-.84,1.32-1.09a14.23,14.23,0,0,0-1.73.12,6.26,6.26,0,0,1-1.92.87l.28-.77A14.47,14.47,0,0,0,379,182l-1.6.81c-.56.24-1.07.62-1.66.9s-1.18.59-1.84.88c.1.32.81.39,1.19.65s.45.68-.58,1.58c-.28-.23-.72-.66-.15-1.18a4.35,4.35,0,0,1-1.05.9,9,9,0,0,1,.61-1.15c-1.21.48-.26.78-1.09,1.33-.28-.41-.8.18-.94-.21.18-.2.83-.39,1-.79a13.35,13.35,0,0,1-1.56.89,3.81,3.81,0,0,1-1.25.52c.27.13.46.48-.11,1.11-1.42,1.66-.93.16-2,1-.1.62-1.19,1.59-.61,2-.38.51-.72.43-1,.54-.41,1.11-2.38,4.8-1.11,3.95l.17-.23s0,.11-.05.17h0c-.36,1.82-1.07,3.53-1.56,5.36a14,14,0,0,0-.67,5.54h-.25c.38,2.18.81,4.81,1.79,6.11.17.61.08,1.55-.3,1.41.38.74.63,1.14.91,1.62a15.14,15.14,0,0,1,.88,2.23c-.6-.63-.61-.46-.61-.39s0,.06-.44-1a21.85,21.85,0,0,0,.86,2.32,5.81,5.81,0,0,0,1.68,2c-.47-.16-.43.31-.12.89a6.81,6.81,0,0,0,1.25,1.62l-.58-1.49c.39.43.72.86,1.05,1.27l1,1.21-1,.14A8.44,8.44,0,0,0,371.4,227a20.25,20.25,0,0,0,2.55,1.6c.86.44,1.66.88,2.41,1.35a7.34,7.34,0,0,1,1,.84,5,5,0,0,1,.88,1c1.31.1-1.88-1.6-.61-1.63,1.63,1.15,3,3.17,3.63,3.45a3.66,3.66,0,0,0,2.72.7,5.35,5.35,0,0,1,2.86.39c-.28-.39-.36-1.23,1.73-.93,1.89.5,2.16,1.71.85,1.68-.49-.07-.7-.21-.66-.3-.67,0-1.53-.17-.83.38l.33-.22a17.44,17.44,0,0,0,2.12.75c.72.25,1.26.39.88.6,1.61-.07.73-.39-.38-.7,2.56.79,4.09.56,6.8.83-.44-.16-.83-.51-.4-.51,2,.2,2.41,0,2.67-.23s.36-.49,1.67-.65c1.53.24-.42,1.14,2.2.41,1.67,0,.48.73-.16,1.05a10.74,10.74,0,0,1,3.41-.64c1.05-.08,2-.08,2.71-.21l-1.23.58a17.78,17.78,0,0,1,2-.72c-.3-.11-.6-.21-.9-.34.78-.12,1.4-.35,1.46-.1.63-.63-.88-.75.42-1.75,1.07,0,2.71-1.45,3.36-.86-3.07,1,.66.59-1.84,1.77a6.52,6.52,0,0,1,1.82-.75c.15,0,0,.19-.21.32,1.59-.31,1.81-.73,2-1.15s.38-.92,1.76-1.74c-.13.59,1.08.35,1.49,0-1.15.65-.9-.31-.09-1.22,1.88-.87,1.7-1.44,2.55-2.07-.36.2-.69.42-1.06.6.09-.58.89-1.18,1.9-2.14.32.19-.85,1-.36.78a4.38,4.38,0,0,1,2-1.68,5.44,5.44,0,0,0,2.36-2c.91-.55.7.5,1.44-.06a5.26,5.26,0,0,1,1.7-2,5.61,5.61,0,0,0,1.66-2.19c-.45.16-.68.27-.71.13a9.84,9.84,0,0,1,.34-1.5l-.46,1-.54.93c-.36.61-.68,1.26-1.1,1.85.36-.89.62-1.83.91-2.71a13.82,13.82,0,0,0-1,1.66,5.06,5.06,0,0,1-.88,1.26c.45-1.3.47-1.1-.3-.94,1.79-.82,1.6-3,3.1-4.39l1.24.8a6.52,6.52,0,0,0,1.22-1.88,10.77,10.77,0,0,0,.72-2.07,37.81,37.81,0,0,1,1.53-4.83,12.7,12.7,0,0,1-.65,1.13c-.34-.68.66-2.34.76-3.64.46.24.81-.5,1.23-1-.2,0,0-.72.06-1.5s0-1.63-.42-1.88c.32-.54.58-1.1.85-1.67a5.59,5.59,0,0,0-.39-3.43,7.9,7.9,0,0,1-.74-3.24c.58.88.86-.54,1.34,1.51,0-1,0-2-.34-2,.23-.64-.93-2.75-.69-3.74-.3-.38-.82-.42-1-1.54.06-.14.24,0,.24,0-.24,0-.77-1.63-1.05-.55.39-1.67-.29-3.78-1.16-5.7-.43-1-.87-1.91-1.27-2.77a8.57,8.57,0,0,1-.71-2.44c-.63-.91-1.31-1.92-2.05-2.85s-1.44-1.85-2.06-2.62c.19,0,.2-.15.38.18-.64-1.24-1.19-1.34-1.77-1.46s-1.14-.31-2-1.62c-.48-1.69,1.43.92,1,0,.48-.72-.23-1.36-1.12-2.11s-2-1.49-2.46-2.58l.43.28c-.8-1.53-3.32-2.18-5.26-3.88,0,0,.19,0,.16-.19-1.91-.45-4.74-2.21-6.94-3.35,1-.11,1.12.34,1.09-.46-1-.53-.31,1-2.25,0-.41-.68-1.61-1.77-1.44-2.47l1.81,1.07c-.45-1.31-2.33-1.42-3.21-2.09l.32-.27c-2.85-1.53-3.39-.61-6.37-2.32l.17.43c-2.08,0-1.14-1.21-3.14-1.4l-.08-1.13-2.87-.74a35.25,35.25,0,0,1-3.56-1c1.43-.16,4,.5,5.62.86-1.09-.59-3.85-1.68-4.63-1.5a3.86,3.86,0,0,1,1.55.48,14.36,14.36,0,0,1-5.91-1.26c.56-.81-.88-1.51-2.61-2.25s-3.77-1.41-4.38-2.41a33.89,33.89,0,0,1-6.34-1.84,53.75,53.75,0,0,0-6.85-2.07c1.42,1.84-1.46-.28-1.49,1.28-1.16-.15-1.59-.28-1.68-.4-1.09-.57-2.2-1-3.32-1.57-.76-.59,1.17-.13,1.12-.49-2.53-.58-1-.83-2.58-1.54.25.62-1,.58-2.46.18.65.32,1.3.67,1.95,1-3.7.22-2.92-1.73-6.66-1.46l1.21-.32c-.95,0-2.69-.16-4.42-.23a17.23,17.23,0,0,0-2.51,0,5.26,5.26,0,0,0-1.93.55c-.32-.2-.73-.64.1-.7a28.92,28.92,0,0,0-3.51-.1c-1.21.07-2.43.19-3.62.29a26.25,26.25,0,0,1-6.35.09l.33-.38c-.84.13-1.43.7-2.49.4,0-.16.32-.39-.07-.39a8.89,8.89,0,0,1-3.31.63l.92-.48a13.72,13.72,0,0,0-5.41.8l-2.3.77a19.48,19.48,0,0,1-2.47.73c-.13-1.08-3.6-1-5.33-.87l0-.16a37.32,37.32,0,0,0-6.63,1.74c-2,.78-3.92,1.61-6.15,2.35-1.54-.19-4,.34-6.57,1s-5.37,1.6-7.7,2c.74-.05.17.85-.58,1.23-1.11.15-2.6,1.72-2.77.71l.37-.11c-1.11-.66-3.16.32-4.8.94l.19,1.34c-2.48-.09-5.24,1.15-7.69,2.41s-4.65,2.4-6.14,2.12c-.88.74-2.14,1.28-3,2l-.23-.67a59,59,0,0,0-7.65,3.4l.48-.79c-1.95.87-1.56,3-3.32,3.87l-1-.7c-3.34,1.62-7.13,2.43-10,4.93,0-.17-.06-.49.46-.8-1.57.75-6.36,2.37-5.14,3.39-.46-.83-3.45,1.63-5,2.89l0-.76a7.59,7.59,0,0,1-3,3.07c-.54.17-.69-.27.06-.45-1.83.51-1,1.24-3.18,1.92l.55-.77a3.73,3.73,0,0,0-2.2,1.88c-.94.79-3.31,1.47-3.85,1a2.72,2.72,0,0,1-1.85,1.72c-.25-.15.06-.46.21-.62-3.07,1-3.89,2.84-6.17,3.16a.55.55,0,0,0-.52-.22c2.3-1.06,4.13-1.95,4-1.82-.29-.57-2.17.23-1.1-1.29-1.25,1.17-3.33,3.32-5.25,3.91a1,1,0,0,1-.34-.09l.16-.15a3.07,3.07,0,0,0-1.09.63,12,12,0,0,0-1.57.53c-.44-.38-2.24.72-3.18,1.12.37.61-.88,1.06.49,1.07-.17,0,.14-.16.74-.47a2.37,2.37,0,0,0,.37-.25l0,.09,2.28-1.11a3.49,3.49,0,0,1-2.41,1.41,17.2,17.2,0,0,1-.81,1.62c-1.68-.29-4.34.32-4.93-.09-1.34.81-3,1.6-4.45,2.45a9.85,9.85,0,0,0-3.44,2.66c-.75.5-1.08,0-1.46,0,.42-.32,1-.54,1.16-.82-1.49,1-4.78,2.09-4.84,3.09-2.23.42.85-1.24-1.94,0l.28-.42a17.81,17.81,0,0,0-7.33,3.13,15.41,15.41,0,0,1-8,2.72c.47,0,.71,0,.84.07-3.76.69-7.44,2-11.2,3-.94.26-1.87.55-2.82.77s-1.89.41-2.84.58a26.6,26.6,0,0,1-5.68.54c-2.13.07-2.27.69-3.49,1.34l-.55-.67c-.69.4-1.39.74-2.09,1.12a9.22,9.22,0,0,1-4.43,0,8.78,8.78,0,0,0-5,.21l.54.48c-.71,0-1.84.14-2.76.2s-1.64,0-1.53-.32a.88.88,0,0,1-1,.27l0-.4-3.51.7c-2.71-.38.45-1.53-3.46-1.81-1.46.08-4.25.93-3.72,1.22.59.05,1.5.33,1.52.72l-1.37.14c-.33,1.14-1.53,2.27,1.84,3.27l2.42-.58.74.6-2-.07a2.87,2.87,0,0,0,2.68-.12,1.5,1.5,0,0,0,1,.66l2.35-1.12c.28.46-1.06.91.52,1.15,1.09-.52-1.05-1,.75-1.36,1.14.52.82,1,2.15.5.19.3-.08.49-.61.62,1.18-.33,3.15-.25,3.73-.91,1.22.59,4-.41,3.95.7a10.53,10.53,0,0,1,3.09-1.22c-1.84,1.54,4.06-.38,3.72,1.09,1.32-1.32,5.21-1.35,7.68-2.39-.13.11-.38.35-.61.32a14,14,0,0,1,2.91.12c0-1,2.19-1.68,3.26-2.52,2,.56-.82,1.35-.08,2.12-.13-.38.6-.73,1.26-1.05s1.25-.67.88-.92c1.46.24,1.21,0,2.09.61-.06-1.25,1.19-.51,2.11-1.52,2.07.09.8,1,2.8.06C162.69,200.72,160.94,201.68,160.94,201.68ZM208.3,181h0l-.93.49Zm3.88-1.88c-.48.21-1.07.48-1.7.79-.24-.15-.2-.45.2-.63C210.54,179.57,211.52,179.26,212.18,179.16Zm-10.29-.5c.57-.37.83-.34,1-.25l-1,.57s0,.08,0,.12A.85.85,0,0,1,201.89,178.66Z"/><path class="cls-2" d="M201.17,180c-.08.05-.12.1-.23.16l.43,0,.13-.3Z"/><path class="cls-2" d="M365.28,195.78l-.06.08a.73.73,0,0,1,.18-.14A.33.33,0,0,1,365.28,195.78Z"/><polygon class="cls-2" points="266.02 154.56 265.95 154.4 265.67 154.69 266.02 154.56"/><path class="cls-2" d="M384.34,184.52a.55.55,0,0,0,.28.19S384.49,184.6,384.34,184.52Z"/><path class="cls-2" d="M393.1,187.56l.93,1A10.46,10.46,0,0,0,393.1,187.56Z"/><path class="cls-2" d="M397.9,192.84a.71.71,0,0,0,.33-.05h0Z"/><path class="cls-2" d="M419.16,224.63l.2-.2C419.79,223.91,419.47,224.23,419.16,224.63Z"/><path class="cls-2" d="M385.78,231.39l1.2.05C386.38,231.23,385.93,231,385.78,231.39Z"/><path class="cls-2" d="M431.82,190.61s0,0,0,0a1.85,1.85,0,0,1,0-.23Z"/><path class="cls-2" d="M388.57,231.91a3.9,3.9,0,0,0-1.59-.47A5.83,5.83,0,0,0,388.57,231.91Z"/><path class="cls-2" d="M388.27,207.48a2.44,2.44,0,0,1-.06-.26.16.16,0,0,1-.12,0A1.59,1.59,0,0,0,388.27,207.48Z"/><path class="cls-2" d="M388.09,207.21l-.15-.28C388,207.07,388,207.19,388.09,207.21Z"/><path class="cls-2" d="M387.65,206.3a3,3,0,0,0,.29.63C387.88,206.71,387.86,206.43,387.65,206.3Z"/><path class="cls-2" d="M394,210.09v-.28A.45.45,0,0,0,394,210.09Z"/><path class="cls-2" d="M396.21,208.76c-.54.34-1.54.44-2.19.83v.22c.11-.26.57-.25,1.07-.38S396.11,209.11,396.21,208.76Z"/><path class="cls-2" d="M403.23,198.42a13.93,13.93,0,0,1,0,1.44l-.14,1.42c.28-.47.67-1.16.69.2.46-1.88.3-1.71.06-1.51s-.27.17-.37,0A5.57,5.57,0,0,1,403.23,198.42Z"/><path class="cls-2" d="M400.22,190.13c1,1.18.32-.24.49-.27C399.91,189.19,399.74,189.05,400.22,190.13Z"/><path class="cls-2" d="M364.39,214.82l-.65.09C364.24,216,364,214.83,364.39,214.82Z"/><path class="cls-2" d="M373.21,222.57c-.14-.34-.25-.69-.37-1l-.76,0C372.46,221.91,372.82,222.25,373.21,222.57Z"/><polygon class="cls-2" points="375.42 230.43 374.94 230.21 376.71 231.13 375.42 230.43"/><path class="cls-2" d="M434.05,177.93l-.55.66C434,179.22,434.86,179,434.05,177.93Z"/><path class="cls-2" d="M401.05,149.18a2.56,2.56,0,0,0-2.07-1.36C399.84,148.29,400.56,149,401.05,149.18Z"/><polygon class="cls-2" points="274.2 144.39 274.92 143.83 273.46 144.62 274.2 144.39"/></svg>